<?xml version="1.0" encoding="UTF-8" standalone="no"?>
<svg
   width="1433.4655pt"
   height="1134.3469pt"
   version="1.1"
   viewBox="0 0 1433.4655 1134.347"
   id="svg177"
   sodipodi:docname="life_cycle1.svg"
   inkscape:version="1.1.2 (0a00cf5339, 2022-02-04)"
   xmlns:inkscape="http://www.inkscape.org/namespaces/inkscape"
   xmlns:sodipodi="http://sodipodi.sourceforge.net/DTD/sodipodi-0.dtd"
   xmlns="http://www.w3.org/2000/svg"
   xmlns:svg="http://www.w3.org/2000/svg">
  <sodipodi:namedview
     id="namedview179"
     pagecolor="#ffffff"
     bordercolor="#666666"
     borderopacity="1.0"
     inkscape:pageshadow="2"
     inkscape:pageopacity="0.0"
     inkscape:pagecheckerboard="0"
     inkscape:document-units="pt"
     showgrid="false"
     fit-margin-top="1"
     lock-margins="true"
     fit-margin-left="1"
     fit-margin-right="1"
     fit-margin-bottom="1"
     showguides="true"
     inkscape:guide-bbox="true"
     inkscape:zoom="0.38517857"
     inkscape:cx="590.63514"
     inkscape:cy="993.0459"
     inkscape:window-width="2498"
     inkscape:window-height="1376"
     inkscape:window-x="0"
     inkscape:window-y="0"
     inkscape:window-maximized="1"
     inkscape:current-layer="g2440" />
  <defs
     id="defs65">
    <inkscape:path-effect
       effect="bspline"
       id="path-effect33980"
       is_visible="true"
       lpeversion="1"
       weight="33.333333"
       steps="2"
       helper_size="0"
       apply_no_weight="true"
       apply_with_weight="true"
       only_selected="false" />
    <marker
       style="overflow:visible"
       id="marker33968"
       refX="0"
       refY="0"
       orient="auto"
       inkscape:stockid="Arrow2Mend"
       inkscape:isstock="true">
      <path
         transform="scale(-0.6)"
         d="M 8.7185878,4.0337352 -2.2072895,0.01601326 8.7185884,-4.0017078 c -1.7454984,2.3720609 -1.7354408,5.6174519 -6e-7,8.035443 z"
         style="fill:context-stroke;fill-rule:evenodd;stroke:context-stroke;stroke-width:0.625;stroke-linejoin:round"
         id="path33966" />
    </marker>
    <inkscape:path-effect
       effect="bspline"
       id="path-effect33964"
       is_visible="true"
       lpeversion="1"
       weight="33.333333"
       steps="2"
       helper_size="0"
       apply_no_weight="true"
       apply_with_weight="true"
       only_selected="false" />
    <marker
       style="overflow:visible"
       id="Arrow2Mstart"
       refX="0"
       refY="0"
       orient="auto"
       inkscape:stockid="Arrow2Mstart"
       inkscape:isstock="true">
      <path
         transform="scale(0.6)"
         d="M 8.7185878,4.0337352 -2.2072895,0.01601326 8.7185884,-4.0017078 c -1.7454984,2.3720609 -1.7354408,5.6174519 -6e-7,8.035443 z"
         style="fill:context-stroke;fill-rule:evenodd;stroke:context-stroke;stroke-width:0.625;stroke-linejoin:round"
         id="path33600" />
    </marker>
    <inkscape:path-effect
       effect="bspline"
       id="path-effect33936"
       is_visible="true"
       lpeversion="1"
       weight="33.333333"
       steps="2"
       helper_size="0"
       apply_no_weight="true"
       apply_with_weight="true"
       only_selected="false" />
    <marker
       style="overflow:visible"
       id="Arrow2Mend"
       refX="0"
       refY="0"
       orient="auto"
       inkscape:stockid="Arrow2Mend"
       inkscape:isstock="true">
      <path
         transform="scale(-0.6)"
         d="M 8.7185878,4.0337352 -2.2072895,0.01601326 8.7185884,-4.0017078 c -1.7454984,2.3720609 -1.7354408,5.6174519 -6e-7,8.035443 z"
         style="fill:context-stroke;fill-rule:evenodd;stroke:context-stroke;stroke-width:0.625;stroke-linejoin:round"
         id="path33603" />
    </marker>
    <marker
       style="overflow:visible"
       id="Arrow2Lend"
       refX="0"
       refY="0"
       orient="auto"
       inkscape:stockid="Arrow2Lend"
       inkscape:isstock="true">
      <path
         transform="matrix(-1.1,0,0,-1.1,-1.1,0)"
         d="M 8.7185878,4.0337352 -2.2072895,0.01601326 8.7185884,-4.0017078 c -1.7454984,2.3720609 -1.7354408,5.6174519 -6e-7,8.035443 z"
         style="fill:context-stroke;fill-rule:evenodd;stroke:context-stroke;stroke-width:0.625;stroke-linejoin:round"
         id="path33597" />
    </marker>
    <inkscape:path-effect
       effect="bspline"
       id="path-effect33574"
       is_visible="true"
       lpeversion="1"
       weight="33.333333"
       steps="2"
       helper_size="0"
       apply_no_weight="true"
       apply_with_weight="true"
       only_selected="false" />
    <symbol
       id="u"
       overflow="visible">
      <path
         d="m 18.766,-1.125 c -0.96875,0.5 -1.9805,0.875 -3.0312,1.125 -1.043,0.25781 -2.1367,0.39062 -3.2812,0.39062 -3.3984,0 -6.0898,-0.94531 -8.0781,-2.8438 -1.9922,-1.9062 -2.9844,-4.4844 -2.9844,-7.7344 0,-3.2578 0.99219,-5.8359 2.9844,-7.7344 1.9883,-1.9062 4.6797,-2.8594 8.0781,-2.8594 1.1445,0 2.2383,0.13281 3.2812,0.39062 1.0508,0.25 2.0625,0.625 3.0312,1.125 v 4.2188 c -0.98047,-0.65625 -1.9453,-1.1406 -2.8906,-1.4531 -0.94922,-0.3125 -1.9492,-0.46875 -3,-0.46875 -1.875,0 -3.3516,0.60547 -4.4219,1.8125 -1.0742,1.1992 -1.6094,2.8555 -1.6094,4.9688 0,2.1055 0.53516,3.7617 1.6094,4.9688 1.0703,1.1992 2.5469,1.7969 4.4219,1.7969 1.0508,0 2.0508,-0.14844 3,-0.45312 0.94531,-0.3125 1.9102,-0.80078 2.8906,-1.4688 z"
         id="path2" />
    </symbol>
    <symbol
       id="c"
       overflow="visible">
      <path
         d="m 13.734,-11.141 c -0.4375,-0.19531 -0.87109,-0.34375 -1.2969,-0.4375 -0.41797,-0.10156 -0.83984,-0.15625 -1.2656,-0.15625 -1.2617,0 -2.2305,0.40625 -2.9062,1.2188 -0.67969,0.80469 -1.0156,1.9531 -1.0156,3.4531 v 7.0625 H 2.3591 v -15.312 h 4.8906 v 2.5156 c 0.625,-1 1.3438,-1.7266 2.1562,-2.1875 0.82031,-0.46875 1.8008,-0.70312 2.9375,-0.70312 0.16406,0 0.34375,0.01172 0.53125,0.03125 0.19531,0.01172 0.47656,0.03906 0.84375,0.07813 z"
         id="path5" />
    </symbol>
    <symbol
       id="b"
       overflow="visible">
      <path
         d="m 17.641,-7.7031 v 1.4062 H 6.188 c 0.125,1.1484 0.53906,2.0078 1.25,2.5781 0.70703,0.57422 1.7031,0.85938 2.9844,0.85938 1.0312,0 2.082,-0.14844 3.1562,-0.45312 1.082,-0.3125 2.1914,-0.77344 3.3281,-1.3906 v 3.7656 c -1.1562,0.4375 -2.3125,0.76562 -3.4688,0.98438 -1.1562,0.22656 -2.3125,0.34375 -3.4688,0.34375 -2.7734,0 -4.9297,-0.70312 -6.4688,-2.1094 -1.5312,-1.4062 -2.2969,-3.3789 -2.2969,-5.9219 0,-2.5 0.75391,-4.4609 2.2656,-5.8906 1.5078,-1.4375 3.582,-2.1562 6.2188,-2.1562 2.4062,0 4.332,0.73047 5.7812,2.1875 1.4453,1.4492 2.1719,3.3828 2.1719,5.7969 z m -5.0312,-1.625 c 0,-0.92578 -0.27344,-1.6719 -0.8125,-2.2344 -0.54297,-0.57031 -1.25,-0.85938 -2.125,-0.85938 -0.94922,0 -1.7188,0.26562 -2.3125,0.79688 -0.5937,0.53126 -0.96484,1.2969 -1.1094,2.2969 z"
         id="path8" />
    </symbol>
    <symbol
       id="a"
       overflow="visible">
      <path
         d="m 9.2188,-6.8906 c -1.0234,0 -1.793,0.17188 -2.3125,0.51562 -0.51172,0.34375 -0.76562,0.85547 -0.76562,1.5312 0,0.625 0.20703,1.1172 0.625,1.4688 0.41406,0.34375 0.98828,0.51562 1.7188,0.51562 0.92578,0 1.7031,-0.32812 2.3281,-0.98438 0.63281,-0.66406 0.95312,-1.4922 0.95312,-2.4844 v -0.5625 z m 7.4688,-1.8438 V 0 h -4.9219 v -2.2656 c -0.65625,0.92969 -1.3984,1.6055 -2.2188,2.0312 -0.82422,0.41406 -1.8242,0.625 -3,0.625 -1.5859,0 -2.8711,-0.45703 -3.8594,-1.375 -0.99219,-0.92578 -1.4844,-2.1289 -1.4844,-3.6094 0,-1.7891 0.61328,-3.1016 1.8438,-3.9375 1.2383,-0.84375 3.1797,-1.2656 5.8281,-1.2656 h 2.8906 v -0.39062 c 0,-0.76953 -0.30859,-1.332 -0.92188,-1.6875 -0.61719,-0.36328 -1.5703,-0.54688 -2.8594,-0.54688 -1.0547,0 -2.0312,0.10547 -2.9375,0.3125 -0.89844,0.21094 -1.7305,0.52344 -2.5,0.9375 v -3.7344 c 1.0391,-0.25 2.0859,-0.44141 3.1406,-0.57812 1.0625,-0.13281 2.125,-0.20312 3.1875,-0.20312 2.7578,0 4.75,0.54688 5.9688,1.6406 1.2266,1.0859 1.8438,2.8555 1.8438,5.3125 z"
         id="path11" />
    </symbol>
    <symbol
       id="d"
       overflow="visible">
      <path
         d="m 7.7031,-19.656 v 4.3438 H 12.75 v 3.5 H 7.7031 v 6.5 c 0,0.71094 0.14062,1.1875 0.42188,1.4375 0.28126,0.25 0.83594,0.375 1.6719,0.375 h 2.5156 v 3.5 h -4.1875 c -1.9375,0 -3.3125,-0.39844 -4.125,-1.2031 -0.80469,-0.8125 -1.2031,-2.1797 -1.2031,-4.1094 v -6.5 h -2.4219 v -3.5 h 2.4219 v -4.3438 z"
         id="path14" />
    </symbol>
    <symbol
       id="l"
       overflow="visible">
      <path
         d="m 12.766,-13.078 v -8.2031 h 4.9219 V -1e-4 H 12.766 v -2.2188 c -0.66797,0.90625 -1.4062,1.5703 -2.2188,1.9844 -0.8126,0.4141 -1.7578,0.625 -2.8281,0.625 -1.8867,0 -3.4336,-0.75 -4.6406,-2.25 -1.2109,-1.5 -1.8125,-3.4258 -1.8125,-5.7812 0,-2.3633 0.60156,-4.2969 1.8125,-5.7969 1.207,-1.5 2.7539,-2.25 4.6406,-2.25 1.0625,0 2,0.21484 2.8125,0.64062 0.82031,0.42969 1.5664,1.0859 2.2344,1.9688 z m -3.2188,9.9219 c 1.0391,0 1.8359,-0.37891 2.3906,-1.1406 0.55078,-0.76953 0.82812,-1.8828 0.82812,-3.3438 0,-1.457 -0.27734,-2.5664 -0.82812,-3.3281 -0.55469,-0.76953 -1.3516,-1.1562 -2.3906,-1.1562 -1.043,0 -1.8398,0.38672 -2.3906,1.1562 -0.55469,0.76172 -0.82812,1.8711 -0.82812,3.3281 0,1.4609 0.27344,2.5742 0.82812,3.3438 0.55078,0.76172 1.3477,1.1406 2.3906,1.1406 z"
         id="path17" />
    </symbol>
    <symbol
       id="k"
       overflow="visible">
      <path
         d="m 10.5,-3.1562 c 1.0508,0 1.8516,-0.37891 2.4062,-1.1406 0.55078,-0.76953 0.82812,-1.8828 0.82812,-3.3438 0,-1.457 -0.27734,-2.5664 -0.82812,-3.3281 -0.55469,-0.76953 -1.3555,-1.1562 -2.4062,-1.1562 -1.0547,0 -1.8594,0.38672 -2.4219,1.1562 -0.55469,0.77344 -0.82812,1.8828 -0.82812,3.3281 0,1.4492 0.27344,2.5586 0.82812,3.3281 0.5625,0.77344 1.3672,1.1562 2.4219,1.1562 z m -3.25,-9.9219 c 0.67578,-0.88281 1.4219,-1.5391 2.2344,-1.9688 0.82031,-0.42578 1.7656,-0.64062 2.8281,-0.64062 1.8945,0 3.4453,0.75 4.6562,2.25 1.207,1.5 1.8125,3.4336 1.8125,5.7969 0,2.3555 -0.60547,4.2812 -1.8125,5.7812 -1.2109,1.5 -2.7617,2.25 -4.6562,2.25 -1.0625,0 -2.0078,-0.21094 -2.8281,-0.625 C 8.6719,-0.6602 7.9258,-1.32032 7.25,-2.21882 V -2e-5 H 2.3594 v -21.281 H 7.25 Z"
         id="path20" />
    </symbol>
    <symbol
       id="f"
       overflow="visible">
      <path
         d="m 0.34375,-15.312 h 4.8906 l 4.125,10.391 3.5,-10.391 h 4.8906 l -6.4375,16.766 c -0.64844,1.6953 -1.4023,2.8828 -2.2656,3.5625 -0.86719,0.6875 -2,1.0312 -3.4062,1.0312 H 2.79685 V 2.8289 h 1.5312 c 0.83203,0 1.4375,-0.13672 1.8125,-0.40625 C 6.52336,2.16093 6.82024,1.69218 7.03117,1.01645 L 7.17179,0.59457 Z"
         id="path23" />
    </symbol>
    <symbol
       id="j"
       overflow="visible">
      <path
         d="m 2.5781,-20.406 h 6.6875 l 4.6562,10.922 4.6719,-10.922 h 6.6875 V 0 H 20.2968 V -14.938 L 15.5937,-3.922 H 12.2656 L 7.5625,-14.938 V 0 H 2.5781 Z"
         id="path26" />
    </symbol>
    <symbol
       id="t"
       overflow="visible">
      <path
         d="M 2.3594,-15.312 H 7.25 V 0 H 2.3594 Z m 0,-5.9688 H 7.25 v 4 H 2.3594 Z"
         id="path29" />
    </symbol>
    <symbol
       id="s"
       overflow="visible">
      <path
         d="m 1.5781,-20.406 h 17.156 v 3.1719 l -10.953,13.25 h 11.266 V 3e-4 H 1.2661 v -3.1875 l 10.938,-13.25 H 1.5791 Z"
         id="path32" />
    </symbol>
    <symbol
       id="i"
       overflow="visible">
      <path
         d="m 16.547,-12.766 c 0.61328,-0.94531 1.3477,-1.6719 2.2031,-2.1719 0.85156,-0.5 1.7891,-0.75 2.8125,-0.75 1.7578,0 3.0977,0.54688 4.0156,1.6406 0.92578,1.0859 1.3906,2.6562 1.3906,4.7188 V -4e-4 h -4.9219 v -7.9844 -0.35938 c 0.0078,-0.13281 0.01563,-0.32031 0.01563,-0.5625 0,-1.082 -0.16406,-1.8633 -0.48438,-2.3438 -0.3125,-0.48828 -0.82422,-0.73438 -1.5312,-0.73438 -0.92969,0 -1.6484,0.38672 -2.1562,1.1562 -0.51172,0.76172 -0.77344,1.8672 -0.78125,3.3125 v 7.5156 h -4.9219 v -7.9844 c 0,-1.6953 -0.14844,-2.7852 -0.4375,-3.2656 -0.29297,-0.48828 -0.8125,-0.73438 -1.5625,-0.73438 -0.9375,0 -1.6641,0.38672 -2.1719,1.1562 -0.51172,0.76172 -0.76562,1.8594 -0.76562,3.2969 v 7.5312 h -4.9219 v -15.312 h 4.9219 v 2.2344 c 0.60156,-0.86328 1.2891,-1.5156 2.0625,-1.9531 0.78125,-0.4375 1.6406,-0.65625 2.5781,-0.65625 1.0625,0 2,0.25781 2.8125,0.76562 0.8125,0.51172 1.4258,1.2305 1.8438,2.1562 z"
         id="path35" />
    </symbol>
    <symbol
       id="h"
       overflow="visible">
      <path
         d="m 14.719,-14.828 v 3.9844 c -0.65625,-0.45703 -1.3242,-0.79688 -2,-1.0156 -0.66797,-0.21875 -1.3594,-0.32812 -2.0781,-0.32812 -1.3672,0 -2.4336,0.40234 -3.2031,1.2031 -0.76172,0.79297 -1.1406,1.9062 -1.1406,3.3438 0,1.4297 0.37891,2.543 1.1406,3.3438 0.76953,0.79297 1.8359,1.1875 3.2031,1.1875 0.75781,0 1.4844,-0.10938 2.1719,-0.32812 0.6875,-0.22656 1.3203,-0.56641 1.9062,-1.0156 v 4 c -0.76172,0.28125 -1.5391,0.48828 -2.3281,0.625 -0.78125,0.14453 -1.5742,0.21875 -2.375,0.21875 -2.7617,0 -4.9219,-0.70703 -6.4844,-2.125 -1.5547,-1.4141 -2.3281,-3.3828 -2.3281,-5.9062 0,-2.5312 0.77344,-4.5039 2.3281,-5.9219 1.5625,-1.4141 3.7227,-2.125 6.4844,-2.125 0.80078,0 1.5938,0.07422 2.375,0.21875 0.78125,0.13672 1.5547,0.35156 2.3281,0.64062 z"
         id="path38" />
    </symbol>
    <symbol
       id="g"
       overflow="visible">
      <path
         d="M 17.75,-9.3281 V 0 h -4.9219 v -7.1094 c 0,-1.3438 -0.03125,-2.2656 -0.09375,-2.7656 -0.0625,-0.5 -0.16797,-0.86719 -0.3125,-1.1094 -0.1875,-0.3125 -0.44922,-0.55469 -0.78125,-0.73438 -0.32422,-0.17578 -0.69531,-0.26562 -1.1094,-0.26562 -1.0234,0 -1.8242,0.39844 -2.4062,1.1875 -0.58594,0.78125 -0.875,1.8711 -0.875,3.2656 V -1e-4 H 2.3594 v -21.281 H 7.25 v 8.2031 c 0.73828,-0.88281 1.5195,-1.5391 2.3438,-1.9688 0.83203,-0.42578 1.75,-0.64062 2.75,-0.64062 1.7695,0 3.1133,0.54688 4.0312,1.6406 0.91406,1.0859 1.375,2.6562 1.375,4.7188 z"
         id="path41" />
    </symbol>
    <symbol
       id="r"
       overflow="visible">
      <path
         d="m 12.422,-21.281 v 3.2188 H 9.7189 c -0.6875,0 -1.1719,0.125 -1.4531,0.375 -0.27344,0.25 -0.40625,0.6875 -0.40625,1.3125 v 1.0625 h 4.1875 v 3.5 H 7.85955 V -2e-4 h -4.8906 v -11.812 h -2.4375 v -3.5 h 2.4375 v -1.0625 c 0,-1.6641 0.46094,-2.8984 1.3906,-3.7031 0.92578,-0.80078 2.3672,-1.2031 4.3281,-1.2031 z"
         id="path44" />
    </symbol>
    <symbol
       id="e"
       overflow="visible">
      <path
         d="m 9.6406,-12.188 c -1.0859,0 -1.9141,0.39062 -2.4844,1.1719 -0.57422,0.78125 -0.85938,1.9062 -0.85938,3.375 0,1.4688 0.28516,2.5938 0.85938,3.375 0.57031,0.77344 1.3984,1.1562 2.4844,1.1562 1.0625,0 1.875,-0.38281 2.4375,-1.1562 0.57031,-0.78125 0.85938,-1.9062 0.85938,-3.375 0,-1.4688 -0.28906,-2.5938 -0.85938,-3.375 -0.5625,-0.78125 -1.375,-1.1719 -2.4375,-1.1719 z m 0,-3.5 c 2.6328,0 4.6914,0.71484 6.1719,2.1406 1.4766,1.418 2.2188,3.3867 2.2188,5.9062 0,2.5117 -0.74219,4.4805 -2.2188,5.9062 C 14.332,-0.317 12.2734,0.39 9.6406,0.39 6.9922,0.39 4.9258,-0.31703 3.4375,-1.735 1.9453,-3.1608 1.2031,-5.1295 1.2031,-7.6412 c 0,-2.5195 0.74219,-4.4883 2.2344,-5.9062 1.4883,-1.4258 3.5547,-2.1406 6.2031,-2.1406 z"
         id="path47" />
    </symbol>
    <symbol
       id="q"
       overflow="visible">
      <path
         d="m 2.5781,-20.406 h 5.875 l 7.4219,14 v -14 h 4.9844 V 0 h -5.875 L 7.5625,-14 V 0 H 2.5781 Z"
         id="path50" />
    </symbol>
    <symbol
       id="p"
       overflow="visible">
      <path
         d="m 2.1875,-5.9688 v -9.3438 h 4.9219 v 1.5312 c 0,0.83594 -0.00781,1.875 -0.015625,3.125 -0.011719,1.25 -0.015625,2.0859 -0.015625,2.5 0,1.2422 0.03125,2.1328 0.09375,2.6719 0.070313,0.54297 0.17969,0.93359 0.32812,1.1719 0.20703,0.32422 0.47266,0.57422 0.79688,0.75 0.32031,0.16797 0.69141,0.25 1.1094,0.25 1.0195,0 1.8203,-0.39062 2.4062,-1.1719 0.58203,-0.78125 0.875,-1.8672 0.875,-3.2656 v -7.5625 h 4.8906 V -6e-4 H 12.6875 V -2.2194 C 11.94531,-1.32096 11.1641,-0.6608 10.3437,-0.235 9.51948,0.17906 8.6093,0.39 7.6093,0.39 5.8476,0.39 4.5038,-0.14906 3.5781,-1.235 2.64841,-2.317 2.1875,-3.8952 2.1875,-5.9694 Z"
         id="path53" />
    </symbol>
    <symbol
       id="o"
       overflow="visible">
      <path
         d="M 17.75,-9.3281 V 0 h -4.9219 v -7.1406 c 0,-1.3203 -0.03125,-2.2344 -0.09375,-2.7344 -0.0625,-0.5 -0.16797,-0.86719 -0.3125,-1.1094 -0.1875,-0.3125 -0.44922,-0.55469 -0.78125,-0.73438 -0.32422,-0.17578 -0.69531,-0.26562 -1.1094,-0.26562 -1.0234,0 -1.8242,0.39844 -2.4062,1.1875 -0.58594,0.78125 -0.875,1.8711 -0.875,3.2656 V -1e-4 H 2.3594 v -15.312 H 7.25 v 2.2344 c 0.73828,-0.88281 1.5195,-1.5391 2.3438,-1.9688 0.83203,-0.42578 1.75,-0.64062 2.75,-0.64062 1.7695,0 3.1133,0.54688 4.0312,1.6406 0.91406,1.0859 1.375,2.6562 1.375,4.7188 z"
         id="path56" />
    </symbol>
    <symbol
       id="n"
       overflow="visible">
      <path
         d="m 2.5781,-20.406 h 8.7344 c 2.5938,0 4.582,0.57812 5.9688,1.7344 1.3945,1.1484 2.0938,2.7891 2.0938,4.9219 0,2.1367 -0.69922,3.7812 -2.0938,4.9375 -1.3867,1.1562 -3.375,1.7344 -5.9688,1.7344 H 7.8281 V 3e-4 h -5.25 z m 5.25,3.8125 v 5.7031 H 10.75 c 1.0195,0 1.8047,-0.25 2.3594,-0.75 0.5625,-0.5 0.84375,-1.2031 0.84375,-2.1094 0,-0.91406 -0.28125,-1.6172 -0.84375,-2.1094 -0.55469,-0.48828 -1.3398,-0.73438 -2.3594,-0.73438 z"
         id="path59" />
    </symbol>
    <symbol
       id="m"
       overflow="visible">
      <path
         d="M 2.3594,-15.312 H 7.25 v 15.031 c 0,2.0508 -0.49609,3.6172 -1.4844,4.7031 -0.98047,1.082 -2.4062,1.625 -4.2812,1.625 H -0.9375 V 2.8283 h 0.85938 c 0.92578,0 1.5625,-0.21094 1.9062,-0.625 0.35156,-0.41797 0.53125,-1.2461 0.53125,-2.4844 z m 0,-5.9688 H 7.25 v 4 H 2.3594 Z"
         id="path62" />
    </symbol>
    <symbol
       id="w"
       overflow="visible">
      <path
         d="m 18.766,-1.125 c -0.96875,0.5 -1.9805,0.875 -3.0312,1.125 -1.043,0.25781 -2.1367,0.39062 -3.2812,0.39062 -3.3984,0 -6.0898,-0.94531 -8.0781,-2.8438 -1.9922,-1.9062 -2.9844,-4.4844 -2.9844,-7.7344 0,-3.2578 0.99219,-5.8359 2.9844,-7.7344 1.9883,-1.9062 4.6797,-2.8594 8.0781,-2.8594 1.1445,0 2.2383,0.13281 3.2812,0.39062 1.0508,0.25 2.0625,0.625 3.0312,1.125 v 4.2188 c -0.98047,-0.65625 -1.9453,-1.1406 -2.8906,-1.4531 -0.94922,-0.3125 -1.9492,-0.46875 -3,-0.46875 -1.875,0 -3.3516,0.60547 -4.4219,1.8125 -1.0742,1.1992 -1.6094,2.8555 -1.6094,4.9688 0,2.1055 0.53516,3.7617 1.6094,4.9688 1.0703,1.1992 2.5469,1.7969 4.4219,1.7969 1.0508,0 2.0508,-0.14844 3,-0.45312 0.94531,-0.3125 1.9102,-0.80078 2.8906,-1.4688 z"
         id="path2255" />
    </symbol>
    <symbol
       id="b-8"
       overflow="visible">
      <path
         d="m 13.734,-11.141 c -0.4375,-0.19531 -0.87109,-0.34375 -1.2969,-0.4375 -0.41797,-0.10156 -0.83984,-0.15625 -1.2656,-0.15625 -1.2617,0 -2.2305,0.40625 -2.9062,1.2188 -0.67969,0.80469 -1.0156,1.9531 -1.0156,3.4531 v 7.0625 H 2.3591 v -15.312 h 4.8906 v 2.5156 c 0.625,-1 1.3438,-1.7266 2.1562,-2.1875 0.82031,-0.46875 1.8008,-0.70312 2.9375,-0.70312 0.16406,0 0.34375,0.01172 0.53125,0.03125 0.19531,0.01172 0.47656,0.03906 0.84375,0.07813 z"
         id="path2258" />
    </symbol>
    <symbol
       id="a-7"
       overflow="visible">
      <path
         d="m 17.641,-7.7031 v 1.4062 H 6.188 c 0.125,1.1484 0.53906,2.0078 1.25,2.5781 0.70703,0.57422 1.7031,0.85938 2.9844,0.85938 1.0312,0 2.082,-0.14844 3.1562,-0.45312 1.082,-0.3125 2.1914,-0.77344 3.3281,-1.3906 v 3.7656 c -1.1562,0.4375 -2.3125,0.76562 -3.4688,0.98438 -1.1562,0.22656 -2.3125,0.34375 -3.4688,0.34375 -2.7734,0 -4.9297,-0.70312 -6.4688,-2.1094 -1.5312,-1.4062 -2.2969,-3.3789 -2.2969,-5.9219 0,-2.5 0.75391,-4.4609 2.2656,-5.8906 1.5078,-1.4375 3.582,-2.1562 6.2188,-2.1562 2.4062,0 4.332,0.73047 5.7812,2.1875 1.4453,1.4492 2.1719,3.3828 2.1719,5.7969 z m -5.0312,-1.625 c 0,-0.92578 -0.27344,-1.6719 -0.8125,-2.2344 -0.54297,-0.57031 -1.25,-0.85938 -2.125,-0.85938 -0.94922,0 -1.7188,0.26562 -2.3125,0.79688 -0.5937,0.53126 -0.96484,1.2969 -1.1094,2.2969 z"
         id="path2261" />
    </symbol>
    <symbol
       id="e-9"
       overflow="visible">
      <path
         d="m 9.2188,-6.8906 c -1.0234,0 -1.793,0.17188 -2.3125,0.51562 -0.51172,0.34375 -0.76562,0.85547 -0.76562,1.5312 0,0.625 0.20703,1.1172 0.625,1.4688 0.41406,0.34375 0.98828,0.51562 1.7188,0.51562 0.92578,0 1.7031,-0.32812 2.3281,-0.98438 0.63281,-0.66406 0.95312,-1.4922 0.95312,-2.4844 v -0.5625 z m 7.4688,-1.8438 V 0 h -4.9219 v -2.2656 c -0.65625,0.92969 -1.3984,1.6055 -2.2188,2.0312 -0.82422,0.41406 -1.8242,0.625 -3,0.625 -1.5859,0 -2.8711,-0.45703 -3.8594,-1.375 -0.99219,-0.92578 -1.4844,-2.1289 -1.4844,-3.6094 0,-1.7891 0.61328,-3.1016 1.8438,-3.9375 1.2383,-0.84375 3.1797,-1.2656 5.8281,-1.2656 h 2.8906 v -0.39062 c 0,-0.76953 -0.30859,-1.332 -0.92188,-1.6875 -0.61719,-0.36328 -1.5703,-0.54688 -2.8594,-0.54688 -1.0547,0 -2.0312,0.10547 -2.9375,0.3125 -0.89844,0.21094 -1.7305,0.52344 -2.5,0.9375 v -3.7344 c 1.0391,-0.25 2.0859,-0.44141 3.1406,-0.57812 1.0625,-0.13281 2.125,-0.20312 3.1875,-0.20312 2.7578,0 4.75,0.54688 5.9688,1.6406 1.2266,1.0859 1.8438,2.8555 1.8438,5.3125 z"
         id="path2264" />
    </symbol>
    <symbol
       id="d-2"
       overflow="visible">
      <path
         d="m 7.7031,-19.656 v 4.3438 H 12.75 v 3.5 H 7.7031 v 6.5 c 0,0.71094 0.14062,1.1875 0.42188,1.4375 0.28126,0.25 0.83594,0.375 1.6719,0.375 h 2.5156 v 3.5 h -4.1875 c -1.9375,0 -3.3125,-0.39844 -4.125,-1.2031 -0.80469,-0.8125 -1.2031,-2.1797 -1.2031,-4.1094 v -6.5 h -2.4219 v -3.5 h 2.4219 v -4.3438 z"
         id="path2267" />
    </symbol>
    <symbol
       id="g-0"
       overflow="visible">
      <path
         d="m 12.766,-13.078 v -8.2031 h 4.9219 V -1e-4 H 12.766 v -2.2188 c -0.66797,0.90625 -1.4062,1.5703 -2.2188,1.9844 -0.8126,0.4141 -1.7578,0.625 -2.8281,0.625 -1.8867,0 -3.4336,-0.75 -4.6406,-2.25 -1.2109,-1.5 -1.8125,-3.4258 -1.8125,-5.7812 0,-2.3633 0.60156,-4.2969 1.8125,-5.7969 1.207,-1.5 2.7539,-2.25 4.6406,-2.25 1.0625,0 2,0.21484 2.8125,0.64062 0.82031,0.42969 1.5664,1.0859 2.2344,1.9688 z m -3.2188,9.9219 c 1.0391,0 1.8359,-0.37891 2.3906,-1.1406 0.55078,-0.76953 0.82812,-1.8828 0.82812,-3.3438 0,-1.457 -0.27734,-2.5664 -0.82812,-3.3281 -0.55469,-0.76953 -1.3516,-1.1562 -2.3906,-1.1562 -1.043,0 -1.8398,0.38672 -2.3906,1.1562 -0.55469,0.76172 -0.82812,1.8711 -0.82812,3.3281 0,1.4609 0.27344,2.5742 0.82812,3.3438 0.55078,0.76172 1.3477,1.1406 2.3906,1.1406 z"
         id="path2270" />
    </symbol>
    <symbol
       id="k-2"
       overflow="visible">
      <path
         d="m 10.5,-3.1562 c 1.0508,0 1.8516,-0.37891 2.4062,-1.1406 0.55078,-0.76953 0.82812,-1.8828 0.82812,-3.3438 0,-1.457 -0.27734,-2.5664 -0.82812,-3.3281 -0.55469,-0.76953 -1.3555,-1.1562 -2.4062,-1.1562 -1.0547,0 -1.8594,0.38672 -2.4219,1.1562 -0.55469,0.77344 -0.82812,1.8828 -0.82812,3.3281 0,1.4492 0.27344,2.5586 0.82812,3.3281 0.5625,0.77344 1.3672,1.1562 2.4219,1.1562 z m -3.25,-9.9219 c 0.67578,-0.88281 1.4219,-1.5391 2.2344,-1.9688 0.82031,-0.42578 1.7656,-0.64062 2.8281,-0.64062 1.8945,0 3.4453,0.75 4.6562,2.25 1.207,1.5 1.8125,3.4336 1.8125,5.7969 0,2.3555 -0.60547,4.2812 -1.8125,5.7812 -1.2109,1.5 -2.7617,2.25 -4.6562,2.25 -1.0625,0 -2.0078,-0.21094 -2.8281,-0.625 C 8.6719,-0.6602 7.9258,-1.32032 7.25,-2.21882 V -2e-5 H 2.3594 v -21.281 H 7.25 Z"
         id="path2273" />
    </symbol>
    <symbol
       id="j-3"
       overflow="visible">
      <path
         d="m 0.34375,-15.312 h 4.8906 l 4.125,10.391 3.5,-10.391 h 4.8906 l -6.4375,16.766 c -0.64844,1.6953 -1.4023,2.8828 -2.2656,3.5625 -0.86719,0.6875 -2,1.0312 -3.4062,1.0312 H 2.79685 V 2.8289 h 1.5312 c 0.83203,0 1.4375,-0.13672 1.8125,-0.40625 C 6.52336,2.16093 6.82024,1.69218 7.03117,1.01645 L 7.17179,0.59457 Z"
         id="path2276" />
    </symbol>
    <symbol
       id="i-7"
       overflow="visible">
      <path
         d="m 2.5781,-20.406 h 6.6875 l 4.6562,10.922 4.6719,-10.922 h 6.6875 V 0 H 20.2968 V -14.938 L 15.5937,-3.922 H 12.2656 L 7.5625,-14.938 V 0 H 2.5781 Z"
         id="path2279" />
    </symbol>
    <symbol
       id="v"
       overflow="visible">
      <path
         d="M 2.3594,-15.312 H 7.25 V 0 H 2.3594 Z m 0,-5.9688 H 7.25 v 4 H 2.3594 Z"
         id="path2282" />
    </symbol>
    <symbol
       id="u-5"
       overflow="visible">
      <path
         d="m 0.14062,-20.406 h 5.2812 l 5.4219,15.062 5.4062,-15.062 h 5.2812 L 13.96862,0 h -6.2656 z"
         id="path2285" />
    </symbol>
    <symbol
       id="f-9"
       overflow="visible">
      <path
         d="M 17.75,-9.3281 V 0 h -4.9219 v -7.1406 c 0,-1.3203 -0.03125,-2.2344 -0.09375,-2.7344 -0.0625,-0.5 -0.16797,-0.86719 -0.3125,-1.1094 -0.1875,-0.3125 -0.44922,-0.55469 -0.78125,-0.73438 -0.32422,-0.17578 -0.69531,-0.26562 -1.1094,-0.26562 -1.0234,0 -1.8242,0.39844 -2.4062,1.1875 -0.58594,0.78125 -0.875,1.8711 -0.875,3.2656 V -1e-4 H 2.3594 v -15.312 H 7.25 v 2.2344 c 0.73828,-0.88281 1.5195,-1.5391 2.3438,-1.9688 0.83203,-0.42578 1.75,-0.64062 2.75,-0.64062 1.7695,0 3.1133,0.54688 4.0312,1.6406 0.91406,1.0859 1.375,2.6562 1.375,4.7188 z"
         id="path2288" />
    </symbol>
    <symbol
       id="t-2"
       overflow="visible">
      <path
         d="m 10.75,-12.516 c 0.82031,0 1.4453,-0.17969 1.875,-0.54688 0.4375,-0.36328 0.65625,-0.89844 0.65625,-1.6094 0,-0.69531 -0.21875,-1.2266 -0.65625,-1.5938 -0.42969,-0.375 -1.0547,-0.5625 -1.875,-0.5625 H 7.8281 v 4.3125 z m 0.17188,8.9375 c 1.0625,0 1.8594,-0.22266 2.3906,-0.67188 0.53125,-0.44531 0.79688,-1.125 0.79688,-2.0312 0,-0.88281 -0.26562,-1.5469 -0.79688,-1.9844 -0.52344,-0.4375 -1.3203,-0.65625 -2.3906,-0.65625 h -3.0938 v 5.3438 z m 4.8906,-7.3438 c 1.1328,0.32422 2.0078,0.92969 2.625,1.8125 0.625,0.88672 0.9375,1.9688 0.9375,3.25 0,1.9688 -0.66797,3.4375 -2,4.4062 -1.3359,0.96875 -3.3555,1.4531 -6.0625,1.4531 h -8.7344 v -20.406 h 7.8906 c 2.832,0 4.8828,0.42969 6.1562,1.2812 1.2812,0.85547 1.9219,2.2266 1.9219,4.1094 0,1 -0.23438,1.8516 -0.70312,2.5469 -0.46875,0.6875 -1.1484,1.2031 -2.0312,1.5469 z"
         id="path2291" />
    </symbol>
    <symbol
       id="c-2"
       overflow="visible">
      <path
         d="m 9.6406,-12.188 c -1.0859,0 -1.9141,0.39062 -2.4844,1.1719 -0.57422,0.78125 -0.85938,1.9062 -0.85938,3.375 0,1.4688 0.28516,2.5938 0.85938,3.375 0.57031,0.77344 1.3984,1.1562 2.4844,1.1562 1.0625,0 1.875,-0.38281 2.4375,-1.1562 0.57031,-0.78125 0.85938,-1.9062 0.85938,-3.375 0,-1.4688 -0.28906,-2.5938 -0.85938,-3.375 -0.5625,-0.78125 -1.375,-1.1719 -2.4375,-1.1719 z m 0,-3.5 c 2.6328,0 4.6914,0.71484 6.1719,2.1406 1.4766,1.418 2.2188,3.3867 2.2188,5.9062 0,2.5117 -0.74219,4.4805 -2.2188,5.9062 C 14.332,-0.317 12.2734,0.39 9.6406,0.39 6.9922,0.39 4.9258,-0.31703 3.4375,-1.735 1.9453,-3.1608 1.2031,-5.1295 1.2031,-7.6412 c 0,-2.5195 0.74219,-4.4883 2.2344,-5.9062 1.4883,-1.4258 3.5547,-2.1406 6.2031,-2.1406 z"
         id="path2294" />
    </symbol>
    <symbol
       id="h-8"
       overflow="visible">
      <path
         d="m 14.719,-14.828 v 3.9844 c -0.65625,-0.45703 -1.3242,-0.79688 -2,-1.0156 -0.66797,-0.21875 -1.3594,-0.32812 -2.0781,-0.32812 -1.3672,0 -2.4336,0.40234 -3.2031,1.2031 -0.76172,0.79297 -1.1406,1.9062 -1.1406,3.3438 0,1.4297 0.37891,2.543 1.1406,3.3438 0.76953,0.79297 1.8359,1.1875 3.2031,1.1875 0.75781,0 1.4844,-0.10938 2.1719,-0.32812 0.6875,-0.22656 1.3203,-0.56641 1.9062,-1.0156 v 4 c -0.76172,0.28125 -1.5391,0.48828 -2.3281,0.625 -0.78125,0.14453 -1.5742,0.21875 -2.375,0.21875 -2.7617,0 -4.9219,-0.70703 -6.4844,-2.125 -1.5547,-1.4141 -2.3281,-3.3828 -2.3281,-5.9062 0,-2.5312 0.77344,-4.5039 2.3281,-5.9219 1.5625,-1.4141 3.7227,-2.125 6.4844,-2.125 0.80078,0 1.5938,0.07422 2.375,0.21875 0.78125,0.13672 1.5547,0.35156 2.3281,0.64062 z"
         id="path2297" />
    </symbol>
    <symbol
       id="s-9"
       overflow="visible">
      <path
         d="M 2.3594,-21.281 H 7.25 v 11.594 l 5.625,-5.625 h 5.6875 L 11.0937,-8.2808 19.1562,4e-4 H 13.2187 L 7.2499,-6.3902 V 4e-4 H 2.3593 Z"
         id="path2300" />
    </symbol>
    <symbol
       id="r-7"
       overflow="visible">
      <path
         d="m 12.422,-21.281 v 3.2188 H 9.7189 c -0.6875,0 -1.1719,0.125 -1.4531,0.375 -0.27344,0.25 -0.40625,0.6875 -0.40625,1.3125 v 1.0625 h 4.1875 v 3.5 H 7.85955 V -2e-4 h -4.8906 v -11.812 h -2.4375 v -3.5 h 2.4375 v -1.0625 c 0,-1.6641 0.46094,-2.8984 1.3906,-3.7031 0.92578,-0.80078 2.3672,-1.2031 4.3281,-1.2031 z"
         id="path2303" />
    </symbol>
    <symbol
       id="q-3"
       overflow="visible">
      <path
         d="m 16.547,-12.766 c 0.61328,-0.94531 1.3477,-1.6719 2.2031,-2.1719 0.85156,-0.5 1.7891,-0.75 2.8125,-0.75 1.7578,0 3.0977,0.54688 4.0156,1.6406 0.92578,1.0859 1.3906,2.6562 1.3906,4.7188 V -4e-4 h -4.9219 v -7.9844 -0.35938 c 0.0078,-0.13281 0.01563,-0.32031 0.01563,-0.5625 0,-1.082 -0.16406,-1.8633 -0.48438,-2.3438 -0.3125,-0.48828 -0.82422,-0.73438 -1.5312,-0.73438 -0.92969,0 -1.6484,0.38672 -2.1562,1.1562 -0.51172,0.76172 -0.77344,1.8672 -0.78125,3.3125 v 7.5156 h -4.9219 v -7.9844 c 0,-1.6953 -0.14844,-2.7852 -0.4375,-3.2656 -0.29297,-0.48828 -0.8125,-0.73438 -1.5625,-0.73438 -0.9375,0 -1.6641,0.38672 -2.1719,1.1562 -0.51172,0.76172 -0.76562,1.8594 -0.76562,3.2969 v 7.5312 h -4.9219 v -15.312 h 4.9219 v 2.2344 c 0.60156,-0.86328 1.2891,-1.5156 2.0625,-1.9531 0.78125,-0.4375 1.6406,-0.65625 2.5781,-0.65625 1.0625,0 2,0.25781 2.8125,0.76562 0.8125,0.51172 1.4258,1.2305 1.8438,2.1562 z"
         id="path2306" />
    </symbol>
    <symbol
       id="p-6"
       overflow="visible">
      <path
         d="M 17.75,-9.3281 V 0 h -4.9219 v -7.1094 c 0,-1.3438 -0.03125,-2.2656 -0.09375,-2.7656 -0.0625,-0.5 -0.16797,-0.86719 -0.3125,-1.1094 -0.1875,-0.3125 -0.44922,-0.55469 -0.78125,-0.73438 -0.32422,-0.17578 -0.69531,-0.26562 -1.1094,-0.26562 -1.0234,0 -1.8242,0.39844 -2.4062,1.1875 -0.58594,0.78125 -0.875,1.8711 -0.875,3.2656 V -1e-4 H 2.3594 v -21.281 H 7.25 v 8.2031 c 0.73828,-0.88281 1.5195,-1.5391 2.3438,-1.9688 0.83203,-0.42578 1.75,-0.64062 2.75,-0.64062 1.7695,0 3.1133,0.54688 4.0312,1.6406 0.91406,1.0859 1.375,2.6562 1.375,4.7188 z"
         id="path2309" />
    </symbol>
    <symbol
       id="o-1"
       overflow="visible">
      <path
         d="m 2.5781,-20.406 h 5.875 l 7.4219,14 v -14 h 4.9844 V 0 h -5.875 L 7.5625,-14 V 0 H 2.5781 Z"
         id="path2312" />
    </symbol>
    <symbol
       id="n-2"
       overflow="visible">
      <path
         d="m 2.1875,-5.9688 v -9.3438 h 4.9219 v 1.5312 c 0,0.83594 -0.00781,1.875 -0.015625,3.125 -0.011719,1.25 -0.015625,2.0859 -0.015625,2.5 0,1.2422 0.03125,2.1328 0.09375,2.6719 0.070313,0.54297 0.17969,0.93359 0.32812,1.1719 0.20703,0.32422 0.47266,0.57422 0.79688,0.75 0.32031,0.16797 0.69141,0.25 1.1094,0.25 1.0195,0 1.8203,-0.39062 2.4062,-1.1719 0.58203,-0.78125 0.875,-1.8672 0.875,-3.2656 v -7.5625 h 4.8906 V -6e-4 H 12.6875 V -2.2194 C 11.94531,-1.32096 11.1641,-0.6608 10.3437,-0.235 9.51948,0.17906 8.6093,0.39 7.6093,0.39 5.8476,0.39 4.5038,-0.14906 3.5781,-1.235 2.64841,-2.317 2.1875,-3.8952 2.1875,-5.9694 Z"
         id="path2315" />
    </symbol>
    <symbol
       id="m-9"
       overflow="visible">
      <path
         d="m 2.5781,-20.406 h 8.7344 c 2.5938,0 4.582,0.57812 5.9688,1.7344 1.3945,1.1484 2.0938,2.7891 2.0938,4.9219 0,2.1367 -0.69922,3.7812 -2.0938,4.9375 -1.3867,1.1562 -3.375,1.7344 -5.9688,1.7344 H 7.8281 V 3e-4 h -5.25 z m 5.25,3.8125 v 5.7031 H 10.75 c 1.0195,0 1.8047,-0.25 2.3594,-0.75 0.5625,-0.5 0.84375,-1.2031 0.84375,-2.1094 0,-0.91406 -0.28125,-1.6172 -0.84375,-2.1094 -0.55469,-0.48828 -1.3398,-0.73438 -2.3594,-0.73438 z"
         id="path2318" />
    </symbol>
    <symbol
       id="l-3"
       overflow="visible">
      <path
         d="M 2.3594,-15.312 H 7.25 v 15.031 c 0,2.0508 -0.49609,3.6172 -1.4844,4.7031 -0.98047,1.082 -2.4062,1.625 -4.2812,1.625 H -0.9375 V 2.8283 h 0.85938 c 0.92578,0 1.5625,-0.21094 1.9062,-0.625 0.35156,-0.41797 0.53125,-1.2461 0.53125,-2.4844 z m 0,-5.9688 H 7.25 v 4 H 2.3594 Z"
         id="path2321" />
    </symbol>
    <symbol
       id="t-1"
       overflow="visible">
      <path
         d="M 3.2344,-0.1875 C 3.06643,-0.101562 2.89065,-0.03906 2.70315,0 2.52346,0.039062 2.33596,0.0625 2.14065,0.0625 c -0.58594,0 -1.0469,-0.16016 -1.3906,-0.48438 -0.34375,-0.33203 -0.51562,-0.77344 -0.51562,-1.3281 0,-0.5625 0.17188,-1.0039 0.51562,-1.3281 0.34375,-0.33203 0.80469,-0.5 1.3906,-0.5 0.19531,0 0.38281,0.023437 0.5625,0.0625 0.1875,0.042969 0.36328,0.10547 0.53125,0.1875 v 0.73438 c -0.16797,-0.11328 -0.33594,-0.19531 -0.5,-0.25 -0.16797,-0.050781 -0.33984,-0.078125 -0.51562,-0.078125 -0.32422,0 -0.57812,0.10547 -0.76562,0.3125 -0.1875,0.21094 -0.28125,0.49609 -0.28125,0.85938 0,0.35547 0.09375,0.63672 0.28125,0.84375 0.1875,0.21094 0.44141,0.3125 0.76562,0.3125 0.17578,0 0.34766,-0.023438 0.51562,-0.078125 0.16406,-0.050781 0.33203,-0.13281 0.5,-0.25 z"
         id="path3262" />
    </symbol>
    <symbol
       id="b-9"
       overflow="visible">
      <path
         d="M 2.3594,-1.9219 C 2.285181,-1.95315 2.21096,-1.972681 2.14065,-1.9844 2.066431,-2.003931 1.99221,-2.01565 1.9219,-2.01565 c -0.21875,0 -0.38672,0.070313 -0.5,0.20312 -0.11719,0.13672 -0.17188,0.33594 -0.17188,0.59375 V 2e-5 H 0.40627 v -2.6406 h 0.84375 v 0.4375 c 0.10156,-0.17578 0.22266,-0.30078 0.35938,-0.375 0.14453,-0.082031 0.31641,-0.125 0.51562,-0.125 h 0.09375 c 0.03125,0 0.078125,0.00781 0.14062,0.015625 z"
         id="path3265" />
    </symbol>
    <symbol
       id="a-4"
       overflow="visible">
      <path
         d="m 3.0469,-1.3281 v 0.23438 H 1.0625 c 0.019531,0.19922 0.09375,0.35156 0.21875,0.45312 0.125,0.09375 0.29688,0.14062 0.51562,0.14062 0.17578,0 0.35938,-0.023438 0.54688,-0.078125 0.1875,-0.050781 0.37891,-0.12891 0.57812,-0.23438 v 0.65625 c -0.21094,0.074219 -0.41406,0.125 -0.60938,0.15625 -0.19922,0.039062 -0.39844,0.0625 -0.59375,0.0625 -0.48047,0 -0.85547,-0.11719 -1.125,-0.35938 -0.26172,-0.23828 -0.39062,-0.57812 -0.39062,-1.0156 0,-0.43748 0.12891,-0.77344 0.39062,-1.0156 0.25781,-0.25 0.61719,-0.375 1.0781,-0.375 0.41406,0 0.75,0.125 1,0.375 0.25,0.25 0.375,0.58594 0.375,1 z m -0.875,-0.28125 c 0,-0.15625 -0.046875,-0.28125 -0.14062,-0.375 C 1.93753,-2.08591 1.81644,-2.1406 1.6719,-2.1406 c -0.16797,0 -0.30469,0.046875 -0.40625,0.14062 -0.10547,0.09375 -0.16797,0.22656 -0.1875,0.39062 z"
         id="path3268" />
    </symbol>
    <symbol
       id="e-7"
       overflow="visible">
      <path
         d="m 1.5938,-1.1875 c -0.17969,0 -0.3125,0.03125 -0.40625,0.09375 -0.085938,0.054688 -0.125,0.14062 -0.125,0.26562 0,0.10547 0.03125,0.1875 0.09375,0.25 0.070312,0.054687 0.17578,0.078125 0.3125,0.078125 0.15625,0 0.28516,-0.050781 0.39062,-0.15625 0.11328,-0.11328 0.17188,-0.25781 0.17188,-0.4375 v -0.09375 z M 2.875,-1.5 V 0 H 2.03125 V -0.39062 C 1.91406,-0.23437 1.78516,-0.11718 1.64063,-0.04687 1.50391,0.023442 1.33204,0.06251 1.12501,0.06251 c -0.27344,0 -0.49609,-0.078125 -0.67188,-0.23438 -0.16797,-0.15625 -0.25,-0.36328 -0.25,-0.625 0,-0.30078 0.10156,-0.52344 0.3125,-0.67188 0.21875,-0.14453 0.55469,-0.21875 1.0156,-0.21875 h 0.5 V -1.75 c 0,-0.13281 -0.054688,-0.23438 -0.15625,-0.29688 -0.10547,-0.0625 -0.27344,-0.09375 -0.5,-0.09375 -0.17969,0 -0.34375,0.023437 -0.5,0.0625 -0.15625,0.03125 -0.30469,0.085937 -0.4375,0.15625 V -2.5625 c 0.17578,-0.050781 0.35156,-0.085938 0.53125,-0.10938 0.1875,-0.019531 0.375,-0.03125 0.5625,-0.03125 0.47656,0 0.82031,0.09375 1.0312,0.28125 0.20703,0.1875 0.3125,0.49609 0.3125,0.92188 z"
         id="path3271" />
    </symbol>
    <symbol
       id="d-8"
       overflow="visible">
      <path
         d="m 1.3281,-3.3906 v 0.75 h 0.875 v 0.60938 h -0.875 v 1.1094 c 0,0.125 0.019531,0.21094 0.0625,0.25 0.050781,0.042969 0.14844,0.0625 0.29688,0.0625 h 0.4375 V 6e-5 H 1.40623 C 1.07029,6e-5 0.83201,-0.066346 0.68748,-0.20306 0.55076,-0.34759 0.48436,-0.58587 0.48436,-0.92181 v -1.1094 H 0.06248 v -0.60938 h 0.42188 v -0.75 z"
         id="path3274" />
    </symbol>
    <symbol
       id="j-4"
       overflow="visible">
      <path
         d="M 2.2031,-2.25 V -3.6719 H 3.04685 V 0 H 2.2031 V -0.375 C 2.08591,-0.22656 1.95701,-0.11719 1.81248,-0.04688 1.67576,0.023432 1.5156,0.0625 1.3281,0.0625 c -0.32422,0 -0.58984,-0.125 -0.79688,-0.375 -0.21094,-0.25781 -0.3125,-0.59375 -0.3125,-1 0,-0.40625 0.10156,-0.73828 0.3125,-1 0.20703,-0.25781 0.47266,-0.39062 0.79688,-0.39062 0.1875,0 0.34766,0.039063 0.48438,0.10938 0.14453,0.074219 0.27344,0.1875 0.39062,0.34375 z m -0.5625,1.7031 c 0.1875,0 0.32812,-0.0625 0.42188,-0.1875 0.09375,-0.13281 0.14062,-0.32812 0.14062,-0.57812 0,-0.25 -0.046875,-0.44141 -0.14062,-0.57812 C 1.96873,-2.02345 1.8281,-2.09376 1.6406,-2.09376 c -0.17969,0 -0.3125,0.070312 -0.40625,0.20312 -0.09375,0.13672 -0.14062,0.32812 -0.14062,0.57812 0,0.25 0.046875,0.44531 0.14062,0.57812 0.09375,0.125 0.22656,0.1875 0.40625,0.1875 z"
         id="path3277" />
    </symbol>
    <symbol
       id="i-5"
       overflow="visible">
      <path
         d="m 1.8125,-0.54688 c 0.17578,0 0.3125,-0.0625 0.40625,-0.1875 0.09375,-0.13281 0.14062,-0.32812 0.14062,-0.57812 0,-0.25 -0.046875,-0.44141 -0.14062,-0.57812 C 2.125,-2.02343 1.98828,-2.09374 1.8125,-2.09374 c -0.17969,0 -0.32031,0.070312 -0.42188,0.20312 C 1.29687,-1.7539 1.25,-1.5625 1.25,-1.3125 c 0,0.25 0.046875,0.44531 0.14062,0.57812 0.10156,0.125 0.24219,0.1875 0.42188,0.1875 z M 1.25,-2.24998 c 0.11328,-0.15625 0.23828,-0.26953 0.375,-0.34375 0.14453,-0.070312 0.3125,-0.10938 0.5,-0.10938 0.32031,0 0.58594,0.13281 0.79688,0.39062 0.20703,0.26172 0.3125,0.59375 0.3125,1 0,0.40625 -0.10547,0.74219 -0.3125,1 -0.21094,0.25 -0.47656,0.375 -0.79688,0.375 -0.1875,0 -0.35547,-0.039062 -0.5,-0.10938 C 1.48828,-0.117183 1.36328,-0.22656 1.25,-0.37499 V 1e-5 H 0.40625 v -3.6719 H 1.25 Z"
         id="path3280" />
    </symbol>
    <symbol
       id="h-0"
       overflow="visible">
      <path
         d="m 0.0625,-2.6406 h 0.84375 l 0.70312,1.7969 0.60938,-1.7969 H 3.0625 L 1.9531,0.25 C 1.83591,0.53906 1.70701,0.74219 1.56248,0.85938 1.41404,0.98438 1.21873,1.04688 0.96873,1.04688 H 0.48435 v -0.5625 h 0.26562 c 0.14453,0 0.25,-0.027344 0.3125,-0.078125 0.0625,-0.042969 0.11328,-0.12109 0.15625,-0.23438 L 1.234345,0.09375 Z"
         id="path3283" />
    </symbol>
    <symbol
       id="g-3"
       overflow="visible">
      <path
         d="M 0.40625,-3.6719 H 1.25 v 2 l 0.96875,-0.96875 h 0.98438 l -1.2969,1.2188 1.3906,1.4219 h -1.0156 l -1.0312,-1.0938 V 5e-5 H 0.40628 Z"
         id="path3286" />
    </symbol>
    <symbol
       id="f-6"
       overflow="visible">
      <path
         d="m 2.8594,-2.2031 c 0.10156,-0.16406 0.22656,-0.28906 0.375,-0.375 0.14453,-0.082031 0.30469,-0.125 0.48438,-0.125 0.30078,0 0.53125,0.09375 0.6875,0.28125 0.16406,0.1875 0.25,0.46094 0.25,0.8125 V 5e-5 H 3.7969 v -1.375 -0.0625 c 0.00781,-0.019531 0.015625,-0.050781 0.015625,-0.09375 0,-0.1875 -0.03125,-0.32031 -0.09375,-0.40625 -0.054688,-0.082031 -0.14062,-0.125 -0.26562,-0.125 -0.15625,0 -0.28125,0.070312 -0.375,0.20312 -0.085937,0.125 -0.125,0.3125 -0.125,0.5625 V 7e-5 h -0.85938 v -1.375 c 0,-0.28906 -0.027344,-0.47656 -0.078125,-0.5625 -0.042969,-0.082031 -0.13281,-0.125 -0.26562,-0.125 -0.15625,0 -0.28125,0.070312 -0.375,0.20312 -0.085938,0.125 -0.125,0.3125 -0.125,0.5625 V 9e-5 H 0.40628 v -2.6406 h 0.84375 v 0.39062 c 0.10156,-0.15625 0.22266,-0.26953 0.35938,-0.34375 0.13281,-0.070312 0.28125,-0.10938 0.4375,-0.10938 0.1875,0 0.34766,0.046875 0.48438,0.14062 0.14453,0.085938 0.25391,0.20312 0.32812,0.35938 z"
         id="path3289" />
    </symbol>
    <symbol
       id="c-1"
       overflow="visible">
      <path
         d="m 1.6562,-2.0938 c -0.1875,0 -0.32812,0.070312 -0.42188,0.20312 -0.09375,0.125 -0.14062,0.32031 -0.14062,0.57812 0,0.25 0.046875,0.44531 0.14062,0.57812 0.09375,0.13672 0.23438,0.20312 0.42188,0.20312 0.1875,0 0.32812,-0.066406 0.42188,-0.20312 0.10156,-0.13281 0.15625,-0.32812 0.15625,-0.57812 0,-0.25781 -0.054687,-0.45312 -0.15625,-0.57812 C 1.98433,-2.02349 1.8437,-2.0938 1.6562,-2.0938 Z m 0,-0.60938 c 0.45703,0 0.8125,0.125 1.0625,0.375 0.25781,0.24219 0.39062,0.57812 0.39062,1.0156 0,0.42969 -0.13281,0.76562 -0.39062,1.0156 -0.25,0.24219 -0.60547,0.35938 -1.0625,0.35938 -0.44922,0 -0.80469,-0.11719 -1.0625,-0.35938 -0.26172,-0.25 -0.39062,-0.58594 -0.39062,-1.0156 0,-0.4375 0.12891,-0.77344 0.39062,-1.0156 0.25781,-0.25 0.61328,-0.375 1.0625,-0.375 z"
         id="path3292" />
    </symbol>
    <symbol
       id="s-0"
       overflow="visible">
      <path
         d="m 0.078125,-2.6406 h 0.84375 l 0.65625,1.8281 0.65625,-1.8281 h 0.84375 L 2.031225,0 h -0.92188 z"
         id="path3295" />
    </symbol>
    <symbol
       id="r-6"
       overflow="visible">
      <path
         d="m 2.1406,-3.6719 v 0.5625 H 1.67185 c -0.11719,0 -0.19922,0.023437 -0.25,0.0625 -0.042969,0.042969 -0.0625,0.11719 -0.0625,0.21875 v 0.1875 H 2.0781 v 0.60938 H 1.35935 V -7e-5 H 0.5156 v -2.0312 H 0.09372 V -2.64065 H 0.5156 v -0.1875 c 0,-0.28125 0.078125,-0.48828 0.23438,-0.625 0.16406,-0.14453 0.41406,-0.21875 0.75,-0.21875 z"
         id="path3298" />
    </symbol>
    <symbol
       id="q-32"
       overflow="visible">
      <path
         d="M 3.0625,-1.6094 V 0 H 2.21875 v -1.2188 c 0,-0.23828 -0.00781,-0.39844 -0.015625,-0.48438 -0.011719,-0.082031 -0.03125,-0.14453 -0.0625,-0.1875 -0.03125,-0.050781 -0.078125,-0.09375 -0.14062,-0.125 -0.054688,-0.03125 -0.11719,-0.046875 -0.1875,-0.046875 -0.17969,0 -0.32031,0.070312 -0.42188,0.20312 -0.09375,0.13672 -0.14062,0.32422 -0.14062,0.5625 v 1.2969 h -0.84375 v -3.6719 h 0.84375 v 1.4219 c 0.125,-0.15625 0.25781,-0.26953 0.40625,-0.34375 0.14453,-0.070312 0.30078,-0.10938 0.46875,-0.10938 0.3125,0 0.54688,0.09375 0.70312,0.28125 0.15624,0.1875 0.23438,0.46094 0.23438,0.8125 z"
         id="path3301" />
    </symbol>
    <symbol
       id="p-0"
       overflow="visible">
      <path
         d="m 0.4375,-3.5156 h 1.0156 l 1.2812,2.4062 V -3.5156 H 3.59368 V 0 H 2.57808 L 1.29688,-2.4219 V 0 H 0.4375 Z"
         id="path3304" />
    </symbol>
    <symbol
       id="o-6"
       overflow="visible">
      <path
         d="m 0.375,-1.0312 v -1.6094 h 0.84375 v 0.26562 0.54688 0.42188 c 0,0.21094 0.00391,0.35938 0.015625,0.45312 0.00781,0.09375 0.03125,0.16406 0.0625,0.20312 0.03125,0.0625 0.070313,0.10938 0.125,0.14062 0.0625,0.023437 0.12891,0.03125 0.20312,0.03125 0.17578,0 0.3125,-0.0625 0.40625,-0.1875 0.10156,-0.13281 0.15625,-0.32812 0.15625,-0.57812 v -1.2969 h 0.84375 V -3e-5 h -0.84375 v -0.375 c -0.125,0.14844 -0.26172,0.25781 -0.40625,0.32812 -0.14844,0.070312 -0.30469,0.10938 -0.46875,0.10938 -0.30469,0 -0.53906,-0.09375 -0.70312,-0.28125 -0.15625,-0.1875 -0.23438,-0.45703 -0.23438,-0.8125 z"
         id="path3307" />
    </symbol>
    <symbol
       id="n-1"
       overflow="visible">
      <path
         d="M 3.0625,-1.6094 V 0 H 2.21875 v -1.2344 c 0,-0.22656 -0.00781,-0.38281 -0.015625,-0.46875 -0.011719,-0.082031 -0.03125,-0.14453 -0.0625,-0.1875 -0.03125,-0.050781 -0.078125,-0.09375 -0.14062,-0.125 -0.054688,-0.03125 -0.11719,-0.046875 -0.1875,-0.046875 -0.17969,0 -0.32031,0.070312 -0.42188,0.20312 -0.09375,0.13672 -0.14062,0.32422 -0.14062,0.5625 V -5e-6 h -0.84375 v -2.6406 h 0.84375 v 0.39062 c 0.125,-0.15625 0.25781,-0.26953 0.40625,-0.34375 0.14453,-0.070312 0.30078,-0.10938 0.46875,-0.10938 0.3125,0 0.54688,0.09375 0.70312,0.28125 0.15624,0.1875 0.23438,0.46094 0.23438,0.8125 z"
         id="path3310" />
    </symbol>
    <symbol
       id="m-5"
       overflow="visible">
      <path
         d="m 0.4375,-3.5156 h 1.5156 c 0.44531,0 0.78906,0.10156 1.0312,0.29688 0.23828,0.19922 0.35938,0.48047 0.35938,0.84375 0,0.375 -0.12109,0.66406 -0.35938,0.85938 -0.24219,0.19922 -0.58594,0.29688 -1.0312,0.29688 H 1.34372 V 9e-5 H 0.43747 Z m 0.90625,0.65625 v 0.98438 h 0.51562 c 0.16406,0 0.29688,-0.039062 0.39062,-0.125 0.10156,-0.09375 0.15625,-0.21875 0.15625,-0.375 0,-0.15625 -0.054688,-0.27344 -0.15625,-0.35938 -0.09375,-0.082031 -0.22656,-0.125 -0.39062,-0.125 z"
         id="path3313" />
    </symbol>
    <symbol
       id="l-5"
       overflow="visible">
      <path
         d="M 0.40625,-2.6406 H 1.25 v 2.5938 C 1.25,0.30476 1.160156,0.5782 0.98438,0.7657 0.81641,0.9532 0.57032,1.04695 0.25,1.04695 h -0.40625 v -0.5625 h 0.14062 c 0.15625,0 0.26562,-0.039063 0.32812,-0.10938 0.0625,-0.074219 0.09375,-0.21484 0.09375,-0.42188 z m 0,-1.0312 H 1.25 v 0.6875 H 0.40625 Z"
         id="path3316" />
    </symbol>
    <symbol
       id="k-4"
       overflow="visible">
      <path
         d="M 2.5312,-2.5625 V -1.875 C 2.41401,-1.945312 2.30073,-2 2.18745,-2.03125 2.07026,-2.070312 1.95307,-2.09375 1.82807,-2.09375 c -0.23047,0 -0.41406,0.070312 -0.54688,0.20312 -0.125,0.13672 -0.1875,0.32812 -0.1875,0.57812 0,0.24219 0.0625,0.43359 0.1875,0.57812 0.13281,0.13672 0.31641,0.20312 0.54688,0.20312 0.13281,0 0.25781,-0.019531 0.375,-0.0625 0.125,-0.039062 0.23438,-0.097656 0.32812,-0.17188 v 0.6875 C 2.40619,-0.023462 2.27338,0.007788 2.14057,0.03123 2.00385,0.050761 1.86713,0.06248 1.73432,0.06248 c -0.48047,0 -0.85547,-0.11719 -1.125,-0.35938 -0.27344,-0.25 -0.40625,-0.58594 -0.40625,-1.0156 0,-0.4375 0.13281,-0.77344 0.40625,-1.0156 0.26953,-0.25 0.64453,-0.375 1.125,-0.375 0.13281,0 0.26953,0.015625 0.40625,0.046875 0.13281,0.023438 0.26562,0.054688 0.39062,0.09375 z"
         id="path3319" />
    </symbol>
    <symbol
       id="x"
       overflow="visible">
      <path
         d="M 0.046875,0 H 0.03125 0 v -0.03125 c 0.0078125,-0.0078125 0.019531,-0.015625 0.03125,-0.015625 h 0.015625 v 0.015625 c 0,-0.0078125 -0.0078125,-0.015625 -0.015625,-0.015625 L 0.015625,-0.03125 v 0.015625 H 0.03125 0.046875 Z"
         id="path4272" />
    </symbol>
    <symbol
       id="c-7"
       overflow="visible">
      <path
         d="m 0.03125,-0.03125 c -0.011719,0 -0.015625,0.0078125 -0.015625,0.015625 V 0 H 0 V -0.03125 H 0.015625 L 0.03125,-0.046875 Z"
         id="path4275" />
    </symbol>
    <symbol
       id="a-6"
       overflow="visible">
      <path
         d="M 0.046875,-0.015625 H 0.015625 V 0 H 0.03125 c 0,-0.0078125 0.0039062,-0.015625 0.015625,-0.015625 V 0 H 0.03125 0 V -0.015625 -0.03125 c 0.0078125,-0.0078125 0.019531,-0.015625 0.03125,-0.015625 v 0.015625 c 0.0078125,0 0.015625,0.0078125 0.015625,0.015625 z m -0.015625,0 V -0.03125 H 0.015625 v 0.015625 z"
         id="path4278" />
    </symbol>
    <symbol
       id="b-5"
       overflow="visible">
      <path
         d="M 0.015625,-0.015625 V 0 H 0.03125 v -0.015625 z m 0.03125,0 V 0 H 0.03125 0.015625 0 V -0.015625 L 0.015625,-0.03125 H 0.03125 0.015625 0 0.015625 v -0.015625 c 0.0078125,0 0.015625,0.0078125 0.015625,0.015625 0.0078125,0 0.015625,0.0078125 0.015625,0.015625 z"
         id="path4281" />
    </symbol>
    <symbol
       id="e-6"
       overflow="visible">
      <path
         d="M 0.015625,-0.046875 V -0.03125 H 0.03125 0.015625 v 0.015625 H 0.03125 V 0 H 0.015625 0 v -0.015625 -0.03125 z"
         id="path4284" />
    </symbol>
    <symbol
       id="i-9"
       overflow="visible">
      <path
         d="M 0.03125,-0.03125 V -0.046875 H 0.046875 V 0 H 0.03125 0.015625 0 V -0.015625 -0.03125 L 0.015625,-0.046875 V -0.03125 Z M 0.03125,0 V -0.015625 -0.03125 H 0.015625 V -0.015625 0 Z"
         id="path4287" />
    </symbol>
    <symbol
       id="m-3"
       overflow="visible">
      <path
         d="M 0.03125,0 V -0.015625 -0.03125 H 0.015625 V -0.015625 0 Z M 0.015625,-0.03125 0.03125,-0.046875 v 0.015625 c 0.0078125,0 0.015625,0.0078125 0.015625,0.015625 L 0.03125,0 H 0.015625 0 v -0.046875 h 0.015625 z"
         id="path4290" />
    </symbol>
    <symbol
       id="h-7"
       overflow="visible">
      <path
         d="m 0,-0.03125 h 0.015625 v 0.015625 L 0.03125,-0.03125 H 0.046875 L 0.03125,0 c 0,0.0078125 -0.0078125,0.015625 -0.015625,0.015625 H 0 V 0 h 0.015625 z"
         id="path4293" />
    </symbol>
    <symbol
       id="l-4"
       overflow="visible">
      <path
         d="M 0.03125,-0.046875 0.015625,-0.03125 v 0.015625 H 0.03125 c 0.0078125,0 0.015625,-0.0039062 0.015625,-0.015625 H 0.03125 Z m 0,0 c 0.0078125,0 0.015625,0.0078125 0.015625,0.015625 H 0.0625 C 0.0625,-0.019531 0.0546875,-0.007812 0.046875,0 H 0.03125 0 v -0.03125 c 0.0078125,-0.0078125 0.019531,-0.015625 0.03125,-0.015625 z"
         id="path4296" />
    </symbol>
    <symbol
       id="w-5"
       overflow="visible">
      <path
         d="M 0,-0.046875 H 0.015625 V 0 H 0 Z"
         id="path4299" />
    </symbol>
    <symbol
       id="k-25"
       overflow="visible">
      <path
         d="m 0,-0.046875 h 0.015625 v 0.015625 h 0.03125 L 0.03125,-0.015625 0.046875,0 H 0.03125 L 0.015625,-0.015625 V 0 H 0 Z"
         id="path4302" />
    </symbol>
    <symbol
       id="g-4"
       overflow="visible">
      <path
         d="M 0.03125,-0.03125 H 0.015625 c 0.0078125,0.011719 0.015625,0.015625 0.015625,0.015625 V 0 H 0.015625 0 V -0.015625 0 H 0.015625 L 0.03125,-0.015625 H 0.015625 0 V -0.03125 l 0.015625,-0.015625 c 0.0078125,0 0.015625,0.0078125 0.015625,0.015625 z"
         id="path4305" />
    </symbol>
    <symbol
       id="f-7"
       overflow="visible">
      <path
         d="M 0.046875,-0.015625 V 0 H 0.03125 V -0.015625 -0.03125 H 0.015625 V -0.015625 0 H 0 V -0.03125 H 0.015625 L 0.03125,-0.046875 v 0.015625 c 0.0078125,0 0.015625,0.0078125 0.015625,0.015625 z"
         id="path4308" />
    </symbol>
    <symbol
       id="j-44"
       overflow="visible">
      <path
         d="m 0,-0.046875 h 0.03125 c 0.0078125,0 0.015625,0.0078125 0.015625,0.015625 L 0.03125,-0.015625 H 0.015625 V 0 H 0 Z m 0.015625,0 V -0.03125 H 0.03125 v -0.015625 z"
         id="path4311" />
    </symbol>
    <symbol
       id="d-3"
       overflow="visible">
      <path
         d="M 0.03125,-0.03125 H 0.015625 V -0.015625 0 H 0.03125 v -0.015625 z m 0,-0.015625 v 0.015625 c 0.0078125,0 0.015625,0.0078125 0.015625,0.015625 L 0.03125,0 H 0 V -0.015625 -0.03125 c 0.0078125,-0.0078125 0.019531,-0.015625 0.03125,-0.015625 z"
         id="path4314" />
    </symbol>
    <symbol
       id="v-0"
       overflow="visible">
      <path
         d="m 0,-0.03125 h 0.015625 v 0.015625 L 0.03125,-0.03125 H 0.046875 L 0.03125,0 H 0.015625 Z"
         id="path4317" />
    </symbol>
    <symbol
       id="u-7"
       overflow="visible">
      <path
         d="M 0,-0.03125 H 0.015625 V 0 H 0 Z m 0,-0.015625 h 0.015625 z"
         id="path4320" />
    </symbol>
    <symbol
       id="t-8"
       overflow="visible">
      <path
         d="M 0.03125,-0.046875 H 0.015625 V -0.03125 H 0.03125 0.015625 V 0 H 0 v -0.046875 h 0.015625 z"
         id="path4323" />
    </symbol>
    <symbol
       id="s-6"
       overflow="visible">
      <path
         d="m 0.046875,-0.03125 v -0.015625 c 0.0078125,0 0.015625,0.0078125 0.015625,0.015625 V -0.015625 0 -0.015625 c 0,-0.0078125 -0.0078125,-0.015625 -0.015625,-0.015625 V -0.015625 0 H 0.03125 V -0.015625 -0.03125 H 0.015625 V -0.015625 0 H 0 V -0.03125 H 0.015625 L 0.03125,-0.046875 v 0.015625 z"
         id="path4326" />
    </symbol>
    <symbol
       id="r-8"
       overflow="visible">
      <path
         d="M 0.046875,-0.015625 V 0 H 0.03125 V -0.015625 -0.03125 H 0.015625 V -0.015625 0 H 0 V -0.046875 H 0.015625 V -0.03125 L 0.03125,-0.046875 v 0.015625 c 0.0078125,0 0.015625,0.0078125 0.015625,0.015625 z"
         id="path4329" />
    </symbol>
    <symbol
       id="q-8"
       overflow="visible">
      <path
         d="m 0,-0.046875 h 0.015625 l 0.03125,0.03125 V -0.046875 0 H 0.03125 L 0.015625,-0.03125 V 0 H 0 Z"
         id="path4332" />
    </symbol>
    <symbol
       id="p-4"
       overflow="visible">
      <path
         d="M 0,-0.015625 V -0.03125 h 0.015625 v 0.015625 H 0.03125 V -0.03125 H 0.046875 V 0 H 0.03125 0.015625 0 Z"
         id="path4335" />
    </symbol>
    <symbol
       id="o-3"
       overflow="visible">
      <path
         d="M 0,-0.03125 H 0.015625 V 0 C 0.015625,0.0078125 0.0078125,0.015625 0,0.015625 Z m 0,-0.015625 h 0.015625 z"
         id="path4338" />
    </symbol>
    <symbol
       id="n-14"
       overflow="visible">
      <path
         d="M 0.03125,-0.03125 H 0.015625 V -0.015625 0 H 0.03125 V -0.015625 0 H 0 V -0.015625 -0.03125 c 0.0078125,-0.0078125 0.019531,-0.015625 0.03125,-0.015625 z"
         id="path4341" />
    </symbol>
    <symbol
       id="f-92"
       overflow="visible">
      <path
         d="m 18.766,-1.125 c -0.96875,0.5 -1.9805,0.875 -3.0312,1.125 -1.043,0.25781 -2.1367,0.39062 -3.2812,0.39062 -3.3984,0 -6.0898,-0.94531 -8.0781,-2.8438 -1.9922,-1.9062 -2.9844,-4.4844 -2.9844,-7.7344 0,-3.2578 0.99219,-5.8359 2.9844,-7.7344 1.9883,-1.9062 4.6797,-2.8594 8.0781,-2.8594 1.1445,0 2.2383,0.13281 3.2812,0.39062 1.0508,0.25 2.0625,0.625 3.0312,1.125 v 4.2188 c -0.98047,-0.65625 -1.9453,-1.1406 -2.8906,-1.4531 -0.94922,-0.3125 -1.9492,-0.46875 -3,-0.46875 -1.875,0 -3.3516,0.60547 -4.4219,1.8125 -1.0742,1.1992 -1.6094,2.8555 -1.6094,4.9688 0,2.1055 0.53516,3.7617 1.6094,4.9688 1.0703,1.1992 2.5469,1.7969 4.4219,1.7969 1.0508,0 2.0508,-0.14844 3,-0.45312 0.94531,-0.3125 1.9102,-0.80078 2.8906,-1.4688 z"
         id="path4905" />
    </symbol>
    <symbol
       id="c-0"
       overflow="visible">
      <path
         d="m 13.734,-11.141 c -0.4375,-0.19531 -0.87109,-0.34375 -1.2969,-0.4375 -0.41797,-0.10156 -0.83984,-0.15625 -1.2656,-0.15625 -1.2617,0 -2.2305,0.40625 -2.9062,1.2188 -0.67969,0.80469 -1.0156,1.9531 -1.0156,3.4531 v 7.0625 H 2.3591 v -15.312 h 4.8906 v 2.5156 c 0.625,-1 1.3438,-1.7266 2.1562,-2.1875 0.82031,-0.46875 1.8008,-0.70312 2.9375,-0.70312 0.16406,0 0.34375,0.01172 0.53125,0.03125 0.19531,0.01172 0.47656,0.03906 0.84375,0.07813 z"
         id="path4908" />
    </symbol>
    <symbol
       id="a-68"
       overflow="visible">
      <path
         d="m 17.641,-7.7031 v 1.4062 H 6.188 c 0.125,1.1484 0.53906,2.0078 1.25,2.5781 0.70703,0.57422 1.7031,0.85938 2.9844,0.85938 1.0312,0 2.082,-0.14844 3.1562,-0.45312 1.082,-0.3125 2.1914,-0.77344 3.3281,-1.3906 v 3.7656 c -1.1562,0.4375 -2.3125,0.76562 -3.4688,0.98438 -1.1562,0.22656 -2.3125,0.34375 -3.4688,0.34375 -2.7734,0 -4.9297,-0.70312 -6.4688,-2.1094 -1.5312,-1.4062 -2.2969,-3.3789 -2.2969,-5.9219 0,-2.5 0.75391,-4.4609 2.2656,-5.8906 1.5078,-1.4375 3.582,-2.1562 6.2188,-2.1562 2.4062,0 4.332,0.73047 5.7812,2.1875 1.4453,1.4492 2.1719,3.3828 2.1719,5.7969 z m -5.0312,-1.625 c 0,-0.92578 -0.27344,-1.6719 -0.8125,-2.2344 -0.54297,-0.57031 -1.25,-0.85938 -2.125,-0.85938 -0.94922,0 -1.7188,0.26562 -2.3125,0.79688 -0.5937,0.53126 -0.96484,1.2969 -1.1094,2.2969 z"
         id="path4911" />
    </symbol>
    <symbol
       id="e-92"
       overflow="visible">
      <path
         d="m 9.2188,-6.8906 c -1.0234,0 -1.793,0.17188 -2.3125,0.51562 -0.51172,0.34375 -0.76562,0.85547 -0.76562,1.5312 0,0.625 0.20703,1.1172 0.625,1.4688 0.41406,0.34375 0.98828,0.51562 1.7188,0.51562 0.92578,0 1.7031,-0.32812 2.3281,-0.98438 0.63281,-0.66406 0.95312,-1.4922 0.95312,-2.4844 v -0.5625 z m 7.4688,-1.8438 V 0 h -4.9219 v -2.2656 c -0.65625,0.92969 -1.3984,1.6055 -2.2188,2.0312 -0.82422,0.41406 -1.8242,0.625 -3,0.625 -1.5859,0 -2.8711,-0.45703 -3.8594,-1.375 -0.99219,-0.92578 -1.4844,-2.1289 -1.4844,-3.6094 0,-1.7891 0.61328,-3.1016 1.8438,-3.9375 1.2383,-0.84375 3.1797,-1.2656 5.8281,-1.2656 h 2.8906 v -0.39062 c 0,-0.76953 -0.30859,-1.332 -0.92188,-1.6875 -0.61719,-0.36328 -1.5703,-0.54688 -2.8594,-0.54688 -1.0547,0 -2.0312,0.10547 -2.9375,0.3125 -0.89844,0.21094 -1.7305,0.52344 -2.5,0.9375 v -3.7344 c 1.0391,-0.25 2.0859,-0.44141 3.1406,-0.57812 1.0625,-0.13281 2.125,-0.20312 3.1875,-0.20312 2.7578,0 4.75,0.54688 5.9688,1.6406 1.2266,1.0859 1.8438,2.8555 1.8438,5.3125 z"
         id="path4914" />
    </symbol>
    <symbol
       id="b-6"
       overflow="visible">
      <path
         d="m 7.7031,-19.656 v 4.3438 H 12.75 v 3.5 H 7.7031 v 6.5 c 0,0.71094 0.14062,1.1875 0.42188,1.4375 0.28126,0.25 0.83594,0.375 1.6719,0.375 h 2.5156 v 3.5 h -4.1875 c -1.9375,0 -3.3125,-0.39844 -4.125,-1.2031 -0.80469,-0.8125 -1.2031,-2.1797 -1.2031,-4.1094 v -6.5 h -2.4219 v -3.5 h 2.4219 v -4.3438 z"
         id="path4917" />
    </symbol>
    <symbol
       id="j-6"
       overflow="visible">
      <path
         d="m 12.766,-13.078 v -8.2031 h 4.9219 V -1e-4 H 12.766 v -2.2188 c -0.66797,0.90625 -1.4062,1.5703 -2.2188,1.9844 -0.8126,0.4141 -1.7578,0.625 -2.8281,0.625 -1.8867,0 -3.4336,-0.75 -4.6406,-2.25 -1.2109,-1.5 -1.8125,-3.4258 -1.8125,-5.7812 0,-2.3633 0.60156,-4.2969 1.8125,-5.7969 1.207,-1.5 2.7539,-2.25 4.6406,-2.25 1.0625,0 2,0.21484 2.8125,0.64062 0.82031,0.42969 1.5664,1.0859 2.2344,1.9688 z m -3.2188,9.9219 c 1.0391,0 1.8359,-0.37891 2.3906,-1.1406 0.55078,-0.76953 0.82812,-1.8828 0.82812,-3.3438 0,-1.457 -0.27734,-2.5664 -0.82812,-3.3281 -0.55469,-0.76953 -1.3516,-1.1562 -2.3906,-1.1562 -1.043,0 -1.8398,0.38672 -2.3906,1.1562 -0.55469,0.76172 -0.82812,1.8711 -0.82812,3.3281 0,1.4609 0.27344,2.5742 0.82812,3.3438 0.55078,0.76172 1.3477,1.1406 2.3906,1.1406 z"
         id="path4920" />
    </symbol>
    <symbol
       id="i-4"
       overflow="visible">
      <path
         d="m 10.5,-3.1562 c 1.0508,0 1.8516,-0.37891 2.4062,-1.1406 0.55078,-0.76953 0.82812,-1.8828 0.82812,-3.3438 0,-1.457 -0.27734,-2.5664 -0.82812,-3.3281 -0.55469,-0.76953 -1.3555,-1.1562 -2.4062,-1.1562 -1.0547,0 -1.8594,0.38672 -2.4219,1.1562 -0.55469,0.77344 -0.82812,1.8828 -0.82812,3.3281 0,1.4492 0.27344,2.5586 0.82812,3.3281 0.5625,0.77344 1.3672,1.1562 2.4219,1.1562 z m -3.25,-9.9219 c 0.67578,-0.88281 1.4219,-1.5391 2.2344,-1.9688 0.82031,-0.42578 1.7656,-0.64062 2.8281,-0.64062 1.8945,0 3.4453,0.75 4.6562,2.25 1.207,1.5 1.8125,3.4336 1.8125,5.7969 0,2.3555 -0.60547,4.2812 -1.8125,5.7812 -1.2109,1.5 -2.7617,2.25 -4.6562,2.25 -1.0625,0 -2.0078,-0.21094 -2.8281,-0.625 C 8.6719,-0.6602 7.9258,-1.32032 7.25,-2.21882 V -2e-5 H 2.3594 v -21.281 H 7.25 Z"
         id="path4923" />
    </symbol>
    <symbol
       id="h-9"
       overflow="visible">
      <path
         d="m 0.34375,-15.312 h 4.8906 l 4.125,10.391 3.5,-10.391 h 4.8906 l -6.4375,16.766 c -0.64844,1.6953 -1.4023,2.8828 -2.2656,3.5625 -0.86719,0.6875 -2,1.0312 -3.4062,1.0312 H 2.79685 V 2.8289 h 1.5312 c 0.83203,0 1.4375,-0.13672 1.8125,-0.40625 C 6.52336,2.16093 6.82024,1.69218 7.03117,1.01645 L 7.17179,0.59457 Z"
         id="path4926" />
    </symbol>
    <symbol
       id="g-5"
       overflow="visible">
      <path
         d="M 2.3594,-15.312 H 7.25 V 0 H 2.3594 Z m 0,-5.9688 H 7.25 v 4 H 2.3594 Z"
         id="path4929" />
    </symbol>
    <symbol
       id="u-0"
       overflow="visible">
      <path
         d="m 0.42188,-15.312 h 4.8906 l 3.8281,10.578 3.7969,-10.578 h 4.9062 L 11.81248,0 h -5.375 z"
         id="path4932" />
    </symbol>
    <symbol
       id="t-4"
       overflow="visible">
      <path
         d="M 14.953,-3.7188 H 6.7342 L 5.4217,0 H 0.1405 L 7.703,-20.406 h 6.2656 L 21.5311,0 H 16.2499 Z M 8.0468,-7.5 h 5.5781 l -2.7812,-8.125 z"
         id="path4935" />
    </symbol>
    <symbol
       id="s-8"
       overflow="visible">
      <path
         d="m 12.422,-21.281 v 3.2188 H 9.7189 c -0.6875,0 -1.1719,0.125 -1.4531,0.375 -0.27344,0.25 -0.40625,0.6875 -0.40625,1.3125 v 1.0625 h 4.1875 v 3.5 H 7.85955 V -2e-4 h -4.8906 v -11.812 h -2.4375 v -3.5 h 2.4375 v -1.0625 c 0,-1.6641 0.46094,-2.8984 1.3906,-3.7031 0.92578,-0.80078 2.3672,-1.2031 4.3281,-1.2031 z"
         id="path4938" />
    </symbol>
    <symbol
       id="d-7"
       overflow="visible">
      <path
         d="m 9.6406,-12.188 c -1.0859,0 -1.9141,0.39062 -2.4844,1.1719 -0.57422,0.78125 -0.85938,1.9062 -0.85938,3.375 0,1.4688 0.28516,2.5938 0.85938,3.375 0.57031,0.77344 1.3984,1.1562 2.4844,1.1562 1.0625,0 1.875,-0.38281 2.4375,-1.1562 0.57031,-0.78125 0.85938,-1.9062 0.85938,-3.375 0,-1.4688 -0.28906,-2.5938 -0.85938,-3.375 -0.5625,-0.78125 -1.375,-1.1719 -2.4375,-1.1719 z m 0,-3.5 c 2.6328,0 4.6914,0.71484 6.1719,2.1406 1.4766,1.418 2.2188,3.3867 2.2188,5.9062 0,2.5117 -0.74219,4.4805 -2.2188,5.9062 C 14.332,-0.317 12.2734,0.39 9.6406,0.39 6.9922,0.39 4.9258,-0.31703 3.4375,-1.735 1.9453,-3.1608 1.2031,-5.1295 1.2031,-7.6412 c 0,-2.5195 0.74219,-4.4883 2.2344,-5.9062 1.4883,-1.4258 3.5547,-2.1406 6.2031,-2.1406 z"
         id="path4941" />
    </symbol>
    <symbol
       id="r-1"
       overflow="visible">
      <path
         d="m 16.547,-12.766 c 0.61328,-0.94531 1.3477,-1.6719 2.2031,-2.1719 0.85156,-0.5 1.7891,-0.75 2.8125,-0.75 1.7578,0 3.0977,0.54688 4.0156,1.6406 0.92578,1.0859 1.3906,2.6562 1.3906,4.7188 V -4e-4 h -4.9219 v -7.9844 -0.35938 c 0.0078,-0.13281 0.01563,-0.32031 0.01563,-0.5625 0,-1.082 -0.16406,-1.8633 -0.48438,-2.3438 -0.3125,-0.48828 -0.82422,-0.73438 -1.5312,-0.73438 -0.92969,0 -1.6484,0.38672 -2.1562,1.1562 -0.51172,0.76172 -0.77344,1.8672 -0.78125,3.3125 v 7.5156 h -4.9219 v -7.9844 c 0,-1.6953 -0.14844,-2.7852 -0.4375,-3.2656 -0.29297,-0.48828 -0.8125,-0.73438 -1.5625,-0.73438 -0.9375,0 -1.6641,0.38672 -2.1719,1.1562 -0.51172,0.76172 -0.76562,1.8594 -0.76562,3.2969 v 7.5312 h -4.9219 v -15.312 h 4.9219 v 2.2344 c 0.60156,-0.86328 1.2891,-1.5156 2.0625,-1.9531 0.78125,-0.4375 1.6406,-0.65625 2.5781,-0.65625 1.0625,0 2,0.25781 2.8125,0.76562 0.8125,0.51172 1.4258,1.2305 1.8438,2.1562 z"
         id="path4944" />
    </symbol>
    <symbol
       id="q-7"
       overflow="visible">
      <path
         d="M 17.75,-9.3281 V 0 h -4.9219 v -7.1094 c 0,-1.3438 -0.03125,-2.2656 -0.09375,-2.7656 -0.0625,-0.5 -0.16797,-0.86719 -0.3125,-1.1094 -0.1875,-0.3125 -0.44922,-0.55469 -0.78125,-0.73438 -0.32422,-0.17578 -0.69531,-0.26562 -1.1094,-0.26562 -1.0234,0 -1.8242,0.39844 -2.4062,1.1875 -0.58594,0.78125 -0.875,1.8711 -0.875,3.2656 V -1e-4 H 2.3594 v -21.281 H 7.25 v 8.2031 c 0.73828,-0.88281 1.5195,-1.5391 2.3438,-1.9688 0.83203,-0.42578 1.75,-0.64062 2.75,-0.64062 1.7695,0 3.1133,0.54688 4.0312,1.6406 0.91406,1.0859 1.375,2.6562 1.375,4.7188 z"
         id="path4947" />
    </symbol>
    <symbol
       id="p-2"
       overflow="visible">
      <path
         d="m 2.5781,-20.406 h 5.875 l 7.4219,14 v -14 h 4.9844 V 0 h -5.875 L 7.5625,-14 V 0 H 2.5781 Z"
         id="path4950" />
    </symbol>
    <symbol
       id="o-7"
       overflow="visible">
      <path
         d="m 2.1875,-5.9688 v -9.3438 h 4.9219 v 1.5312 c 0,0.83594 -0.00781,1.875 -0.015625,3.125 -0.011719,1.25 -0.015625,2.0859 -0.015625,2.5 0,1.2422 0.03125,2.1328 0.09375,2.6719 0.070313,0.54297 0.17969,0.93359 0.32812,1.1719 0.20703,0.32422 0.47266,0.57422 0.79688,0.75 0.32031,0.16797 0.69141,0.25 1.1094,0.25 1.0195,0 1.8203,-0.39062 2.4062,-1.1719 0.58203,-0.78125 0.875,-1.8672 0.875,-3.2656 v -7.5625 h 4.8906 V -6e-4 H 12.6875 V -2.2194 C 11.94531,-1.32096 11.1641,-0.6608 10.3437,-0.235 9.51948,0.17906 8.6093,0.39 7.6093,0.39 5.8476,0.39 4.5038,-0.14906 3.5781,-1.235 2.64841,-2.317 2.1875,-3.8952 2.1875,-5.9694 Z"
         id="path4953" />
    </symbol>
    <symbol
       id="n-22"
       overflow="visible">
      <path
         d="M 17.75,-9.3281 V 0 h -4.9219 v -7.1406 c 0,-1.3203 -0.03125,-2.2344 -0.09375,-2.7344 -0.0625,-0.5 -0.16797,-0.86719 -0.3125,-1.1094 -0.1875,-0.3125 -0.44922,-0.55469 -0.78125,-0.73438 -0.32422,-0.17578 -0.69531,-0.26562 -1.1094,-0.26562 -1.0234,0 -1.8242,0.39844 -2.4062,1.1875 -0.58594,0.78125 -0.875,1.8711 -0.875,3.2656 V -1e-4 H 2.3594 v -15.312 H 7.25 v 2.2344 c 0.73828,-0.88281 1.5195,-1.5391 2.3438,-1.9688 0.83203,-0.42578 1.75,-0.64062 2.75,-0.64062 1.7695,0 3.1133,0.54688 4.0312,1.6406 0.91406,1.0859 1.375,2.6562 1.375,4.7188 z"
         id="path4956" />
    </symbol>
    <symbol
       id="m-6"
       overflow="visible">
      <path
         d="m 2.5781,-20.406 h 8.7344 c 2.5938,0 4.582,0.57812 5.9688,1.7344 1.3945,1.1484 2.0938,2.7891 2.0938,4.9219 0,2.1367 -0.69922,3.7812 -2.0938,4.9375 -1.3867,1.1562 -3.375,1.7344 -5.9688,1.7344 H 7.8281 V 3e-4 h -5.25 z m 5.25,3.8125 v 5.7031 H 10.75 c 1.0195,0 1.8047,-0.25 2.3594,-0.75 0.5625,-0.5 0.84375,-1.2031 0.84375,-2.1094 0,-0.91406 -0.28125,-1.6172 -0.84375,-2.1094 -0.55469,-0.48828 -1.3398,-0.73438 -2.3594,-0.73438 z"
         id="path4959" />
    </symbol>
    <symbol
       id="l-1"
       overflow="visible">
      <path
         d="M 2.3594,-15.312 H 7.25 v 15.031 c 0,2.0508 -0.49609,3.6172 -1.4844,4.7031 -0.98047,1.082 -2.4062,1.625 -4.2812,1.625 H -0.9375 V 2.8283 h 0.85938 c 0.92578,0 1.5625,-0.21094 1.9062,-0.625 0.35156,-0.41797 0.53125,-1.2461 0.53125,-2.4844 z m 0,-5.9688 H 7.25 v 4 H 2.3594 Z"
         id="path4962" />
    </symbol>
    <symbol
       id="k-0"
       overflow="visible">
      <path
         d="m 14.719,-14.828 v 3.9844 c -0.65625,-0.45703 -1.3242,-0.79688 -2,-1.0156 -0.66797,-0.21875 -1.3594,-0.32812 -2.0781,-0.32812 -1.3672,0 -2.4336,0.40234 -3.2031,1.2031 -0.76172,0.79297 -1.1406,1.9062 -1.1406,3.3438 0,1.4297 0.37891,2.543 1.1406,3.3438 0.76953,0.79297 1.8359,1.1875 3.2031,1.1875 0.75781,0 1.4844,-0.10938 2.1719,-0.32812 0.6875,-0.22656 1.3203,-0.56641 1.9062,-1.0156 v 4 c -0.76172,0.28125 -1.5391,0.48828 -2.3281,0.625 -0.78125,0.14453 -1.5742,0.21875 -2.375,0.21875 -2.7617,0 -4.9219,-0.70703 -6.4844,-2.125 -1.5547,-1.4141 -2.3281,-3.3828 -2.3281,-5.9062 0,-2.5312 0.77344,-4.5039 2.3281,-5.9219 1.5625,-1.4141 3.7227,-2.125 6.4844,-2.125 0.80078,0 1.5938,0.07422 2.375,0.21875 0.78125,0.13672 1.5547,0.35156 2.3281,0.64062 z"
         id="path4965" />
    </symbol>
  </defs>
  <g
     id="g175"
     transform="translate(493.57776,-21.854611)">
    <g
       id="g2728">
      <path
         d="m 331.47307,103.04887 c 2.57407,-1.46907 3.67652,-2.9407 4.77889,-4.409766 8.82177,-12.495918 20.2157,-21.684575 32.34473,-29.770593 9.55555,-6.247959 19.47995,-12.495918 29.03484,-18.744204 3.30733,-2.204884 5.88134,-4.77889 9.55555,-6.247959 4.04314,-1.469069 4.77889,-1.102442 6.24796,2.940698 1.83826,5.145517 4.04314,10.291296 3.30733,16.172693 -1.46907,14.334305 -3.67652,28.668611 -7.71979,42.636021 0,0.36663 -0.36662,0.73582 -0.36662,1.10245 -4.77889,7.71978 -9.18866,15.80317 -15.07005,22.78721 -6.98141,6.98141 -14.33168,12.49329 -21.68458,18.37469 -7.71978,6.24796 -16.53892,9.9244 -26.0971,9.55555 -5.88133,0 -11.76279,0 -17.27467,-1.10245 -2.57407,-0.36662 -4.40977,0 -6.24796,1.46907 -4.40977,3.30733 -8.82177,5.88133 -13.59856,9.18866 -6.24796,4.04314 -11.02704,9.18866 -13.23166,16.90844 -4.04314,12.49592 -8.08602,24.99184 -10.65753,37.85727 0,0.73581 -0.36662,1.46907 -0.36662,2.20488 -0.36662,2.20489 0.73581,3.67652 2.57407,4.04314 5.51214,0.36662 10.65753,2.20489 15.43694,5.88134 1.10244,1.10244 2.57407,0.36662 4.04314,0.36662 9.55555,-0.36662 18.37732,2.20488 26.46333,6.98403 8.45291,5.14552 14.70054,12.86543 19.11307,22.42033 3.67651,8.08601 5.51214,16.90844 3.67651,26.09709 -1.46907,7.71979 -2.57407,15.80318 -6.24796,23.15608 -4.40977,9.55554 -10.65753,16.90844 -17.64156,24.25871 -5.88133,6.61452 -13.23167,10.65753 -21.31769,13.23166 -4.04314,1.46907 -8.08602,2.9407 -12.12903,4.04314 -12.12902,4.04314 -24.6256,2.57408 -36.75462,2.20489 -5.88134,0 -10.65753,-4.40977 -15.80318,-7.71979 -13.23167,-8.82176 -20.95145,-22.42032 -27.56597,-36.75462 -1.83826,-4.04315 -3.67652,-7.71979 -4.77889,-12.12903 -4.77889,-16.53893 -3.67652,-32.71162 2.57407,-48.51742 1.10244,-2.57408 1.83826,-4.77889 2.57407,-7.35027 1.10244,-3.67652 3.30733,-6.24796 6.24796,-8.45291 4.77889,-4.04314 10.29129,-6.98404 16.17269,-9.55555 1.46907,-0.73581 2.9407,-0.73581 4.77889,-0.73581 8.08602,0 15.80318,0 23.8892,0.36662 2.20488,0 3.30732,-0.36662 4.04314,-2.57407 1.10244,-3.30733 2.57407,-6.24796 3.30732,-9.55555 4.40977,-15.07006 9.55555,-30.14011 14.33431,-45.20754 2.20488,-6.98403 5.88133,-13.59855 9.18865,-20.2157 8.08602,-16.90844 14.33431,-34.91624 21.31769,-52.557806 4.77889,-11.393279 8.82177,-23.522962 11.76279,-35.65199 1.46907,-5.881331 2.20489,-11.762793 2.20489,-17.641565 0,-2.940698 0,-6.247959 0.36662,-9.188657 0.36662,-6.247959 2.57407,-8.821767 8.45291,-9.555547 3.30732,-0.366621 6.24795,0 9.55554,-0.735815 1.83826,-0.366621 2.9407,0.735815 4.04314,2.204884 0.73582,1.46907 0,2.940699 -0.73581,4.043141 -2.57407,3.676513 -3.30733,8.086018 -4.04314,12.129027 -4.40977,19.846187 -11.39328,38.223501 -19.84619,56.234582 -0.74093,2.204883 -1.47419,3.307326 -2.21,5.512146 z M 308.317,162.59334 c 5.14552,-2.20489 9.18866,-5.51215 13.59856,-8.82177 -5.14552,2.20489 -9.92178,4.77889 -13.59856,8.82177 -1.46907,0.36662 -2.20488,1.10244 -3.30733,2.57407 1.83826,-0.36919 2.57152,-1.105 3.30733,-2.57407 z m -94.09185,119.45254 c -0.73581,8.45291 2.57407,17.64157 6.24796,26.46333 3.67651,9.18866 8.82177,17.27468 14.70054,24.99184 10.29129,13.23166 22.78721,21.31768 39.32876,19.84619 1.10245,0 2.57407,-0.36663 3.67652,0 6.24796,1.46906 11.76279,-0.36663 17.64156,-1.83826 4.77889,-1.10244 8.82177,-3.30733 13.59856,-4.77889 16.90844,-5.51214 27.19908,-18.7442 36.01888,-34.18049 4.04314,-7.35027 4.77889,-15.80318 6.24796,-23.8892 0.73581,-4.77889 1.46907,-9.9244 0,-14.70054 -5.51215,-18.37731 -16.53893,-30.50634 -34.1805,-34.91624 -8.82176,-2.20488 -17.27467,-1.83825 -25.36135,2.57407 -1.46907,0.73582 -3.30732,1.46907 -4.77888,2.20489 -7.35027,3.67651 -13.59856,3.30732 -19.11307,-3.67652 -0.73581,-1.10244 -1.83825,-1.83825 -2.9407,-2.57407 -8.82176,-8.08602 -18.01042,-11.39328 -29.03484,-5.51214 -5.14552,2.9407 -10.65753,5.88133 -13.59856,11.39328 -4.77633,12.12902 -8.81979,23.88919 -8.4529,38.59301 z M 324.12149,140.17302 c -0.36662,3.30732 0.73581,6.61452 1.10244,9.55554 0.36662,2.57407 1.46907,3.30733 3.30733,3.30733 4.04314,0 8.08602,-0.36662 12.12903,0.36662 11.02704,2.20488 20.2157,-2.20488 29.03484,-8.08602 8.82177,-5.88133 16.17269,-13.59856 23.52296,-21.31768 5.51215,-5.88134 10.2913,-12.86544 12.86543,-20.95145 4.40977,-13.598561 5.88134,-27.932866 7.35027,-42.266515 0.36662,-3.676513 -0.36662,-6.984036 -2.20488,-10.291296 -2.20488,-4.04314 -2.57407,-4.409768 -5.88133,-1.838256 -8.08602,6.247958 -16.90844,11.393278 -25.36135,16.538926 -16.17269,10.291296 -30.87323,21.684575 -42.63603,37.857271 -8.45291,11.3959 -12.12706,23.52558 -13.22904,37.12611 z m -48.15053,99.97258 c 2.57407,-1.46906 2.9407,-3.67651 3.30732,-5.88133 0.36662,-2.57407 0.36662,-5.14551 0.73582,-7.35027 4.04314,-22.05409 11.39328,-43.00291 19.47995,-63.58485 4.77889,-12.12902 10.65753,-23.88919 16.17269,-35.28575 7.71979,-16.1727 15.80318,-32.711622 22.42033,-49.620064 4.04314,-9.924406 8.08602,-19.846187 9.55554,-30.873232 0.36663,-2.204884 0.73582,-4.409767 1.46907,-6.61452 2.57407,-6.984036 2.9407,-8.086018 -5.51214,-7.350269 h -1.46907 c -1.83826,0 -2.57407,1.102441 -2.57407,2.940698 0,1.102442 -0.36662,2.204884 -0.36662,3.307326 0,12.129027 -2.9407,23.522962 -6.24796,34.916241 -4.04314,12.865432 -9.18866,25.36135 -14.33431,37.85727 -6.24795,15.43694 -11.39327,30.87323 -19.11306,45.57639 -4.04314,7.35027 -6.61452,15.80318 -9.18866,23.8892 -4.77888,15.43694 -9.55554,30.87323 -14.70053,46.31017 -0.36663,2.9407 -1.83826,6.98404 0.36662,11.7628 z m 30.50634,-82.69791 c 0.36662,0.36662 0.73581,0.73582 0.73581,1.10244 3.67652,-2.20488 7.35027,-4.77889 11.39328,-6.98403 2.20489,-1.10245 2.57407,-2.57407 2.20489,-5.14552 -0.36662,-3.67651 0,-7.71978 0.73581,-11.39328 0.73582,-4.77889 1.83826,-9.18866 2.57407,-13.96741 -7.35289,11.39327 -11.76279,24.25871 -17.64419,36.38773 z m -19.84619,75.34699 c 1.83826,0.36662 3.67652,1.10244 5.51215,2.20488 1.46907,1.10244 3.30732,0.73582 6.24796,0 -4.77633,-1.83569 -8.08602,-3.30732 -11.76017,-2.20488 z M 343.96768,29.541583 c 1.46907,-0.36662 3.30732,-0.36662 5.88133,-0.735814 -2.9407,-0.733255 -4.41233,-1.102442 -5.88133,0.735814 z"
         id="path67"
         style="stroke-width:0.656333" />
      <path
         d="m 338.08891,280.20618 v 8.08602 c -0.36663,4.04314 -2.20489,5.88133 -6.24796,6.24796 -5.88133,0.36662 -12.12903,-3.30733 -14.33431,-9.55555 -2.20488,-7.35027 -6.24796,-12.12903 -12.86543,-14.70054 -2.20489,-1.10244 -4.40977,-2.57407 -6.61452,-3.67651 -2.9407,-1.83826 -4.04314,-4.77889 -4.04314,-8.08602 0,-3.67651 1.10244,-5.14552 4.77889,-5.88133 5.51214,-1.10244 10.65753,-1.10244 16.17269,-0.36662 10.65753,1.46907 17.27468,8.08602 22.05409,17.64156 1.8357,2.9407 0.73325,6.61452 1.09988,10.2913 z m -29.7706,-25.36135 c -2.20488,0 -4.77889,0 -6.98403,0.36662 -2.9407,0.36662 -4.04314,2.57407 -2.9407,5.88133 0.73581,1.83826 1.83825,2.57407 3.30732,3.30733 2.57408,1.46907 5.14552,2.57407 7.71979,4.04314 5.51214,2.9407 9.18866,7.35027 10.65753,13.59856 1.46907,5.14551 4.77889,7.71978 9.18866,9.18865 3.30732,0.73582 5.14551,-0.73581 5.51214,-4.40977 0.36662,-2.20488 0.36662,-4.04314 0.36662,-6.24795 0.73581,-12.86544 -8.08602,-24.25872 -20.2157,-25.36135 -2.20233,-0.36662 -4.40714,-0.36662 -6.6119,-0.36662 z"
         id="path69"
         style="stroke-width:0.656333" />
      <path
         d="m 263.47701,245.65683 c -0.36662,1.46907 -1.83826,1.83826 -2.9407,2.20488 -10.2913,3.30733 -20.58193,6.98404 -30.50634,10.2913 -1.46907,0.36662 -2.9407,1.10244 -4.40977,1.46907 -1.10244,0.36662 -2.20488,1.10244 -2.57407,-0.73582 -0.36662,-1.46906 0.73581,-1.83825 1.83826,-2.20488 0.36662,-0.36662 0.73581,-0.36662 1.10244,-0.36662 11.39328,-4.04314 22.78721,-8.08602 34.18049,-11.76279 1.10244,-0.36662 2.20488,-0.73582 2.9407,0 0.003,0.003 0.36919,0.73837 0.36919,1.105 z"
         id="path71"
         style="stroke-width:0.656333" />
      <path
         d="m 254.6559,238.3059 c 1.10244,0 2.20488,0 2.57407,1.46907 0,1.46907 -1.10244,1.83826 -2.20488,1.83826 -6.98404,1.83826 -14.33431,4.04314 -21.31769,6.61452 -1.83826,0.73582 -3.67651,1.46907 -5.51214,1.83826 -0.73582,0.36662 -1.46907,0 -1.46907,-1.10244 0,-0.36663 0.36662,-1.10245 0.73581,-1.46907 0.36662,-0.36663 1.10244,-1.10245 1.83826,-1.10245 8.08602,-2.94069 15.80318,-5.88133 23.88919,-8.08601 h 1.46651 z"
         id="path73"
         style="stroke-width:0.656333" />
      <path
         d="m 224.5171,269.91488 c -0.36662,-0.36662 -1.10244,-0.73581 -1.10244,-1.10244 0,-0.36662 0,-1.10244 0.36662,-1.46907 0.73582,-0.73581 1.46907,-1.10244 2.20489,-1.46907 7.35027,-2.94069 14.3343,-5.51214 21.68457,-8.4529 1.46907,-0.73582 4.04314,-1.83826 4.77889,0.36662 0.73581,2.57407 -2.20488,2.57407 -3.67651,2.9407 -6.61452,2.20488 -12.86544,4.77888 -19.47996,7.35026 -1.09988,0.73326 -2.93814,1.46651 -4.77633,1.8357 z"
         id="path75"
         style="stroke-width:0.656333" />
      <path
         d="m 219.37146,282.41146 c 1.10244,-2.20489 2.94069,-3.30733 4.77888,-4.40977 4.04314,-2.20488 8.45291,-4.77889 12.86544,-6.61452 1.10244,-0.36662 2.20488,-1.10244 3.67651,-0.73581 0.73581,0 1.46907,0 1.46907,1.10244 0,0.73581 -0.36662,1.10244 -0.73582,1.46907 -6.98403,2.20488 -13.23166,6.98403 -20.2157,9.55554 -0.73581,0 -1.10244,0 -1.83825,-0.36662 z"
         id="path77"
         style="stroke-width:0.656333" />
      <path
         d="m 222.31183,293.80539 c -0.36663,-0.36662 -1.10245,-0.36662 -1.46907,-0.73581 0,-0.36662 0,-1.10244 0.36662,-1.46907 0.73581,-0.73582 1.83825,-1.83826 2.9407,-2.20488 4.04314,-1.83826 8.4529,-3.67652 12.49591,-5.51215 0.73582,-0.36662 1.46907,-0.36662 2.20489,0 0.73581,0 1.10244,0.73582 1.10244,1.46907 0,0.36662 -0.36662,1.10244 -0.73582,1.46907 -0.73581,0.36662 -1.46907,0.36662 -2.57407,0.73581 -4.04314,1.46907 -8.45291,2.9407 -12.12902,5.14552 -0.36407,0.36662 -1.09989,0.73582 -2.20233,1.10244 z"
         id="path79"
         style="stroke-width:0.656333" />
      <path
         d="m 225.98729,301.52387 c -0.36662,0 -0.73582,-0.36663 -1.10244,-0.73582 -0.36662,-0.73581 0,-1.46907 0.73581,-1.83826 3.67651,-2.20488 7.71979,-2.94069 11.39328,-4.04314 0.36662,0 1.10244,0.36662 1.10244,0.73582 0.36662,0.73581 0.36662,1.46907 -0.36662,1.83825 -0.73581,0.36663 -1.10244,0.73582 -1.83826,0.73582 -2.94069,1.46907 -6.24795,2.20488 -9.9244,3.30733 z"
         id="path81"
         style="stroke-width:0.656333" />
      <path
         d="m 230.39784,312.18271 c -1.10244,0 -1.83825,-0.36662 -1.83825,-1.10244 0,-0.73583 0,-1.10245 0.73581,-1.46907 2.57407,-1.46907 4.77889,-2.57407 7.71979,-2.9407 0.73581,0 1.46907,0.36662 1.46907,1.10244 0.36662,1.10244 -0.36663,1.46907 -1.10245,1.46907 -2.57407,1.10244 -4.77889,2.20488 -6.98403,2.9407 z"
         id="path83"
         style="stroke-width:0.656333" />
      <path
         d="m 240.68914,328.72229 c -1.46907,0 -2.20488,0 -2.57407,-1.10244 -0.36662,-1.10244 0.73581,-1.46907 1.46907,-1.83826 1.83825,-0.73581 3.67651,-1.10244 5.51214,-1.83825 0.73582,-0.36663 1.83826,0 2.20489,1.10244 0.36662,1.10244 -0.36662,1.83825 -1.10245,2.20488 -1.83569,0.36919 -4.04051,0.73838 -5.50958,1.47163 z"
         id="path85"
         style="stroke-width:0.656333" />
      <path
         d="m 243.26196,235.73308 c 1.10245,0 1.83826,0 2.20489,0.73581 0.36662,0.73582 -0.36662,1.46907 -0.73582,1.83826 -2.57407,0.73582 -4.77889,1.83826 -7.35027,2.57407 -0.73581,0.36662 -1.46907,0 -1.83825,-0.73581 -0.36662,-0.73582 0.36662,-1.46907 0.73581,-1.83826 2.20745,-1.47163 4.77889,-2.20488 6.98404,-2.57407 z"
         id="path87"
         style="stroke-width:0.656333" />
      <path
         d="m 232.60312,318.79854 0.36662,-1.10244 c 2.20489,-2.20489 4.77889,-2.9407 7.71979,-2.20489 0.36662,0 0.73581,1.10245 0.36662,1.46907 -2.57151,1.83826 -5.14552,2.9407 -8.45291,1.83826 z"
         id="path89"
         style="stroke-width:0.656333" />
      <path
         d="m 246.20233,335.70567 c -0.73581,0 -2.20488,0.36662 -2.20488,-1.46907 0,-1.10244 1.10244,-1.46907 1.83826,-1.46907 1.46907,-0.36662 2.57407,-0.73581 4.04314,-0.73581 0.73581,0 1.46907,0.36662 1.46907,1.10244 0,1.10244 -0.36662,1.46907 -1.10245,1.83826 -1.10244,0.36662 -2.20488,0.73325 -4.04314,0.73325 z"
         id="path91"
         style="stroke-width:0.656333" />
      <path
         d="m 252.45062,341.95396 c 0.36662,-1.46907 1.46907,-1.83826 2.57407,-2.20489 1.46907,-0.36662 2.57407,-1.10244 4.04314,0 0.36662,0.36662 0.36662,1.10244 0.36662,1.46907 -0.73581,1.10244 -4.40976,2.57407 -5.88133,1.83826 -0.73325,0 -0.73325,-0.73326 -1.10244,-1.10244 z"
         id="path93"
         style="stroke-width:0.656333" />
      <path
         d="m 268.25511,345.99697 c -0.36662,1.10244 -4.04314,2.57407 -5.14552,1.83825 -0.36662,0 -0.36662,-0.73581 -0.36662,-0.73581 0,-1.83826 1.46907,-2.57407 2.9407,-2.9407 1.10244,-0.36662 2.20489,-0.36662 2.57407,0.73581 -0.003,0.36662 -0.003,0.73582 -0.003,1.10245 z"
         id="path95"
         style="stroke-width:0.656333" />
      <path
         d="m 373.74089,114.44281 c 2.57408,1.46907 5.14552,0 6.98404,1.83825 -1.46907,2.20489 -3.30733,1.83826 -4.77889,1.83826 -7.71978,0.73581 -15.43694,2.20488 -22.78721,4.40977 -2.20489,0.73581 -4.40977,1.83825 -5.88133,3.30732 -5.88133,5.51215 -11.02705,11.39328 -13.59856,19.47996 -0.36662,1.10244 -0.73581,2.20488 -1.46907,2.94069 -0.36662,0.36663 -0.73581,0.73582 -1.46907,0.36663 -0.36662,-0.36663 -1.10244,-0.73582 -0.73581,-1.46907 0.36662,-1.10245 0.36662,-2.20489 0.73581,-3.30733 2.20489,-6.24796 5.88133,-11.76279 10.2913,-16.53893 5.88133,-6.98403 13.23166,-11.76279 19.47995,-18.37731 3.67651,-4.04314 7.35027,-7.71979 11.02705,-11.393279 1.46907,-1.46907 1.83825,-2.940699 2.57407,-4.778889 2.9407,-7.719785 5.88133,-15.436944 8.82176,-23.522963 0.36662,-1.102442 1.10245,-3.676513 2.57407,-2.940698 1.83826,0.735814 0.36663,2.574071 0,4.04314 -1.83825,5.512144 -4.04314,11.027045 -6.24795,17.641566 11.39327,-10.65753 19.11306,-22.787214 26.46333,-36.754629 1.83826,4.04314 0.73581,6.247959 -0.73582,8.452908 -4.04314,6.984036 -8.4529,13.967415 -13.96741,20.215702 -11.39328,12.865433 -22.42032,25.727582 -35.65199,38.223502 4.40977,-0.73582 8.08602,-1.46907 11.76279,-1.83826 0.73582,0 1.83826,-0.36662 1.83826,-1.46907 2.20488,-6.24796 7.71978,-7.71978 12.49592,-10.29129 -0.74094,4.77889 -6.25308,5.5147 -7.72504,9.9244 z"
         id="path97"
         style="stroke-width:0.656333" />
    </g>
    <g
       id="g2440"
       transform="translate(-644.14045,567.23959)">
      <path
         d="m 841.84182,-308.63794 c -0.89063,-4.6016 2.6602,-9.3359 8.418,-12.383 -2.3984,-3.1797 -4.4805,-7.3906 -5.8984,-11.34 -1.6758,-4.582 -2.6562,-9.1406 -2.7812,-12.836 -0.23047,-6.0039 1.9023,-8.043 3.7031,-8.7031 l 1.5664,-0.26172 c 2.3359,0 4.5938,1.8945 6.6484,4.4922 1.1367,-4.8281 3.1641,-8.4492 6.5508,-8.5781 5.5664,0 8.3906,9.8633 8.7422,19.645 0.16797,4.8828 -0.29297,9.5273 -1.3008,13.074 -0.19531,0.71094 -0.44922,1.1602 -0.67188,1.7422 5.9414,0.90625 10.555,3.793 11.391,8.1328 1.2305,6.3906 -5.9062,13.145 -15.953,15.082 -10.035,1.9414 -19.176,-1.668 -20.414,-8.0664 z m 10.574,-29.387 c -0.0391,-1.1016 0.0781,-2.1602 0.10156,-3.2578 -2.4453,-4.9453 -4.7656,-7.4102 -5.1172,-7.7461 -0.6875,0.84375 -1.0859,6.3398 1.9883,14.852 2.0625,5.6914 4.4453,9.3477 6.1133,11.219 0.0898,-0.0234 0.16406,-0.0547 0.25391,-0.0859 -2.1562,-4.2578 -3.1836,-10.461 -3.3398,-14.98 z m 9.8516,11.137 c 0.73438,-2.4883 1.3672,-6.2617 1.1758,-11.523 -0.29297,-8.0977 -2.2383,-12.906 -3.3477,-14.223 -0.79688,1.125 -1.9609,4.6641 -2.2461,10.203 0.69531,1.5 1.3789,3.0312 1.9102,4.5117 1.3633,3.7617 2.1719,7.5664 2.5078,11.031 z"
         id="path2730"
         style="fill:#2e2e2e;fill-opacity:1" />
    </g>
    <g
       id="g5048"
       transform="translate(-1698.2005,767.9407)">
      <g
         id="g16529"
         transform="translate(12.595619,5.7349617)">
        <path
           d="m 1868.9973,-397.15434 c -8.4471,-0.004 -16.2871,4.39017 -20.6923,11.59754 -4.4061,7.20736 -4.7412,16.18836 -0.8852,23.70605 3.856,7.51564 11.3469,12.48162 19.7707,13.10726 v 12.56876 l -12.3519,-6.3e-4 c -0.8799,0 -1.5926,0.71273 -1.5926,1.59254 0,0.87981 0.7127,1.59253 1.5926,1.59253 l 12.3519,6.3e-4 v 14.05915 c 0,0.87981 0.7127,1.59254 1.5925,1.59254 0.8798,0 1.5926,-0.71273 1.5926,-1.59254 v -14.05915 l 12.3519,6.3e-4 c 0.8798,0 1.5926,-0.71361 1.5926,-1.59254 0,-0.8798 -0.7128,-1.59253 -1.5926,-1.59253 l -12.3519,-6.3e-4 v -12.54737 c 6.156,-0.33416 11.9511,-3.00739 16.2027,-7.47218 4.2507,-4.46388 6.6368,-10.38357 6.6695,-16.54828 0.033,-6.16494 -2.2891,-12.10943 -6.4918,-16.61949 l -2.2974,-2.20544 c -4.3412,-3.61346 -9.813,-5.5898 -15.4615,-5.58548 z m 0,45.31678 c -5.5864,0 -10.9442,-2.21995 -14.8946,-6.17017 -3.9511,-3.95018 -6.1702,-9.30816 -6.1702,-14.89546 0,-5.58639 2.2191,-10.94505 6.1702,-14.89545 3.9502,-3.95018 9.3082,-6.17018 14.8955,-6.17018 5.5864,0 10.9441,2.21996 14.8954,6.17018 3.9502,3.95017 6.1693,9.30815 6.1693,14.89545 -0.01,5.58457 -2.2271,10.93891 -6.1763,14.88818 -3.9493,3.94926 -9.3039,6.17108 -14.8891,6.17722 z"
           id="path15432"
           sodipodi:nodetypes="ccccccsccsssccscccscccccccscsccscc"
           style="stroke-width:0.227505" />
        <text
           xml:space="preserve"
           style="font-size:57.2037px;line-height:1.25;font-family:Carlito;-inkscape-font-specification:Carlito;text-align:center;text-anchor:middle;stroke-width:3.06449"
           x="2006.0514"
           y="-342.3028"
           id="text15436"><tspan
             sodipodi:role="line"
             id="tspan15434"
             style="stroke-width:3.06449"
             x="2006.0514"
             y="-342.3028">lay eggs</tspan></text>
        <path
           style="fill:none;stroke:#000000;stroke-width:5;stroke-linecap:butt;stroke-linejoin:miter;stroke-miterlimit:4;stroke-dasharray:none;stroke-opacity:1;marker-end:url(#Arrow2Mend)"
           d="m 1479.9753,-412.12638 c 31.7527,-38.33442 63.5054,-76.6689 111.6933,-96.03015 48.1879,-19.36125 112.8077,-19.74915 177.4279,-20.13705"
           id="path33572"
           inkscape:path-effect="#path-effect33574"
           inkscape:original-d="m 1479.9753,-412.12638 c 31.7535,-38.33374 63.5062,-76.66823 95.2582,-115.00348 64.623,-0.38716 129.2428,-0.77506 193.863,-1.16372" />
      </g>
    </g>
  </g>
</svg>
