<?xml version="1.0" encoding="UTF-8" standalone="no"?>
<!-- Created with Inkscape (http://www.inkscape.org/) -->

<svg
   width="304.10211mm"
   height="90.599556mm"
   viewBox="0 0 304.10212 90.599557"
   version="1.1"
   id="svg14749"
   inkscape:version="1.1.2 (0a00cf5339, 2022-02-04)"
   sodipodi:docname="intro_pattern.svg"
   xmlns:inkscape="http://www.inkscape.org/namespaces/inkscape"
   xmlns:sodipodi="http://sodipodi.sourceforge.net/DTD/sodipodi-0.dtd"
   xmlns="http://www.w3.org/2000/svg"
   xmlns:svg="http://www.w3.org/2000/svg"
   xmlns:rdf="http://www.w3.org/1999/02/22-rdf-syntax-ns#"
   xmlns:cc="http://creativecommons.org/ns#"
   xmlns:dc="http://purl.org/dc/elements/1.1/"
   xmlns:ns1="http://www.iki.fi/pav/software/textext/">
  <sodipodi:namedview
     id="base"
     pagecolor="#ffffff"
     bordercolor="#666666"
     borderopacity="1.0"
     inkscape:pageopacity="0.0"
     inkscape:pageshadow="2"
     inkscape:zoom="0.7"
     inkscape:cx="307.85714"
     inkscape:cy="437.85714"
     inkscape:document-units="mm"
     inkscape:current-layer="g16086"
     showgrid="false"
     inkscape:window-width="2498"
     inkscape:window-height="1376"
     inkscape:window-x="0"
     inkscape:window-y="0"
     inkscape:window-maximized="1"
     fit-margin-top="1"
     fit-margin-left="1"
     fit-margin-right="1"
     fit-margin-bottom="1"
     showguides="false"
     inkscape:pagecheckerboard="0" />
  <defs
     id="defs14743">
    <marker
       style="overflow:visible"
       id="Arrow1Sstart"
       refX="0"
       refY="0"
       orient="auto"
       inkscape:stockid="Arrow1Sstart"
       inkscape:isstock="true">
      <path
         transform="matrix(0.2,0,0,0.2,1.2,0)"
         style="fill:context-stroke;fill-rule:evenodd;stroke:context-stroke;stroke-width:1pt"
         d="M 0,0 5,-5 -12.5,0 5,5 Z"
         id="path7709" />
    </marker>
    <marker
       inkscape:isstock="true"
       style="overflow:visible"
       id="marker148137"
       refX="0"
       refY="0"
       orient="auto"
       inkscape:stockid="Arrow2Mstart">
      <path
         transform="scale(0.6)"
         d="M 8.7185878,4.0337352 -2.2072895,0.01601326 8.7185884,-4.0017078 c -1.7454984,2.3720609 -1.7354408,5.6174519 -6e-7,8.035443 z"
         style="fill:#000000;fill-opacity:1;fill-rule:evenodd;stroke:#000000;stroke-width:0.625;stroke-linejoin:round;stroke-opacity:1"
         id="path148135"
         inkscape:connector-curvature="0" />
    </marker>
    <marker
       inkscape:stockid="Arrow2Mstart"
       orient="auto"
       refY="0"
       refX="0"
       id="marker83093"
       style="overflow:visible"
       inkscape:isstock="true">
      <path
         inkscape:connector-curvature="0"
         id="path83091"
         style="fill:#000000;fill-opacity:1;fill-rule:evenodd;stroke:#000000;stroke-width:0.625;stroke-linejoin:round;stroke-opacity:1"
         d="M 8.7185878,4.0337352 -2.2072895,0.01601326 8.7185884,-4.0017078 c -1.7454984,2.3720609 -1.7354408,5.6174519 -6e-7,8.035443 z"
         transform="scale(0.6)" />
    </marker>
    <marker
       inkscape:isstock="true"
       style="overflow:visible"
       id="marker14555"
       refX="0"
       refY="0"
       orient="auto"
       inkscape:stockid="Arrow2Mstart">
      <path
         transform="scale(0.6)"
         d="M 8.7185878,4.0337352 -2.2072895,0.01601326 8.7185884,-4.0017078 c -1.7454984,2.3720609 -1.7354408,5.6174519 -6e-7,8.035443 z"
         style="fill:#000000;fill-opacity:1;fill-rule:evenodd;stroke:#000000;stroke-width:0.625;stroke-linejoin:round;stroke-opacity:1"
         id="path14553"
         inkscape:connector-curvature="0" />
    </marker>
    <marker
       inkscape:isstock="true"
       style="overflow:visible"
       id="marker148137-3"
       refX="0"
       refY="0"
       orient="auto"
       inkscape:stockid="Arrow2Mstart">
      <path
         transform="scale(0.6)"
         d="M 8.7185878,4.0337352 -2.2072895,0.01601326 8.7185884,-4.0017078 c -1.7454984,2.3720609 -1.7354408,5.6174519 -6e-7,8.035443 z"
         style="fill:#000000;fill-opacity:1;fill-rule:evenodd;stroke:#000000;stroke-width:0.625;stroke-linejoin:round;stroke-opacity:1"
         id="path148135-6"
         inkscape:connector-curvature="0" />
    </marker>
    <marker
       inkscape:stockid="Arrow2Mstart"
       orient="auto"
       refY="0"
       refX="0"
       id="marker133072"
       style="overflow:visible"
       inkscape:isstock="true"
       inkscape:collect="always">
      <path
         inkscape:connector-curvature="0"
         id="path133070"
         style="fill:#000000;fill-opacity:1;fill-rule:evenodd;stroke:#000000;stroke-width:0.625;stroke-linejoin:round;stroke-opacity:1"
         d="M 8.7185878,4.0337352 -2.2072895,0.01601326 8.7185884,-4.0017078 c -1.7454984,2.3720609 -1.7354408,5.6174519 -6e-7,8.035443 z"
         transform="scale(0.6)" />
    </marker>
    <marker
       inkscape:stockid="Arrow2Mend"
       orient="auto"
       refY="0"
       refX="0"
       id="marker133160"
       style="overflow:visible"
       inkscape:isstock="true"
       inkscape:collect="always">
      <path
         inkscape:connector-curvature="0"
         id="path133158"
         style="fill:#000000;fill-opacity:1;fill-rule:evenodd;stroke:#000000;stroke-width:0.625;stroke-linejoin:round;stroke-opacity:1"
         d="M 8.7185878,4.0337352 -2.2072895,0.01601326 8.7185884,-4.0017078 c -1.7454984,2.3720609 -1.7354408,5.6174519 -6e-7,8.035443 z"
         transform="scale(-0.6)" />
    </marker>
    <marker
       inkscape:stockid="Arrow2Mstart"
       orient="auto"
       refY="0"
       refX="0"
       id="marker83093-7"
       style="overflow:visible"
       inkscape:isstock="true">
      <path
         inkscape:connector-curvature="0"
         id="path83091-5"
         style="fill:#000000;fill-opacity:1;fill-rule:evenodd;stroke:#000000;stroke-width:0.625;stroke-linejoin:round;stroke-opacity:1"
         d="M 8.7185878,4.0337352 -2.2072895,0.01601326 8.7185884,-4.0017078 c -1.7454984,2.3720609 -1.7354408,5.6174519 -6e-7,8.035443 z"
         transform="scale(0.6)" />
    </marker>
    <marker
       inkscape:isstock="true"
       style="overflow:visible"
       id="marker14555-3"
       refX="0"
       refY="0"
       orient="auto"
       inkscape:stockid="Arrow2Mstart">
      <path
         transform="scale(0.6)"
         d="M 8.7185878,4.0337352 -2.2072895,0.01601326 8.7185884,-4.0017078 c -1.7454984,2.3720609 -1.7354408,5.6174519 -6e-7,8.035443 z"
         style="fill:#000000;fill-opacity:1;fill-rule:evenodd;stroke:#000000;stroke-width:0.625;stroke-linejoin:round;stroke-opacity:1"
         id="path14553-5"
         inkscape:connector-curvature="0" />
    </marker>
    <marker
       inkscape:stockid="Arrow2Mstart"
       orient="auto"
       refY="0"
       refX="0"
       id="Arrow2Mstart-4"
       style="overflow:visible"
       inkscape:isstock="true"
       inkscape:collect="always">
      <path
         inkscape:connector-curvature="0"
         id="path27325-3"
         style="fill:#000000;fill-opacity:1;fill-rule:evenodd;stroke:#000000;stroke-width:0.625;stroke-linejoin:round;stroke-opacity:1"
         d="M 8.7185878,4.0337352 -2.2072895,0.01601326 8.7185884,-4.0017078 c -1.7454984,2.3720609 -1.7354408,5.6174519 -6e-7,8.035443 z"
         transform="scale(0.6)" />
    </marker>
    <marker
       inkscape:isstock="true"
       style="overflow:visible"
       id="marker81979"
       refX="0"
       refY="0"
       orient="auto"
       inkscape:stockid="Arrow2Mstart"
       inkscape:collect="always">
      <path
         inkscape:connector-curvature="0"
         transform="scale(0.6)"
         d="M 8.7185878,4.0337352 -2.2072895,0.01601326 8.7185884,-4.0017078 c -1.7454984,2.3720609 -1.7354408,5.6174519 -6e-7,8.035443 z"
         style="fill:#000000;fill-opacity:1;fill-rule:evenodd;stroke:#000000;stroke-width:0.625;stroke-linejoin:round;stroke-opacity:1"
         id="path81977" />
    </marker>
  </defs>
  <metadata
     id="metadata14746">
    <rdf:RDF>
      <cc:Work
         rdf:about="">
        <dc:format>image/svg+xml</dc:format>
        <dc:type
           rdf:resource="http://purl.org/dc/dcmitype/StillImage" />
      </cc:Work>
    </rdf:RDF>
  </metadata>
  <g
     inkscape:label="Calque 1"
     inkscape:groupmode="layer"
     id="layer1"
     transform="translate(-135.20703,-231.97462)">
    <path
       inkscape:connector-curvature="0"
       id="path83085"
       d="M 201.03894,312.45405 V 255.43273"
       style="fill:#ff6600;fill-rule:evenodd;stroke:#ff6600;stroke-width:1.13428;stroke-linecap:butt;stroke-linejoin:miter;stroke-miterlimit:4;stroke-dasharray:none;stroke-opacity:1"
       sodipodi:nodetypes="cc" />
    <path
       sodipodi:nodetypes="cc"
       style="fill:#ff6600;fill-rule:evenodd;stroke:#ff6600;stroke-width:1.13428;stroke-linecap:butt;stroke-linejoin:miter;stroke-miterlimit:4;stroke-dasharray:none;stroke-opacity:1"
       d="M 228.04902,312.45405 V 255.43273"
       id="path83087"
       inkscape:connector-curvature="0" />
    <path
       inkscape:connector-curvature="0"
       id="path83089"
       d="M 255.05911,312.45405 V 255.43273"
       style="fill:#ff6600;fill-rule:evenodd;stroke:#ff6600;stroke-width:1.13428;stroke-linecap:butt;stroke-linejoin:miter;stroke-miterlimit:4;stroke-dasharray:none;stroke-opacity:1"
       sodipodi:nodetypes="cc" />
    <path
       sodipodi:nodetypes="cc"
       style="fill:#ff6600;fill-rule:evenodd;stroke:#ff6600;stroke-width:1.13428;stroke-linecap:butt;stroke-linejoin:miter;stroke-miterlimit:4;stroke-dasharray:none;stroke-opacity:1"
       d="M 174.02885,312.45405 V 255.43276"
       id="path83053"
       inkscape:connector-curvature="0" />
    <path
       sodipodi:nodetypes="cc"
       inkscape:connector-curvature="0"
       id="path83073"
       d="m 146.75066,234.43164 v 84.93804"
       style="fill:none;fill-rule:evenodd;stroke:#000000;stroke-width:0.8;stroke-linecap:butt;stroke-linejoin:miter;stroke-miterlimit:4;stroke-dasharray:none;stroke-opacity:1;marker-start:url(#marker148137)" />
    <path
       style="fill:none;fill-rule:evenodd;stroke:#000000;stroke-width:0.8;stroke-linecap:butt;stroke-linejoin:miter;stroke-miterlimit:4;stroke-dasharray:none;stroke-opacity:1;marker-start:url(#marker83093-7)"
       d="M 273.06583,312.45405 H 141.01651"
       id="path83075"
       inkscape:connector-curvature="0"
       sodipodi:nodetypes="cc" />
    <text
       transform="rotate(-90)"
       id="text83083"
       y="141.20811"
       x="-273.51483"
       style="font-style:normal;font-variant:normal;font-weight:normal;font-stretch:normal;font-size:7.20269px;line-height:125%;font-family:Calibri;-inkscape-font-specification:Calibri;text-align:center;letter-spacing:0px;word-spacing:0px;text-anchor:middle;fill:#000000;fill-opacity:1;stroke:none;stroke-width:0.600224px;stroke-linecap:butt;stroke-linejoin:miter;stroke-opacity:1"
       xml:space="preserve"><tspan
         style="stroke-width:0.600224px"
         y="141.20811"
         x="-273.51483"
         id="tspan83081"
         sodipodi:role="line"># introduced individuals</tspan></text>
    <path
       inkscape:connector-curvature="0"
       id="path133008"
       d="m 174.02886,244.84941 27.01007,-2e-5"
       style="fill:none;stroke:#000000;stroke-width:0.6;stroke-linecap:butt;stroke-linejoin:miter;stroke-miterlimit:4;stroke-dasharray:none;stroke-opacity:1;marker-start:url(#marker133072);marker-end:url(#marker133160)" />
    <path
       inkscape:connector-curvature="0"
       id="path83311"
       d="M 419.09296,312.20651 V 294.19979"
       style="fill:#ff6600;fill-rule:evenodd;stroke:#ff6600;stroke-width:1.13428;stroke-linecap:butt;stroke-linejoin:miter;stroke-miterlimit:4;stroke-dasharray:none;stroke-opacity:1"
       sodipodi:nodetypes="cc" />
    <path
       sodipodi:nodetypes="cc"
       style="fill:#ff6600;fill-rule:evenodd;stroke:#ff6600;stroke-width:1.13428;stroke-linecap:butt;stroke-linejoin:miter;stroke-miterlimit:4;stroke-dasharray:none;stroke-opacity:1"
       d="M 428.09632,312.20651 V 294.19979"
       id="path83313"
       inkscape:connector-curvature="0" />
    <path
       style="fill:#ff6600;fill-rule:evenodd;stroke:#ff6600;stroke-width:1.13428;stroke-linecap:butt;stroke-linejoin:miter;stroke-miterlimit:4;stroke-dasharray:none;stroke-opacity:1"
       d="M 320.05597,312.20651 V 294.19979"
       id="path82955"
       inkscape:connector-curvature="0"
       sodipodi:nodetypes="cc" />
    <path
       inkscape:connector-curvature="0"
       id="path82957"
       d="M 329.05933,312.20651 V 294.19979"
       style="fill:#ff6600;fill-rule:evenodd;stroke:#ff6600;stroke-width:1.13428;stroke-linecap:butt;stroke-linejoin:miter;stroke-miterlimit:4;stroke-dasharray:none;stroke-opacity:1"
       sodipodi:nodetypes="cc" />
    <path
       sodipodi:nodetypes="cc"
       style="fill:#ff6600;fill-rule:evenodd;stroke:#ff6600;stroke-width:1.13428;stroke-linecap:butt;stroke-linejoin:miter;stroke-miterlimit:4;stroke-dasharray:none;stroke-opacity:1"
       d="M 338.0627,312.20651 V 294.19979"
       id="path83033"
       inkscape:connector-curvature="0" />
    <path
       inkscape:connector-curvature="0"
       id="path83035"
       d="M 347.06607,312.20651 V 294.19979"
       style="fill:#ff6600;fill-rule:evenodd;stroke:#ff6600;stroke-width:1.13428;stroke-linecap:butt;stroke-linejoin:miter;stroke-miterlimit:4;stroke-dasharray:none;stroke-opacity:1"
       sodipodi:nodetypes="cc" />
    <path
       sodipodi:nodetypes="cc"
       style="fill:#ff6600;fill-rule:evenodd;stroke:#ff6600;stroke-width:1.13428;stroke-linecap:butt;stroke-linejoin:miter;stroke-miterlimit:4;stroke-dasharray:none;stroke-opacity:1"
       d="M 356.06942,312.20651 V 294.19979"
       id="path83037"
       inkscape:connector-curvature="0" />
    <path
       inkscape:connector-curvature="0"
       id="path83039"
       d="M 365.07279,312.20651 V 294.19979"
       style="fill:#ff6600;fill-rule:evenodd;stroke:#ff6600;stroke-width:1.13428;stroke-linecap:butt;stroke-linejoin:miter;stroke-miterlimit:4;stroke-dasharray:none;stroke-opacity:1"
       sodipodi:nodetypes="cc" />
    <path
       sodipodi:nodetypes="cc"
       style="fill:#ff6600;fill-rule:evenodd;stroke:#ff6600;stroke-width:1.13428;stroke-linecap:butt;stroke-linejoin:miter;stroke-miterlimit:4;stroke-dasharray:none;stroke-opacity:1"
       d="M 374.07614,312.20651 V 294.19979"
       id="path83041"
       inkscape:connector-curvature="0" />
    <path
       inkscape:connector-curvature="0"
       id="path83043"
       d="M 383.0795,312.20651 V 294.19979"
       style="fill:#ff6600;fill-rule:evenodd;stroke:#ff6600;stroke-width:1.13428;stroke-linecap:butt;stroke-linejoin:miter;stroke-miterlimit:4;stroke-dasharray:none;stroke-opacity:1"
       sodipodi:nodetypes="cc" />
    <path
       sodipodi:nodetypes="cc"
       style="fill:#ff6600;fill-rule:evenodd;stroke:#ff6600;stroke-width:1.13428;stroke-linecap:butt;stroke-linejoin:miter;stroke-miterlimit:4;stroke-dasharray:none;stroke-opacity:1"
       d="M 392.08287,312.20651 V 294.19979"
       id="path83045"
       inkscape:connector-curvature="0" />
    <path
       inkscape:connector-curvature="0"
       id="path83047"
       d="M 401.08622,312.20651 V 294.19979"
       style="fill:#ff6600;fill-rule:evenodd;stroke:#ff6600;stroke-width:1.13428;stroke-linecap:butt;stroke-linejoin:miter;stroke-miterlimit:4;stroke-dasharray:none;stroke-opacity:1"
       sodipodi:nodetypes="cc" />
    <path
       sodipodi:nodetypes="cc"
       style="fill:#ff6600;fill-rule:evenodd;stroke:#ff6600;stroke-width:1.13428;stroke-linecap:butt;stroke-linejoin:miter;stroke-miterlimit:4;stroke-dasharray:none;stroke-opacity:1"
       d="M 410.0896,312.20651 V 294.19979"
       id="path83049"
       inkscape:connector-curvature="0" />
    <path
       style="fill:none;fill-rule:evenodd;stroke:#000000;stroke-width:0.8;stroke-linecap:butt;stroke-linejoin:miter;stroke-miterlimit:4;stroke-dasharray:none;stroke-opacity:1;marker-start:url(#Arrow2Mstart-4)"
       d="m 310.78451,234.18409 v 84.93807"
       id="path81935"
       inkscape:connector-curvature="0"
       sodipodi:nodetypes="cc" />
    <path
       inkscape:connector-curvature="0"
       id="path81975"
       d="M 437.09968,312.20651 H 305.05035"
       style="fill:none;fill-rule:evenodd;stroke:#000000;stroke-width:0.8;stroke-linecap:butt;stroke-linejoin:miter;stroke-miterlimit:4;stroke-dasharray:none;stroke-opacity:1;marker-start:url(#marker81979)"
       sodipodi:nodetypes="cc" />
    <text
       xml:space="preserve"
       style="font-style:normal;font-variant:normal;font-weight:normal;font-stretch:normal;font-size:11.2042px;line-height:125%;font-family:Calibri;-inkscape-font-specification:Calibri;text-align:center;letter-spacing:0px;word-spacing:0px;text-anchor:middle;fill:#000000;fill-opacity:1;stroke:none;stroke-width:0.600224px;stroke-linecap:butt;stroke-linejoin:miter;stroke-opacity:1"
       x="428.54291"
       y="321.52142"
       id="text82751"><tspan
         sodipodi:role="line"
         id="tspan82749"
         x="428.54291"
         y="321.52142"
         style="font-size:7.20269px;stroke-width:0.600224px">time</tspan></text>
    <path
       sodipodi:nodetypes="cc"
       inkscape:connector-curvature="0"
       id="path154084"
       d="m 321.97713,290.85052 26.93079,-46.39658"
       style="fill:none;stroke:#000000;stroke-width:0.6;stroke-linecap:butt;stroke-linejoin:miter;stroke-miterlimit:4;stroke-dasharray:none;stroke-opacity:1;marker-start:url(#marker148137-3)" />
    <text
       xml:space="preserve"
       style="font-style:normal;font-variant:normal;font-weight:normal;font-stretch:normal;font-size:11.2042px;line-height:125%;font-family:Calibri;-inkscape-font-specification:Calibri;text-align:center;letter-spacing:0px;word-spacing:0px;text-anchor:middle;fill:#000000;fill-opacity:1;stroke:none;stroke-width:0.600224px;stroke-linecap:butt;stroke-linejoin:miter;stroke-opacity:1"
       x="263.97202"
       y="321.52142"
       id="text6132"><tspan
         sodipodi:role="line"
         id="tspan6130"
         x="263.97202"
         y="321.52142"
         style="font-size:7.20269px;stroke-width:0.600224px">time</tspan></text>
    <g
       id="g16086"
       transform="matrix(0.881945,0,0,0.881945,39.09935,122.08082)">
      <g
         transform="matrix(0.81292387,0,0,0.81292387,153.43821,127.53651)"
         ns1:version="1.3.0"
         ns1:texconverter="pdflatex"
         ns1:pdfconverter="inkscape"
         ns1:text="period $T$"
         ns1:preamble="/home/ludo/ownCloud/exposes/2023/MPDEE_CIRM/topo/figs/latex_pack.tex"
         ns1:scale="0.801"
         ns1:alignment="middle center"
         ns1:inkscapeversion="1.1.2"
         ns1:jacobian_sqrt="0.282575"
         id="g6580">
        <defs
           id="id-1f6148fe-391f-4016-ac35-bacd967ed666">
          <g
             id="id-a96e469f-981b-40cb-bacf-78b7590c0f9f">
            <symbol
               overflow="visible"
               id="id-4b50dafb-5e4a-4ed2-9fce-fea8d8b16313">
              <path
                 style="stroke:none;stroke-width:0"
                 d="M 0.5,1.765625 H 5.484375 V -7.03125 H 0.5 Z m 0.5625,-0.5625 V -6.46875 h 3.859375 v 7.671875 z m 0,0"
                 id="id-3c211481-93a8-4042-835e-a720e4a95741" />
            </symbol>
            <symbol
               overflow="visible"
               id="id-ca0fdfc8-1088-4e7c-943c-ab8380d61806">
              <path
                 style="stroke:none;stroke-width:0"
                 d="M 1.796875,-0.8125 C 2,-0.484375 2.234375,-0.25 2.515625,-0.09375 c 0.28125,0.15625 0.640625,0.234375 1.03125,0.234375 0.65625,0 1.203125,-0.265625 1.609375,-0.78125 0.421875,-0.53125 0.625,-1.21875 0.625,-2.078125 0,-0.859375 -0.203125,-1.546875 -0.625,-2.078125 -0.40625,-0.53125 -0.953125,-0.78125 -1.609375,-0.78125 -0.390625,0 -0.75,0.078125 -1.03125,0.234375 C 2.234375,-5.1875 2,-4.9375 1.796875,-4.625 V -5.453125 H 0.90625 v 7.53125 h 0.890625 z m 3.0625,-1.90625 c 0,0.65625 -0.140625,1.171875 -0.40625,1.546875 -0.28125,0.375 -0.640625,0.5625 -1.125,0.5625 -0.484375,0 -0.84375,-0.1875 -1.109375,-0.5625 -0.28125,-0.375 -0.421875,-0.890625 -0.421875,-1.546875 0,-0.65625 0.140625,-1.171875 0.421875,-1.546875 0.265625,-0.375 0.625,-0.5625 1.109375,-0.5625 0.484375,0 0.84375,0.1875 1.125,0.5625 0.265625,0.375 0.40625,0.890625 0.40625,1.546875 z m 0,0"
                 id="id-cb62f549-24a7-4e90-bae2-660d988ffc7f" />
            </symbol>
            <symbol
               overflow="visible"
               id="id-7e691c8b-aa49-4d93-9202-36f5c61be2fc">
              <path
                 style="stroke:none;stroke-width:0"
                 d="m 5.609375,-2.953125 c 0,-0.8125 -0.21875,-1.453125 -0.640625,-1.921875 -0.4375,-0.46875 -1.015625,-0.703125 -1.75,-0.703125 -0.8125,0 -1.46875,0.25 -1.9375,0.78125 -0.5,0.515625 -0.734375,1.234375 -0.734375,2.125 0,0.875 0.265625,1.546875 0.765625,2.046875 0.515625,0.515625 1.203125,0.765625 2.0625,0.765625 0.359375,0 0.6875,-0.03125 1.03125,-0.109375 C 4.75,-0.046875 5.078125,-0.140625 5.390625,-0.28125 V -1.125 c -0.3125,0.171875 -0.640625,0.296875 -0.96875,0.375 -0.3125,0.09375 -0.640625,0.125 -1,0.125 -0.578125,0 -1.046875,-0.15625 -1.375,-0.46875 C 1.71875,-1.421875 1.53125,-1.890625 1.484375,-2.515625 h 4.125 z m -0.90625,-0.25 h -3.1875 c 0.046875,-0.515625 0.21875,-0.90625 0.515625,-1.1875 0.296875,-0.296875 0.703125,-0.4375 1.203125,-0.4375 0.4375,0 0.796875,0.15625 1.0625,0.4375 0.265625,0.296875 0.40625,0.6875 0.40625,1.1875 z m 0,0"
                 id="id-cbd9d92e-066e-4586-b7ef-5380df3054f9" />
            </symbol>
            <symbol
               overflow="visible"
               id="id-73f22d92-44e5-491a-a795-4d21ce651582">
              <path
                 style="stroke:none;stroke-width:0"
                 d="M 4.09375,-4.609375 V -5.53125 C 4,-5.546875 3.921875,-5.5625 3.84375,-5.578125 c -0.0625,0 -0.140625,0 -0.203125,0 -0.4375,0 -0.796875,0.078125 -1.09375,0.234375 C 2.25,-5.1875 2,-4.9375 1.796875,-4.609375 v -0.84375 H 0.90625 V 0 h 0.890625 v -2.875 c 0,-0.609375 0.140625,-1.078125 0.421875,-1.40625 0.265625,-0.328125 0.65625,-0.5 1.15625,-0.5 0.140625,0 0.28125,0 0.390625,0.03125 0.125,0.03125 0.234375,0.078125 0.328125,0.140625 z m 0,0"
                 id="id-fa063efd-61dd-4c57-b9eb-de881e603f4c" />
            </symbol>
            <symbol
               overflow="visible"
               id="id-5a7cf6e6-89a1-4b31-951c-160bc57f8094">
              <path
                 style="stroke:none;stroke-width:0"
                 d="M 0.9375,-5.453125 V 0 h 0.890625 v -5.453125 z m 0,-2.125 V -6.4375 h 0.890625 v -1.140625 z m 0,0"
                 id="id-08ba2f87-7b1b-4d46-8ff1-f90a779990d6" />
            </symbol>
            <symbol
               overflow="visible"
               id="id-f8bb60c0-db00-4365-b09e-ab5837837e65">
              <path
                 style="stroke:none;stroke-width:0"
                 d="m 3.046875,-4.828125 c 0.484375,0 0.859375,0.1875 1.140625,0.578125 0.28125,0.375 0.421875,0.875 0.421875,1.53125 0,0.640625 -0.140625,1.15625 -0.421875,1.53125 C 3.90625,-0.8125 3.53125,-0.625 3.046875,-0.625 2.578125,-0.625 2.1875,-0.8125 1.90625,-1.171875 1.640625,-1.5625 1.5,-2.078125 1.5,-2.71875 c 0,-0.65625 0.140625,-1.171875 0.40625,-1.546875 0.28125,-0.375 0.671875,-0.5625 1.140625,-0.5625 z m 0,-0.75 c -0.78125,0 -1.390625,0.25 -1.828125,0.75 C 0.765625,-4.3125 0.546875,-3.625 0.546875,-2.71875 c 0,0.890625 0.21875,1.59375 0.671875,2.09375 0.4375,0.515625 1.046875,0.765625 1.828125,0.765625 0.78125,0 1.40625,-0.25 1.84375,-0.765625 0.4375,-0.5 0.65625,-1.203125 0.65625,-2.09375 0,-0.90625 -0.21875,-1.59375 -0.65625,-2.109375 -0.4375,-0.5 -1.0625,-0.75 -1.84375,-0.75 z m 0,0"
                 id="id-3cf0f1a6-d321-4ca8-8f24-845cd0dfdca7" />
            </symbol>
            <symbol
               overflow="visible"
               id="id-fd754a5e-b1bb-49bc-bd82-bf0395c07aab">
              <path
                 style="stroke:none;stroke-width:0"
                 d="M 4.53125,-4.625 C 4.34375,-4.9375 4.09375,-5.1875 3.8125,-5.34375 3.53125,-5.5 3.1875,-5.578125 2.78125,-5.578125 c -0.65625,0 -1.203125,0.25 -1.609375,0.78125 -0.421875,0.53125 -0.625,1.21875 -0.625,2.078125 0,0.859375 0.203125,1.546875 0.625,2.078125 0.40625,0.515625 0.953125,0.78125 1.609375,0.78125 0.40625,0 0.75,-0.078125 1.03125,-0.234375 C 4.09375,-0.25 4.34375,-0.484375 4.53125,-0.8125 V 0 H 5.421875 V -7.578125 H 4.53125 Z m -3.0625,1.90625 c 0,-0.65625 0.140625,-1.171875 0.421875,-1.546875 0.265625,-0.375 0.625,-0.5625 1.109375,-0.5625 0.46875,0 0.84375,0.1875 1.109375,0.5625 0.28125,0.375 0.421875,0.890625 0.421875,1.546875 0,0.65625 -0.140625,1.171875 -0.421875,1.546875 -0.265625,0.375 -0.640625,0.5625 -1.109375,0.5625 -0.484375,0 -0.84375,-0.1875 -1.109375,-0.5625 C 1.609375,-1.546875 1.46875,-2.0625 1.46875,-2.71875 Z m 0,0"
                 id="id-1f87d0ae-ca5d-412d-aeb3-cfbe74b954a5" />
            </symbol>
            <symbol
               overflow="visible"
               id="id-7e9ef0bd-7531-4b32-93b2-d12421cbd622">
              <path
                 style="stroke:none;stroke-width:0"
                 d="M 0.5,1.765625 H 5.484375 V -7.03125 H 0.5 Z m 0.5625,-0.5625 V -6.46875 h 3.859375 v 7.671875 z m 0,0"
                 id="id-dfdf5439-02ff-45d5-ac54-00702f92be24" />
            </symbol>
            <symbol
               overflow="visible"
               id="id-387e0638-ba4c-4710-ba7c-e44fb2c628ff">
              <path
                 style="stroke:none;stroke-width:0"
                 d="M 0.59375,-7.265625 0.421875,-6.4375 H 3 L 1.75,0 h 0.984375 l 1.25,-6.4375 h 2.59375 l 0.15625,-0.828125 z m 0,0"
                 id="id-2adfe71a-a2d1-422a-9e64-1235cb9e11fe" />
            </symbol>
          </g>
        </defs>
        <g
           id="id-db00696a-b4a6-4bc9-8951-ae2b891c7b46"
           transform="translate(-149.618,-127.187)">
          <g
             style="fill:#000000;fill-opacity:1"
             id="id-abda7ff5-33b1-450d-812d-71be88a11677">
            <g
               transform="translate(148.712,134.765)"
               id="g6557">
              <path
                 style="stroke:none;stroke-width:0"
                 d="M 1.796875,-0.8125 C 2,-0.484375 2.234375,-0.25 2.515625,-0.09375 c 0.28125,0.15625 0.640625,0.234375 1.03125,0.234375 0.65625,0 1.203125,-0.265625 1.609375,-0.78125 0.421875,-0.53125 0.625,-1.21875 0.625,-2.078125 0,-0.859375 -0.203125,-1.546875 -0.625,-2.078125 -0.40625,-0.53125 -0.953125,-0.78125 -1.609375,-0.78125 -0.390625,0 -0.75,0.078125 -1.03125,0.234375 C 2.234375,-5.1875 2,-4.9375 1.796875,-4.625 V -5.453125 H 0.90625 v 7.53125 h 0.890625 z m 3.0625,-1.90625 c 0,0.65625 -0.140625,1.171875 -0.40625,1.546875 -0.28125,0.375 -0.640625,0.5625 -1.125,0.5625 -0.484375,0 -0.84375,-0.1875 -1.109375,-0.5625 -0.28125,-0.375 -0.421875,-0.890625 -0.421875,-1.546875 0,-0.65625 0.140625,-1.171875 0.421875,-1.546875 0.265625,-0.375 0.625,-0.5625 1.109375,-0.5625 0.484375,0 0.84375,0.1875 1.125,0.5625 0.265625,0.375 0.40625,0.890625 0.40625,1.546875 z m 0,0"
                 id="id-40e7e129-b4b1-444a-b01b-bbed4b36c070" />
            </g>
            <g
               transform="translate(155.028,134.765)"
               id="g6560">
              <path
                 style="stroke:none;stroke-width:0"
                 d="m 5.609375,-2.953125 c 0,-0.8125 -0.21875,-1.453125 -0.640625,-1.921875 -0.4375,-0.46875 -1.015625,-0.703125 -1.75,-0.703125 -0.8125,0 -1.46875,0.25 -1.9375,0.78125 -0.5,0.515625 -0.734375,1.234375 -0.734375,2.125 0,0.875 0.265625,1.546875 0.765625,2.046875 0.515625,0.515625 1.203125,0.765625 2.0625,0.765625 0.359375,0 0.6875,-0.03125 1.03125,-0.109375 C 4.75,-0.046875 5.078125,-0.140625 5.390625,-0.28125 V -1.125 c -0.3125,0.171875 -0.640625,0.296875 -0.96875,0.375 -0.3125,0.09375 -0.640625,0.125 -1,0.125 -0.578125,0 -1.046875,-0.15625 -1.375,-0.46875 C 1.71875,-1.421875 1.53125,-1.890625 1.484375,-2.515625 h 4.125 z m -0.90625,-0.25 h -3.1875 c 0.046875,-0.515625 0.21875,-0.90625 0.515625,-1.1875 0.296875,-0.296875 0.703125,-0.4375 1.203125,-0.4375 0.4375,0 0.796875,0.15625 1.0625,0.4375 0.265625,0.296875 0.40625,0.6875 0.40625,1.1875 z m 0,0"
                 id="id-ff266065-390a-43e4-be7c-485c9a17161b" />
            </g>
            <g
               transform="translate(161.155,134.765)"
               id="g6563">
              <path
                 style="stroke:none;stroke-width:0"
                 d="M 4.09375,-4.609375 V -5.53125 C 4,-5.546875 3.921875,-5.5625 3.84375,-5.578125 c -0.0625,0 -0.140625,0 -0.203125,0 -0.4375,0 -0.796875,0.078125 -1.09375,0.234375 C 2.25,-5.1875 2,-4.9375 1.796875,-4.609375 v -0.84375 H 0.90625 V 0 h 0.890625 v -2.875 c 0,-0.609375 0.140625,-1.078125 0.421875,-1.40625 0.265625,-0.328125 0.65625,-0.5 1.15625,-0.5 0.140625,0 0.28125,0 0.390625,0.03125 0.125,0.03125 0.234375,0.078125 0.328125,0.140625 z m 0,0"
                 id="id-34b72f61-449a-49b2-a5f1-69573ac6c68c" />
            </g>
            <g
               transform="translate(165.25,134.765)"
               id="g6566">
              <path
                 style="stroke:none;stroke-width:0"
                 d="M 0.9375,-5.453125 V 0 h 0.890625 v -5.453125 z m 0,-2.125 V -6.4375 h 0.890625 v -1.140625 z m 0,0"
                 id="id-3f54008d-529c-48c8-a61c-d7d8dd5a5efd" />
            </g>
            <g
               transform="translate(168.01,134.765)"
               id="g6569">
              <path
                 style="stroke:none;stroke-width:0"
                 d="m 3.046875,-4.828125 c 0.484375,0 0.859375,0.1875 1.140625,0.578125 0.28125,0.375 0.421875,0.875 0.421875,1.53125 0,0.640625 -0.140625,1.15625 -0.421875,1.53125 C 3.90625,-0.8125 3.53125,-0.625 3.046875,-0.625 2.578125,-0.625 2.1875,-0.8125 1.90625,-1.171875 1.640625,-1.5625 1.5,-2.078125 1.5,-2.71875 c 0,-0.65625 0.140625,-1.171875 0.40625,-1.546875 0.28125,-0.375 0.671875,-0.5625 1.140625,-0.5625 z m 0,-0.75 c -0.78125,0 -1.390625,0.25 -1.828125,0.75 C 0.765625,-4.3125 0.546875,-3.625 0.546875,-2.71875 c 0,0.890625 0.21875,1.59375 0.671875,2.09375 0.4375,0.515625 1.046875,0.765625 1.828125,0.765625 0.78125,0 1.40625,-0.25 1.84375,-0.765625 0.4375,-0.5 0.65625,-1.203125 0.65625,-2.09375 0,-0.90625 -0.21875,-1.59375 -0.65625,-2.109375 -0.4375,-0.5 -1.0625,-0.75 -1.84375,-0.75 z m 0,0"
                 id="id-43fdf027-746b-442d-bd37-800101ab1e41" />
            </g>
            <g
               transform="translate(174.097,134.765)"
               id="g6572">
              <path
                 style="stroke:none;stroke-width:0"
                 d="M 4.53125,-4.625 C 4.34375,-4.9375 4.09375,-5.1875 3.8125,-5.34375 3.53125,-5.5 3.1875,-5.578125 2.78125,-5.578125 c -0.65625,0 -1.203125,0.25 -1.609375,0.78125 -0.421875,0.53125 -0.625,1.21875 -0.625,2.078125 0,0.859375 0.203125,1.546875 0.625,2.078125 0.40625,0.515625 0.953125,0.78125 1.609375,0.78125 0.40625,0 0.75,-0.078125 1.03125,-0.234375 C 4.09375,-0.25 4.34375,-0.484375 4.53125,-0.8125 V 0 H 5.421875 V -7.578125 H 4.53125 Z m -3.0625,1.90625 c 0,-0.65625 0.140625,-1.171875 0.421875,-1.546875 0.265625,-0.375 0.625,-0.5625 1.109375,-0.5625 0.46875,0 0.84375,0.1875 1.109375,0.5625 0.28125,0.375 0.421875,0.890625 0.421875,1.546875 0,0.65625 -0.140625,1.171875 -0.421875,1.546875 -0.265625,0.375 -0.640625,0.5625 -1.109375,0.5625 -0.484375,0 -0.84375,-0.1875 -1.109375,-0.5625 C 1.609375,-1.546875 1.46875,-2.0625 1.46875,-2.71875 Z m 0,0"
                 id="id-8bf5e497-7e2e-4bab-a561-4f8317139321" />
            </g>
          </g>
          <g
             style="fill:#000000;fill-opacity:1"
             id="id-5c173bba-de72-47aa-a184-49777f5f3a3a">
            <g
               transform="translate(183.696,134.765)"
               id="g6576">
              <path
                 style="stroke:none;stroke-width:0"
                 d="M 0.59375,-7.265625 0.421875,-6.4375 H 3 L 1.75,0 h 0.984375 l 1.25,-6.4375 h 2.59375 l 0.15625,-0.828125 z m 0,0"
                 id="id-fe395a54-9314-4d0f-b6c4-41ae307e1569" />
            </g>
          </g>
        </g>
      </g>
      <g
         transform="matrix(0.812924,0,0,0.812924,349.43627,128.32403)"
         ns1:version="1.3.0"
         ns1:texconverter="pdflatex"
         ns1:pdfconverter="inkscape"
         ns1:text="introduction size $\\alpha T$"
         ns1:preamble="/home/ludo/ownCloud/exposes/2023/MPDEE_CIRM/topo/figs/latex_pack.tex"
         ns1:scale="2.304351127559055"
         ns1:alignment="middle center"
         ns1:inkscapeversion="1.1.2"
         ns1:jacobian_sqrt="0.812924"
         id="g6800">
        <defs
           id="id-efa5cf2e-b26d-42e5-ad6b-7ab5d4bfe40d">
          <g
             id="id-6eace48e-4ecd-4644-a95e-0963615e6584">
            <symbol
               overflow="visible"
               id="id-383b22aa-c702-4e8a-b9a8-e21569cf64c1">
              <path
                 style="stroke:none"
                 d="M 0.5,1.765625 H 5.484375 V -7.03125 H 0.5 Z m 0.5625,-0.5625 V -6.46875 h 3.859375 v 7.671875 z m 0,0"
                 id="id-88909b19-8474-417e-9e69-9c9ec9c6f97a" />
            </symbol>
            <symbol
               overflow="visible"
               id="id-4dae8f5a-3d9f-4198-ac36-5dcb772b278f">
              <path
                 style="stroke:none"
                 d="M 0.9375,-5.453125 V 0 h 0.890625 v -5.453125 z m 0,-2.125 V -6.4375 h 0.890625 v -1.140625 z m 0,0"
                 id="id-4fe97409-f1ce-41b0-b365-147489f3bfee" />
            </symbol>
            <symbol
               overflow="visible"
               id="id-9ba36a19-b146-4a43-b902-144823890f97">
              <path
                 style="stroke:none"
                 d="m 5.46875,-3.296875 c 0,-0.75 -0.15625,-1.3125 -0.484375,-1.703125 -0.3125,-0.390625 -0.78125,-0.578125 -1.421875,-0.578125 -0.375,0 -0.71875,0.078125 -1,0.234375 -0.296875,0.171875 -0.53125,0.40625 -0.765625,0.734375 v -0.84375 H 0.90625 V 0 h 0.890625 v -3.078125 c 0,-0.53125 0.140625,-0.953125 0.421875,-1.265625 C 2.5,-4.640625 2.875,-4.8125 3.375,-4.8125 c 0.390625,0 0.703125,0.140625 0.90625,0.390625 0.1875,0.25 0.296875,0.640625 0.296875,1.15625 V 0 H 5.46875 Z m 0,0"
                 id="id-68ccc50e-1eed-412e-9723-53e164200c23" />
            </symbol>
            <symbol
               overflow="visible"
               id="id-cfa274c4-290f-495c-9c42-e6358c87da2b">
              <path
                 style="stroke:none"
                 d="m 1.828125,-7 h -0.90625 v 1.546875 H 0.265625 V -4.75 h 0.65625 v 2.953125 c 0,0.6875 0.140625,1.15625 0.390625,1.40625 C 1.578125,-0.125 2.0625,0 2.75,0 H 3.671875 V -0.75 H 2.75 C 2.375,-0.75 2.140625,-0.8125 2,-0.9375 1.890625,-1.0625 1.828125,-1.359375 1.828125,-1.796875 V -4.75 h 1.84375 v -0.703125 h -1.84375 z m 0,0"
                 id="id-34e12531-6616-48c3-b7f8-4c182922dfdb" />
            </symbol>
            <symbol
               overflow="visible"
               id="id-64819575-c653-4764-a465-d15145b5417d">
              <path
                 style="stroke:none"
                 d="M 4.09375,-4.609375 V -5.53125 C 4,-5.546875 3.921875,-5.5625 3.84375,-5.578125 c -0.0625,0 -0.140625,0 -0.203125,0 -0.4375,0 -0.796875,0.078125 -1.09375,0.234375 C 2.25,-5.1875 2,-4.9375 1.796875,-4.609375 v -0.84375 H 0.90625 V 0 h 0.890625 v -2.875 c 0,-0.609375 0.140625,-1.078125 0.421875,-1.40625 0.265625,-0.328125 0.65625,-0.5 1.15625,-0.5 0.140625,0 0.28125,0 0.390625,0.03125 0.125,0.03125 0.234375,0.078125 0.328125,0.140625 z m 0,0"
                 id="id-39433a7a-affe-492a-a38c-9e3f67bfaae6" />
            </symbol>
            <symbol
               overflow="visible"
               id="id-8ed51d82-8e99-4db8-8434-8f1b5433ea9d">
              <path
                 style="stroke:none"
                 d="m 3.046875,-4.828125 c 0.484375,0 0.859375,0.1875 1.140625,0.578125 0.28125,0.375 0.421875,0.875 0.421875,1.53125 0,0.640625 -0.140625,1.15625 -0.421875,1.53125 C 3.90625,-0.8125 3.53125,-0.625 3.046875,-0.625 2.578125,-0.625 2.1875,-0.8125 1.90625,-1.171875 1.640625,-1.5625 1.5,-2.078125 1.5,-2.71875 c 0,-0.65625 0.140625,-1.171875 0.40625,-1.546875 0.28125,-0.375 0.671875,-0.5625 1.140625,-0.5625 z m 0,-0.75 c -0.78125,0 -1.390625,0.25 -1.828125,0.75 C 0.765625,-4.3125 0.546875,-3.625 0.546875,-2.71875 c 0,0.890625 0.21875,1.59375 0.671875,2.09375 0.4375,0.515625 1.046875,0.765625 1.828125,0.765625 0.78125,0 1.40625,-0.25 1.84375,-0.765625 0.4375,-0.5 0.65625,-1.203125 0.65625,-2.09375 0,-0.90625 -0.21875,-1.59375 -0.65625,-2.109375 -0.4375,-0.5 -1.0625,-0.75 -1.84375,-0.75 z m 0,0"
                 id="id-ded1d720-d7df-480c-b6d8-a6f3940d3696" />
            </symbol>
            <symbol
               overflow="visible"
               id="id-34ece0a3-0955-4d11-8b05-bfc43d86405b">
              <path
                 style="stroke:none"
                 d="M 4.53125,-4.625 C 4.34375,-4.9375 4.09375,-5.1875 3.8125,-5.34375 3.53125,-5.5 3.1875,-5.578125 2.78125,-5.578125 c -0.65625,0 -1.203125,0.25 -1.609375,0.78125 -0.421875,0.53125 -0.625,1.21875 -0.625,2.078125 0,0.859375 0.203125,1.546875 0.625,2.078125 0.40625,0.515625 0.953125,0.78125 1.609375,0.78125 0.40625,0 0.75,-0.078125 1.03125,-0.234375 C 4.09375,-0.25 4.34375,-0.484375 4.53125,-0.8125 V 0 H 5.421875 V -7.578125 H 4.53125 Z m -3.0625,1.90625 c 0,-0.65625 0.140625,-1.171875 0.421875,-1.546875 0.265625,-0.375 0.625,-0.5625 1.109375,-0.5625 0.46875,0 0.84375,0.1875 1.109375,0.5625 0.28125,0.375 0.421875,0.890625 0.421875,1.546875 0,0.65625 -0.140625,1.171875 -0.421875,1.546875 -0.265625,0.375 -0.640625,0.5625 -1.109375,0.5625 -0.484375,0 -0.84375,-0.1875 -1.109375,-0.5625 C 1.609375,-1.546875 1.46875,-2.0625 1.46875,-2.71875 Z m 0,0"
                 id="id-010a45db-592b-4f30-b32a-c15643c2b760" />
            </symbol>
            <symbol
               overflow="visible"
               id="id-052756fa-43a1-4f86-a688-00b70a2b3010">
              <path
                 style="stroke:none"
                 d="m 0.84375,-2.15625 c 0,0.75 0.15625,1.328125 0.484375,1.71875 0.328125,0.390625 0.8125,0.578125 1.4375,0.578125 0.375,0 0.703125,-0.078125 1,-0.234375 0.28125,-0.171875 0.53125,-0.421875 0.75,-0.75 V 0 H 5.40625 V -5.453125 H 4.515625 v 3.09375 c 0,0.53125 -0.140625,0.953125 -0.421875,1.265625 -0.28125,0.3125 -0.671875,0.453125 -1.140625,0.453125 -0.40625,0 -0.703125,-0.125 -0.90625,-0.390625 C 1.84375,-1.28125 1.75,-1.671875 1.75,-2.1875 V -5.453125 H 0.84375 Z m 0,0"
                 id="id-45f4e031-8297-4f58-966c-372052c013f1" />
            </symbol>
            <symbol
               overflow="visible"
               id="id-dc1c9607-8281-4b52-a210-89d021df6cd1">
              <path
                 style="stroke:none"
                 d="m 4.859375,-5.25 c -0.25,-0.109375 -0.5,-0.1875 -0.765625,-0.25 -0.25,-0.046875 -0.53125,-0.078125 -0.796875,-0.078125 -0.859375,0 -1.515625,0.25 -2.015625,0.765625 -0.484375,0.5 -0.734375,1.203125 -0.734375,2.09375 0,0.875 0.234375,1.578125 0.734375,2.09375 0.46875,0.5 1.125,0.765625 1.953125,0.765625 0.296875,0 0.578125,-0.03125 0.859375,-0.09375 C 4.359375,0 4.609375,-0.09375 4.859375,-0.203125 V -1.03125 c -0.25,0.140625 -0.5,0.234375 -0.765625,0.296875 C 3.84375,-0.65625 3.59375,-0.625 3.328125,-0.625 2.75,-0.625 2.296875,-0.796875 1.96875,-1.171875 1.65625,-1.53125 1.5,-2.046875 1.5,-2.71875 c 0,-0.671875 0.15625,-1.1875 0.46875,-1.546875 0.328125,-0.375 0.78125,-0.5625 1.359375,-0.5625 0.265625,0 0.515625,0.046875 0.765625,0.109375 0.265625,0.078125 0.515625,0.171875 0.765625,0.3125 z m 0,0"
                 id="id-54e14bdb-feda-4152-a1d4-a5e81a27487d" />
            </symbol>
            <symbol
               overflow="visible"
               id="id-4cc63b23-3b56-41a8-86f8-abbf1ce5efc3">
              <path
                 style="stroke:none"
                 d="m 4.421875,-5.296875 c -0.25,-0.09375 -0.53125,-0.171875 -0.8125,-0.21875 C 3.3125,-5.5625 3,-5.578125 2.671875,-5.578125 2,-5.578125 1.484375,-5.4375 1.125,-5.15625 0.75,-4.890625 0.578125,-4.484375 0.578125,-3.984375 c 0,0.421875 0.125,0.765625 0.375,1 0.25,0.25 0.640625,0.421875 1.203125,0.546875 l 0.3125,0.0625 c 0.546875,0.125 0.90625,0.25 1.0625,0.375 0.171875,0.140625 0.25,0.328125 0.25,0.5625 0,0.265625 -0.109375,0.46875 -0.328125,0.609375 -0.234375,0.15625 -0.5625,0.21875 -0.984375,0.21875 -0.3125,0 -0.625,-0.03125 -0.953125,-0.125 C 1.203125,-0.828125 0.875,-0.953125 0.53125,-1.125 v 0.921875 C 0.890625,-0.09375 1.21875,0 1.546875,0.0625 c 0.3125,0.046875 0.609375,0.078125 0.90625,0.078125 0.703125,0 1.25,-0.15625 1.65625,-0.4375 C 4.5,-0.59375 4.703125,-1 4.703125,-1.5 c 0,-0.4375 -0.125,-0.796875 -0.390625,-1.046875 -0.28125,-0.25 -0.71875,-0.4375 -1.359375,-0.578125 l -0.3125,-0.0625 C 2.15625,-3.296875 1.84375,-3.40625 1.6875,-3.53125 1.53125,-3.65625 1.453125,-3.8125 1.453125,-4.015625 1.453125,-4.28125 1.5625,-4.5 1.78125,-4.625 c 0.21875,-0.140625 0.546875,-0.203125 1,-0.203125 0.296875,0 0.5625,0.015625 0.84375,0.09375 0.265625,0.0625 0.53125,0.15625 0.796875,0.28125 z m 0,0"
                 id="id-733e72f9-3d99-4587-b399-c0a3def76514" />
            </symbol>
            <symbol
               overflow="visible"
               id="id-a4e8c30e-d794-4a1b-8900-56e3075a20ca">
              <path
                 style="stroke:none"
                 d="m 0.546875,-5.453125 v 0.71875 h 3.25 l -3.375,3.921875 V 0 H 4.8125 v -0.71875 h -3.375 l 3.375,-3.921875 v -0.8125 z m 0,0"
                 id="id-a0f5526f-7cf1-4523-b344-1322685ae8f6" />
            </symbol>
            <symbol
               overflow="visible"
               id="id-6bbaf575-6505-483b-85c9-a46d41d1f4b2">
              <path
                 style="stroke:none"
                 d="m 5.609375,-2.953125 c 0,-0.8125 -0.21875,-1.453125 -0.640625,-1.921875 -0.4375,-0.46875 -1.015625,-0.703125 -1.75,-0.703125 -0.8125,0 -1.46875,0.25 -1.9375,0.78125 -0.5,0.515625 -0.734375,1.234375 -0.734375,2.125 0,0.875 0.265625,1.546875 0.765625,2.046875 0.515625,0.515625 1.203125,0.765625 2.0625,0.765625 0.359375,0 0.6875,-0.03125 1.03125,-0.109375 C 4.75,-0.046875 5.078125,-0.140625 5.390625,-0.28125 V -1.125 c -0.3125,0.171875 -0.640625,0.296875 -0.96875,0.375 -0.3125,0.09375 -0.640625,0.125 -1,0.125 -0.578125,0 -1.046875,-0.15625 -1.375,-0.46875 C 1.71875,-1.421875 1.53125,-1.890625 1.484375,-2.515625 h 4.125 z m -0.90625,-0.25 h -3.1875 c 0.046875,-0.515625 0.21875,-0.90625 0.515625,-1.1875 0.296875,-0.296875 0.703125,-0.4375 1.203125,-0.4375 0.4375,0 0.796875,0.15625 1.0625,0.4375 0.265625,0.296875 0.40625,0.6875 0.40625,1.1875 z m 0,0"
                 id="id-c6d8ec62-808d-48f0-b6f9-379989fcb246" />
            </symbol>
            <symbol
               overflow="visible"
               id="id-23a0519d-7a8f-4800-97bb-ea5be3b8fb27">
              <path
                 style="stroke:none"
                 d="M 0.5,1.765625 H 5.484375 V -7.03125 H 0.5 Z m 0.5625,-0.5625 V -6.46875 h 3.859375 v 7.671875 z m 0,0"
                 id="id-9b00d0d3-c64f-43ee-8869-6b3b674f5b47" />
            </symbol>
            <symbol
               overflow="visible"
               id="id-5074c744-0bc1-4643-8f5a-03596891d497">
              <path
                 style="stroke:none"
                 d="m 5.375,-4.109375 c -0.0625,-0.46875 -0.1875,-0.796875 -0.359375,-1 -0.296875,-0.3125 -0.78125,-0.46875 -1.4375,-0.46875 -0.78125,0 -1.4375,0.25 -1.96875,0.75 C 1.0625,-4.3125 0.703125,-3.625 0.53125,-2.71875 0.46875,-2.421875 0.4375,-2.140625 0.4375,-1.890625 c 0,0.5 0.125,0.9375 0.34375,1.265625 0.34375,0.515625 0.90625,0.765625 1.6875,0.765625 0.625,0 1.1875,-0.15625 1.625,-0.484375 0.234375,-0.171875 0.46875,-0.5 0.71875,-0.984375 L 5.015625,0 H 5.96875 l -0.390625,-2.734375 1.4375,-2.71875 h -0.9375 z m -1.4375,2.6875 C 3.65625,-0.890625 3.203125,-0.625 2.625,-0.625 c -0.484375,0 -0.828125,-0.1875 -1.046875,-0.546875 -0.125,-0.234375 -0.1875,-0.515625 -0.1875,-0.859375 0,-0.21875 0.03125,-0.4375 0.078125,-0.6875 0.125,-0.65625 0.359375,-1.171875 0.71875,-1.546875 0.359375,-0.375 0.765625,-0.5625 1.25,-0.5625 0.59375,0 0.921875,0.265625 1,0.796875 l 0.1875,1.296875 z m 0,0"
                 id="id-e9f610a1-1d58-45e3-844d-f31c507c2e0b" />
            </symbol>
            <symbol
               overflow="visible"
               id="id-0162b50b-bb7d-4647-bf1b-151f4eb26e39">
              <path
                 style="stroke:none"
                 d="M 0.59375,-7.265625 0.421875,-6.4375 H 3 L 1.75,0 h 0.984375 l 1.25,-6.4375 h 2.59375 l 0.15625,-0.828125 z m 0,0"
                 id="id-49feac69-4936-4126-86bd-e6e70d9971d2" />
            </symbol>
          </g>
        </defs>
        <g
           id="id-f28d1d30-fecf-4d2b-972f-b04c64403d1f"
           transform="translate(-149.65,-127.187)">
          <g
             style="fill:#000000;fill-opacity:1"
             id="id-3f5fdfba-3f3e-4989-b01d-f88921b5f9d0">
            <g
               transform="translate(148.712,134.765)"
               id="g7121">
              <path
                 style="stroke:none"
                 d="M 0.9375,-5.453125 V 0 h 0.890625 v -5.453125 z m 0,-2.125 V -6.4375 h 0.890625 v -1.140625 z m 0,0"
                 id="id-e6119c6b-b7de-4af7-b05b-2d35223317dd" />
            </g>
            <g
               transform="translate(151.472,134.765)"
               id="g7124">
              <path
                 style="stroke:none"
                 d="m 5.46875,-3.296875 c 0,-0.75 -0.15625,-1.3125 -0.484375,-1.703125 -0.3125,-0.390625 -0.78125,-0.578125 -1.421875,-0.578125 -0.375,0 -0.71875,0.078125 -1,0.234375 -0.296875,0.171875 -0.53125,0.40625 -0.765625,0.734375 v -0.84375 H 0.90625 V 0 h 0.890625 v -3.078125 c 0,-0.53125 0.140625,-0.953125 0.421875,-1.265625 C 2.5,-4.640625 2.875,-4.8125 3.375,-4.8125 c 0.390625,0 0.703125,0.140625 0.90625,0.390625 0.1875,0.25 0.296875,0.640625 0.296875,1.15625 V 0 H 5.46875 Z m 0,0"
                 id="id-c4d667fc-2b5b-42d8-83c0-8bce397c995e" />
            </g>
            <g
               transform="translate(157.778,134.765)"
               id="g7127">
              <path
                 style="stroke:none"
                 d="m 1.828125,-7 h -0.90625 v 1.546875 H 0.265625 V -4.75 h 0.65625 v 2.953125 c 0,0.6875 0.140625,1.15625 0.390625,1.40625 C 1.578125,-0.125 2.0625,0 2.75,0 H 3.671875 V -0.75 H 2.75 C 2.375,-0.75 2.140625,-0.8125 2,-0.9375 1.890625,-1.0625 1.828125,-1.359375 1.828125,-1.796875 V -4.75 h 1.84375 v -0.703125 h -1.84375 z m 0,0"
                 id="id-7a58ed82-7e9e-4441-8b66-55f7a6f34003" />
            </g>
            <g
               transform="translate(161.683,134.765)"
               id="g7130">
              <path
                 style="stroke:none"
                 d="M 4.09375,-4.609375 V -5.53125 C 4,-5.546875 3.921875,-5.5625 3.84375,-5.578125 c -0.0625,0 -0.140625,0 -0.203125,0 -0.4375,0 -0.796875,0.078125 -1.09375,0.234375 C 2.25,-5.1875 2,-4.9375 1.796875,-4.609375 v -0.84375 H 0.90625 V 0 h 0.890625 v -2.875 c 0,-0.609375 0.140625,-1.078125 0.421875,-1.40625 0.265625,-0.328125 0.65625,-0.5 1.15625,-0.5 0.140625,0 0.28125,0 0.390625,0.03125 0.125,0.03125 0.234375,0.078125 0.328125,0.140625 z m 0,0"
                 id="id-a164b9f3-07b8-478e-acb8-5068ca589711" />
            </g>
          </g>
          <g
             style="fill:#000000;fill-opacity:1"
             id="id-cc5cd466-8d57-44a3-ab53-db4a5621a88b">
            <g
               transform="translate(165.559,134.765)"
               id="g7134">
              <path
                 style="stroke:none"
                 d="m 3.046875,-4.828125 c 0.484375,0 0.859375,0.1875 1.140625,0.578125 0.28125,0.375 0.421875,0.875 0.421875,1.53125 0,0.640625 -0.140625,1.15625 -0.421875,1.53125 C 3.90625,-0.8125 3.53125,-0.625 3.046875,-0.625 2.578125,-0.625 2.1875,-0.8125 1.90625,-1.171875 1.640625,-1.5625 1.5,-2.078125 1.5,-2.71875 c 0,-0.65625 0.140625,-1.171875 0.40625,-1.546875 0.28125,-0.375 0.671875,-0.5625 1.140625,-0.5625 z m 0,-0.75 c -0.78125,0 -1.390625,0.25 -1.828125,0.75 C 0.765625,-4.3125 0.546875,-3.625 0.546875,-2.71875 c 0,0.890625 0.21875,1.59375 0.671875,2.09375 0.4375,0.515625 1.046875,0.765625 1.828125,0.765625 0.78125,0 1.40625,-0.25 1.84375,-0.765625 0.4375,-0.5 0.65625,-1.203125 0.65625,-2.09375 0,-0.90625 -0.21875,-1.59375 -0.65625,-2.109375 -0.4375,-0.5 -1.0625,-0.75 -1.84375,-0.75 z m 0,0"
                 id="id-a53ca91e-11ed-4961-b680-63ce24f3793c" />
            </g>
            <g
               transform="translate(171.646,134.765)"
               id="g7137">
              <path
                 style="stroke:none"
                 d="M 4.53125,-4.625 C 4.34375,-4.9375 4.09375,-5.1875 3.8125,-5.34375 3.53125,-5.5 3.1875,-5.578125 2.78125,-5.578125 c -0.65625,0 -1.203125,0.25 -1.609375,0.78125 -0.421875,0.53125 -0.625,1.21875 -0.625,2.078125 0,0.859375 0.203125,1.546875 0.625,2.078125 0.40625,0.515625 0.953125,0.78125 1.609375,0.78125 0.40625,0 0.75,-0.078125 1.03125,-0.234375 C 4.09375,-0.25 4.34375,-0.484375 4.53125,-0.8125 V 0 H 5.421875 V -7.578125 H 4.53125 Z m -3.0625,1.90625 c 0,-0.65625 0.140625,-1.171875 0.421875,-1.546875 0.265625,-0.375 0.625,-0.5625 1.109375,-0.5625 0.46875,0 0.84375,0.1875 1.109375,0.5625 0.28125,0.375 0.421875,0.890625 0.421875,1.546875 0,0.65625 -0.140625,1.171875 -0.421875,1.546875 -0.265625,0.375 -0.640625,0.5625 -1.109375,0.5625 -0.484375,0 -0.84375,-0.1875 -1.109375,-0.5625 C 1.609375,-1.546875 1.46875,-2.0625 1.46875,-2.71875 Z m 0,0"
                 id="id-d5124f0a-6337-4c43-9b68-d56aeb8af0c5" />
            </g>
            <g
               transform="translate(177.962,134.765)"
               id="g7140">
              <path
                 style="stroke:none"
                 d="m 0.84375,-2.15625 c 0,0.75 0.15625,1.328125 0.484375,1.71875 0.328125,0.390625 0.8125,0.578125 1.4375,0.578125 0.375,0 0.703125,-0.078125 1,-0.234375 0.28125,-0.171875 0.53125,-0.421875 0.75,-0.75 V 0 H 5.40625 V -5.453125 H 4.515625 v 3.09375 c 0,0.53125 -0.140625,0.953125 -0.421875,1.265625 -0.28125,0.3125 -0.671875,0.453125 -1.140625,0.453125 -0.40625,0 -0.703125,-0.125 -0.90625,-0.390625 C 1.84375,-1.28125 1.75,-1.671875 1.75,-2.1875 V -5.453125 H 0.84375 Z m 0,0"
                 id="id-a5753e88-9f50-4c2c-8394-393b28e2b238" />
            </g>
            <g
               transform="translate(184.269,134.765)"
               id="g7143">
              <path
                 style="stroke:none"
                 d="m 4.859375,-5.25 c -0.25,-0.109375 -0.5,-0.1875 -0.765625,-0.25 -0.25,-0.046875 -0.53125,-0.078125 -0.796875,-0.078125 -0.859375,0 -1.515625,0.25 -2.015625,0.765625 -0.484375,0.5 -0.734375,1.203125 -0.734375,2.09375 0,0.875 0.234375,1.578125 0.734375,2.09375 0.46875,0.5 1.125,0.765625 1.953125,0.765625 0.296875,0 0.578125,-0.03125 0.859375,-0.09375 C 4.359375,0 4.609375,-0.09375 4.859375,-0.203125 V -1.03125 c -0.25,0.140625 -0.5,0.234375 -0.765625,0.296875 C 3.84375,-0.65625 3.59375,-0.625 3.328125,-0.625 2.75,-0.625 2.296875,-0.796875 1.96875,-1.171875 1.65625,-1.53125 1.5,-2.046875 1.5,-2.71875 c 0,-0.671875 0.15625,-1.1875 0.46875,-1.546875 0.328125,-0.375 0.78125,-0.5625 1.359375,-0.5625 0.265625,0 0.515625,0.046875 0.765625,0.109375 0.265625,0.078125 0.515625,0.171875 0.765625,0.3125 z m 0,0"
                 id="id-15eab81c-ba65-4d61-bf44-cf2649a39308" />
            </g>
            <g
               transform="translate(189.738,134.765)"
               id="g7146">
              <path
                 style="stroke:none"
                 d="m 1.828125,-7 h -0.90625 v 1.546875 H 0.265625 V -4.75 h 0.65625 v 2.953125 c 0,0.6875 0.140625,1.15625 0.390625,1.40625 C 1.578125,-0.125 2.0625,0 2.75,0 H 3.671875 V -0.75 H 2.75 C 2.375,-0.75 2.140625,-0.8125 2,-0.9375 1.890625,-1.0625 1.828125,-1.359375 1.828125,-1.796875 V -4.75 h 1.84375 v -0.703125 h -1.84375 z m 0,0"
                 id="id-f702b3e8-da24-4b78-a8b5-bb23ee71d85a" />
            </g>
            <g
               transform="translate(193.643,134.765)"
               id="g7149">
              <path
                 style="stroke:none"
                 d="M 0.9375,-5.453125 V 0 h 0.890625 v -5.453125 z m 0,-2.125 V -6.4375 h 0.890625 v -1.140625 z m 0,0"
                 id="id-a1cc8b70-5654-4627-b94d-108cdf548a2d" />
            </g>
            <g
               transform="translate(196.403,134.765)"
               id="g7152">
              <path
                 style="stroke:none"
                 d="m 3.046875,-4.828125 c 0.484375,0 0.859375,0.1875 1.140625,0.578125 0.28125,0.375 0.421875,0.875 0.421875,1.53125 0,0.640625 -0.140625,1.15625 -0.421875,1.53125 C 3.90625,-0.8125 3.53125,-0.625 3.046875,-0.625 2.578125,-0.625 2.1875,-0.8125 1.90625,-1.171875 1.640625,-1.5625 1.5,-2.078125 1.5,-2.71875 c 0,-0.65625 0.140625,-1.171875 0.40625,-1.546875 0.28125,-0.375 0.671875,-0.5625 1.140625,-0.5625 z m 0,-0.75 c -0.78125,0 -1.390625,0.25 -1.828125,0.75 C 0.765625,-4.3125 0.546875,-3.625 0.546875,-2.71875 c 0,0.890625 0.21875,1.59375 0.671875,2.09375 0.4375,0.515625 1.046875,0.765625 1.828125,0.765625 0.78125,0 1.40625,-0.25 1.84375,-0.765625 0.4375,-0.5 0.65625,-1.203125 0.65625,-2.09375 0,-0.90625 -0.21875,-1.59375 -0.65625,-2.109375 -0.4375,-0.5 -1.0625,-0.75 -1.84375,-0.75 z m 0,0"
                 id="id-739348be-453a-40ac-9b23-f2bea08ea4d7" />
            </g>
            <g
               transform="translate(202.49,134.765)"
               id="g7155">
              <path
                 style="stroke:none"
                 d="m 5.46875,-3.296875 c 0,-0.75 -0.15625,-1.3125 -0.484375,-1.703125 -0.3125,-0.390625 -0.78125,-0.578125 -1.421875,-0.578125 -0.375,0 -0.71875,0.078125 -1,0.234375 -0.296875,0.171875 -0.53125,0.40625 -0.765625,0.734375 v -0.84375 H 0.90625 V 0 h 0.890625 v -3.078125 c 0,-0.53125 0.140625,-0.953125 0.421875,-1.265625 C 2.5,-4.640625 2.875,-4.8125 3.375,-4.8125 c 0.390625,0 0.703125,0.140625 0.90625,0.390625 0.1875,0.25 0.296875,0.640625 0.296875,1.15625 V 0 H 5.46875 Z m 0,0"
                 id="id-0a751c97-a558-4e85-b0d6-56c2fba526fc" />
            </g>
          </g>
          <g
             style="fill:#000000;fill-opacity:1"
             id="id-336e136c-1117-420f-b543-0f6684deb363">
            <g
               transform="translate(211.955,134.765)"
               id="g7159">
              <path
                 style="stroke:none"
                 d="m 4.421875,-5.296875 c -0.25,-0.09375 -0.53125,-0.171875 -0.8125,-0.21875 C 3.3125,-5.5625 3,-5.578125 2.671875,-5.578125 2,-5.578125 1.484375,-5.4375 1.125,-5.15625 0.75,-4.890625 0.578125,-4.484375 0.578125,-3.984375 c 0,0.421875 0.125,0.765625 0.375,1 0.25,0.25 0.640625,0.421875 1.203125,0.546875 l 0.3125,0.0625 c 0.546875,0.125 0.90625,0.25 1.0625,0.375 0.171875,0.140625 0.25,0.328125 0.25,0.5625 0,0.265625 -0.109375,0.46875 -0.328125,0.609375 -0.234375,0.15625 -0.5625,0.21875 -0.984375,0.21875 -0.3125,0 -0.625,-0.03125 -0.953125,-0.125 C 1.203125,-0.828125 0.875,-0.953125 0.53125,-1.125 v 0.921875 C 0.890625,-0.09375 1.21875,0 1.546875,0.0625 c 0.3125,0.046875 0.609375,0.078125 0.90625,0.078125 0.703125,0 1.25,-0.15625 1.65625,-0.4375 C 4.5,-0.59375 4.703125,-1 4.703125,-1.5 c 0,-0.4375 -0.125,-0.796875 -0.390625,-1.046875 -0.28125,-0.25 -0.71875,-0.4375 -1.359375,-0.578125 l -0.3125,-0.0625 C 2.15625,-3.296875 1.84375,-3.40625 1.6875,-3.53125 1.53125,-3.65625 1.453125,-3.8125 1.453125,-4.015625 1.453125,-4.28125 1.5625,-4.5 1.78125,-4.625 c 0.21875,-0.140625 0.546875,-0.203125 1,-0.203125 0.296875,0 0.5625,0.015625 0.84375,0.09375 0.265625,0.0625 0.53125,0.15625 0.796875,0.28125 z m 0,0"
                 id="id-5d9404e1-4c2b-4d14-863e-43b32ea0c101" />
            </g>
            <g
               transform="translate(217.135,134.765)"
               id="g7162">
              <path
                 style="stroke:none"
                 d="M 0.9375,-5.453125 V 0 h 0.890625 v -5.453125 z m 0,-2.125 V -6.4375 h 0.890625 v -1.140625 z m 0,0"
                 id="id-70b41a4b-6d27-45b3-9a25-6e87f8e99d65" />
            </g>
            <g
               transform="translate(219.895,134.765)"
               id="g7165">
              <path
                 style="stroke:none"
                 d="m 0.546875,-5.453125 v 0.71875 h 3.25 l -3.375,3.921875 V 0 H 4.8125 v -0.71875 h -3.375 l 3.375,-3.921875 v -0.8125 z m 0,0"
                 id="id-b8139cae-4ce5-4537-a1ac-f5a72a71c2be" />
            </g>
            <g
               transform="translate(225.115,134.765)"
               id="g7168">
              <path
                 style="stroke:none"
                 d="m 5.609375,-2.953125 c 0,-0.8125 -0.21875,-1.453125 -0.640625,-1.921875 -0.4375,-0.46875 -1.015625,-0.703125 -1.75,-0.703125 -0.8125,0 -1.46875,0.25 -1.9375,0.78125 -0.5,0.515625 -0.734375,1.234375 -0.734375,2.125 0,0.875 0.265625,1.546875 0.765625,2.046875 0.515625,0.515625 1.203125,0.765625 2.0625,0.765625 0.359375,0 0.6875,-0.03125 1.03125,-0.109375 C 4.75,-0.046875 5.078125,-0.140625 5.390625,-0.28125 V -1.125 c -0.3125,0.171875 -0.640625,0.296875 -0.96875,0.375 -0.3125,0.09375 -0.640625,0.125 -1,0.125 -0.578125,0 -1.046875,-0.15625 -1.375,-0.46875 C 1.71875,-1.421875 1.53125,-1.890625 1.484375,-2.515625 h 4.125 z m -0.90625,-0.25 h -3.1875 c 0.046875,-0.515625 0.21875,-0.90625 0.515625,-1.1875 0.296875,-0.296875 0.703125,-0.4375 1.203125,-0.4375 0.4375,0 0.796875,0.15625 1.0625,0.4375 0.265625,0.296875 0.40625,0.6875 0.40625,1.1875 z m 0,0"
                 id="id-1cf64d3e-fca5-4b25-8856-5f005723c36c" />
            </g>
          </g>
          <g
             style="fill:#000000;fill-opacity:1"
             id="id-fa477239-6bf4-43a4-bd2a-9bd34aaf73a7">
            <g
               transform="translate(234.525,134.765)"
               id="g7172">
              <path
                 style="stroke:none"
                 d="m 5.375,-4.109375 c -0.0625,-0.46875 -0.1875,-0.796875 -0.359375,-1 -0.296875,-0.3125 -0.78125,-0.46875 -1.4375,-0.46875 -0.78125,0 -1.4375,0.25 -1.96875,0.75 C 1.0625,-4.3125 0.703125,-3.625 0.53125,-2.71875 0.46875,-2.421875 0.4375,-2.140625 0.4375,-1.890625 c 0,0.5 0.125,0.9375 0.34375,1.265625 0.34375,0.515625 0.90625,0.765625 1.6875,0.765625 0.625,0 1.1875,-0.15625 1.625,-0.484375 0.234375,-0.171875 0.46875,-0.5 0.71875,-0.984375 L 5.015625,0 H 5.96875 l -0.390625,-2.734375 1.4375,-2.71875 h -0.9375 z m -1.4375,2.6875 C 3.65625,-0.890625 3.203125,-0.625 2.625,-0.625 c -0.484375,0 -0.828125,-0.1875 -1.046875,-0.546875 -0.125,-0.234375 -0.1875,-0.515625 -0.1875,-0.859375 0,-0.21875 0.03125,-0.4375 0.078125,-0.6875 0.125,-0.65625 0.359375,-1.171875 0.71875,-1.546875 0.359375,-0.375 0.765625,-0.5625 1.25,-0.5625 0.59375,0 0.921875,0.265625 1,0.796875 l 0.1875,1.296875 z m 0,0"
                 id="id-ecb7f9d4-1516-47e2-85bf-22598d308e10" />
            </g>
          </g>
          <g
             style="fill:#000000;fill-opacity:1"
             id="id-818f7992-38a6-4405-8e1b-48328f610490">
            <g
               transform="translate(241.788,134.765)"
               id="g7176">
              <path
                 style="stroke:none"
                 d="M 0.59375,-7.265625 0.421875,-6.4375 H 3 L 1.75,0 h 0.984375 l 1.25,-6.4375 h 2.59375 l 0.15625,-0.828125 z m 0,0"
                 id="id-6d3fa30b-aa8f-447a-b261-99b73c463d0c" />
            </g>
          </g>
        </g>
      </g>
    </g>
    <flowRoot
       xml:space="preserve"
       id="flowRoot16211"
       style="font-style:normal;font-variant:normal;font-weight:normal;font-stretch:normal;font-size:12px;line-height:125%;font-family:Calibri;-inkscape-font-specification:Calibri;text-align:center;letter-spacing:0px;word-spacing:0px;text-anchor:middle;fill:#000000;fill-opacity:1;stroke:none;stroke-width:1px;stroke-linecap:butt;stroke-linejoin:miter;stroke-opacity:1"
       transform="scale(0.26458333)"><flowRegion
         id="flowRegion16213"><rect
           id="rect16215"
           width="2044.2858"
           height="824.28571"
           x="137.14285"
           y="648.23395" /></flowRegion><flowPara
         id="flowPara16217" /></flowRoot>
  </g>
</svg>
