<?xml version="1.0" encoding="UTF-8" standalone="no"?>
<svg
   width="1433.4655pt"
   height="1134.3469pt"
   version="1.1"
   viewBox="0 0 1433.4655 1134.347"
   id="svg177"
   sodipodi:docname="life_cycle4.svg"
   inkscape:version="1.1.2 (0a00cf5339, 2022-02-04)"
   xmlns:inkscape="http://www.inkscape.org/namespaces/inkscape"
   xmlns:sodipodi="http://sodipodi.sourceforge.net/DTD/sodipodi-0.dtd"
   xmlns="http://www.w3.org/2000/svg"
   xmlns:svg="http://www.w3.org/2000/svg">
  <sodipodi:namedview
     id="namedview179"
     pagecolor="#ffffff"
     bordercolor="#666666"
     borderopacity="1.0"
     inkscape:pageshadow="2"
     inkscape:pageopacity="0.0"
     inkscape:pagecheckerboard="0"
     inkscape:document-units="pt"
     showgrid="false"
     fit-margin-top="1"
     lock-margins="true"
     fit-margin-left="1"
     fit-margin-right="1"
     fit-margin-bottom="1"
     showguides="true"
     inkscape:guide-bbox="true"
     inkscape:zoom="0.38517857"
     inkscape:cx="606.21233"
     inkscape:cy="993.0459"
     inkscape:window-width="2498"
     inkscape:window-height="1376"
     inkscape:window-x="0"
     inkscape:window-y="0"
     inkscape:window-maximized="1"
     inkscape:current-layer="g5048" />
  <defs
     id="defs65">
    <inkscape:path-effect
       effect="bspline"
       id="path-effect33980"
       is_visible="true"
       lpeversion="1"
       weight="33.333333"
       steps="2"
       helper_size="0"
       apply_no_weight="true"
       apply_with_weight="true"
       only_selected="false" />
    <marker
       style="overflow:visible"
       id="marker33968"
       refX="0"
       refY="0"
       orient="auto"
       inkscape:stockid="Arrow2Mend"
       inkscape:isstock="true">
      <path
         transform="scale(-0.6)"
         d="M 8.7185878,4.0337352 -2.2072895,0.01601326 8.7185884,-4.0017078 c -1.7454984,2.3720609 -1.7354408,5.6174519 -6e-7,8.035443 z"
         style="fill:context-stroke;fill-rule:evenodd;stroke:context-stroke;stroke-width:0.625;stroke-linejoin:round"
         id="path33966" />
    </marker>
    <inkscape:path-effect
       effect="bspline"
       id="path-effect33964"
       is_visible="true"
       lpeversion="1"
       weight="33.333333"
       steps="2"
       helper_size="0"
       apply_no_weight="true"
       apply_with_weight="true"
       only_selected="false" />
    <marker
       style="overflow:visible"
       id="Arrow2Mstart"
       refX="0"
       refY="0"
       orient="auto"
       inkscape:stockid="Arrow2Mstart"
       inkscape:isstock="true">
      <path
         transform="scale(0.6)"
         d="M 8.7185878,4.0337352 -2.2072895,0.01601326 8.7185884,-4.0017078 c -1.7454984,2.3720609 -1.7354408,5.6174519 -6e-7,8.035443 z"
         style="fill:context-stroke;fill-rule:evenodd;stroke:context-stroke;stroke-width:0.625;stroke-linejoin:round"
         id="path33600" />
    </marker>
    <inkscape:path-effect
       effect="bspline"
       id="path-effect33936"
       is_visible="true"
       lpeversion="1"
       weight="33.333333"
       steps="2"
       helper_size="0"
       apply_no_weight="true"
       apply_with_weight="true"
       only_selected="false" />
    <marker
       style="overflow:visible"
       id="Arrow2Mend"
       refX="0"
       refY="0"
       orient="auto"
       inkscape:stockid="Arrow2Mend"
       inkscape:isstock="true">
      <path
         transform="scale(-0.6)"
         d="M 8.7185878,4.0337352 -2.2072895,0.01601326 8.7185884,-4.0017078 c -1.7454984,2.3720609 -1.7354408,5.6174519 -6e-7,8.035443 z"
         style="fill:context-stroke;fill-rule:evenodd;stroke:context-stroke;stroke-width:0.625;stroke-linejoin:round"
         id="path33603" />
    </marker>
    <marker
       style="overflow:visible"
       id="Arrow2Lend"
       refX="0"
       refY="0"
       orient="auto"
       inkscape:stockid="Arrow2Lend"
       inkscape:isstock="true">
      <path
         transform="matrix(-1.1,0,0,-1.1,-1.1,0)"
         d="M 8.7185878,4.0337352 -2.2072895,0.01601326 8.7185884,-4.0017078 c -1.7454984,2.3720609 -1.7354408,5.6174519 -6e-7,8.035443 z"
         style="fill:context-stroke;fill-rule:evenodd;stroke:context-stroke;stroke-width:0.625;stroke-linejoin:round"
         id="path33597" />
    </marker>
    <inkscape:path-effect
       effect="bspline"
       id="path-effect33574"
       is_visible="true"
       lpeversion="1"
       weight="33.333333"
       steps="2"
       helper_size="0"
       apply_no_weight="true"
       apply_with_weight="true"
       only_selected="false" />
    <symbol
       id="u"
       overflow="visible">
      <path
         d="m 18.766,-1.125 c -0.96875,0.5 -1.9805,0.875 -3.0312,1.125 -1.043,0.25781 -2.1367,0.39062 -3.2812,0.39062 -3.3984,0 -6.0898,-0.94531 -8.0781,-2.8438 -1.9922,-1.9062 -2.9844,-4.4844 -2.9844,-7.7344 0,-3.2578 0.99219,-5.8359 2.9844,-7.7344 1.9883,-1.9062 4.6797,-2.8594 8.0781,-2.8594 1.1445,0 2.2383,0.13281 3.2812,0.39062 1.0508,0.25 2.0625,0.625 3.0312,1.125 v 4.2188 c -0.98047,-0.65625 -1.9453,-1.1406 -2.8906,-1.4531 -0.94922,-0.3125 -1.9492,-0.46875 -3,-0.46875 -1.875,0 -3.3516,0.60547 -4.4219,1.8125 -1.0742,1.1992 -1.6094,2.8555 -1.6094,4.9688 0,2.1055 0.53516,3.7617 1.6094,4.9688 1.0703,1.1992 2.5469,1.7969 4.4219,1.7969 1.0508,0 2.0508,-0.14844 3,-0.45312 0.94531,-0.3125 1.9102,-0.80078 2.8906,-1.4688 z"
         id="path2" />
    </symbol>
    <symbol
       id="c"
       overflow="visible">
      <path
         d="m 13.734,-11.141 c -0.4375,-0.19531 -0.87109,-0.34375 -1.2969,-0.4375 -0.41797,-0.10156 -0.83984,-0.15625 -1.2656,-0.15625 -1.2617,0 -2.2305,0.40625 -2.9062,1.2188 -0.67969,0.80469 -1.0156,1.9531 -1.0156,3.4531 v 7.0625 H 2.3591 v -15.312 h 4.8906 v 2.5156 c 0.625,-1 1.3438,-1.7266 2.1562,-2.1875 0.82031,-0.46875 1.8008,-0.70312 2.9375,-0.70312 0.16406,0 0.34375,0.01172 0.53125,0.03125 0.19531,0.01172 0.47656,0.03906 0.84375,0.07813 z"
         id="path5" />
    </symbol>
    <symbol
       id="b"
       overflow="visible">
      <path
         d="m 17.641,-7.7031 v 1.4062 H 6.188 c 0.125,1.1484 0.53906,2.0078 1.25,2.5781 0.70703,0.57422 1.7031,0.85938 2.9844,0.85938 1.0312,0 2.082,-0.14844 3.1562,-0.45312 1.082,-0.3125 2.1914,-0.77344 3.3281,-1.3906 v 3.7656 c -1.1562,0.4375 -2.3125,0.76562 -3.4688,0.98438 -1.1562,0.22656 -2.3125,0.34375 -3.4688,0.34375 -2.7734,0 -4.9297,-0.70312 -6.4688,-2.1094 -1.5312,-1.4062 -2.2969,-3.3789 -2.2969,-5.9219 0,-2.5 0.75391,-4.4609 2.2656,-5.8906 1.5078,-1.4375 3.582,-2.1562 6.2188,-2.1562 2.4062,0 4.332,0.73047 5.7812,2.1875 1.4453,1.4492 2.1719,3.3828 2.1719,5.7969 z m -5.0312,-1.625 c 0,-0.92578 -0.27344,-1.6719 -0.8125,-2.2344 -0.54297,-0.57031 -1.25,-0.85938 -2.125,-0.85938 -0.94922,0 -1.7188,0.26562 -2.3125,0.79688 -0.5937,0.53126 -0.96484,1.2969 -1.1094,2.2969 z"
         id="path8" />
    </symbol>
    <symbol
       id="a"
       overflow="visible">
      <path
         d="m 9.2188,-6.8906 c -1.0234,0 -1.793,0.17188 -2.3125,0.51562 -0.51172,0.34375 -0.76562,0.85547 -0.76562,1.5312 0,0.625 0.20703,1.1172 0.625,1.4688 0.41406,0.34375 0.98828,0.51562 1.7188,0.51562 0.92578,0 1.7031,-0.32812 2.3281,-0.98438 0.63281,-0.66406 0.95312,-1.4922 0.95312,-2.4844 v -0.5625 z m 7.4688,-1.8438 V 0 h -4.9219 v -2.2656 c -0.65625,0.92969 -1.3984,1.6055 -2.2188,2.0312 -0.82422,0.41406 -1.8242,0.625 -3,0.625 -1.5859,0 -2.8711,-0.45703 -3.8594,-1.375 -0.99219,-0.92578 -1.4844,-2.1289 -1.4844,-3.6094 0,-1.7891 0.61328,-3.1016 1.8438,-3.9375 1.2383,-0.84375 3.1797,-1.2656 5.8281,-1.2656 h 2.8906 v -0.39062 c 0,-0.76953 -0.30859,-1.332 -0.92188,-1.6875 -0.61719,-0.36328 -1.5703,-0.54688 -2.8594,-0.54688 -1.0547,0 -2.0312,0.10547 -2.9375,0.3125 -0.89844,0.21094 -1.7305,0.52344 -2.5,0.9375 v -3.7344 c 1.0391,-0.25 2.0859,-0.44141 3.1406,-0.57812 1.0625,-0.13281 2.125,-0.20312 3.1875,-0.20312 2.7578,0 4.75,0.54688 5.9688,1.6406 1.2266,1.0859 1.8438,2.8555 1.8438,5.3125 z"
         id="path11" />
    </symbol>
    <symbol
       id="d"
       overflow="visible">
      <path
         d="m 7.7031,-19.656 v 4.3438 H 12.75 v 3.5 H 7.7031 v 6.5 c 0,0.71094 0.14062,1.1875 0.42188,1.4375 0.28126,0.25 0.83594,0.375 1.6719,0.375 h 2.5156 v 3.5 h -4.1875 c -1.9375,0 -3.3125,-0.39844 -4.125,-1.2031 -0.80469,-0.8125 -1.2031,-2.1797 -1.2031,-4.1094 v -6.5 h -2.4219 v -3.5 h 2.4219 v -4.3438 z"
         id="path14" />
    </symbol>
    <symbol
       id="l"
       overflow="visible">
      <path
         d="m 12.766,-13.078 v -8.2031 h 4.9219 V -1e-4 H 12.766 v -2.2188 c -0.66797,0.90625 -1.4062,1.5703 -2.2188,1.9844 -0.8126,0.4141 -1.7578,0.625 -2.8281,0.625 -1.8867,0 -3.4336,-0.75 -4.6406,-2.25 -1.2109,-1.5 -1.8125,-3.4258 -1.8125,-5.7812 0,-2.3633 0.60156,-4.2969 1.8125,-5.7969 1.207,-1.5 2.7539,-2.25 4.6406,-2.25 1.0625,0 2,0.21484 2.8125,0.64062 0.82031,0.42969 1.5664,1.0859 2.2344,1.9688 z m -3.2188,9.9219 c 1.0391,0 1.8359,-0.37891 2.3906,-1.1406 0.55078,-0.76953 0.82812,-1.8828 0.82812,-3.3438 0,-1.457 -0.27734,-2.5664 -0.82812,-3.3281 -0.55469,-0.76953 -1.3516,-1.1562 -2.3906,-1.1562 -1.043,0 -1.8398,0.38672 -2.3906,1.1562 -0.55469,0.76172 -0.82812,1.8711 -0.82812,3.3281 0,1.4609 0.27344,2.5742 0.82812,3.3438 0.55078,0.76172 1.3477,1.1406 2.3906,1.1406 z"
         id="path17" />
    </symbol>
    <symbol
       id="k"
       overflow="visible">
      <path
         d="m 10.5,-3.1562 c 1.0508,0 1.8516,-0.37891 2.4062,-1.1406 0.55078,-0.76953 0.82812,-1.8828 0.82812,-3.3438 0,-1.457 -0.27734,-2.5664 -0.82812,-3.3281 -0.55469,-0.76953 -1.3555,-1.1562 -2.4062,-1.1562 -1.0547,0 -1.8594,0.38672 -2.4219,1.1562 -0.55469,0.77344 -0.82812,1.8828 -0.82812,3.3281 0,1.4492 0.27344,2.5586 0.82812,3.3281 0.5625,0.77344 1.3672,1.1562 2.4219,1.1562 z m -3.25,-9.9219 c 0.67578,-0.88281 1.4219,-1.5391 2.2344,-1.9688 0.82031,-0.42578 1.7656,-0.64062 2.8281,-0.64062 1.8945,0 3.4453,0.75 4.6562,2.25 1.207,1.5 1.8125,3.4336 1.8125,5.7969 0,2.3555 -0.60547,4.2812 -1.8125,5.7812 -1.2109,1.5 -2.7617,2.25 -4.6562,2.25 -1.0625,0 -2.0078,-0.21094 -2.8281,-0.625 C 8.6719,-0.6602 7.9258,-1.32032 7.25,-2.21882 V -2e-5 H 2.3594 v -21.281 H 7.25 Z"
         id="path20" />
    </symbol>
    <symbol
       id="f"
       overflow="visible">
      <path
         d="m 0.34375,-15.312 h 4.8906 l 4.125,10.391 3.5,-10.391 h 4.8906 l -6.4375,16.766 c -0.64844,1.6953 -1.4023,2.8828 -2.2656,3.5625 -0.86719,0.6875 -2,1.0312 -3.4062,1.0312 H 2.79685 V 2.8289 h 1.5312 c 0.83203,0 1.4375,-0.13672 1.8125,-0.40625 C 6.52336,2.16093 6.82024,1.69218 7.03117,1.01645 L 7.17179,0.59457 Z"
         id="path23" />
    </symbol>
    <symbol
       id="j"
       overflow="visible">
      <path
         d="m 2.5781,-20.406 h 6.6875 l 4.6562,10.922 4.6719,-10.922 h 6.6875 V 0 H 20.2968 V -14.938 L 15.5937,-3.922 H 12.2656 L 7.5625,-14.938 V 0 H 2.5781 Z"
         id="path26" />
    </symbol>
    <symbol
       id="t"
       overflow="visible">
      <path
         d="M 2.3594,-15.312 H 7.25 V 0 H 2.3594 Z m 0,-5.9688 H 7.25 v 4 H 2.3594 Z"
         id="path29" />
    </symbol>
    <symbol
       id="s"
       overflow="visible">
      <path
         d="m 1.5781,-20.406 h 17.156 v 3.1719 l -10.953,13.25 h 11.266 V 3e-4 H 1.2661 v -3.1875 l 10.938,-13.25 H 1.5791 Z"
         id="path32" />
    </symbol>
    <symbol
       id="i"
       overflow="visible">
      <path
         d="m 16.547,-12.766 c 0.61328,-0.94531 1.3477,-1.6719 2.2031,-2.1719 0.85156,-0.5 1.7891,-0.75 2.8125,-0.75 1.7578,0 3.0977,0.54688 4.0156,1.6406 0.92578,1.0859 1.3906,2.6562 1.3906,4.7188 V -4e-4 h -4.9219 v -7.9844 -0.35938 c 0.0078,-0.13281 0.01563,-0.32031 0.01563,-0.5625 0,-1.082 -0.16406,-1.8633 -0.48438,-2.3438 -0.3125,-0.48828 -0.82422,-0.73438 -1.5312,-0.73438 -0.92969,0 -1.6484,0.38672 -2.1562,1.1562 -0.51172,0.76172 -0.77344,1.8672 -0.78125,3.3125 v 7.5156 h -4.9219 v -7.9844 c 0,-1.6953 -0.14844,-2.7852 -0.4375,-3.2656 -0.29297,-0.48828 -0.8125,-0.73438 -1.5625,-0.73438 -0.9375,0 -1.6641,0.38672 -2.1719,1.1562 -0.51172,0.76172 -0.76562,1.8594 -0.76562,3.2969 v 7.5312 h -4.9219 v -15.312 h 4.9219 v 2.2344 c 0.60156,-0.86328 1.2891,-1.5156 2.0625,-1.9531 0.78125,-0.4375 1.6406,-0.65625 2.5781,-0.65625 1.0625,0 2,0.25781 2.8125,0.76562 0.8125,0.51172 1.4258,1.2305 1.8438,2.1562 z"
         id="path35" />
    </symbol>
    <symbol
       id="h"
       overflow="visible">
      <path
         d="m 14.719,-14.828 v 3.9844 c -0.65625,-0.45703 -1.3242,-0.79688 -2,-1.0156 -0.66797,-0.21875 -1.3594,-0.32812 -2.0781,-0.32812 -1.3672,0 -2.4336,0.40234 -3.2031,1.2031 -0.76172,0.79297 -1.1406,1.9062 -1.1406,3.3438 0,1.4297 0.37891,2.543 1.1406,3.3438 0.76953,0.79297 1.8359,1.1875 3.2031,1.1875 0.75781,0 1.4844,-0.10938 2.1719,-0.32812 0.6875,-0.22656 1.3203,-0.56641 1.9062,-1.0156 v 4 c -0.76172,0.28125 -1.5391,0.48828 -2.3281,0.625 -0.78125,0.14453 -1.5742,0.21875 -2.375,0.21875 -2.7617,0 -4.9219,-0.70703 -6.4844,-2.125 -1.5547,-1.4141 -2.3281,-3.3828 -2.3281,-5.9062 0,-2.5312 0.77344,-4.5039 2.3281,-5.9219 1.5625,-1.4141 3.7227,-2.125 6.4844,-2.125 0.80078,0 1.5938,0.07422 2.375,0.21875 0.78125,0.13672 1.5547,0.35156 2.3281,0.64062 z"
         id="path38" />
    </symbol>
    <symbol
       id="g"
       overflow="visible">
      <path
         d="M 17.75,-9.3281 V 0 h -4.9219 v -7.1094 c 0,-1.3438 -0.03125,-2.2656 -0.09375,-2.7656 -0.0625,-0.5 -0.16797,-0.86719 -0.3125,-1.1094 -0.1875,-0.3125 -0.44922,-0.55469 -0.78125,-0.73438 -0.32422,-0.17578 -0.69531,-0.26562 -1.1094,-0.26562 -1.0234,0 -1.8242,0.39844 -2.4062,1.1875 -0.58594,0.78125 -0.875,1.8711 -0.875,3.2656 V -1e-4 H 2.3594 v -21.281 H 7.25 v 8.2031 c 0.73828,-0.88281 1.5195,-1.5391 2.3438,-1.9688 0.83203,-0.42578 1.75,-0.64062 2.75,-0.64062 1.7695,0 3.1133,0.54688 4.0312,1.6406 0.91406,1.0859 1.375,2.6562 1.375,4.7188 z"
         id="path41" />
    </symbol>
    <symbol
       id="r"
       overflow="visible">
      <path
         d="m 12.422,-21.281 v 3.2188 H 9.7189 c -0.6875,0 -1.1719,0.125 -1.4531,0.375 -0.27344,0.25 -0.40625,0.6875 -0.40625,1.3125 v 1.0625 h 4.1875 v 3.5 H 7.85955 V -2e-4 h -4.8906 v -11.812 h -2.4375 v -3.5 h 2.4375 v -1.0625 c 0,-1.6641 0.46094,-2.8984 1.3906,-3.7031 0.92578,-0.80078 2.3672,-1.2031 4.3281,-1.2031 z"
         id="path44" />
    </symbol>
    <symbol
       id="e"
       overflow="visible">
      <path
         d="m 9.6406,-12.188 c -1.0859,0 -1.9141,0.39062 -2.4844,1.1719 -0.57422,0.78125 -0.85938,1.9062 -0.85938,3.375 0,1.4688 0.28516,2.5938 0.85938,3.375 0.57031,0.77344 1.3984,1.1562 2.4844,1.1562 1.0625,0 1.875,-0.38281 2.4375,-1.1562 0.57031,-0.78125 0.85938,-1.9062 0.85938,-3.375 0,-1.4688 -0.28906,-2.5938 -0.85938,-3.375 -0.5625,-0.78125 -1.375,-1.1719 -2.4375,-1.1719 z m 0,-3.5 c 2.6328,0 4.6914,0.71484 6.1719,2.1406 1.4766,1.418 2.2188,3.3867 2.2188,5.9062 0,2.5117 -0.74219,4.4805 -2.2188,5.9062 C 14.332,-0.317 12.2734,0.39 9.6406,0.39 6.9922,0.39 4.9258,-0.31703 3.4375,-1.735 1.9453,-3.1608 1.2031,-5.1295 1.2031,-7.6412 c 0,-2.5195 0.74219,-4.4883 2.2344,-5.9062 1.4883,-1.4258 3.5547,-2.1406 6.2031,-2.1406 z"
         id="path47" />
    </symbol>
    <symbol
       id="q"
       overflow="visible">
      <path
         d="m 2.5781,-20.406 h 5.875 l 7.4219,14 v -14 h 4.9844 V 0 h -5.875 L 7.5625,-14 V 0 H 2.5781 Z"
         id="path50" />
    </symbol>
    <symbol
       id="p"
       overflow="visible">
      <path
         d="m 2.1875,-5.9688 v -9.3438 h 4.9219 v 1.5312 c 0,0.83594 -0.00781,1.875 -0.015625,3.125 -0.011719,1.25 -0.015625,2.0859 -0.015625,2.5 0,1.2422 0.03125,2.1328 0.09375,2.6719 0.070313,0.54297 0.17969,0.93359 0.32812,1.1719 0.20703,0.32422 0.47266,0.57422 0.79688,0.75 0.32031,0.16797 0.69141,0.25 1.1094,0.25 1.0195,0 1.8203,-0.39062 2.4062,-1.1719 0.58203,-0.78125 0.875,-1.8672 0.875,-3.2656 v -7.5625 h 4.8906 V -6e-4 H 12.6875 V -2.2194 C 11.94531,-1.32096 11.1641,-0.6608 10.3437,-0.235 9.51948,0.17906 8.6093,0.39 7.6093,0.39 5.8476,0.39 4.5038,-0.14906 3.5781,-1.235 2.64841,-2.317 2.1875,-3.8952 2.1875,-5.9694 Z"
         id="path53" />
    </symbol>
    <symbol
       id="o"
       overflow="visible">
      <path
         d="M 17.75,-9.3281 V 0 h -4.9219 v -7.1406 c 0,-1.3203 -0.03125,-2.2344 -0.09375,-2.7344 -0.0625,-0.5 -0.16797,-0.86719 -0.3125,-1.1094 -0.1875,-0.3125 -0.44922,-0.55469 -0.78125,-0.73438 -0.32422,-0.17578 -0.69531,-0.26562 -1.1094,-0.26562 -1.0234,0 -1.8242,0.39844 -2.4062,1.1875 -0.58594,0.78125 -0.875,1.8711 -0.875,3.2656 V -1e-4 H 2.3594 v -15.312 H 7.25 v 2.2344 c 0.73828,-0.88281 1.5195,-1.5391 2.3438,-1.9688 0.83203,-0.42578 1.75,-0.64062 2.75,-0.64062 1.7695,0 3.1133,0.54688 4.0312,1.6406 0.91406,1.0859 1.375,2.6562 1.375,4.7188 z"
         id="path56" />
    </symbol>
    <symbol
       id="n"
       overflow="visible">
      <path
         d="m 2.5781,-20.406 h 8.7344 c 2.5938,0 4.582,0.57812 5.9688,1.7344 1.3945,1.1484 2.0938,2.7891 2.0938,4.9219 0,2.1367 -0.69922,3.7812 -2.0938,4.9375 -1.3867,1.1562 -3.375,1.7344 -5.9688,1.7344 H 7.8281 V 3e-4 h -5.25 z m 5.25,3.8125 v 5.7031 H 10.75 c 1.0195,0 1.8047,-0.25 2.3594,-0.75 0.5625,-0.5 0.84375,-1.2031 0.84375,-2.1094 0,-0.91406 -0.28125,-1.6172 -0.84375,-2.1094 -0.55469,-0.48828 -1.3398,-0.73438 -2.3594,-0.73438 z"
         id="path59" />
    </symbol>
    <symbol
       id="m"
       overflow="visible">
      <path
         d="M 2.3594,-15.312 H 7.25 v 15.031 c 0,2.0508 -0.49609,3.6172 -1.4844,4.7031 -0.98047,1.082 -2.4062,1.625 -4.2812,1.625 H -0.9375 V 2.8283 h 0.85938 c 0.92578,0 1.5625,-0.21094 1.9062,-0.625 0.35156,-0.41797 0.53125,-1.2461 0.53125,-2.4844 z m 0,-5.9688 H 7.25 v 4 H 2.3594 Z"
         id="path62" />
    </symbol>
    <symbol
       id="w"
       overflow="visible">
      <path
         d="m 18.766,-1.125 c -0.96875,0.5 -1.9805,0.875 -3.0312,1.125 -1.043,0.25781 -2.1367,0.39062 -3.2812,0.39062 -3.3984,0 -6.0898,-0.94531 -8.0781,-2.8438 -1.9922,-1.9062 -2.9844,-4.4844 -2.9844,-7.7344 0,-3.2578 0.99219,-5.8359 2.9844,-7.7344 1.9883,-1.9062 4.6797,-2.8594 8.0781,-2.8594 1.1445,0 2.2383,0.13281 3.2812,0.39062 1.0508,0.25 2.0625,0.625 3.0312,1.125 v 4.2188 c -0.98047,-0.65625 -1.9453,-1.1406 -2.8906,-1.4531 -0.94922,-0.3125 -1.9492,-0.46875 -3,-0.46875 -1.875,0 -3.3516,0.60547 -4.4219,1.8125 -1.0742,1.1992 -1.6094,2.8555 -1.6094,4.9688 0,2.1055 0.53516,3.7617 1.6094,4.9688 1.0703,1.1992 2.5469,1.7969 4.4219,1.7969 1.0508,0 2.0508,-0.14844 3,-0.45312 0.94531,-0.3125 1.9102,-0.80078 2.8906,-1.4688 z"
         id="path2255" />
    </symbol>
    <symbol
       id="b-8"
       overflow="visible">
      <path
         d="m 13.734,-11.141 c -0.4375,-0.19531 -0.87109,-0.34375 -1.2969,-0.4375 -0.41797,-0.10156 -0.83984,-0.15625 -1.2656,-0.15625 -1.2617,0 -2.2305,0.40625 -2.9062,1.2188 -0.67969,0.80469 -1.0156,1.9531 -1.0156,3.4531 v 7.0625 H 2.3591 v -15.312 h 4.8906 v 2.5156 c 0.625,-1 1.3438,-1.7266 2.1562,-2.1875 0.82031,-0.46875 1.8008,-0.70312 2.9375,-0.70312 0.16406,0 0.34375,0.01172 0.53125,0.03125 0.19531,0.01172 0.47656,0.03906 0.84375,0.07813 z"
         id="path2258" />
    </symbol>
    <symbol
       id="a-7"
       overflow="visible">
      <path
         d="m 17.641,-7.7031 v 1.4062 H 6.188 c 0.125,1.1484 0.53906,2.0078 1.25,2.5781 0.70703,0.57422 1.7031,0.85938 2.9844,0.85938 1.0312,0 2.082,-0.14844 3.1562,-0.45312 1.082,-0.3125 2.1914,-0.77344 3.3281,-1.3906 v 3.7656 c -1.1562,0.4375 -2.3125,0.76562 -3.4688,0.98438 -1.1562,0.22656 -2.3125,0.34375 -3.4688,0.34375 -2.7734,0 -4.9297,-0.70312 -6.4688,-2.1094 -1.5312,-1.4062 -2.2969,-3.3789 -2.2969,-5.9219 0,-2.5 0.75391,-4.4609 2.2656,-5.8906 1.5078,-1.4375 3.582,-2.1562 6.2188,-2.1562 2.4062,0 4.332,0.73047 5.7812,2.1875 1.4453,1.4492 2.1719,3.3828 2.1719,5.7969 z m -5.0312,-1.625 c 0,-0.92578 -0.27344,-1.6719 -0.8125,-2.2344 -0.54297,-0.57031 -1.25,-0.85938 -2.125,-0.85938 -0.94922,0 -1.7188,0.26562 -2.3125,0.79688 -0.5937,0.53126 -0.96484,1.2969 -1.1094,2.2969 z"
         id="path2261" />
    </symbol>
    <symbol
       id="e-9"
       overflow="visible">
      <path
         d="m 9.2188,-6.8906 c -1.0234,0 -1.793,0.17188 -2.3125,0.51562 -0.51172,0.34375 -0.76562,0.85547 -0.76562,1.5312 0,0.625 0.20703,1.1172 0.625,1.4688 0.41406,0.34375 0.98828,0.51562 1.7188,0.51562 0.92578,0 1.7031,-0.32812 2.3281,-0.98438 0.63281,-0.66406 0.95312,-1.4922 0.95312,-2.4844 v -0.5625 z m 7.4688,-1.8438 V 0 h -4.9219 v -2.2656 c -0.65625,0.92969 -1.3984,1.6055 -2.2188,2.0312 -0.82422,0.41406 -1.8242,0.625 -3,0.625 -1.5859,0 -2.8711,-0.45703 -3.8594,-1.375 -0.99219,-0.92578 -1.4844,-2.1289 -1.4844,-3.6094 0,-1.7891 0.61328,-3.1016 1.8438,-3.9375 1.2383,-0.84375 3.1797,-1.2656 5.8281,-1.2656 h 2.8906 v -0.39062 c 0,-0.76953 -0.30859,-1.332 -0.92188,-1.6875 -0.61719,-0.36328 -1.5703,-0.54688 -2.8594,-0.54688 -1.0547,0 -2.0312,0.10547 -2.9375,0.3125 -0.89844,0.21094 -1.7305,0.52344 -2.5,0.9375 v -3.7344 c 1.0391,-0.25 2.0859,-0.44141 3.1406,-0.57812 1.0625,-0.13281 2.125,-0.20312 3.1875,-0.20312 2.7578,0 4.75,0.54688 5.9688,1.6406 1.2266,1.0859 1.8438,2.8555 1.8438,5.3125 z"
         id="path2264" />
    </symbol>
    <symbol
       id="d-2"
       overflow="visible">
      <path
         d="m 7.7031,-19.656 v 4.3438 H 12.75 v 3.5 H 7.7031 v 6.5 c 0,0.71094 0.14062,1.1875 0.42188,1.4375 0.28126,0.25 0.83594,0.375 1.6719,0.375 h 2.5156 v 3.5 h -4.1875 c -1.9375,0 -3.3125,-0.39844 -4.125,-1.2031 -0.80469,-0.8125 -1.2031,-2.1797 -1.2031,-4.1094 v -6.5 h -2.4219 v -3.5 h 2.4219 v -4.3438 z"
         id="path2267" />
    </symbol>
    <symbol
       id="g-0"
       overflow="visible">
      <path
         d="m 12.766,-13.078 v -8.2031 h 4.9219 V -1e-4 H 12.766 v -2.2188 c -0.66797,0.90625 -1.4062,1.5703 -2.2188,1.9844 -0.8126,0.4141 -1.7578,0.625 -2.8281,0.625 -1.8867,0 -3.4336,-0.75 -4.6406,-2.25 -1.2109,-1.5 -1.8125,-3.4258 -1.8125,-5.7812 0,-2.3633 0.60156,-4.2969 1.8125,-5.7969 1.207,-1.5 2.7539,-2.25 4.6406,-2.25 1.0625,0 2,0.21484 2.8125,0.64062 0.82031,0.42969 1.5664,1.0859 2.2344,1.9688 z m -3.2188,9.9219 c 1.0391,0 1.8359,-0.37891 2.3906,-1.1406 0.55078,-0.76953 0.82812,-1.8828 0.82812,-3.3438 0,-1.457 -0.27734,-2.5664 -0.82812,-3.3281 -0.55469,-0.76953 -1.3516,-1.1562 -2.3906,-1.1562 -1.043,0 -1.8398,0.38672 -2.3906,1.1562 -0.55469,0.76172 -0.82812,1.8711 -0.82812,3.3281 0,1.4609 0.27344,2.5742 0.82812,3.3438 0.55078,0.76172 1.3477,1.1406 2.3906,1.1406 z"
         id="path2270" />
    </symbol>
    <symbol
       id="k-2"
       overflow="visible">
      <path
         d="m 10.5,-3.1562 c 1.0508,0 1.8516,-0.37891 2.4062,-1.1406 0.55078,-0.76953 0.82812,-1.8828 0.82812,-3.3438 0,-1.457 -0.27734,-2.5664 -0.82812,-3.3281 -0.55469,-0.76953 -1.3555,-1.1562 -2.4062,-1.1562 -1.0547,0 -1.8594,0.38672 -2.4219,1.1562 -0.55469,0.77344 -0.82812,1.8828 -0.82812,3.3281 0,1.4492 0.27344,2.5586 0.82812,3.3281 0.5625,0.77344 1.3672,1.1562 2.4219,1.1562 z m -3.25,-9.9219 c 0.67578,-0.88281 1.4219,-1.5391 2.2344,-1.9688 0.82031,-0.42578 1.7656,-0.64062 2.8281,-0.64062 1.8945,0 3.4453,0.75 4.6562,2.25 1.207,1.5 1.8125,3.4336 1.8125,5.7969 0,2.3555 -0.60547,4.2812 -1.8125,5.7812 -1.2109,1.5 -2.7617,2.25 -4.6562,2.25 -1.0625,0 -2.0078,-0.21094 -2.8281,-0.625 C 8.6719,-0.6602 7.9258,-1.32032 7.25,-2.21882 V -2e-5 H 2.3594 v -21.281 H 7.25 Z"
         id="path2273" />
    </symbol>
    <symbol
       id="j-3"
       overflow="visible">
      <path
         d="m 0.34375,-15.312 h 4.8906 l 4.125,10.391 3.5,-10.391 h 4.8906 l -6.4375,16.766 c -0.64844,1.6953 -1.4023,2.8828 -2.2656,3.5625 -0.86719,0.6875 -2,1.0312 -3.4062,1.0312 H 2.79685 V 2.8289 h 1.5312 c 0.83203,0 1.4375,-0.13672 1.8125,-0.40625 C 6.52336,2.16093 6.82024,1.69218 7.03117,1.01645 L 7.17179,0.59457 Z"
         id="path2276" />
    </symbol>
    <symbol
       id="i-7"
       overflow="visible">
      <path
         d="m 2.5781,-20.406 h 6.6875 l 4.6562,10.922 4.6719,-10.922 h 6.6875 V 0 H 20.2968 V -14.938 L 15.5937,-3.922 H 12.2656 L 7.5625,-14.938 V 0 H 2.5781 Z"
         id="path2279" />
    </symbol>
    <symbol
       id="v"
       overflow="visible">
      <path
         d="M 2.3594,-15.312 H 7.25 V 0 H 2.3594 Z m 0,-5.9688 H 7.25 v 4 H 2.3594 Z"
         id="path2282" />
    </symbol>
    <symbol
       id="u-5"
       overflow="visible">
      <path
         d="m 0.14062,-20.406 h 5.2812 l 5.4219,15.062 5.4062,-15.062 h 5.2812 L 13.96862,0 h -6.2656 z"
         id="path2285" />
    </symbol>
    <symbol
       id="f-9"
       overflow="visible">
      <path
         d="M 17.75,-9.3281 V 0 h -4.9219 v -7.1406 c 0,-1.3203 -0.03125,-2.2344 -0.09375,-2.7344 -0.0625,-0.5 -0.16797,-0.86719 -0.3125,-1.1094 -0.1875,-0.3125 -0.44922,-0.55469 -0.78125,-0.73438 -0.32422,-0.17578 -0.69531,-0.26562 -1.1094,-0.26562 -1.0234,0 -1.8242,0.39844 -2.4062,1.1875 -0.58594,0.78125 -0.875,1.8711 -0.875,3.2656 V -1e-4 H 2.3594 v -15.312 H 7.25 v 2.2344 c 0.73828,-0.88281 1.5195,-1.5391 2.3438,-1.9688 0.83203,-0.42578 1.75,-0.64062 2.75,-0.64062 1.7695,0 3.1133,0.54688 4.0312,1.6406 0.91406,1.0859 1.375,2.6562 1.375,4.7188 z"
         id="path2288" />
    </symbol>
    <symbol
       id="t-2"
       overflow="visible">
      <path
         d="m 10.75,-12.516 c 0.82031,0 1.4453,-0.17969 1.875,-0.54688 0.4375,-0.36328 0.65625,-0.89844 0.65625,-1.6094 0,-0.69531 -0.21875,-1.2266 -0.65625,-1.5938 -0.42969,-0.375 -1.0547,-0.5625 -1.875,-0.5625 H 7.8281 v 4.3125 z m 0.17188,8.9375 c 1.0625,0 1.8594,-0.22266 2.3906,-0.67188 0.53125,-0.44531 0.79688,-1.125 0.79688,-2.0312 0,-0.88281 -0.26562,-1.5469 -0.79688,-1.9844 -0.52344,-0.4375 -1.3203,-0.65625 -2.3906,-0.65625 h -3.0938 v 5.3438 z m 4.8906,-7.3438 c 1.1328,0.32422 2.0078,0.92969 2.625,1.8125 0.625,0.88672 0.9375,1.9688 0.9375,3.25 0,1.9688 -0.66797,3.4375 -2,4.4062 -1.3359,0.96875 -3.3555,1.4531 -6.0625,1.4531 h -8.7344 v -20.406 h 7.8906 c 2.832,0 4.8828,0.42969 6.1562,1.2812 1.2812,0.85547 1.9219,2.2266 1.9219,4.1094 0,1 -0.23438,1.8516 -0.70312,2.5469 -0.46875,0.6875 -1.1484,1.2031 -2.0312,1.5469 z"
         id="path2291" />
    </symbol>
    <symbol
       id="c-2"
       overflow="visible">
      <path
         d="m 9.6406,-12.188 c -1.0859,0 -1.9141,0.39062 -2.4844,1.1719 -0.57422,0.78125 -0.85938,1.9062 -0.85938,3.375 0,1.4688 0.28516,2.5938 0.85938,3.375 0.57031,0.77344 1.3984,1.1562 2.4844,1.1562 1.0625,0 1.875,-0.38281 2.4375,-1.1562 0.57031,-0.78125 0.85938,-1.9062 0.85938,-3.375 0,-1.4688 -0.28906,-2.5938 -0.85938,-3.375 -0.5625,-0.78125 -1.375,-1.1719 -2.4375,-1.1719 z m 0,-3.5 c 2.6328,0 4.6914,0.71484 6.1719,2.1406 1.4766,1.418 2.2188,3.3867 2.2188,5.9062 0,2.5117 -0.74219,4.4805 -2.2188,5.9062 C 14.332,-0.317 12.2734,0.39 9.6406,0.39 6.9922,0.39 4.9258,-0.31703 3.4375,-1.735 1.9453,-3.1608 1.2031,-5.1295 1.2031,-7.6412 c 0,-2.5195 0.74219,-4.4883 2.2344,-5.9062 1.4883,-1.4258 3.5547,-2.1406 6.2031,-2.1406 z"
         id="path2294" />
    </symbol>
    <symbol
       id="h-8"
       overflow="visible">
      <path
         d="m 14.719,-14.828 v 3.9844 c -0.65625,-0.45703 -1.3242,-0.79688 -2,-1.0156 -0.66797,-0.21875 -1.3594,-0.32812 -2.0781,-0.32812 -1.3672,0 -2.4336,0.40234 -3.2031,1.2031 -0.76172,0.79297 -1.1406,1.9062 -1.1406,3.3438 0,1.4297 0.37891,2.543 1.1406,3.3438 0.76953,0.79297 1.8359,1.1875 3.2031,1.1875 0.75781,0 1.4844,-0.10938 2.1719,-0.32812 0.6875,-0.22656 1.3203,-0.56641 1.9062,-1.0156 v 4 c -0.76172,0.28125 -1.5391,0.48828 -2.3281,0.625 -0.78125,0.14453 -1.5742,0.21875 -2.375,0.21875 -2.7617,0 -4.9219,-0.70703 -6.4844,-2.125 -1.5547,-1.4141 -2.3281,-3.3828 -2.3281,-5.9062 0,-2.5312 0.77344,-4.5039 2.3281,-5.9219 1.5625,-1.4141 3.7227,-2.125 6.4844,-2.125 0.80078,0 1.5938,0.07422 2.375,0.21875 0.78125,0.13672 1.5547,0.35156 2.3281,0.64062 z"
         id="path2297" />
    </symbol>
    <symbol
       id="s-9"
       overflow="visible">
      <path
         d="M 2.3594,-21.281 H 7.25 v 11.594 l 5.625,-5.625 h 5.6875 L 11.0937,-8.2808 19.1562,4e-4 H 13.2187 L 7.2499,-6.3902 V 4e-4 H 2.3593 Z"
         id="path2300" />
    </symbol>
    <symbol
       id="r-7"
       overflow="visible">
      <path
         d="m 12.422,-21.281 v 3.2188 H 9.7189 c -0.6875,0 -1.1719,0.125 -1.4531,0.375 -0.27344,0.25 -0.40625,0.6875 -0.40625,1.3125 v 1.0625 h 4.1875 v 3.5 H 7.85955 V -2e-4 h -4.8906 v -11.812 h -2.4375 v -3.5 h 2.4375 v -1.0625 c 0,-1.6641 0.46094,-2.8984 1.3906,-3.7031 0.92578,-0.80078 2.3672,-1.2031 4.3281,-1.2031 z"
         id="path2303" />
    </symbol>
    <symbol
       id="q-3"
       overflow="visible">
      <path
         d="m 16.547,-12.766 c 0.61328,-0.94531 1.3477,-1.6719 2.2031,-2.1719 0.85156,-0.5 1.7891,-0.75 2.8125,-0.75 1.7578,0 3.0977,0.54688 4.0156,1.6406 0.92578,1.0859 1.3906,2.6562 1.3906,4.7188 V -4e-4 h -4.9219 v -7.9844 -0.35938 c 0.0078,-0.13281 0.01563,-0.32031 0.01563,-0.5625 0,-1.082 -0.16406,-1.8633 -0.48438,-2.3438 -0.3125,-0.48828 -0.82422,-0.73438 -1.5312,-0.73438 -0.92969,0 -1.6484,0.38672 -2.1562,1.1562 -0.51172,0.76172 -0.77344,1.8672 -0.78125,3.3125 v 7.5156 h -4.9219 v -7.9844 c 0,-1.6953 -0.14844,-2.7852 -0.4375,-3.2656 -0.29297,-0.48828 -0.8125,-0.73438 -1.5625,-0.73438 -0.9375,0 -1.6641,0.38672 -2.1719,1.1562 -0.51172,0.76172 -0.76562,1.8594 -0.76562,3.2969 v 7.5312 h -4.9219 v -15.312 h 4.9219 v 2.2344 c 0.60156,-0.86328 1.2891,-1.5156 2.0625,-1.9531 0.78125,-0.4375 1.6406,-0.65625 2.5781,-0.65625 1.0625,0 2,0.25781 2.8125,0.76562 0.8125,0.51172 1.4258,1.2305 1.8438,2.1562 z"
         id="path2306" />
    </symbol>
    <symbol
       id="p-6"
       overflow="visible">
      <path
         d="M 17.75,-9.3281 V 0 h -4.9219 v -7.1094 c 0,-1.3438 -0.03125,-2.2656 -0.09375,-2.7656 -0.0625,-0.5 -0.16797,-0.86719 -0.3125,-1.1094 -0.1875,-0.3125 -0.44922,-0.55469 -0.78125,-0.73438 -0.32422,-0.17578 -0.69531,-0.26562 -1.1094,-0.26562 -1.0234,0 -1.8242,0.39844 -2.4062,1.1875 -0.58594,0.78125 -0.875,1.8711 -0.875,3.2656 V -1e-4 H 2.3594 v -21.281 H 7.25 v 8.2031 c 0.73828,-0.88281 1.5195,-1.5391 2.3438,-1.9688 0.83203,-0.42578 1.75,-0.64062 2.75,-0.64062 1.7695,0 3.1133,0.54688 4.0312,1.6406 0.91406,1.0859 1.375,2.6562 1.375,4.7188 z"
         id="path2309" />
    </symbol>
    <symbol
       id="o-1"
       overflow="visible">
      <path
         d="m 2.5781,-20.406 h 5.875 l 7.4219,14 v -14 h 4.9844 V 0 h -5.875 L 7.5625,-14 V 0 H 2.5781 Z"
         id="path2312" />
    </symbol>
    <symbol
       id="n-2"
       overflow="visible">
      <path
         d="m 2.1875,-5.9688 v -9.3438 h 4.9219 v 1.5312 c 0,0.83594 -0.00781,1.875 -0.015625,3.125 -0.011719,1.25 -0.015625,2.0859 -0.015625,2.5 0,1.2422 0.03125,2.1328 0.09375,2.6719 0.070313,0.54297 0.17969,0.93359 0.32812,1.1719 0.20703,0.32422 0.47266,0.57422 0.79688,0.75 0.32031,0.16797 0.69141,0.25 1.1094,0.25 1.0195,0 1.8203,-0.39062 2.4062,-1.1719 0.58203,-0.78125 0.875,-1.8672 0.875,-3.2656 v -7.5625 h 4.8906 V -6e-4 H 12.6875 V -2.2194 C 11.94531,-1.32096 11.1641,-0.6608 10.3437,-0.235 9.51948,0.17906 8.6093,0.39 7.6093,0.39 5.8476,0.39 4.5038,-0.14906 3.5781,-1.235 2.64841,-2.317 2.1875,-3.8952 2.1875,-5.9694 Z"
         id="path2315" />
    </symbol>
    <symbol
       id="m-9"
       overflow="visible">
      <path
         d="m 2.5781,-20.406 h 8.7344 c 2.5938,0 4.582,0.57812 5.9688,1.7344 1.3945,1.1484 2.0938,2.7891 2.0938,4.9219 0,2.1367 -0.69922,3.7812 -2.0938,4.9375 -1.3867,1.1562 -3.375,1.7344 -5.9688,1.7344 H 7.8281 V 3e-4 h -5.25 z m 5.25,3.8125 v 5.7031 H 10.75 c 1.0195,0 1.8047,-0.25 2.3594,-0.75 0.5625,-0.5 0.84375,-1.2031 0.84375,-2.1094 0,-0.91406 -0.28125,-1.6172 -0.84375,-2.1094 -0.55469,-0.48828 -1.3398,-0.73438 -2.3594,-0.73438 z"
         id="path2318" />
    </symbol>
    <symbol
       id="l-3"
       overflow="visible">
      <path
         d="M 2.3594,-15.312 H 7.25 v 15.031 c 0,2.0508 -0.49609,3.6172 -1.4844,4.7031 -0.98047,1.082 -2.4062,1.625 -4.2812,1.625 H -0.9375 V 2.8283 h 0.85938 c 0.92578,0 1.5625,-0.21094 1.9062,-0.625 0.35156,-0.41797 0.53125,-1.2461 0.53125,-2.4844 z m 0,-5.9688 H 7.25 v 4 H 2.3594 Z"
         id="path2321" />
    </symbol>
    <symbol
       id="t-1"
       overflow="visible">
      <path
         d="M 3.2344,-0.1875 C 3.06643,-0.101562 2.89065,-0.03906 2.70315,0 2.52346,0.039062 2.33596,0.0625 2.14065,0.0625 c -0.58594,0 -1.0469,-0.16016 -1.3906,-0.48438 -0.34375,-0.33203 -0.51562,-0.77344 -0.51562,-1.3281 0,-0.5625 0.17188,-1.0039 0.51562,-1.3281 0.34375,-0.33203 0.80469,-0.5 1.3906,-0.5 0.19531,0 0.38281,0.023437 0.5625,0.0625 0.1875,0.042969 0.36328,0.10547 0.53125,0.1875 v 0.73438 c -0.16797,-0.11328 -0.33594,-0.19531 -0.5,-0.25 -0.16797,-0.050781 -0.33984,-0.078125 -0.51562,-0.078125 -0.32422,0 -0.57812,0.10547 -0.76562,0.3125 -0.1875,0.21094 -0.28125,0.49609 -0.28125,0.85938 0,0.35547 0.09375,0.63672 0.28125,0.84375 0.1875,0.21094 0.44141,0.3125 0.76562,0.3125 0.17578,0 0.34766,-0.023438 0.51562,-0.078125 0.16406,-0.050781 0.33203,-0.13281 0.5,-0.25 z"
         id="path3262" />
    </symbol>
    <symbol
       id="b-9"
       overflow="visible">
      <path
         d="M 2.3594,-1.9219 C 2.285181,-1.95315 2.21096,-1.972681 2.14065,-1.9844 2.066431,-2.003931 1.99221,-2.01565 1.9219,-2.01565 c -0.21875,0 -0.38672,0.070313 -0.5,0.20312 -0.11719,0.13672 -0.17188,0.33594 -0.17188,0.59375 V 2e-5 H 0.40627 v -2.6406 h 0.84375 v 0.4375 c 0.10156,-0.17578 0.22266,-0.30078 0.35938,-0.375 0.14453,-0.082031 0.31641,-0.125 0.51562,-0.125 h 0.09375 c 0.03125,0 0.078125,0.00781 0.14062,0.015625 z"
         id="path3265" />
    </symbol>
    <symbol
       id="a-4"
       overflow="visible">
      <path
         d="m 3.0469,-1.3281 v 0.23438 H 1.0625 c 0.019531,0.19922 0.09375,0.35156 0.21875,0.45312 0.125,0.09375 0.29688,0.14062 0.51562,0.14062 0.17578,0 0.35938,-0.023438 0.54688,-0.078125 0.1875,-0.050781 0.37891,-0.12891 0.57812,-0.23438 v 0.65625 c -0.21094,0.074219 -0.41406,0.125 -0.60938,0.15625 -0.19922,0.039062 -0.39844,0.0625 -0.59375,0.0625 -0.48047,0 -0.85547,-0.11719 -1.125,-0.35938 -0.26172,-0.23828 -0.39062,-0.57812 -0.39062,-1.0156 0,-0.43748 0.12891,-0.77344 0.39062,-1.0156 0.25781,-0.25 0.61719,-0.375 1.0781,-0.375 0.41406,0 0.75,0.125 1,0.375 0.25,0.25 0.375,0.58594 0.375,1 z m -0.875,-0.28125 c 0,-0.15625 -0.046875,-0.28125 -0.14062,-0.375 C 1.93753,-2.08591 1.81644,-2.1406 1.6719,-2.1406 c -0.16797,0 -0.30469,0.046875 -0.40625,0.14062 -0.10547,0.09375 -0.16797,0.22656 -0.1875,0.39062 z"
         id="path3268" />
    </symbol>
    <symbol
       id="e-7"
       overflow="visible">
      <path
         d="m 1.5938,-1.1875 c -0.17969,0 -0.3125,0.03125 -0.40625,0.09375 -0.085938,0.054688 -0.125,0.14062 -0.125,0.26562 0,0.10547 0.03125,0.1875 0.09375,0.25 0.070312,0.054687 0.17578,0.078125 0.3125,0.078125 0.15625,0 0.28516,-0.050781 0.39062,-0.15625 0.11328,-0.11328 0.17188,-0.25781 0.17188,-0.4375 v -0.09375 z M 2.875,-1.5 V 0 H 2.03125 V -0.39062 C 1.91406,-0.23437 1.78516,-0.11718 1.64063,-0.04687 1.50391,0.023442 1.33204,0.06251 1.12501,0.06251 c -0.27344,0 -0.49609,-0.078125 -0.67188,-0.23438 -0.16797,-0.15625 -0.25,-0.36328 -0.25,-0.625 0,-0.30078 0.10156,-0.52344 0.3125,-0.67188 0.21875,-0.14453 0.55469,-0.21875 1.0156,-0.21875 h 0.5 V -1.75 c 0,-0.13281 -0.054688,-0.23438 -0.15625,-0.29688 -0.10547,-0.0625 -0.27344,-0.09375 -0.5,-0.09375 -0.17969,0 -0.34375,0.023437 -0.5,0.0625 -0.15625,0.03125 -0.30469,0.085937 -0.4375,0.15625 V -2.5625 c 0.17578,-0.050781 0.35156,-0.085938 0.53125,-0.10938 0.1875,-0.019531 0.375,-0.03125 0.5625,-0.03125 0.47656,0 0.82031,0.09375 1.0312,0.28125 0.20703,0.1875 0.3125,0.49609 0.3125,0.92188 z"
         id="path3271" />
    </symbol>
    <symbol
       id="d-8"
       overflow="visible">
      <path
         d="m 1.3281,-3.3906 v 0.75 h 0.875 v 0.60938 h -0.875 v 1.1094 c 0,0.125 0.019531,0.21094 0.0625,0.25 0.050781,0.042969 0.14844,0.0625 0.29688,0.0625 h 0.4375 V 6e-5 H 1.40623 C 1.07029,6e-5 0.83201,-0.066346 0.68748,-0.20306 0.55076,-0.34759 0.48436,-0.58587 0.48436,-0.92181 v -1.1094 H 0.06248 v -0.60938 h 0.42188 v -0.75 z"
         id="path3274" />
    </symbol>
    <symbol
       id="j-4"
       overflow="visible">
      <path
         d="M 2.2031,-2.25 V -3.6719 H 3.04685 V 0 H 2.2031 V -0.375 C 2.08591,-0.22656 1.95701,-0.11719 1.81248,-0.04688 1.67576,0.023432 1.5156,0.0625 1.3281,0.0625 c -0.32422,0 -0.58984,-0.125 -0.79688,-0.375 -0.21094,-0.25781 -0.3125,-0.59375 -0.3125,-1 0,-0.40625 0.10156,-0.73828 0.3125,-1 0.20703,-0.25781 0.47266,-0.39062 0.79688,-0.39062 0.1875,0 0.34766,0.039063 0.48438,0.10938 0.14453,0.074219 0.27344,0.1875 0.39062,0.34375 z m -0.5625,1.7031 c 0.1875,0 0.32812,-0.0625 0.42188,-0.1875 0.09375,-0.13281 0.14062,-0.32812 0.14062,-0.57812 0,-0.25 -0.046875,-0.44141 -0.14062,-0.57812 C 1.96873,-2.02345 1.8281,-2.09376 1.6406,-2.09376 c -0.17969,0 -0.3125,0.070312 -0.40625,0.20312 -0.09375,0.13672 -0.14062,0.32812 -0.14062,0.57812 0,0.25 0.046875,0.44531 0.14062,0.57812 0.09375,0.125 0.22656,0.1875 0.40625,0.1875 z"
         id="path3277" />
    </symbol>
    <symbol
       id="i-5"
       overflow="visible">
      <path
         d="m 1.8125,-0.54688 c 0.17578,0 0.3125,-0.0625 0.40625,-0.1875 0.09375,-0.13281 0.14062,-0.32812 0.14062,-0.57812 0,-0.25 -0.046875,-0.44141 -0.14062,-0.57812 C 2.125,-2.02343 1.98828,-2.09374 1.8125,-2.09374 c -0.17969,0 -0.32031,0.070312 -0.42188,0.20312 C 1.29687,-1.7539 1.25,-1.5625 1.25,-1.3125 c 0,0.25 0.046875,0.44531 0.14062,0.57812 0.10156,0.125 0.24219,0.1875 0.42188,0.1875 z M 1.25,-2.24998 c 0.11328,-0.15625 0.23828,-0.26953 0.375,-0.34375 0.14453,-0.070312 0.3125,-0.10938 0.5,-0.10938 0.32031,0 0.58594,0.13281 0.79688,0.39062 0.20703,0.26172 0.3125,0.59375 0.3125,1 0,0.40625 -0.10547,0.74219 -0.3125,1 -0.21094,0.25 -0.47656,0.375 -0.79688,0.375 -0.1875,0 -0.35547,-0.039062 -0.5,-0.10938 C 1.48828,-0.117183 1.36328,-0.22656 1.25,-0.37499 V 1e-5 H 0.40625 v -3.6719 H 1.25 Z"
         id="path3280" />
    </symbol>
    <symbol
       id="h-0"
       overflow="visible">
      <path
         d="m 0.0625,-2.6406 h 0.84375 l 0.70312,1.7969 0.60938,-1.7969 H 3.0625 L 1.9531,0.25 C 1.83591,0.53906 1.70701,0.74219 1.56248,0.85938 1.41404,0.98438 1.21873,1.04688 0.96873,1.04688 H 0.48435 v -0.5625 h 0.26562 c 0.14453,0 0.25,-0.027344 0.3125,-0.078125 0.0625,-0.042969 0.11328,-0.12109 0.15625,-0.23438 L 1.234345,0.09375 Z"
         id="path3283" />
    </symbol>
    <symbol
       id="g-3"
       overflow="visible">
      <path
         d="M 0.40625,-3.6719 H 1.25 v 2 l 0.96875,-0.96875 h 0.98438 l -1.2969,1.2188 1.3906,1.4219 h -1.0156 l -1.0312,-1.0938 V 5e-5 H 0.40628 Z"
         id="path3286" />
    </symbol>
    <symbol
       id="f-6"
       overflow="visible">
      <path
         d="m 2.8594,-2.2031 c 0.10156,-0.16406 0.22656,-0.28906 0.375,-0.375 0.14453,-0.082031 0.30469,-0.125 0.48438,-0.125 0.30078,0 0.53125,0.09375 0.6875,0.28125 0.16406,0.1875 0.25,0.46094 0.25,0.8125 V 5e-5 H 3.7969 v -1.375 -0.0625 c 0.00781,-0.019531 0.015625,-0.050781 0.015625,-0.09375 0,-0.1875 -0.03125,-0.32031 -0.09375,-0.40625 -0.054688,-0.082031 -0.14062,-0.125 -0.26562,-0.125 -0.15625,0 -0.28125,0.070312 -0.375,0.20312 -0.085937,0.125 -0.125,0.3125 -0.125,0.5625 V 7e-5 h -0.85938 v -1.375 c 0,-0.28906 -0.027344,-0.47656 -0.078125,-0.5625 -0.042969,-0.082031 -0.13281,-0.125 -0.26562,-0.125 -0.15625,0 -0.28125,0.070312 -0.375,0.20312 -0.085938,0.125 -0.125,0.3125 -0.125,0.5625 V 9e-5 H 0.40628 v -2.6406 h 0.84375 v 0.39062 c 0.10156,-0.15625 0.22266,-0.26953 0.35938,-0.34375 0.13281,-0.070312 0.28125,-0.10938 0.4375,-0.10938 0.1875,0 0.34766,0.046875 0.48438,0.14062 0.14453,0.085938 0.25391,0.20312 0.32812,0.35938 z"
         id="path3289" />
    </symbol>
    <symbol
       id="c-1"
       overflow="visible">
      <path
         d="m 1.6562,-2.0938 c -0.1875,0 -0.32812,0.070312 -0.42188,0.20312 -0.09375,0.125 -0.14062,0.32031 -0.14062,0.57812 0,0.25 0.046875,0.44531 0.14062,0.57812 0.09375,0.13672 0.23438,0.20312 0.42188,0.20312 0.1875,0 0.32812,-0.066406 0.42188,-0.20312 0.10156,-0.13281 0.15625,-0.32812 0.15625,-0.57812 0,-0.25781 -0.054687,-0.45312 -0.15625,-0.57812 C 1.98433,-2.02349 1.8437,-2.0938 1.6562,-2.0938 Z m 0,-0.60938 c 0.45703,0 0.8125,0.125 1.0625,0.375 0.25781,0.24219 0.39062,0.57812 0.39062,1.0156 0,0.42969 -0.13281,0.76562 -0.39062,1.0156 -0.25,0.24219 -0.60547,0.35938 -1.0625,0.35938 -0.44922,0 -0.80469,-0.11719 -1.0625,-0.35938 -0.26172,-0.25 -0.39062,-0.58594 -0.39062,-1.0156 0,-0.4375 0.12891,-0.77344 0.39062,-1.0156 0.25781,-0.25 0.61328,-0.375 1.0625,-0.375 z"
         id="path3292" />
    </symbol>
    <symbol
       id="s-0"
       overflow="visible">
      <path
         d="m 0.078125,-2.6406 h 0.84375 l 0.65625,1.8281 0.65625,-1.8281 h 0.84375 L 2.031225,0 h -0.92188 z"
         id="path3295" />
    </symbol>
    <symbol
       id="r-6"
       overflow="visible">
      <path
         d="m 2.1406,-3.6719 v 0.5625 H 1.67185 c -0.11719,0 -0.19922,0.023437 -0.25,0.0625 -0.042969,0.042969 -0.0625,0.11719 -0.0625,0.21875 v 0.1875 H 2.0781 v 0.60938 H 1.35935 V -7e-5 H 0.5156 v -2.0312 H 0.09372 V -2.64065 H 0.5156 v -0.1875 c 0,-0.28125 0.078125,-0.48828 0.23438,-0.625 0.16406,-0.14453 0.41406,-0.21875 0.75,-0.21875 z"
         id="path3298" />
    </symbol>
    <symbol
       id="q-32"
       overflow="visible">
      <path
         d="M 3.0625,-1.6094 V 0 H 2.21875 v -1.2188 c 0,-0.23828 -0.00781,-0.39844 -0.015625,-0.48438 -0.011719,-0.082031 -0.03125,-0.14453 -0.0625,-0.1875 -0.03125,-0.050781 -0.078125,-0.09375 -0.14062,-0.125 -0.054688,-0.03125 -0.11719,-0.046875 -0.1875,-0.046875 -0.17969,0 -0.32031,0.070312 -0.42188,0.20312 -0.09375,0.13672 -0.14062,0.32422 -0.14062,0.5625 v 1.2969 h -0.84375 v -3.6719 h 0.84375 v 1.4219 c 0.125,-0.15625 0.25781,-0.26953 0.40625,-0.34375 0.14453,-0.070312 0.30078,-0.10938 0.46875,-0.10938 0.3125,0 0.54688,0.09375 0.70312,0.28125 0.15624,0.1875 0.23438,0.46094 0.23438,0.8125 z"
         id="path3301" />
    </symbol>
    <symbol
       id="p-0"
       overflow="visible">
      <path
         d="m 0.4375,-3.5156 h 1.0156 l 1.2812,2.4062 V -3.5156 H 3.59368 V 0 H 2.57808 L 1.29688,-2.4219 V 0 H 0.4375 Z"
         id="path3304" />
    </symbol>
    <symbol
       id="o-6"
       overflow="visible">
      <path
         d="m 0.375,-1.0312 v -1.6094 h 0.84375 v 0.26562 0.54688 0.42188 c 0,0.21094 0.00391,0.35938 0.015625,0.45312 0.00781,0.09375 0.03125,0.16406 0.0625,0.20312 0.03125,0.0625 0.070313,0.10938 0.125,0.14062 0.0625,0.023437 0.12891,0.03125 0.20312,0.03125 0.17578,0 0.3125,-0.0625 0.40625,-0.1875 0.10156,-0.13281 0.15625,-0.32812 0.15625,-0.57812 v -1.2969 h 0.84375 V -3e-5 h -0.84375 v -0.375 c -0.125,0.14844 -0.26172,0.25781 -0.40625,0.32812 -0.14844,0.070312 -0.30469,0.10938 -0.46875,0.10938 -0.30469,0 -0.53906,-0.09375 -0.70312,-0.28125 -0.15625,-0.1875 -0.23438,-0.45703 -0.23438,-0.8125 z"
         id="path3307" />
    </symbol>
    <symbol
       id="n-1"
       overflow="visible">
      <path
         d="M 3.0625,-1.6094 V 0 H 2.21875 v -1.2344 c 0,-0.22656 -0.00781,-0.38281 -0.015625,-0.46875 -0.011719,-0.082031 -0.03125,-0.14453 -0.0625,-0.1875 -0.03125,-0.050781 -0.078125,-0.09375 -0.14062,-0.125 -0.054688,-0.03125 -0.11719,-0.046875 -0.1875,-0.046875 -0.17969,0 -0.32031,0.070312 -0.42188,0.20312 -0.09375,0.13672 -0.14062,0.32422 -0.14062,0.5625 V -5e-6 h -0.84375 v -2.6406 h 0.84375 v 0.39062 c 0.125,-0.15625 0.25781,-0.26953 0.40625,-0.34375 0.14453,-0.070312 0.30078,-0.10938 0.46875,-0.10938 0.3125,0 0.54688,0.09375 0.70312,0.28125 0.15624,0.1875 0.23438,0.46094 0.23438,0.8125 z"
         id="path3310" />
    </symbol>
    <symbol
       id="m-5"
       overflow="visible">
      <path
         d="m 0.4375,-3.5156 h 1.5156 c 0.44531,0 0.78906,0.10156 1.0312,0.29688 0.23828,0.19922 0.35938,0.48047 0.35938,0.84375 0,0.375 -0.12109,0.66406 -0.35938,0.85938 -0.24219,0.19922 -0.58594,0.29688 -1.0312,0.29688 H 1.34372 V 9e-5 H 0.43747 Z m 0.90625,0.65625 v 0.98438 h 0.51562 c 0.16406,0 0.29688,-0.039062 0.39062,-0.125 0.10156,-0.09375 0.15625,-0.21875 0.15625,-0.375 0,-0.15625 -0.054688,-0.27344 -0.15625,-0.35938 -0.09375,-0.082031 -0.22656,-0.125 -0.39062,-0.125 z"
         id="path3313" />
    </symbol>
    <symbol
       id="l-5"
       overflow="visible">
      <path
         d="M 0.40625,-2.6406 H 1.25 v 2.5938 C 1.25,0.30476 1.160156,0.5782 0.98438,0.7657 0.81641,0.9532 0.57032,1.04695 0.25,1.04695 h -0.40625 v -0.5625 h 0.14062 c 0.15625,0 0.26562,-0.039063 0.32812,-0.10938 0.0625,-0.074219 0.09375,-0.21484 0.09375,-0.42188 z m 0,-1.0312 H 1.25 v 0.6875 H 0.40625 Z"
         id="path3316" />
    </symbol>
    <symbol
       id="k-4"
       overflow="visible">
      <path
         d="M 2.5312,-2.5625 V -1.875 C 2.41401,-1.945312 2.30073,-2 2.18745,-2.03125 2.07026,-2.070312 1.95307,-2.09375 1.82807,-2.09375 c -0.23047,0 -0.41406,0.070312 -0.54688,0.20312 -0.125,0.13672 -0.1875,0.32812 -0.1875,0.57812 0,0.24219 0.0625,0.43359 0.1875,0.57812 0.13281,0.13672 0.31641,0.20312 0.54688,0.20312 0.13281,0 0.25781,-0.019531 0.375,-0.0625 0.125,-0.039062 0.23438,-0.097656 0.32812,-0.17188 v 0.6875 C 2.40619,-0.023462 2.27338,0.007788 2.14057,0.03123 2.00385,0.050761 1.86713,0.06248 1.73432,0.06248 c -0.48047,0 -0.85547,-0.11719 -1.125,-0.35938 -0.27344,-0.25 -0.40625,-0.58594 -0.40625,-1.0156 0,-0.4375 0.13281,-0.77344 0.40625,-1.0156 0.26953,-0.25 0.64453,-0.375 1.125,-0.375 0.13281,0 0.26953,0.015625 0.40625,0.046875 0.13281,0.023438 0.26562,0.054688 0.39062,0.09375 z"
         id="path3319" />
    </symbol>
    <symbol
       id="x"
       overflow="visible">
      <path
         d="M 0.046875,0 H 0.03125 0 v -0.03125 c 0.0078125,-0.0078125 0.019531,-0.015625 0.03125,-0.015625 h 0.015625 v 0.015625 c 0,-0.0078125 -0.0078125,-0.015625 -0.015625,-0.015625 L 0.015625,-0.03125 v 0.015625 H 0.03125 0.046875 Z"
         id="path4272" />
    </symbol>
    <symbol
       id="c-7"
       overflow="visible">
      <path
         d="m 0.03125,-0.03125 c -0.011719,0 -0.015625,0.0078125 -0.015625,0.015625 V 0 H 0 V -0.03125 H 0.015625 L 0.03125,-0.046875 Z"
         id="path4275" />
    </symbol>
    <symbol
       id="a-6"
       overflow="visible">
      <path
         d="M 0.046875,-0.015625 H 0.015625 V 0 H 0.03125 c 0,-0.0078125 0.0039062,-0.015625 0.015625,-0.015625 V 0 H 0.03125 0 V -0.015625 -0.03125 c 0.0078125,-0.0078125 0.019531,-0.015625 0.03125,-0.015625 v 0.015625 c 0.0078125,0 0.015625,0.0078125 0.015625,0.015625 z m -0.015625,0 V -0.03125 H 0.015625 v 0.015625 z"
         id="path4278" />
    </symbol>
    <symbol
       id="b-5"
       overflow="visible">
      <path
         d="M 0.015625,-0.015625 V 0 H 0.03125 v -0.015625 z m 0.03125,0 V 0 H 0.03125 0.015625 0 V -0.015625 L 0.015625,-0.03125 H 0.03125 0.015625 0 0.015625 v -0.015625 c 0.0078125,0 0.015625,0.0078125 0.015625,0.015625 0.0078125,0 0.015625,0.0078125 0.015625,0.015625 z"
         id="path4281" />
    </symbol>
    <symbol
       id="e-6"
       overflow="visible">
      <path
         d="M 0.015625,-0.046875 V -0.03125 H 0.03125 0.015625 v 0.015625 H 0.03125 V 0 H 0.015625 0 v -0.015625 -0.03125 z"
         id="path4284" />
    </symbol>
    <symbol
       id="i-9"
       overflow="visible">
      <path
         d="M 0.03125,-0.03125 V -0.046875 H 0.046875 V 0 H 0.03125 0.015625 0 V -0.015625 -0.03125 L 0.015625,-0.046875 V -0.03125 Z M 0.03125,0 V -0.015625 -0.03125 H 0.015625 V -0.015625 0 Z"
         id="path4287" />
    </symbol>
    <symbol
       id="m-3"
       overflow="visible">
      <path
         d="M 0.03125,0 V -0.015625 -0.03125 H 0.015625 V -0.015625 0 Z M 0.015625,-0.03125 0.03125,-0.046875 v 0.015625 c 0.0078125,0 0.015625,0.0078125 0.015625,0.015625 L 0.03125,0 H 0.015625 0 v -0.046875 h 0.015625 z"
         id="path4290" />
    </symbol>
    <symbol
       id="h-7"
       overflow="visible">
      <path
         d="m 0,-0.03125 h 0.015625 v 0.015625 L 0.03125,-0.03125 H 0.046875 L 0.03125,0 c 0,0.0078125 -0.0078125,0.015625 -0.015625,0.015625 H 0 V 0 h 0.015625 z"
         id="path4293" />
    </symbol>
    <symbol
       id="l-4"
       overflow="visible">
      <path
         d="M 0.03125,-0.046875 0.015625,-0.03125 v 0.015625 H 0.03125 c 0.0078125,0 0.015625,-0.0039062 0.015625,-0.015625 H 0.03125 Z m 0,0 c 0.0078125,0 0.015625,0.0078125 0.015625,0.015625 H 0.0625 C 0.0625,-0.019531 0.0546875,-0.007812 0.046875,0 H 0.03125 0 v -0.03125 c 0.0078125,-0.0078125 0.019531,-0.015625 0.03125,-0.015625 z"
         id="path4296" />
    </symbol>
    <symbol
       id="w-5"
       overflow="visible">
      <path
         d="M 0,-0.046875 H 0.015625 V 0 H 0 Z"
         id="path4299" />
    </symbol>
    <symbol
       id="k-25"
       overflow="visible">
      <path
         d="m 0,-0.046875 h 0.015625 v 0.015625 h 0.03125 L 0.03125,-0.015625 0.046875,0 H 0.03125 L 0.015625,-0.015625 V 0 H 0 Z"
         id="path4302" />
    </symbol>
    <symbol
       id="g-4"
       overflow="visible">
      <path
         d="M 0.03125,-0.03125 H 0.015625 c 0.0078125,0.011719 0.015625,0.015625 0.015625,0.015625 V 0 H 0.015625 0 V -0.015625 0 H 0.015625 L 0.03125,-0.015625 H 0.015625 0 V -0.03125 l 0.015625,-0.015625 c 0.0078125,0 0.015625,0.0078125 0.015625,0.015625 z"
         id="path4305" />
    </symbol>
    <symbol
       id="f-7"
       overflow="visible">
      <path
         d="M 0.046875,-0.015625 V 0 H 0.03125 V -0.015625 -0.03125 H 0.015625 V -0.015625 0 H 0 V -0.03125 H 0.015625 L 0.03125,-0.046875 v 0.015625 c 0.0078125,0 0.015625,0.0078125 0.015625,0.015625 z"
         id="path4308" />
    </symbol>
    <symbol
       id="j-44"
       overflow="visible">
      <path
         d="m 0,-0.046875 h 0.03125 c 0.0078125,0 0.015625,0.0078125 0.015625,0.015625 L 0.03125,-0.015625 H 0.015625 V 0 H 0 Z m 0.015625,0 V -0.03125 H 0.03125 v -0.015625 z"
         id="path4311" />
    </symbol>
    <symbol
       id="d-3"
       overflow="visible">
      <path
         d="M 0.03125,-0.03125 H 0.015625 V -0.015625 0 H 0.03125 v -0.015625 z m 0,-0.015625 v 0.015625 c 0.0078125,0 0.015625,0.0078125 0.015625,0.015625 L 0.03125,0 H 0 V -0.015625 -0.03125 c 0.0078125,-0.0078125 0.019531,-0.015625 0.03125,-0.015625 z"
         id="path4314" />
    </symbol>
    <symbol
       id="v-0"
       overflow="visible">
      <path
         d="m 0,-0.03125 h 0.015625 v 0.015625 L 0.03125,-0.03125 H 0.046875 L 0.03125,0 H 0.015625 Z"
         id="path4317" />
    </symbol>
    <symbol
       id="u-7"
       overflow="visible">
      <path
         d="M 0,-0.03125 H 0.015625 V 0 H 0 Z m 0,-0.015625 h 0.015625 z"
         id="path4320" />
    </symbol>
    <symbol
       id="t-8"
       overflow="visible">
      <path
         d="M 0.03125,-0.046875 H 0.015625 V -0.03125 H 0.03125 0.015625 V 0 H 0 v -0.046875 h 0.015625 z"
         id="path4323" />
    </symbol>
    <symbol
       id="s-6"
       overflow="visible">
      <path
         d="m 0.046875,-0.03125 v -0.015625 c 0.0078125,0 0.015625,0.0078125 0.015625,0.015625 V -0.015625 0 -0.015625 c 0,-0.0078125 -0.0078125,-0.015625 -0.015625,-0.015625 V -0.015625 0 H 0.03125 V -0.015625 -0.03125 H 0.015625 V -0.015625 0 H 0 V -0.03125 H 0.015625 L 0.03125,-0.046875 v 0.015625 z"
         id="path4326" />
    </symbol>
    <symbol
       id="r-8"
       overflow="visible">
      <path
         d="M 0.046875,-0.015625 V 0 H 0.03125 V -0.015625 -0.03125 H 0.015625 V -0.015625 0 H 0 V -0.046875 H 0.015625 V -0.03125 L 0.03125,-0.046875 v 0.015625 c 0.0078125,0 0.015625,0.0078125 0.015625,0.015625 z"
         id="path4329" />
    </symbol>
    <symbol
       id="q-8"
       overflow="visible">
      <path
         d="m 0,-0.046875 h 0.015625 l 0.03125,0.03125 V -0.046875 0 H 0.03125 L 0.015625,-0.03125 V 0 H 0 Z"
         id="path4332" />
    </symbol>
    <symbol
       id="p-4"
       overflow="visible">
      <path
         d="M 0,-0.015625 V -0.03125 h 0.015625 v 0.015625 H 0.03125 V -0.03125 H 0.046875 V 0 H 0.03125 0.015625 0 Z"
         id="path4335" />
    </symbol>
    <symbol
       id="o-3"
       overflow="visible">
      <path
         d="M 0,-0.03125 H 0.015625 V 0 C 0.015625,0.0078125 0.0078125,0.015625 0,0.015625 Z m 0,-0.015625 h 0.015625 z"
         id="path4338" />
    </symbol>
    <symbol
       id="n-14"
       overflow="visible">
      <path
         d="M 0.03125,-0.03125 H 0.015625 V -0.015625 0 H 0.03125 V -0.015625 0 H 0 V -0.015625 -0.03125 c 0.0078125,-0.0078125 0.019531,-0.015625 0.03125,-0.015625 z"
         id="path4341" />
    </symbol>
    <symbol
       id="f-92"
       overflow="visible">
      <path
         d="m 18.766,-1.125 c -0.96875,0.5 -1.9805,0.875 -3.0312,1.125 -1.043,0.25781 -2.1367,0.39062 -3.2812,0.39062 -3.3984,0 -6.0898,-0.94531 -8.0781,-2.8438 -1.9922,-1.9062 -2.9844,-4.4844 -2.9844,-7.7344 0,-3.2578 0.99219,-5.8359 2.9844,-7.7344 1.9883,-1.9062 4.6797,-2.8594 8.0781,-2.8594 1.1445,0 2.2383,0.13281 3.2812,0.39062 1.0508,0.25 2.0625,0.625 3.0312,1.125 v 4.2188 c -0.98047,-0.65625 -1.9453,-1.1406 -2.8906,-1.4531 -0.94922,-0.3125 -1.9492,-0.46875 -3,-0.46875 -1.875,0 -3.3516,0.60547 -4.4219,1.8125 -1.0742,1.1992 -1.6094,2.8555 -1.6094,4.9688 0,2.1055 0.53516,3.7617 1.6094,4.9688 1.0703,1.1992 2.5469,1.7969 4.4219,1.7969 1.0508,0 2.0508,-0.14844 3,-0.45312 0.94531,-0.3125 1.9102,-0.80078 2.8906,-1.4688 z"
         id="path4905" />
    </symbol>
    <symbol
       id="c-0"
       overflow="visible">
      <path
         d="m 13.734,-11.141 c -0.4375,-0.19531 -0.87109,-0.34375 -1.2969,-0.4375 -0.41797,-0.10156 -0.83984,-0.15625 -1.2656,-0.15625 -1.2617,0 -2.2305,0.40625 -2.9062,1.2188 -0.67969,0.80469 -1.0156,1.9531 -1.0156,3.4531 v 7.0625 H 2.3591 v -15.312 h 4.8906 v 2.5156 c 0.625,-1 1.3438,-1.7266 2.1562,-2.1875 0.82031,-0.46875 1.8008,-0.70312 2.9375,-0.70312 0.16406,0 0.34375,0.01172 0.53125,0.03125 0.19531,0.01172 0.47656,0.03906 0.84375,0.07813 z"
         id="path4908" />
    </symbol>
    <symbol
       id="a-68"
       overflow="visible">
      <path
         d="m 17.641,-7.7031 v 1.4062 H 6.188 c 0.125,1.1484 0.53906,2.0078 1.25,2.5781 0.70703,0.57422 1.7031,0.85938 2.9844,0.85938 1.0312,0 2.082,-0.14844 3.1562,-0.45312 1.082,-0.3125 2.1914,-0.77344 3.3281,-1.3906 v 3.7656 c -1.1562,0.4375 -2.3125,0.76562 -3.4688,0.98438 -1.1562,0.22656 -2.3125,0.34375 -3.4688,0.34375 -2.7734,0 -4.9297,-0.70312 -6.4688,-2.1094 -1.5312,-1.4062 -2.2969,-3.3789 -2.2969,-5.9219 0,-2.5 0.75391,-4.4609 2.2656,-5.8906 1.5078,-1.4375 3.582,-2.1562 6.2188,-2.1562 2.4062,0 4.332,0.73047 5.7812,2.1875 1.4453,1.4492 2.1719,3.3828 2.1719,5.7969 z m -5.0312,-1.625 c 0,-0.92578 -0.27344,-1.6719 -0.8125,-2.2344 -0.54297,-0.57031 -1.25,-0.85938 -2.125,-0.85938 -0.94922,0 -1.7188,0.26562 -2.3125,0.79688 -0.5937,0.53126 -0.96484,1.2969 -1.1094,2.2969 z"
         id="path4911" />
    </symbol>
    <symbol
       id="e-92"
       overflow="visible">
      <path
         d="m 9.2188,-6.8906 c -1.0234,0 -1.793,0.17188 -2.3125,0.51562 -0.51172,0.34375 -0.76562,0.85547 -0.76562,1.5312 0,0.625 0.20703,1.1172 0.625,1.4688 0.41406,0.34375 0.98828,0.51562 1.7188,0.51562 0.92578,0 1.7031,-0.32812 2.3281,-0.98438 0.63281,-0.66406 0.95312,-1.4922 0.95312,-2.4844 v -0.5625 z m 7.4688,-1.8438 V 0 h -4.9219 v -2.2656 c -0.65625,0.92969 -1.3984,1.6055 -2.2188,2.0312 -0.82422,0.41406 -1.8242,0.625 -3,0.625 -1.5859,0 -2.8711,-0.45703 -3.8594,-1.375 -0.99219,-0.92578 -1.4844,-2.1289 -1.4844,-3.6094 0,-1.7891 0.61328,-3.1016 1.8438,-3.9375 1.2383,-0.84375 3.1797,-1.2656 5.8281,-1.2656 h 2.8906 v -0.39062 c 0,-0.76953 -0.30859,-1.332 -0.92188,-1.6875 -0.61719,-0.36328 -1.5703,-0.54688 -2.8594,-0.54688 -1.0547,0 -2.0312,0.10547 -2.9375,0.3125 -0.89844,0.21094 -1.7305,0.52344 -2.5,0.9375 v -3.7344 c 1.0391,-0.25 2.0859,-0.44141 3.1406,-0.57812 1.0625,-0.13281 2.125,-0.20312 3.1875,-0.20312 2.7578,0 4.75,0.54688 5.9688,1.6406 1.2266,1.0859 1.8438,2.8555 1.8438,5.3125 z"
         id="path4914" />
    </symbol>
    <symbol
       id="b-6"
       overflow="visible">
      <path
         d="m 7.7031,-19.656 v 4.3438 H 12.75 v 3.5 H 7.7031 v 6.5 c 0,0.71094 0.14062,1.1875 0.42188,1.4375 0.28126,0.25 0.83594,0.375 1.6719,0.375 h 2.5156 v 3.5 h -4.1875 c -1.9375,0 -3.3125,-0.39844 -4.125,-1.2031 -0.80469,-0.8125 -1.2031,-2.1797 -1.2031,-4.1094 v -6.5 h -2.4219 v -3.5 h 2.4219 v -4.3438 z"
         id="path4917" />
    </symbol>
    <symbol
       id="j-6"
       overflow="visible">
      <path
         d="m 12.766,-13.078 v -8.2031 h 4.9219 V -1e-4 H 12.766 v -2.2188 c -0.66797,0.90625 -1.4062,1.5703 -2.2188,1.9844 -0.8126,0.4141 -1.7578,0.625 -2.8281,0.625 -1.8867,0 -3.4336,-0.75 -4.6406,-2.25 -1.2109,-1.5 -1.8125,-3.4258 -1.8125,-5.7812 0,-2.3633 0.60156,-4.2969 1.8125,-5.7969 1.207,-1.5 2.7539,-2.25 4.6406,-2.25 1.0625,0 2,0.21484 2.8125,0.64062 0.82031,0.42969 1.5664,1.0859 2.2344,1.9688 z m -3.2188,9.9219 c 1.0391,0 1.8359,-0.37891 2.3906,-1.1406 0.55078,-0.76953 0.82812,-1.8828 0.82812,-3.3438 0,-1.457 -0.27734,-2.5664 -0.82812,-3.3281 -0.55469,-0.76953 -1.3516,-1.1562 -2.3906,-1.1562 -1.043,0 -1.8398,0.38672 -2.3906,1.1562 -0.55469,0.76172 -0.82812,1.8711 -0.82812,3.3281 0,1.4609 0.27344,2.5742 0.82812,3.3438 0.55078,0.76172 1.3477,1.1406 2.3906,1.1406 z"
         id="path4920" />
    </symbol>
    <symbol
       id="i-4"
       overflow="visible">
      <path
         d="m 10.5,-3.1562 c 1.0508,0 1.8516,-0.37891 2.4062,-1.1406 0.55078,-0.76953 0.82812,-1.8828 0.82812,-3.3438 0,-1.457 -0.27734,-2.5664 -0.82812,-3.3281 -0.55469,-0.76953 -1.3555,-1.1562 -2.4062,-1.1562 -1.0547,0 -1.8594,0.38672 -2.4219,1.1562 -0.55469,0.77344 -0.82812,1.8828 -0.82812,3.3281 0,1.4492 0.27344,2.5586 0.82812,3.3281 0.5625,0.77344 1.3672,1.1562 2.4219,1.1562 z m -3.25,-9.9219 c 0.67578,-0.88281 1.4219,-1.5391 2.2344,-1.9688 0.82031,-0.42578 1.7656,-0.64062 2.8281,-0.64062 1.8945,0 3.4453,0.75 4.6562,2.25 1.207,1.5 1.8125,3.4336 1.8125,5.7969 0,2.3555 -0.60547,4.2812 -1.8125,5.7812 -1.2109,1.5 -2.7617,2.25 -4.6562,2.25 -1.0625,0 -2.0078,-0.21094 -2.8281,-0.625 C 8.6719,-0.6602 7.9258,-1.32032 7.25,-2.21882 V -2e-5 H 2.3594 v -21.281 H 7.25 Z"
         id="path4923" />
    </symbol>
    <symbol
       id="h-9"
       overflow="visible">
      <path
         d="m 0.34375,-15.312 h 4.8906 l 4.125,10.391 3.5,-10.391 h 4.8906 l -6.4375,16.766 c -0.64844,1.6953 -1.4023,2.8828 -2.2656,3.5625 -0.86719,0.6875 -2,1.0312 -3.4062,1.0312 H 2.79685 V 2.8289 h 1.5312 c 0.83203,0 1.4375,-0.13672 1.8125,-0.40625 C 6.52336,2.16093 6.82024,1.69218 7.03117,1.01645 L 7.17179,0.59457 Z"
         id="path4926" />
    </symbol>
    <symbol
       id="g-5"
       overflow="visible">
      <path
         d="M 2.3594,-15.312 H 7.25 V 0 H 2.3594 Z m 0,-5.9688 H 7.25 v 4 H 2.3594 Z"
         id="path4929" />
    </symbol>
    <symbol
       id="u-0"
       overflow="visible">
      <path
         d="m 0.42188,-15.312 h 4.8906 l 3.8281,10.578 3.7969,-10.578 h 4.9062 L 11.81248,0 h -5.375 z"
         id="path4932" />
    </symbol>
    <symbol
       id="t-4"
       overflow="visible">
      <path
         d="M 14.953,-3.7188 H 6.7342 L 5.4217,0 H 0.1405 L 7.703,-20.406 h 6.2656 L 21.5311,0 H 16.2499 Z M 8.0468,-7.5 h 5.5781 l -2.7812,-8.125 z"
         id="path4935" />
    </symbol>
    <symbol
       id="s-8"
       overflow="visible">
      <path
         d="m 12.422,-21.281 v 3.2188 H 9.7189 c -0.6875,0 -1.1719,0.125 -1.4531,0.375 -0.27344,0.25 -0.40625,0.6875 -0.40625,1.3125 v 1.0625 h 4.1875 v 3.5 H 7.85955 V -2e-4 h -4.8906 v -11.812 h -2.4375 v -3.5 h 2.4375 v -1.0625 c 0,-1.6641 0.46094,-2.8984 1.3906,-3.7031 0.92578,-0.80078 2.3672,-1.2031 4.3281,-1.2031 z"
         id="path4938" />
    </symbol>
    <symbol
       id="d-7"
       overflow="visible">
      <path
         d="m 9.6406,-12.188 c -1.0859,0 -1.9141,0.39062 -2.4844,1.1719 -0.57422,0.78125 -0.85938,1.9062 -0.85938,3.375 0,1.4688 0.28516,2.5938 0.85938,3.375 0.57031,0.77344 1.3984,1.1562 2.4844,1.1562 1.0625,0 1.875,-0.38281 2.4375,-1.1562 0.57031,-0.78125 0.85938,-1.9062 0.85938,-3.375 0,-1.4688 -0.28906,-2.5938 -0.85938,-3.375 -0.5625,-0.78125 -1.375,-1.1719 -2.4375,-1.1719 z m 0,-3.5 c 2.6328,0 4.6914,0.71484 6.1719,2.1406 1.4766,1.418 2.2188,3.3867 2.2188,5.9062 0,2.5117 -0.74219,4.4805 -2.2188,5.9062 C 14.332,-0.317 12.2734,0.39 9.6406,0.39 6.9922,0.39 4.9258,-0.31703 3.4375,-1.735 1.9453,-3.1608 1.2031,-5.1295 1.2031,-7.6412 c 0,-2.5195 0.74219,-4.4883 2.2344,-5.9062 1.4883,-1.4258 3.5547,-2.1406 6.2031,-2.1406 z"
         id="path4941" />
    </symbol>
    <symbol
       id="r-1"
       overflow="visible">
      <path
         d="m 16.547,-12.766 c 0.61328,-0.94531 1.3477,-1.6719 2.2031,-2.1719 0.85156,-0.5 1.7891,-0.75 2.8125,-0.75 1.7578,0 3.0977,0.54688 4.0156,1.6406 0.92578,1.0859 1.3906,2.6562 1.3906,4.7188 V -4e-4 h -4.9219 v -7.9844 -0.35938 c 0.0078,-0.13281 0.01563,-0.32031 0.01563,-0.5625 0,-1.082 -0.16406,-1.8633 -0.48438,-2.3438 -0.3125,-0.48828 -0.82422,-0.73438 -1.5312,-0.73438 -0.92969,0 -1.6484,0.38672 -2.1562,1.1562 -0.51172,0.76172 -0.77344,1.8672 -0.78125,3.3125 v 7.5156 h -4.9219 v -7.9844 c 0,-1.6953 -0.14844,-2.7852 -0.4375,-3.2656 -0.29297,-0.48828 -0.8125,-0.73438 -1.5625,-0.73438 -0.9375,0 -1.6641,0.38672 -2.1719,1.1562 -0.51172,0.76172 -0.76562,1.8594 -0.76562,3.2969 v 7.5312 h -4.9219 v -15.312 h 4.9219 v 2.2344 c 0.60156,-0.86328 1.2891,-1.5156 2.0625,-1.9531 0.78125,-0.4375 1.6406,-0.65625 2.5781,-0.65625 1.0625,0 2,0.25781 2.8125,0.76562 0.8125,0.51172 1.4258,1.2305 1.8438,2.1562 z"
         id="path4944" />
    </symbol>
    <symbol
       id="q-7"
       overflow="visible">
      <path
         d="M 17.75,-9.3281 V 0 h -4.9219 v -7.1094 c 0,-1.3438 -0.03125,-2.2656 -0.09375,-2.7656 -0.0625,-0.5 -0.16797,-0.86719 -0.3125,-1.1094 -0.1875,-0.3125 -0.44922,-0.55469 -0.78125,-0.73438 -0.32422,-0.17578 -0.69531,-0.26562 -1.1094,-0.26562 -1.0234,0 -1.8242,0.39844 -2.4062,1.1875 -0.58594,0.78125 -0.875,1.8711 -0.875,3.2656 V -1e-4 H 2.3594 v -21.281 H 7.25 v 8.2031 c 0.73828,-0.88281 1.5195,-1.5391 2.3438,-1.9688 0.83203,-0.42578 1.75,-0.64062 2.75,-0.64062 1.7695,0 3.1133,0.54688 4.0312,1.6406 0.91406,1.0859 1.375,2.6562 1.375,4.7188 z"
         id="path4947" />
    </symbol>
    <symbol
       id="p-2"
       overflow="visible">
      <path
         d="m 2.5781,-20.406 h 5.875 l 7.4219,14 v -14 h 4.9844 V 0 h -5.875 L 7.5625,-14 V 0 H 2.5781 Z"
         id="path4950" />
    </symbol>
    <symbol
       id="o-7"
       overflow="visible">
      <path
         d="m 2.1875,-5.9688 v -9.3438 h 4.9219 v 1.5312 c 0,0.83594 -0.00781,1.875 -0.015625,3.125 -0.011719,1.25 -0.015625,2.0859 -0.015625,2.5 0,1.2422 0.03125,2.1328 0.09375,2.6719 0.070313,0.54297 0.17969,0.93359 0.32812,1.1719 0.20703,0.32422 0.47266,0.57422 0.79688,0.75 0.32031,0.16797 0.69141,0.25 1.1094,0.25 1.0195,0 1.8203,-0.39062 2.4062,-1.1719 0.58203,-0.78125 0.875,-1.8672 0.875,-3.2656 v -7.5625 h 4.8906 V -6e-4 H 12.6875 V -2.2194 C 11.94531,-1.32096 11.1641,-0.6608 10.3437,-0.235 9.51948,0.17906 8.6093,0.39 7.6093,0.39 5.8476,0.39 4.5038,-0.14906 3.5781,-1.235 2.64841,-2.317 2.1875,-3.8952 2.1875,-5.9694 Z"
         id="path4953" />
    </symbol>
    <symbol
       id="n-22"
       overflow="visible">
      <path
         d="M 17.75,-9.3281 V 0 h -4.9219 v -7.1406 c 0,-1.3203 -0.03125,-2.2344 -0.09375,-2.7344 -0.0625,-0.5 -0.16797,-0.86719 -0.3125,-1.1094 -0.1875,-0.3125 -0.44922,-0.55469 -0.78125,-0.73438 -0.32422,-0.17578 -0.69531,-0.26562 -1.1094,-0.26562 -1.0234,0 -1.8242,0.39844 -2.4062,1.1875 -0.58594,0.78125 -0.875,1.8711 -0.875,3.2656 V -1e-4 H 2.3594 v -15.312 H 7.25 v 2.2344 c 0.73828,-0.88281 1.5195,-1.5391 2.3438,-1.9688 0.83203,-0.42578 1.75,-0.64062 2.75,-0.64062 1.7695,0 3.1133,0.54688 4.0312,1.6406 0.91406,1.0859 1.375,2.6562 1.375,4.7188 z"
         id="path4956" />
    </symbol>
    <symbol
       id="m-6"
       overflow="visible">
      <path
         d="m 2.5781,-20.406 h 8.7344 c 2.5938,0 4.582,0.57812 5.9688,1.7344 1.3945,1.1484 2.0938,2.7891 2.0938,4.9219 0,2.1367 -0.69922,3.7812 -2.0938,4.9375 -1.3867,1.1562 -3.375,1.7344 -5.9688,1.7344 H 7.8281 V 3e-4 h -5.25 z m 5.25,3.8125 v 5.7031 H 10.75 c 1.0195,0 1.8047,-0.25 2.3594,-0.75 0.5625,-0.5 0.84375,-1.2031 0.84375,-2.1094 0,-0.91406 -0.28125,-1.6172 -0.84375,-2.1094 -0.55469,-0.48828 -1.3398,-0.73438 -2.3594,-0.73438 z"
         id="path4959" />
    </symbol>
    <symbol
       id="l-1"
       overflow="visible">
      <path
         d="M 2.3594,-15.312 H 7.25 v 15.031 c 0,2.0508 -0.49609,3.6172 -1.4844,4.7031 -0.98047,1.082 -2.4062,1.625 -4.2812,1.625 H -0.9375 V 2.8283 h 0.85938 c 0.92578,0 1.5625,-0.21094 1.9062,-0.625 0.35156,-0.41797 0.53125,-1.2461 0.53125,-2.4844 z m 0,-5.9688 H 7.25 v 4 H 2.3594 Z"
         id="path4962" />
    </symbol>
    <symbol
       id="k-0"
       overflow="visible">
      <path
         d="m 14.719,-14.828 v 3.9844 c -0.65625,-0.45703 -1.3242,-0.79688 -2,-1.0156 -0.66797,-0.21875 -1.3594,-0.32812 -2.0781,-0.32812 -1.3672,0 -2.4336,0.40234 -3.2031,1.2031 -0.76172,0.79297 -1.1406,1.9062 -1.1406,3.3438 0,1.4297 0.37891,2.543 1.1406,3.3438 0.76953,0.79297 1.8359,1.1875 3.2031,1.1875 0.75781,0 1.4844,-0.10938 2.1719,-0.32812 0.6875,-0.22656 1.3203,-0.56641 1.9062,-1.0156 v 4 c -0.76172,0.28125 -1.5391,0.48828 -2.3281,0.625 -0.78125,0.14453 -1.5742,0.21875 -2.375,0.21875 -2.7617,0 -4.9219,-0.70703 -6.4844,-2.125 -1.5547,-1.4141 -2.3281,-3.3828 -2.3281,-5.9062 0,-2.5312 0.77344,-4.5039 2.3281,-5.9219 1.5625,-1.4141 3.7227,-2.125 6.4844,-2.125 0.80078,0 1.5938,0.07422 2.375,0.21875 0.78125,0.13672 1.5547,0.35156 2.3281,0.64062 z"
         id="path4965" />
    </symbol>
  </defs>
  <g
     id="g175"
     transform="translate(493.57776,-21.854611)">
    <g
       id="g5048"
       transform="translate(-1698.2005,767.9407)">
      <g
         id="g16529"
         transform="translate(12.595619,5.7349617)">
        <path
           style="fill:none;stroke:#000000;stroke-width:5;stroke-linecap:butt;stroke-linejoin:miter;stroke-miterlimit:4;stroke-dasharray:none;stroke-opacity:1;marker-start:url(#Arrow2Mstart)"
           d="m 1484.7183,129.33142 c 31.7527,38.3344 63.5054,76.66889 111.6933,96.03015 48.1879,19.36126 112.8077,19.74915 177.4279,20.13705"
           id="path33976"
           inkscape:original-d="m 1484.7183,129.33142 c 31.7535,38.3337 63.5062,76.6682 95.2582,115.0035 64.623,0.3871 129.2428,0.775 193.863,1.1637"
           inkscape:path-effect="#path-effect33980" />
      </g>
    </g>
  </g>
</svg>
