<?xml version="1.0" encoding="utf-8"?>
<svg xmlns="http://www.w3.org/2000/svg" xmlns:xlink="http://www.w3.org/1999/xlink" width="960" height="480" viewBox="0 0 3840 1920">
<defs>
  <clipPath id="clip250">
    <rect x="0" y="0" width="3840" height="1920"/>
  </clipPath>
</defs>
<path clip-path="url(#clip250)" d="
M0 1920 L3840 1920 L3840 0 L0 0  Z
  " fill="#ffffff" fill-rule="evenodd" fill-opacity="1"/>
<defs>
  <clipPath id="clip251">
    <rect x="768" y="0" width="2689" height="1920"/>
  </clipPath>
</defs>
<defs>
  <clipPath id="clip252">
    <rect x="329" y="295" width="3401" height="1403"/>
  </clipPath>
</defs>
<path clip-path="url(#clip250)" d="
M328.063 1697.51 L3729.76 1697.51 L3729.76 295.444 L328.063 295.444  Z
  " fill="#ffffff" fill-rule="evenodd" fill-opacity="1"/>
<defs>
  <clipPath id="clip253">
    <rect x="328" y="295" width="3403" height="1403"/>
  </clipPath>
</defs>
<polyline clip-path="url(#clip253)" style="stroke:#000000; stroke-linecap:round; stroke-linejoin:round; stroke-width:2; stroke-opacity:0.1; fill:none" points="
  422.17,1697.51 422.17,295.444 
  "/>
<polyline clip-path="url(#clip253)" style="stroke:#000000; stroke-linecap:round; stroke-linejoin:round; stroke-width:2; stroke-opacity:0.1; fill:none" points="
  1506.34,1697.51 1506.34,295.444 
  "/>
<polyline clip-path="url(#clip253)" style="stroke:#000000; stroke-linecap:round; stroke-linejoin:round; stroke-width:2; stroke-opacity:0.1; fill:none" points="
  2590.52,1697.51 2590.52,295.444 
  "/>
<polyline clip-path="url(#clip253)" style="stroke:#000000; stroke-linecap:round; stroke-linejoin:round; stroke-width:2; stroke-opacity:0.1; fill:none" points="
  3674.69,1697.51 3674.69,295.444 
  "/>
<polyline clip-path="url(#clip250)" style="stroke:#000000; stroke-linecap:round; stroke-linejoin:round; stroke-width:4; stroke-opacity:1; fill:none" points="
  328.063,1697.51 3729.76,1697.51 
  "/>
<polyline clip-path="url(#clip250)" style="stroke:#000000; stroke-linecap:round; stroke-linejoin:round; stroke-width:4; stroke-opacity:1; fill:none" points="
  422.17,1697.51 422.17,1678.61 
  "/>
<polyline clip-path="url(#clip250)" style="stroke:#000000; stroke-linecap:round; stroke-linejoin:round; stroke-width:4; stroke-opacity:1; fill:none" points="
  1506.34,1697.51 1506.34,1678.61 
  "/>
<polyline clip-path="url(#clip250)" style="stroke:#000000; stroke-linecap:round; stroke-linejoin:round; stroke-width:4; stroke-opacity:1; fill:none" points="
  2590.52,1697.51 2590.52,1678.61 
  "/>
<polyline clip-path="url(#clip250)" style="stroke:#000000; stroke-linecap:round; stroke-linejoin:round; stroke-width:4; stroke-opacity:1; fill:none" points="
  3674.69,1697.51 3674.69,1678.61 
  "/>
<path clip-path="url(#clip250)" d="M422.17 1739.95 Q418.558 1739.95 416.73 1743.51 Q414.924 1747.05 414.924 1754.18 Q414.924 1761.29 416.73 1764.85 Q418.558 1768.4 422.17 1768.4 Q425.804 1768.4 427.609 1764.85 Q429.438 1761.29 429.438 1754.18 Q429.438 1747.05 427.609 1743.51 Q425.804 1739.95 422.17 1739.95 M422.17 1736.24 Q427.98 1736.24 431.035 1740.85 Q434.114 1745.43 434.114 1754.18 Q434.114 1762.91 431.035 1767.52 Q427.98 1772.1 422.17 1772.1 Q416.359 1772.1 413.281 1767.52 Q410.225 1762.91 410.225 1754.18 Q410.225 1745.43 413.281 1740.85 Q416.359 1736.24 422.17 1736.24 Z" fill="#000000" fill-rule="evenodd" fill-opacity="1" /><path clip-path="url(#clip250)" d="M1465.96 1736.87 L1484.32 1736.87 L1484.32 1740.8 L1470.24 1740.8 L1470.24 1749.28 Q1471.26 1748.93 1472.28 1748.77 Q1473.3 1748.58 1474.32 1748.58 Q1480.1 1748.58 1483.48 1751.75 Q1486.86 1754.92 1486.86 1760.34 Q1486.86 1765.92 1483.39 1769.02 Q1479.92 1772.1 1473.6 1772.1 Q1471.42 1772.1 1469.15 1771.73 Q1466.91 1771.36 1464.5 1770.62 L1464.5 1765.92 Q1466.59 1767.05 1468.81 1767.61 Q1471.03 1768.16 1473.51 1768.16 Q1477.51 1768.16 1479.85 1766.06 Q1482.19 1763.95 1482.19 1760.34 Q1482.19 1756.73 1479.85 1754.62 Q1477.51 1752.52 1473.51 1752.52 Q1471.63 1752.52 1469.76 1752.93 Q1467.91 1753.35 1465.96 1754.23 L1465.96 1736.87 Z" fill="#000000" fill-rule="evenodd" fill-opacity="1" /><path clip-path="url(#clip250)" d="M1506.08 1739.95 Q1502.47 1739.95 1500.64 1743.51 Q1498.83 1747.05 1498.83 1754.18 Q1498.83 1761.29 1500.64 1764.85 Q1502.47 1768.4 1506.08 1768.4 Q1509.71 1768.4 1511.52 1764.85 Q1513.34 1761.29 1513.34 1754.18 Q1513.34 1747.05 1511.52 1743.51 Q1509.71 1739.95 1506.08 1739.95 M1506.08 1736.24 Q1511.89 1736.24 1514.94 1740.85 Q1518.02 1745.43 1518.02 1754.18 Q1518.02 1762.91 1514.94 1767.52 Q1511.89 1772.1 1506.08 1772.1 Q1500.27 1772.1 1497.19 1767.52 Q1494.13 1762.91 1494.13 1754.18 Q1494.13 1745.43 1497.19 1740.85 Q1500.27 1736.24 1506.08 1736.24 Z" fill="#000000" fill-rule="evenodd" fill-opacity="1" /><path clip-path="url(#clip250)" d="M1536.24 1739.95 Q1532.63 1739.95 1530.8 1743.51 Q1528.99 1747.05 1528.99 1754.18 Q1528.99 1761.29 1530.8 1764.85 Q1532.63 1768.4 1536.24 1768.4 Q1539.87 1768.4 1541.68 1764.85 Q1543.51 1761.29 1543.51 1754.18 Q1543.51 1747.05 1541.68 1743.51 Q1539.87 1739.95 1536.24 1739.95 M1536.24 1736.24 Q1542.05 1736.24 1545.1 1740.85 Q1548.18 1745.43 1548.18 1754.18 Q1548.18 1762.91 1545.1 1767.52 Q1542.05 1772.1 1536.24 1772.1 Q1530.43 1772.1 1527.35 1767.52 Q1524.29 1762.91 1524.29 1754.18 Q1524.29 1745.43 1527.35 1740.85 Q1530.43 1736.24 1536.24 1736.24 Z" fill="#000000" fill-rule="evenodd" fill-opacity="1" /><path clip-path="url(#clip250)" d="M2535.04 1767.49 L2542.68 1767.49 L2542.68 1741.13 L2534.37 1742.79 L2534.37 1738.53 L2542.63 1736.87 L2547.31 1736.87 L2547.31 1767.49 L2554.95 1767.49 L2554.95 1771.43 L2535.04 1771.43 L2535.04 1767.49 Z" fill="#000000" fill-rule="evenodd" fill-opacity="1" /><path clip-path="url(#clip250)" d="M2574.39 1739.95 Q2570.78 1739.95 2568.95 1743.51 Q2567.15 1747.05 2567.15 1754.18 Q2567.15 1761.29 2568.95 1764.85 Q2570.78 1768.4 2574.39 1768.4 Q2578.03 1768.4 2579.83 1764.85 Q2581.66 1761.29 2581.66 1754.18 Q2581.66 1747.05 2579.83 1743.51 Q2578.03 1739.95 2574.39 1739.95 M2574.39 1736.24 Q2580.2 1736.24 2583.26 1740.85 Q2586.34 1745.43 2586.34 1754.18 Q2586.34 1762.91 2583.26 1767.52 Q2580.2 1772.1 2574.39 1772.1 Q2568.58 1772.1 2565.5 1767.52 Q2562.45 1762.91 2562.45 1754.18 Q2562.45 1745.43 2565.5 1740.85 Q2568.58 1736.24 2574.39 1736.24 Z" fill="#000000" fill-rule="evenodd" fill-opacity="1" /><path clip-path="url(#clip250)" d="M2604.55 1739.95 Q2600.94 1739.95 2599.11 1743.51 Q2597.31 1747.05 2597.31 1754.18 Q2597.31 1761.29 2599.11 1764.85 Q2600.94 1768.4 2604.55 1768.4 Q2608.19 1768.4 2609.99 1764.85 Q2611.82 1761.29 2611.82 1754.18 Q2611.82 1747.05 2609.99 1743.51 Q2608.19 1739.95 2604.55 1739.95 M2604.55 1736.24 Q2610.36 1736.24 2613.42 1740.85 Q2616.5 1745.43 2616.5 1754.18 Q2616.5 1762.91 2613.42 1767.52 Q2610.36 1772.1 2604.55 1772.1 Q2598.74 1772.1 2595.67 1767.52 Q2592.61 1762.91 2592.61 1754.18 Q2592.61 1745.43 2595.67 1740.85 Q2598.74 1736.24 2604.55 1736.24 Z" fill="#000000" fill-rule="evenodd" fill-opacity="1" /><path clip-path="url(#clip250)" d="M2634.72 1739.95 Q2631.11 1739.95 2629.28 1743.51 Q2627.47 1747.05 2627.47 1754.18 Q2627.47 1761.29 2629.28 1764.85 Q2631.11 1768.4 2634.72 1768.4 Q2638.35 1768.4 2640.16 1764.85 Q2641.98 1761.29 2641.98 1754.18 Q2641.98 1747.05 2640.16 1743.51 Q2638.35 1739.95 2634.72 1739.95 M2634.72 1736.24 Q2640.53 1736.24 2643.58 1740.85 Q2646.66 1745.43 2646.66 1754.18 Q2646.66 1762.91 2643.58 1767.52 Q2640.53 1772.1 2634.72 1772.1 Q2628.91 1772.1 2625.83 1767.52 Q2622.77 1762.91 2622.77 1754.18 Q2622.77 1745.43 2625.83 1740.85 Q2628.91 1736.24 2634.72 1736.24 Z" fill="#000000" fill-rule="evenodd" fill-opacity="1" /><path clip-path="url(#clip250)" d="M3619.21 1767.49 L3626.85 1767.49 L3626.85 1741.13 L3618.54 1742.79 L3618.54 1738.53 L3626.81 1736.87 L3631.48 1736.87 L3631.48 1767.49 L3639.12 1767.49 L3639.12 1771.43 L3619.21 1771.43 L3619.21 1767.49 Z" fill="#000000" fill-rule="evenodd" fill-opacity="1" /><path clip-path="url(#clip250)" d="M3648.61 1736.87 L3666.97 1736.87 L3666.97 1740.8 L3652.89 1740.8 L3652.89 1749.28 Q3653.91 1748.93 3654.93 1748.77 Q3655.95 1748.58 3656.97 1748.58 Q3662.75 1748.58 3666.13 1751.75 Q3669.51 1754.92 3669.51 1760.34 Q3669.51 1765.92 3666.04 1769.02 Q3662.57 1772.1 3656.25 1772.1 Q3654.07 1772.1 3651.81 1771.73 Q3649.56 1771.36 3647.15 1770.62 L3647.15 1765.92 Q3649.24 1767.05 3651.46 1767.61 Q3653.68 1768.16 3656.16 1768.16 Q3660.16 1768.16 3662.5 1766.06 Q3664.84 1763.95 3664.84 1760.34 Q3664.84 1756.73 3662.5 1754.62 Q3660.16 1752.52 3656.16 1752.52 Q3654.28 1752.52 3652.41 1752.93 Q3650.56 1753.35 3648.61 1754.23 L3648.61 1736.87 Z" fill="#000000" fill-rule="evenodd" fill-opacity="1" /><path clip-path="url(#clip250)" d="M3688.73 1739.95 Q3685.12 1739.95 3683.29 1743.51 Q3681.48 1747.05 3681.48 1754.18 Q3681.48 1761.29 3683.29 1764.85 Q3685.12 1768.4 3688.73 1768.4 Q3692.36 1768.4 3694.17 1764.85 Q3696 1761.29 3696 1754.18 Q3696 1747.05 3694.17 1743.51 Q3692.36 1739.95 3688.73 1739.95 M3688.73 1736.24 Q3694.54 1736.24 3697.59 1740.85 Q3700.67 1745.43 3700.67 1754.18 Q3700.67 1762.91 3697.59 1767.52 Q3694.54 1772.1 3688.73 1772.1 Q3682.92 1772.1 3679.84 1767.52 Q3676.78 1762.91 3676.78 1754.18 Q3676.78 1745.43 3679.84 1740.85 Q3682.92 1736.24 3688.73 1736.24 Z" fill="#000000" fill-rule="evenodd" fill-opacity="1" /><path clip-path="url(#clip250)" d="M3718.89 1739.95 Q3715.28 1739.95 3713.45 1743.51 Q3711.64 1747.05 3711.64 1754.18 Q3711.64 1761.29 3713.45 1764.85 Q3715.28 1768.4 3718.89 1768.4 Q3722.52 1768.4 3724.33 1764.85 Q3726.16 1761.29 3726.16 1754.18 Q3726.16 1747.05 3724.33 1743.51 Q3722.52 1739.95 3718.89 1739.95 M3718.89 1736.24 Q3724.7 1736.24 3727.75 1740.85 Q3730.83 1745.43 3730.83 1754.18 Q3730.83 1762.91 3727.75 1767.52 Q3724.7 1772.1 3718.89 1772.1 Q3713.08 1772.1 3710 1767.52 Q3706.94 1762.91 3706.94 1754.18 Q3706.94 1745.43 3710 1740.85 Q3713.08 1736.24 3718.89 1736.24 Z" fill="#000000" fill-rule="evenodd" fill-opacity="1" /><path clip-path="url(#clip250)" d="M1729.61 1813.54 L1735.46 1813.54 L1735.46 1849.18 L1729.61 1849.18 L1729.61 1813.54 M1729.61 1799.66 L1735.46 1799.66 L1735.46 1807.08 L1729.61 1807.08 L1729.61 1799.66 Z" fill="#000000" fill-rule="evenodd" fill-opacity="1" /><path clip-path="url(#clip250)" d="M1777.35 1827.67 L1777.35 1849.18 L1771.49 1849.18 L1771.49 1827.86 Q1771.49 1822.8 1769.52 1820.28 Q1767.55 1817.77 1763.6 1817.77 Q1758.86 1817.77 1756.12 1820.79 Q1753.38 1823.82 1753.38 1829.04 L1753.38 1849.18 L1747.49 1849.18 L1747.49 1813.54 L1753.38 1813.54 L1753.38 1819.07 Q1755.48 1815.86 1758.32 1814.27 Q1761.18 1812.68 1764.9 1812.68 Q1771.05 1812.68 1774.2 1816.5 Q1777.35 1820.28 1777.35 1827.67 Z" fill="#000000" fill-rule="evenodd" fill-opacity="1" /><path clip-path="url(#clip250)" d="M1794.82 1803.42 L1794.82 1813.54 L1806.89 1813.54 L1806.89 1818.09 L1794.82 1818.09 L1794.82 1837.44 Q1794.82 1841.8 1796 1843.04 Q1797.21 1844.28 1800.87 1844.28 L1806.89 1844.28 L1806.89 1849.18 L1800.87 1849.18 Q1794.09 1849.18 1791.51 1846.67 Q1788.93 1844.12 1788.93 1837.44 L1788.93 1818.09 L1784.64 1818.09 L1784.64 1813.54 L1788.93 1813.54 L1788.93 1803.42 L1794.82 1803.42 Z" fill="#000000" fill-rule="evenodd" fill-opacity="1" /><path clip-path="url(#clip250)" d="M1835.24 1819.01 Q1834.26 1818.44 1833.08 1818.18 Q1831.93 1817.9 1830.53 1817.9 Q1825.57 1817.9 1822.9 1821.14 Q1820.25 1824.36 1820.25 1830.41 L1820.25 1849.18 L1814.37 1849.18 L1814.37 1813.54 L1820.25 1813.54 L1820.25 1819.07 Q1822.1 1815.83 1825.06 1814.27 Q1828.02 1812.68 1832.25 1812.68 Q1832.86 1812.68 1833.59 1812.77 Q1834.32 1812.84 1835.21 1813 L1835.24 1819.01 Z" fill="#000000" fill-rule="evenodd" fill-opacity="1" /><path clip-path="url(#clip250)" d="M1853.77 1817.64 Q1849.06 1817.64 1846.32 1821.33 Q1843.58 1825 1843.58 1831.39 Q1843.58 1837.79 1846.29 1841.48 Q1849.03 1845.14 1853.77 1845.14 Q1858.45 1845.14 1861.18 1841.45 Q1863.92 1837.76 1863.92 1831.39 Q1863.92 1825.06 1861.18 1821.37 Q1858.45 1817.64 1853.77 1817.64 M1853.77 1812.68 Q1861.41 1812.68 1865.77 1817.64 Q1870.13 1822.61 1870.13 1831.39 Q1870.13 1840.15 1865.77 1845.14 Q1861.41 1850.11 1853.77 1850.11 Q1846.1 1850.11 1841.74 1845.14 Q1837.41 1840.15 1837.41 1831.39 Q1837.41 1822.61 1841.74 1817.64 Q1846.1 1812.68 1853.77 1812.68 Z" fill="#000000" fill-rule="evenodd" fill-opacity="1" /><path clip-path="url(#clip250)" d="M1903.29 1818.95 L1903.29 1799.66 L1909.15 1799.66 L1909.15 1849.18 L1903.29 1849.18 L1903.29 1843.84 Q1901.45 1847.02 1898.62 1848.58 Q1895.81 1850.11 1891.87 1850.11 Q1885.41 1850.11 1881.33 1844.95 Q1877.29 1839.8 1877.29 1831.39 Q1877.29 1822.99 1881.33 1817.83 Q1885.41 1812.68 1891.87 1812.68 Q1895.81 1812.68 1898.62 1814.24 Q1901.45 1815.76 1903.29 1818.95 M1883.34 1831.39 Q1883.34 1837.85 1885.98 1841.55 Q1888.65 1845.21 1893.3 1845.21 Q1897.95 1845.21 1900.62 1841.55 Q1903.29 1837.85 1903.29 1831.39 Q1903.29 1824.93 1900.62 1821.27 Q1897.95 1817.58 1893.3 1817.58 Q1888.65 1817.58 1885.98 1821.27 Q1883.34 1824.93 1883.34 1831.39 Z" fill="#000000" fill-rule="evenodd" fill-opacity="1" /><path clip-path="url(#clip250)" d="M1920.61 1835.12 L1920.61 1813.54 L1926.47 1813.54 L1926.47 1834.89 Q1926.47 1839.95 1928.44 1842.5 Q1930.41 1845.02 1934.36 1845.02 Q1939.1 1845.02 1941.84 1841.99 Q1944.61 1838.97 1944.61 1833.75 L1944.61 1813.54 L1950.46 1813.54 L1950.46 1849.18 L1944.61 1849.18 L1944.61 1843.71 Q1942.48 1846.96 1939.64 1848.55 Q1936.84 1850.11 1933.12 1850.11 Q1926.97 1850.11 1923.79 1846.29 Q1920.61 1842.47 1920.61 1835.12 M1935.35 1812.68 L1935.35 1812.68 Z" fill="#000000" fill-rule="evenodd" fill-opacity="1" /><path clip-path="url(#clip250)" d="M1988.18 1814.91 L1988.18 1820.38 Q1985.7 1819.01 1983.18 1818.34 Q1980.7 1817.64 1978.15 1817.64 Q1972.46 1817.64 1969.31 1821.27 Q1966.16 1824.87 1966.16 1831.39 Q1966.16 1837.92 1969.31 1841.55 Q1972.46 1845.14 1978.15 1845.14 Q1980.7 1845.14 1983.18 1844.47 Q1985.7 1843.77 1988.18 1842.41 L1988.18 1847.82 Q1985.73 1848.96 1983.09 1849.53 Q1980.48 1850.11 1977.52 1850.11 Q1969.47 1850.11 1964.72 1845.05 Q1959.98 1839.99 1959.98 1831.39 Q1959.98 1822.67 1964.75 1817.67 Q1969.56 1812.68 1977.9 1812.68 Q1980.61 1812.68 1983.18 1813.25 Q1985.76 1813.79 1988.18 1814.91 Z" fill="#000000" fill-rule="evenodd" fill-opacity="1" /><path clip-path="url(#clip250)" d="M2004.16 1803.42 L2004.16 1813.54 L2016.22 1813.54 L2016.22 1818.09 L2004.16 1818.09 L2004.16 1837.44 Q2004.16 1841.8 2005.34 1843.04 Q2006.55 1844.28 2010.21 1844.28 L2016.22 1844.28 L2016.22 1849.18 L2010.21 1849.18 Q2003.43 1849.18 2000.85 1846.67 Q1998.27 1844.12 1998.27 1837.44 L1998.27 1818.09 L1993.97 1818.09 L1993.97 1813.54 L1998.27 1813.54 L1998.27 1803.42 L2004.16 1803.42 Z" fill="#000000" fill-rule="evenodd" fill-opacity="1" /><path clip-path="url(#clip250)" d="M2023.92 1813.54 L2029.78 1813.54 L2029.78 1849.18 L2023.92 1849.18 L2023.92 1813.54 M2023.92 1799.66 L2029.78 1799.66 L2029.78 1807.08 L2023.92 1807.08 L2023.92 1799.66 Z" fill="#000000" fill-rule="evenodd" fill-opacity="1" /><path clip-path="url(#clip250)" d="M2055.85 1817.64 Q2051.14 1817.64 2048.4 1821.33 Q2045.66 1825 2045.66 1831.39 Q2045.66 1837.79 2048.37 1841.48 Q2051.11 1845.14 2055.85 1845.14 Q2060.53 1845.14 2063.26 1841.45 Q2066 1837.76 2066 1831.39 Q2066 1825.06 2063.26 1821.37 Q2060.53 1817.64 2055.85 1817.64 M2055.85 1812.68 Q2063.49 1812.68 2067.85 1817.64 Q2072.21 1822.61 2072.21 1831.39 Q2072.21 1840.15 2067.85 1845.14 Q2063.49 1850.11 2055.85 1850.11 Q2048.18 1850.11 2043.82 1845.14 Q2039.49 1840.15 2039.49 1831.39 Q2039.49 1822.61 2043.82 1817.64 Q2048.18 1812.68 2055.85 1812.68 Z" fill="#000000" fill-rule="evenodd" fill-opacity="1" /><path clip-path="url(#clip250)" d="M2111.55 1827.67 L2111.55 1849.18 L2105.69 1849.18 L2105.69 1827.86 Q2105.69 1822.8 2103.72 1820.28 Q2101.74 1817.77 2097.8 1817.77 Q2093.06 1817.77 2090.32 1820.79 Q2087.58 1823.82 2087.58 1829.04 L2087.58 1849.18 L2081.69 1849.18 L2081.69 1813.54 L2087.58 1813.54 L2087.58 1819.07 Q2089.68 1815.86 2092.51 1814.27 Q2095.38 1812.68 2099.1 1812.68 Q2105.25 1812.68 2108.4 1816.5 Q2111.55 1820.28 2111.55 1827.67 Z" fill="#000000" fill-rule="evenodd" fill-opacity="1" /><path clip-path="url(#clip250)" d="M2164.61 1819.01 Q2163.62 1818.44 2162.44 1818.18 Q2161.3 1817.9 2159.9 1817.9 Q2154.93 1817.9 2152.26 1821.14 Q2149.62 1824.36 2149.62 1830.41 L2149.62 1849.18 L2143.73 1849.18 L2143.73 1813.54 L2149.62 1813.54 L2149.62 1819.07 Q2151.46 1815.83 2154.42 1814.27 Q2157.38 1812.68 2161.61 1812.68 Q2162.22 1812.68 2162.95 1812.77 Q2163.68 1812.84 2164.57 1813 L2164.61 1819.01 Z" fill="#000000" fill-rule="evenodd" fill-opacity="1" /><path clip-path="url(#clip250)" d="M2186.95 1831.27 Q2179.85 1831.27 2177.11 1832.89 Q2174.38 1834.51 2174.38 1838.43 Q2174.38 1841.55 2176.41 1843.39 Q2178.48 1845.21 2182.02 1845.21 Q2186.89 1845.21 2189.81 1841.77 Q2192.77 1838.3 2192.77 1832.57 L2192.77 1831.27 L2186.95 1831.27 M2198.63 1828.85 L2198.63 1849.18 L2192.77 1849.18 L2192.77 1843.77 Q2190.77 1847.02 2187.78 1848.58 Q2184.79 1850.11 2180.46 1850.11 Q2174.98 1850.11 2171.74 1847.05 Q2168.52 1843.96 2168.52 1838.81 Q2168.52 1832.79 2172.53 1829.74 Q2176.57 1826.68 2184.56 1826.68 L2192.77 1826.68 L2192.77 1826.11 Q2192.77 1822.07 2190.1 1819.87 Q2187.46 1817.64 2182.65 1817.64 Q2179.6 1817.64 2176.7 1818.37 Q2173.8 1819.11 2171.13 1820.57 L2171.13 1815.16 Q2174.35 1813.92 2177.37 1813.31 Q2180.39 1812.68 2183.26 1812.68 Q2190.99 1812.68 2194.81 1816.69 Q2198.63 1820.7 2198.63 1828.85 Z" fill="#000000" fill-rule="evenodd" fill-opacity="1" /><path clip-path="url(#clip250)" d="M2216.49 1803.42 L2216.49 1813.54 L2228.55 1813.54 L2228.55 1818.09 L2216.49 1818.09 L2216.49 1837.44 Q2216.49 1841.8 2217.66 1843.04 Q2218.87 1844.28 2222.53 1844.28 L2228.55 1844.28 L2228.55 1849.18 L2222.53 1849.18 Q2215.75 1849.18 2213.18 1846.67 Q2210.6 1844.12 2210.6 1837.44 L2210.6 1818.09 L2206.3 1818.09 L2206.3 1813.54 L2210.6 1813.54 L2210.6 1803.42 L2216.49 1803.42 Z" fill="#000000" fill-rule="evenodd" fill-opacity="1" /><path clip-path="url(#clip250)" d="M2266.74 1829.9 L2266.74 1832.76 L2239.82 1832.76 Q2240.2 1838.81 2243.45 1841.99 Q2246.72 1845.14 2252.55 1845.14 Q2255.92 1845.14 2259.07 1844.31 Q2262.26 1843.49 2265.38 1841.83 L2265.38 1847.37 Q2262.22 1848.71 2258.91 1849.41 Q2255.6 1850.11 2252.2 1850.11 Q2243.67 1850.11 2238.67 1845.14 Q2233.71 1840.18 2233.71 1831.71 Q2233.71 1822.96 2238.42 1817.83 Q2243.16 1812.68 2251.18 1812.68 Q2258.37 1812.68 2262.54 1817.32 Q2266.74 1821.94 2266.74 1829.9 M2260.89 1828.18 Q2260.82 1823.37 2258.18 1820.51 Q2255.57 1817.64 2251.24 1817.64 Q2246.34 1817.64 2243.38 1820.41 Q2240.45 1823.18 2240.01 1828.21 L2260.89 1828.18 Z" fill="#000000" fill-rule="evenodd" fill-opacity="1" /><path clip-path="url(#clip250)" d="M2325.81 1822.33 Q2325.81 1824.58 2322.59 1824.58 L2315.35 1824.58 Q2317.37 1827.48 2317.37 1831.76 Q2317.37 1835.43 2315.86 1838.88 Q2314.38 1842.29 2312 1844.68 Q2309.65 1847.06 2306.68 1848.51 Q2303.72 1849.93 2300.82 1849.93 Q2296.41 1849.93 2293.67 1846.93 Q2290.93 1843.94 2290.93 1839.49 Q2290.93 1837.14 2291.74 1834.53 Q2292.58 1831.92 2294.15 1829.51 Q2295.73 1827.06 2297.79 1825.09 Q2299.89 1823.13 2302.59 1821.94 Q2305.33 1820.75 2308.2 1820.75 L2323.24 1820.75 Q2324.04 1820.75 2324.46 1820.81 Q2324.91 1820.84 2325.36 1821.23 Q2325.81 1821.58 2325.81 1822.33 M2313.16 1830.99 Q2313.16 1830.22 2313.06 1829.54 Q2312.96 1828.83 2312.61 1827.9 Q2312.25 1826.93 2311.64 1826.25 Q2311.03 1825.55 2309.84 1825.06 Q2308.68 1824.58 2307.1 1824.58 Q2304.88 1824.58 2302.43 1825.8 Q2299.98 1827.03 2298.12 1830.05 Q2296.57 1832.63 2295.8 1835.98 Q2295.02 1839.33 2295.02 1841.33 Q2295.02 1844.74 2296.67 1846.61 Q2298.34 1848.44 2300.89 1848.44 Q2302.98 1848.44 2305.36 1847.03 Q2307.75 1845.58 2309.58 1842.84 Q2311.19 1840.46 2312.16 1836.98 Q2313.16 1833.5 2313.16 1830.99 Z" fill="#000000" fill-rule="evenodd" fill-opacity="1" /><polyline clip-path="url(#clip253)" style="stroke:#000000; stroke-linecap:round; stroke-linejoin:round; stroke-width:2; stroke-opacity:0.1; fill:none" points="
  328.063,1669.37 3729.76,1669.37 
  "/>
<polyline clip-path="url(#clip253)" style="stroke:#000000; stroke-linecap:round; stroke-linejoin:round; stroke-width:2; stroke-opacity:0.1; fill:none" points="
  328.063,1331.46 3729.76,1331.46 
  "/>
<polyline clip-path="url(#clip253)" style="stroke:#000000; stroke-linecap:round; stroke-linejoin:round; stroke-width:2; stroke-opacity:0.1; fill:none" points="
  328.063,993.54 3729.76,993.54 
  "/>
<polyline clip-path="url(#clip253)" style="stroke:#000000; stroke-linecap:round; stroke-linejoin:round; stroke-width:2; stroke-opacity:0.1; fill:none" points="
  328.063,655.624 3729.76,655.624 
  "/>
<polyline clip-path="url(#clip253)" style="stroke:#000000; stroke-linecap:round; stroke-linejoin:round; stroke-width:2; stroke-opacity:0.1; fill:none" points="
  328.063,317.708 3729.76,317.708 
  "/>
<polyline clip-path="url(#clip250)" style="stroke:#000000; stroke-linecap:round; stroke-linejoin:round; stroke-width:4; stroke-opacity:1; fill:none" points="
  328.063,1697.51 328.063,295.444 
  "/>
<polyline clip-path="url(#clip250)" style="stroke:#000000; stroke-linecap:round; stroke-linejoin:round; stroke-width:4; stroke-opacity:1; fill:none" points="
  328.063,1669.37 346.961,1669.37 
  "/>
<polyline clip-path="url(#clip250)" style="stroke:#000000; stroke-linecap:round; stroke-linejoin:round; stroke-width:4; stroke-opacity:1; fill:none" points="
  328.063,1331.46 346.961,1331.46 
  "/>
<polyline clip-path="url(#clip250)" style="stroke:#000000; stroke-linecap:round; stroke-linejoin:round; stroke-width:4; stroke-opacity:1; fill:none" points="
  328.063,993.54 346.961,993.54 
  "/>
<polyline clip-path="url(#clip250)" style="stroke:#000000; stroke-linecap:round; stroke-linejoin:round; stroke-width:4; stroke-opacity:1; fill:none" points="
  328.063,655.624 346.961,655.624 
  "/>
<polyline clip-path="url(#clip250)" style="stroke:#000000; stroke-linecap:round; stroke-linejoin:round; stroke-width:4; stroke-opacity:1; fill:none" points="
  328.063,317.708 346.961,317.708 
  "/>
<path clip-path="url(#clip250)" d="M258.519 1655.17 Q254.908 1655.17 253.079 1658.73 Q251.274 1662.28 251.274 1669.41 Q251.274 1676.51 253.079 1680.08 Q254.908 1683.62 258.519 1683.62 Q262.153 1683.62 263.959 1680.08 Q265.787 1676.51 265.787 1669.41 Q265.787 1662.28 263.959 1658.73 Q262.153 1655.17 258.519 1655.17 M258.519 1651.47 Q264.329 1651.47 267.385 1656.07 Q270.463 1660.66 270.463 1669.41 Q270.463 1678.13 267.385 1682.74 Q264.329 1687.32 258.519 1687.32 Q252.709 1687.32 249.63 1682.74 Q246.575 1678.13 246.575 1669.41 Q246.575 1660.66 249.63 1656.07 Q252.709 1651.47 258.519 1651.47 Z" fill="#000000" fill-rule="evenodd" fill-opacity="1" /><path clip-path="url(#clip250)" d="M192.223 1344.8 L208.542 1344.8 L208.542 1348.74 L186.598 1348.74 L186.598 1344.8 Q189.26 1342.05 193.843 1337.42 Q198.45 1332.76 199.63 1331.42 Q201.876 1328.9 202.755 1327.16 Q203.658 1325.4 203.658 1323.71 Q203.658 1320.96 201.714 1319.22 Q199.792 1317.49 196.691 1317.49 Q194.492 1317.49 192.038 1318.25 Q189.607 1319.01 186.83 1320.56 L186.83 1315.84 Q189.654 1314.71 192.107 1314.13 Q194.561 1313.55 196.598 1313.55 Q201.968 1313.55 205.163 1316.24 Q208.357 1318.92 208.357 1323.41 Q208.357 1325.54 207.547 1327.46 Q206.76 1329.36 204.654 1331.95 Q204.075 1332.62 200.973 1335.84 Q197.871 1339.04 192.223 1344.8 Z" fill="#000000" fill-rule="evenodd" fill-opacity="1" /><path clip-path="url(#clip250)" d="M218.403 1314.18 L236.76 1314.18 L236.76 1318.11 L222.686 1318.11 L222.686 1326.58 Q223.704 1326.24 224.723 1326.07 Q225.741 1325.89 226.76 1325.89 Q232.547 1325.89 235.926 1329.06 Q239.306 1332.23 239.306 1337.65 Q239.306 1343.23 235.834 1346.33 Q232.362 1349.41 226.042 1349.41 Q223.866 1349.41 221.598 1349.04 Q219.353 1348.67 216.945 1347.93 L216.945 1343.23 Q219.028 1344.36 221.251 1344.92 Q223.473 1345.47 225.95 1345.47 Q229.954 1345.47 232.292 1343.37 Q234.63 1341.26 234.63 1337.65 Q234.63 1334.04 232.292 1331.93 Q229.954 1329.82 225.95 1329.82 Q224.075 1329.82 222.2 1330.24 Q220.348 1330.66 218.403 1331.54 L218.403 1314.18 Z" fill="#000000" fill-rule="evenodd" fill-opacity="1" /><path clip-path="url(#clip250)" d="M258.519 1317.25 Q254.908 1317.25 253.079 1320.82 Q251.274 1324.36 251.274 1331.49 Q251.274 1338.6 253.079 1342.16 Q254.908 1345.7 258.519 1345.7 Q262.153 1345.7 263.959 1342.16 Q265.787 1338.6 265.787 1331.49 Q265.787 1324.36 263.959 1320.82 Q262.153 1317.25 258.519 1317.25 M258.519 1313.55 Q264.329 1313.55 267.385 1318.16 Q270.463 1322.74 270.463 1331.49 Q270.463 1340.22 267.385 1344.82 Q264.329 1349.41 258.519 1349.41 Q252.709 1349.41 249.63 1344.82 Q246.575 1340.22 246.575 1331.49 Q246.575 1322.74 249.63 1318.16 Q252.709 1313.55 258.519 1313.55 Z" fill="#000000" fill-rule="evenodd" fill-opacity="1" /><path clip-path="url(#clip250)" d="M188.242 976.26 L206.598 976.26 L206.598 980.195 L192.524 980.195 L192.524 988.667 Q193.542 988.32 194.561 988.158 Q195.579 987.973 196.598 987.973 Q202.385 987.973 205.765 991.144 Q209.144 994.315 209.144 999.732 Q209.144 1005.31 205.672 1008.41 Q202.2 1011.49 195.88 1011.49 Q193.705 1011.49 191.436 1011.12 Q189.191 1010.75 186.783 1010.01 L186.783 1005.31 Q188.867 1006.44 191.089 1007 Q193.311 1007.56 195.788 1007.56 Q199.792 1007.56 202.13 1005.45 Q204.468 1003.34 204.468 999.732 Q204.468 996.121 202.13 994.014 Q199.792 991.908 195.788 991.908 Q193.913 991.908 192.038 992.325 Q190.186 992.741 188.242 993.621 L188.242 976.26 Z" fill="#000000" fill-rule="evenodd" fill-opacity="1" /><path clip-path="url(#clip250)" d="M228.357 979.338 Q224.746 979.338 222.917 982.903 Q221.112 986.445 221.112 993.575 Q221.112 1000.68 222.917 1004.25 Q224.746 1007.79 228.357 1007.79 Q231.991 1007.79 233.797 1004.25 Q235.626 1000.68 235.626 993.575 Q235.626 986.445 233.797 982.903 Q231.991 979.338 228.357 979.338 M228.357 975.635 Q234.167 975.635 237.223 980.241 Q240.301 984.825 240.301 993.575 Q240.301 1002.3 237.223 1006.91 Q234.167 1011.49 228.357 1011.49 Q222.547 1011.49 219.468 1006.91 Q216.413 1002.3 216.413 993.575 Q216.413 984.825 219.468 980.241 Q222.547 975.635 228.357 975.635 Z" fill="#000000" fill-rule="evenodd" fill-opacity="1" /><path clip-path="url(#clip250)" d="M258.519 979.338 Q254.908 979.338 253.079 982.903 Q251.274 986.445 251.274 993.575 Q251.274 1000.68 253.079 1004.25 Q254.908 1007.79 258.519 1007.79 Q262.153 1007.79 263.959 1004.25 Q265.787 1000.68 265.787 993.575 Q265.787 986.445 263.959 982.903 Q262.153 979.338 258.519 979.338 M258.519 975.635 Q264.329 975.635 267.385 980.241 Q270.463 984.825 270.463 993.575 Q270.463 1002.3 267.385 1006.91 Q264.329 1011.49 258.519 1011.49 Q252.709 1011.49 249.63 1006.91 Q246.575 1002.3 246.575 993.575 Q246.575 984.825 249.63 980.241 Q252.709 975.635 258.519 975.635 Z" fill="#000000" fill-rule="evenodd" fill-opacity="1" /><path clip-path="url(#clip250)" d="M187.015 638.344 L209.237 638.344 L209.237 640.335 L196.691 672.904 L191.806 672.904 L203.612 642.279 L187.015 642.279 L187.015 638.344 Z" fill="#000000" fill-rule="evenodd" fill-opacity="1" /><path clip-path="url(#clip250)" d="M218.403 638.344 L236.76 638.344 L236.76 642.279 L222.686 642.279 L222.686 650.751 Q223.704 650.404 224.723 650.242 Q225.741 650.057 226.76 650.057 Q232.547 650.057 235.926 653.228 Q239.306 656.399 239.306 661.816 Q239.306 667.395 235.834 670.497 Q232.362 673.575 226.042 673.575 Q223.866 673.575 221.598 673.205 Q219.353 672.835 216.945 672.094 L216.945 667.395 Q219.028 668.529 221.251 669.085 Q223.473 669.64 225.95 669.64 Q229.954 669.64 232.292 667.534 Q234.63 665.427 234.63 661.816 Q234.63 658.205 232.292 656.099 Q229.954 653.992 225.95 653.992 Q224.075 653.992 222.2 654.409 Q220.348 654.825 218.403 655.705 L218.403 638.344 Z" fill="#000000" fill-rule="evenodd" fill-opacity="1" /><path clip-path="url(#clip250)" d="M258.519 641.423 Q254.908 641.423 253.079 644.987 Q251.274 648.529 251.274 655.659 Q251.274 662.765 253.079 666.33 Q254.908 669.872 258.519 669.872 Q262.153 669.872 263.959 666.33 Q265.787 662.765 265.787 655.659 Q265.787 648.529 263.959 644.987 Q262.153 641.423 258.519 641.423 M258.519 637.719 Q264.329 637.719 267.385 642.325 Q270.463 646.909 270.463 655.659 Q270.463 664.386 267.385 668.992 Q264.329 673.575 258.519 673.575 Q252.709 673.575 249.63 668.992 Q246.575 664.386 246.575 655.659 Q246.575 646.909 249.63 642.325 Q252.709 637.719 258.519 637.719 Z" fill="#000000" fill-rule="evenodd" fill-opacity="1" /><path clip-path="url(#clip250)" d="M158.844 331.053 L166.482 331.053 L166.482 304.687 L158.172 306.354 L158.172 302.095 L166.436 300.428 L171.112 300.428 L171.112 331.053 L178.751 331.053 L178.751 334.988 L158.844 334.988 L158.844 331.053 Z" fill="#000000" fill-rule="evenodd" fill-opacity="1" /><path clip-path="url(#clip250)" d="M198.195 303.507 Q194.584 303.507 192.755 307.072 Q190.95 310.613 190.95 317.743 Q190.95 324.849 192.755 328.414 Q194.584 331.956 198.195 331.956 Q201.829 331.956 203.635 328.414 Q205.464 324.849 205.464 317.743 Q205.464 310.613 203.635 307.072 Q201.829 303.507 198.195 303.507 M198.195 299.803 Q204.005 299.803 207.061 304.41 Q210.14 308.993 210.14 317.743 Q210.14 326.47 207.061 331.076 Q204.005 335.659 198.195 335.659 Q192.385 335.659 189.306 331.076 Q186.251 326.47 186.251 317.743 Q186.251 308.993 189.306 304.41 Q192.385 299.803 198.195 299.803 Z" fill="#000000" fill-rule="evenodd" fill-opacity="1" /><path clip-path="url(#clip250)" d="M228.357 303.507 Q224.746 303.507 222.917 307.072 Q221.112 310.613 221.112 317.743 Q221.112 324.849 222.917 328.414 Q224.746 331.956 228.357 331.956 Q231.991 331.956 233.797 328.414 Q235.626 324.849 235.626 317.743 Q235.626 310.613 233.797 307.072 Q231.991 303.507 228.357 303.507 M228.357 299.803 Q234.167 299.803 237.223 304.41 Q240.301 308.993 240.301 317.743 Q240.301 326.47 237.223 331.076 Q234.167 335.659 228.357 335.659 Q222.547 335.659 219.468 331.076 Q216.413 326.47 216.413 317.743 Q216.413 308.993 219.468 304.41 Q222.547 299.803 228.357 299.803 Z" fill="#000000" fill-rule="evenodd" fill-opacity="1" /><path clip-path="url(#clip250)" d="M258.519 303.507 Q254.908 303.507 253.079 307.072 Q251.274 310.613 251.274 317.743 Q251.274 324.849 253.079 328.414 Q254.908 331.956 258.519 331.956 Q262.153 331.956 263.959 328.414 Q265.787 324.849 265.787 317.743 Q265.787 310.613 263.959 307.072 Q262.153 303.507 258.519 303.507 M258.519 299.803 Q264.329 299.803 267.385 304.41 Q270.463 308.993 270.463 317.743 Q270.463 326.47 267.385 331.076 Q264.329 335.659 258.519 335.659 Q252.709 335.659 249.63 331.076 Q246.575 326.47 246.575 317.743 Q246.575 308.993 249.63 304.41 Q252.709 299.803 258.519 299.803 Z" fill="#000000" fill-rule="evenodd" fill-opacity="1" /><path clip-path="url(#clip250)" d="M38.7963 1233.01 L38.7963 1226.58 L80.9054 1226.58 L80.9054 1203.44 L86.3163 1203.44 L86.3163 1233.01 L38.7963 1233.01 Z" fill="#000000" fill-rule="evenodd" fill-opacity="1" /><path clip-path="url(#clip250)" d="M68.3968 1180.75 Q68.3968 1187.85 70.0201 1190.58 Q71.6433 1193.32 75.5582 1193.32 Q78.6774 1193.32 80.5235 1191.28 Q82.3377 1189.21 82.3377 1185.68 Q82.3377 1180.81 78.9002 1177.88 Q75.4309 1174.92 69.7018 1174.92 L68.3968 1174.92 L68.3968 1180.75 M65.9779 1169.07 L86.3163 1169.07 L86.3163 1174.92 L80.9054 1174.92 Q84.1519 1176.93 85.7115 1179.92 Q87.2393 1182.91 87.2393 1187.24 Q87.2393 1192.71 84.1838 1195.96 Q81.0964 1199.18 75.9402 1199.18 Q69.9246 1199.18 66.869 1195.17 Q63.8135 1191.12 63.8135 1183.13 L63.8135 1174.92 L63.2406 1174.92 Q59.1984 1174.92 57.0022 1177.6 Q54.7742 1180.24 54.7742 1185.04 Q54.7742 1188.1 55.5063 1191 Q56.2383 1193.89 57.7024 1196.57 L52.2916 1196.57 Q51.0503 1193.35 50.4455 1190.33 Q49.809 1187.3 49.809 1184.44 Q49.809 1176.71 53.8194 1172.89 Q57.8297 1169.07 65.9779 1169.07 Z" fill="#000000" fill-rule="evenodd" fill-opacity="1" /><path clip-path="url(#clip250)" d="M56.1428 1136.35 Q55.5699 1137.33 55.3153 1138.51 Q55.0288 1139.66 55.0288 1141.06 Q55.0288 1146.02 58.2753 1148.7 Q61.49 1151.34 67.5374 1151.34 L86.3163 1151.34 L86.3163 1157.23 L50.6683 1157.23 L50.6683 1151.34 L56.2065 1151.34 Q52.96 1149.49 51.4004 1146.53 Q49.809 1143.57 49.809 1139.34 Q49.809 1138.73 49.9044 1138 Q49.9681 1137.27 50.1272 1136.38 L56.1428 1136.35 Z" fill="#000000" fill-rule="evenodd" fill-opacity="1" /><path clip-path="url(#clip250)" d="M50.6683 1134.41 L50.6683 1128.2 L80.5871 1117.06 L50.6683 1105.92 L50.6683 1099.71 L86.3163 1113.08 L86.3163 1121.04 L50.6683 1134.41 Z" fill="#000000" fill-rule="evenodd" fill-opacity="1" /><path clip-path="url(#clip250)" d="M68.3968 1075.43 Q68.3968 1082.52 70.0201 1085.26 Q71.6433 1088 75.5582 1088 Q78.6774 1088 80.5235 1085.96 Q82.3377 1083.89 82.3377 1080.36 Q82.3377 1075.49 78.9002 1072.56 Q75.4309 1069.6 69.7018 1069.6 L68.3968 1069.6 L68.3968 1075.43 M65.9779 1063.75 L86.3163 1063.75 L86.3163 1069.6 L80.9054 1069.6 Q84.1519 1071.61 85.7115 1074.6 Q87.2393 1077.59 87.2393 1081.92 Q87.2393 1087.39 84.1838 1090.64 Q81.0964 1093.86 75.9402 1093.86 Q69.9246 1093.86 66.869 1089.85 Q63.8135 1085.8 63.8135 1077.81 L63.8135 1069.6 L63.2406 1069.6 Q59.1984 1069.6 57.0022 1072.28 Q54.7742 1074.92 54.7742 1079.72 Q54.7742 1082.78 55.5063 1085.68 Q56.2383 1088.57 57.7024 1091.25 L52.2916 1091.25 Q51.0503 1088.03 50.4455 1085.01 Q49.809 1081.98 49.809 1079.12 Q49.809 1071.38 53.8194 1067.57 Q57.8297 1063.75 65.9779 1063.75 Z" fill="#000000" fill-rule="evenodd" fill-opacity="1" /><path clip-path="url(#clip250)" d="M67.0282 1021.19 L69.8928 1021.19 L69.8928 1048.12 Q75.9402 1047.74 79.123 1044.49 Q82.2741 1041.21 82.2741 1035.39 Q82.2741 1032.01 81.4465 1028.86 Q80.619 1025.68 78.9639 1022.56 L84.5021 1022.56 Q85.8389 1025.71 86.5391 1029.02 Q87.2393 1032.33 87.2393 1035.74 Q87.2393 1044.27 82.2741 1049.26 Q77.3088 1054.23 68.8424 1054.23 Q60.0896 1054.23 54.9652 1049.52 Q49.809 1044.78 49.809 1036.76 Q49.809 1029.56 54.4559 1025.39 Q59.0711 1021.19 67.0282 1021.19 M65.3095 1027.05 Q60.5033 1027.11 57.6388 1029.75 Q54.7742 1032.36 54.7742 1036.69 Q54.7742 1041.59 57.5433 1044.55 Q60.3124 1047.48 65.3413 1047.93 L65.3095 1027.05 Z" fill="#000000" fill-rule="evenodd" fill-opacity="1" /><path clip-path="url(#clip250)" d="M56.0792 967.401 L36.7911 967.401 L36.7911 961.544 L86.3163 961.544 L86.3163 967.401 L80.9691 967.401 Q84.1519 969.247 85.7115 972.079 Q87.2393 974.88 87.2393 978.827 Q87.2393 985.288 82.0831 989.362 Q76.9269 993.405 68.5241 993.405 Q60.1214 993.405 54.9652 989.362 Q49.809 985.288 49.809 978.827 Q49.809 974.88 51.3686 972.079 Q52.8963 969.247 56.0792 967.401 M68.5241 987.357 Q74.9853 987.357 78.6774 984.715 Q82.3377 982.042 82.3377 977.395 Q82.3377 972.748 78.6774 970.074 Q74.9853 967.401 68.5241 967.401 Q62.0629 967.401 58.4027 970.074 Q54.7106 972.748 54.7106 977.395 Q54.7106 982.042 58.4027 984.715 Q62.0629 987.357 68.5241 987.357 Z" fill="#000000" fill-rule="evenodd" fill-opacity="1" /><path clip-path="url(#clip250)" d="M67.0282 918.989 L69.8928 918.989 L69.8928 945.916 Q75.9402 945.534 79.123 942.288 Q82.2741 939.01 82.2741 933.185 Q82.2741 929.811 81.4465 926.66 Q80.619 923.477 78.9639 920.358 L84.5021 920.358 Q85.8389 923.509 86.5391 926.819 Q87.2393 930.129 87.2393 933.535 Q87.2393 942.065 82.2741 947.062 Q77.3088 952.028 68.8424 952.028 Q60.0896 952.028 54.9652 947.317 Q49.809 942.574 49.809 934.554 Q49.809 927.36 54.4559 923.191 Q59.0711 918.989 67.0282 918.989 M65.3095 924.846 Q60.5033 924.91 57.6388 927.551 Q54.7742 930.161 54.7742 934.49 Q54.7742 939.392 57.5433 942.352 Q60.3124 945.28 65.3413 945.725 L65.3095 924.846 Z" fill="#000000" fill-rule="evenodd" fill-opacity="1" /><path clip-path="url(#clip250)" d="M64.8002 879.745 L86.3163 879.745 L86.3163 885.601 L64.9912 885.601 Q59.9304 885.601 57.416 887.575 Q54.9015 889.548 54.9015 893.495 Q54.9015 898.237 57.9252 900.975 Q60.9489 903.712 66.1688 903.712 L86.3163 903.712 L86.3163 909.6 L50.6683 909.6 L50.6683 903.712 L56.2065 903.712 Q52.9918 901.611 51.4004 898.778 Q49.809 895.914 49.809 892.19 Q49.809 886.047 53.6284 882.896 Q57.416 879.745 64.8002 879.745 Z" fill="#000000" fill-rule="evenodd" fill-opacity="1" /><path clip-path="url(#clip250)" d="M51.7187 845.338 L57.2568 845.338 Q55.9837 847.821 55.3471 850.494 Q54.7106 853.168 54.7106 856.033 Q54.7106 860.393 56.0473 862.589 Q57.3841 864.754 60.0577 864.754 Q62.0948 864.754 63.2724 863.194 Q64.4183 861.634 65.4686 856.924 L65.9142 854.919 Q67.251 848.68 69.7018 846.07 Q72.1208 843.429 76.4813 843.429 Q81.4465 843.429 84.3429 847.375 Q87.2393 851.29 87.2393 858.165 Q87.2393 861.03 86.6664 864.149 Q86.1253 867.236 85.0113 870.674 L78.9639 870.674 Q80.6508 867.427 81.5102 864.276 Q82.3377 861.125 82.3377 858.038 Q82.3377 853.9 80.9373 851.672 Q79.505 849.444 76.9269 849.444 Q74.5397 849.444 73.2666 851.067 Q71.9934 852.659 70.8158 858.102 L70.3384 860.139 Q69.1925 865.581 66.8372 868 Q64.4501 870.419 60.3124 870.419 Q55.2835 870.419 52.5462 866.854 Q49.809 863.29 49.809 856.733 Q49.809 853.486 50.2864 850.622 Q50.7638 847.757 51.7187 845.338 Z" fill="#000000" fill-rule="evenodd" fill-opacity="1" /><path clip-path="url(#clip250)" d="M50.6683 834.103 L50.6683 828.246 L86.3163 828.246 L86.3163 834.103 L50.6683 834.103 M36.7911 834.103 L36.7911 828.246 L44.2071 828.246 L44.2071 834.103 L36.7911 834.103 Z" fill="#000000" fill-rule="evenodd" fill-opacity="1" /><path clip-path="url(#clip250)" d="M40.5469 810.2 L50.6683 810.2 L50.6683 798.137 L55.2198 798.137 L55.2198 810.2 L74.5716 810.2 Q78.9321 810.2 80.1734 809.022 Q81.4147 807.812 81.4147 804.152 L81.4147 798.137 L86.3163 798.137 L86.3163 804.152 Q86.3163 810.932 83.8018 813.51 Q81.2555 816.088 74.5716 816.088 L55.2198 816.088 L55.2198 820.385 L50.6683 820.385 L50.6683 816.088 L40.5469 816.088 L40.5469 810.2 Z" fill="#000000" fill-rule="evenodd" fill-opacity="1" /><path clip-path="url(#clip250)" d="M89.6265 775.602 Q95.9922 778.085 97.9337 780.44 Q99.8752 782.795 99.8752 786.742 L99.8752 791.421 L94.9736 791.421 L94.9736 787.983 Q94.9736 785.564 93.8278 784.227 Q92.682 782.891 88.417 781.267 L85.7434 780.217 L50.6683 794.635 L50.6683 788.429 L78.5501 777.289 L50.6683 766.149 L50.6683 759.942 L89.6265 775.602 Z" fill="#000000" fill-rule="evenodd" fill-opacity="1" /><path clip-path="url(#clip250)" d="M1441.33 147.803 Q1444.13 142.78 1448.01 140.39 Q1451.9 138 1457.17 138 Q1464.26 138 1468.11 142.983 Q1471.95 147.925 1471.95 157.08 L1471.95 184.464 L1464.46 184.464 L1464.46 157.323 Q1464.46 150.801 1462.15 147.641 Q1459.84 144.482 1455.1 144.482 Q1449.31 144.482 1445.95 148.33 Q1442.59 152.178 1442.59 158.822 L1442.59 184.464 L1435.09 184.464 L1435.09 157.323 Q1435.09 150.76 1432.78 147.641 Q1430.47 144.482 1425.65 144.482 Q1419.94 144.482 1416.58 148.37 Q1413.22 152.219 1413.22 158.822 L1413.22 184.464 L1405.72 184.464 L1405.72 139.094 L1413.22 139.094 L1413.22 146.142 Q1415.77 141.97 1419.33 139.985 Q1422.9 138 1427.8 138 Q1432.74 138 1436.19 140.512 Q1439.67 143.023 1441.33 147.803 Z" fill="#000000" fill-rule="evenodd" fill-opacity="1" /><path clip-path="url(#clip250)" d="M1507.44 161.657 Q1498.41 161.657 1494.92 163.723 Q1491.44 165.789 1491.44 170.772 Q1491.44 174.742 1494.03 177.091 Q1496.67 179.4 1501.16 179.4 Q1507.36 179.4 1511.09 175.025 Q1514.85 170.61 1514.85 163.318 L1514.85 161.657 L1507.44 161.657 M1522.31 158.579 L1522.31 184.464 L1514.85 184.464 L1514.85 177.577 Q1512.3 181.709 1508.49 183.694 Q1504.69 185.639 1499.18 185.639 Q1492.21 185.639 1488.08 181.75 Q1483.99 177.821 1483.99 171.258 Q1483.99 163.602 1489.09 159.713 Q1494.23 155.824 1504.4 155.824 L1514.85 155.824 L1514.85 155.095 Q1514.85 149.95 1511.45 147.155 Q1508.09 144.32 1501.97 144.32 Q1498.08 144.32 1494.4 145.251 Q1490.71 146.183 1487.31 148.046 L1487.31 141.16 Q1491.4 139.58 1495.25 138.81 Q1499.1 138 1502.74 138 Q1512.59 138 1517.45 143.104 Q1522.31 148.208 1522.31 158.579 Z" fill="#000000" fill-rule="evenodd" fill-opacity="1" /><path clip-path="url(#clip250)" d="M1575.37 139.094 L1558.97 161.171 L1576.23 184.464 L1567.43 184.464 L1554.23 166.64 L1541.02 184.464 L1532.23 184.464 L1549.85 160.726 L1533.73 139.094 L1542.52 139.094 L1554.55 155.257 L1566.58 139.094 L1575.37 139.094 Z" fill="#000000" fill-rule="evenodd" fill-opacity="1" /><path clip-path="url(#clip250)" d="M1587.81 174.175 L1596.36 174.175 L1596.36 184.464 L1587.81 184.464 L1587.81 174.175 Z" fill="#000000" fill-rule="evenodd" fill-opacity="1" /><path clip-path="url(#clip250)" d="M1639.82 123.984 L1648.01 123.984 L1648.01 177.577 L1677.46 177.577 L1677.46 184.464 L1639.82 184.464 L1639.82 123.984 Z" fill="#000000" fill-rule="evenodd" fill-opacity="1" /><path clip-path="url(#clip250)" d="M1706.34 161.657 Q1697.31 161.657 1693.82 163.723 Q1690.34 165.789 1690.34 170.772 Q1690.34 174.742 1692.93 177.091 Q1695.56 179.4 1700.06 179.4 Q1706.26 179.4 1709.99 175.025 Q1713.75 170.61 1713.75 163.318 L1713.75 161.657 L1706.34 161.657 M1721.21 158.579 L1721.21 184.464 L1713.75 184.464 L1713.75 177.577 Q1711.2 181.709 1707.39 183.694 Q1703.59 185.639 1698.08 185.639 Q1691.11 185.639 1686.98 181.75 Q1682.89 177.821 1682.89 171.258 Q1682.89 163.602 1687.99 159.713 Q1693.13 155.824 1703.3 155.824 L1713.75 155.824 L1713.75 155.095 Q1713.75 149.95 1710.35 147.155 Q1706.99 144.32 1700.87 144.32 Q1696.98 144.32 1693.3 145.251 Q1689.61 146.183 1686.21 148.046 L1686.21 141.16 Q1690.3 139.58 1694.15 138.81 Q1698 138 1701.64 138 Q1711.48 138 1716.35 143.104 Q1721.21 148.208 1721.21 158.579 Z" fill="#000000" fill-rule="evenodd" fill-opacity="1" /><path clip-path="url(#clip250)" d="M1762.85 146.061 Q1761.59 145.332 1760.1 145.008 Q1758.64 144.644 1756.85 144.644 Q1750.54 144.644 1747.13 148.776 Q1743.77 152.867 1743.77 160.564 L1743.77 184.464 L1736.28 184.464 L1736.28 139.094 L1743.77 139.094 L1743.77 146.142 Q1746.12 142.011 1749.89 140.026 Q1753.65 138 1759.04 138 Q1759.81 138 1760.74 138.122 Q1761.68 138.203 1762.81 138.405 L1762.85 146.061 Z" fill="#000000" fill-rule="evenodd" fill-opacity="1" /><path clip-path="url(#clip250)" d="M1765.32 139.094 L1773.22 139.094 L1787.4 177.172 L1801.58 139.094 L1809.48 139.094 L1792.46 184.464 L1782.34 184.464 L1765.32 139.094 Z" fill="#000000" fill-rule="evenodd" fill-opacity="1" /><path clip-path="url(#clip250)" d="M1840.38 161.657 Q1831.35 161.657 1827.87 163.723 Q1824.38 165.789 1824.38 170.772 Q1824.38 174.742 1826.98 177.091 Q1829.61 179.4 1834.11 179.4 Q1840.3 179.4 1844.03 175.025 Q1847.8 170.61 1847.8 163.318 L1847.8 161.657 L1840.38 161.657 M1855.25 158.579 L1855.25 184.464 L1847.8 184.464 L1847.8 177.577 Q1845.25 181.709 1841.44 183.694 Q1837.63 185.639 1832.12 185.639 Q1825.15 185.639 1821.02 181.75 Q1816.93 177.821 1816.93 171.258 Q1816.93 163.602 1822.03 159.713 Q1827.18 155.824 1837.35 155.824 L1847.8 155.824 L1847.8 155.095 Q1847.8 149.95 1844.39 147.155 Q1841.03 144.32 1834.92 144.32 Q1831.03 144.32 1827.34 145.251 Q1823.65 146.183 1820.25 148.046 L1820.25 141.16 Q1824.34 139.58 1828.19 138.81 Q1832.04 138 1835.69 138 Q1845.53 138 1850.39 143.104 Q1855.25 148.208 1855.25 158.579 Z" fill="#000000" fill-rule="evenodd" fill-opacity="1" /><path clip-path="url(#clip250)" d="M1909.41 159.916 L1909.41 163.561 L1875.14 163.561 Q1875.63 171.258 1879.76 175.309 Q1883.93 179.319 1891.34 179.319 Q1895.64 179.319 1899.65 178.266 Q1903.7 177.213 1907.67 175.106 L1907.67 182.155 Q1903.66 183.856 1899.45 184.748 Q1895.23 185.639 1890.9 185.639 Q1880.04 185.639 1873.68 179.319 Q1867.36 173 1867.36 162.225 Q1867.36 151.085 1873.36 144.563 Q1879.39 138 1889.6 138 Q1898.76 138 1904.06 143.914 Q1909.41 149.788 1909.41 159.916 M1901.96 157.728 Q1901.88 151.611 1898.51 147.965 Q1895.19 144.32 1889.68 144.32 Q1883.45 144.32 1879.68 147.844 Q1875.95 151.368 1875.38 157.769 L1901.96 157.728 Z" fill="#000000" fill-rule="evenodd" fill-opacity="1" /><path clip-path="url(#clip250)" d="M1968.64 161.657 Q1959.6 161.657 1956.12 163.723 Q1952.64 165.789 1952.64 170.772 Q1952.64 174.742 1955.23 177.091 Q1957.86 179.4 1962.36 179.4 Q1968.56 179.4 1972.28 175.025 Q1976.05 170.61 1976.05 163.318 L1976.05 161.657 L1968.64 161.657 M1983.5 158.579 L1983.5 184.464 L1976.05 184.464 L1976.05 177.577 Q1973.5 181.709 1969.69 183.694 Q1965.88 185.639 1960.37 185.639 Q1953.4 185.639 1949.27 181.75 Q1945.18 177.821 1945.18 171.258 Q1945.18 163.602 1950.29 159.713 Q1955.43 155.824 1965.6 155.824 L1976.05 155.824 L1976.05 155.095 Q1976.05 149.95 1972.65 147.155 Q1969.28 144.32 1963.17 144.32 Q1959.28 144.32 1955.59 145.251 Q1951.91 146.183 1948.5 148.046 L1948.5 141.16 Q1952.59 139.58 1956.44 138.81 Q1960.29 138 1963.94 138 Q1973.78 138 1978.64 143.104 Q1983.5 148.208 1983.5 158.579 Z" fill="#000000" fill-rule="evenodd" fill-opacity="1" /><path clip-path="url(#clip250)" d="M2006.23 126.212 L2006.23 139.094 L2021.58 139.094 L2021.58 144.887 L2006.23 144.887 L2006.23 169.516 Q2006.23 175.066 2007.73 176.646 Q2009.27 178.226 2013.93 178.226 L2021.58 178.226 L2021.58 184.464 L2013.93 184.464 Q2005.3 184.464 2002.02 181.264 Q1998.73 178.023 1998.73 169.516 L1998.73 144.887 L1993.27 144.887 L1993.27 139.094 L1998.73 139.094 L1998.73 126.212 L2006.23 126.212 Z" fill="#000000" fill-rule="evenodd" fill-opacity="1" /><path clip-path="url(#clip250)" d="M2096.56 159.916 L2096.56 163.561 L2062.29 163.561 Q2062.78 171.258 2066.91 175.309 Q2071.08 179.319 2078.5 179.319 Q2082.79 179.319 2086.8 178.266 Q2090.85 177.213 2094.82 175.106 L2094.82 182.155 Q2090.81 183.856 2086.6 184.748 Q2082.39 185.639 2078.05 185.639 Q2067.19 185.639 2060.83 179.319 Q2054.52 173 2054.52 162.225 Q2054.52 151.085 2060.51 144.563 Q2066.55 138 2076.75 138 Q2085.91 138 2091.22 143.914 Q2096.56 149.788 2096.56 159.916 M2089.11 157.728 Q2089.03 151.611 2085.67 147.965 Q2082.34 144.32 2076.84 144.32 Q2070.6 144.32 2066.83 147.844 Q2063.1 151.368 2062.54 157.769 L2089.11 157.728 Z" fill="#000000" fill-rule="evenodd" fill-opacity="1" /><path clip-path="url(#clip250)" d="M2146.51 157.08 L2146.51 184.464 L2139.06 184.464 L2139.06 157.323 Q2139.06 150.882 2136.55 147.682 Q2134.03 144.482 2129.01 144.482 Q2122.98 144.482 2119.49 148.33 Q2116.01 152.178 2116.01 158.822 L2116.01 184.464 L2108.51 184.464 L2108.51 139.094 L2116.01 139.094 L2116.01 146.142 Q2118.68 142.051 2122.29 140.026 Q2125.93 138 2130.67 138 Q2138.49 138 2142.5 142.861 Q2146.51 147.682 2146.51 157.08 Z" fill="#000000" fill-rule="evenodd" fill-opacity="1" /><path clip-path="url(#clip250)" d="M2191.23 145.98 L2191.23 121.432 L2198.69 121.432 L2198.69 184.464 L2191.23 184.464 L2191.23 177.658 Q2188.88 181.709 2185.28 183.694 Q2181.71 185.639 2176.69 185.639 Q2168.47 185.639 2163.28 179.076 Q2158.14 172.514 2158.14 161.819 Q2158.14 151.125 2163.28 144.563 Q2168.47 138 2176.69 138 Q2181.71 138 2185.28 139.985 Q2188.88 141.93 2191.23 145.98 M2165.83 161.819 Q2165.83 170.043 2169.2 174.742 Q2172.6 179.4 2178.51 179.4 Q2184.43 179.4 2187.83 174.742 Q2191.23 170.043 2191.23 161.819 Q2191.23 153.596 2187.83 148.938 Q2184.43 144.239 2178.51 144.239 Q2172.6 144.239 2169.2 148.938 Q2165.83 153.596 2165.83 161.819 Z" fill="#000000" fill-rule="evenodd" fill-opacity="1" /><path clip-path="url(#clip250)" d="M2257.99 144.32 Q2252 144.32 2248.51 149.019 Q2245.03 153.677 2245.03 161.819 Q2245.03 169.962 2248.47 174.661 Q2251.96 179.319 2257.99 179.319 Q2263.95 179.319 2267.43 174.62 Q2270.91 169.921 2270.91 161.819 Q2270.91 153.758 2267.43 149.059 Q2263.95 144.32 2257.99 144.32 M2257.99 138 Q2267.71 138 2273.26 144.32 Q2278.81 150.639 2278.81 161.819 Q2278.81 172.959 2273.26 179.319 Q2267.71 185.639 2257.99 185.639 Q2248.23 185.639 2242.68 179.319 Q2237.17 172.959 2237.17 161.819 Q2237.17 150.639 2242.68 144.32 Q2248.23 138 2257.99 138 Z" fill="#000000" fill-rule="evenodd" fill-opacity="1" /><path clip-path="url(#clip250)" d="M2314.14 121.432 L2314.14 127.63 L2307.01 127.63 Q2303 127.63 2301.42 129.25 Q2299.88 130.871 2299.88 135.083 L2299.88 139.094 L2312.15 139.094 L2312.15 144.887 L2299.88 144.887 L2299.88 184.464 L2292.38 184.464 L2292.38 144.887 L2285.25 144.887 L2285.25 139.094 L2292.38 139.094 L2292.38 135.934 Q2292.38 128.359 2295.91 124.916 Q2299.43 121.432 2307.09 121.432 L2314.14 121.432 Z" fill="#000000" fill-rule="evenodd" fill-opacity="1" /><path clip-path="url(#clip250)" d="M2353.96 177.658 L2353.96 201.721 L2346.46 201.721 L2346.46 139.094 L2353.96 139.094 L2353.96 145.98 Q2356.31 141.93 2359.87 139.985 Q2363.48 138 2368.46 138 Q2376.72 138 2381.87 144.563 Q2387.05 151.125 2387.05 161.819 Q2387.05 172.514 2381.87 179.076 Q2376.72 185.639 2368.46 185.639 Q2363.48 185.639 2359.87 183.694 Q2356.31 181.709 2353.96 177.658 M2379.32 161.819 Q2379.32 153.596 2375.91 148.938 Q2372.55 144.239 2366.64 144.239 Q2360.72 144.239 2357.32 148.938 Q2353.96 153.596 2353.96 161.819 Q2353.96 170.043 2357.32 174.742 Q2360.72 179.4 2366.64 179.4 Q2372.55 179.4 2375.91 174.742 Q2379.32 170.043 2379.32 161.819 Z" fill="#000000" fill-rule="evenodd" fill-opacity="1" /><path clip-path="url(#clip250)" d="M2425.7 146.061 Q2424.44 145.332 2422.95 145.008 Q2421.49 144.644 2419.7 144.644 Q2413.38 144.644 2409.98 148.776 Q2406.62 152.867 2406.62 160.564 L2406.62 184.464 L2399.13 184.464 L2399.13 139.094 L2406.62 139.094 L2406.62 146.142 Q2408.97 142.011 2412.74 140.026 Q2416.5 138 2421.89 138 Q2422.66 138 2423.59 138.122 Q2424.52 138.203 2425.66 138.405 L2425.7 146.061 Z" fill="#000000" fill-rule="evenodd" fill-opacity="1" /><path clip-path="url(#clip250)" d="M2449.28 144.32 Q2443.28 144.32 2439.8 149.019 Q2436.31 153.677 2436.31 161.819 Q2436.31 169.962 2439.76 174.661 Q2443.24 179.319 2449.28 179.319 Q2455.23 179.319 2458.71 174.62 Q2462.2 169.921 2462.2 161.819 Q2462.2 153.758 2458.71 149.059 Q2455.23 144.32 2449.28 144.32 M2449.28 138 Q2459 138 2464.55 144.32 Q2470.1 150.639 2470.1 161.819 Q2470.1 172.959 2464.55 179.319 Q2459 185.639 2449.28 185.639 Q2439.51 185.639 2433.96 179.319 Q2428.45 172.959 2428.45 161.819 Q2428.45 150.639 2433.96 144.32 Q2439.51 138 2449.28 138 Z" fill="#000000" fill-rule="evenodd" fill-opacity="1" /><path clip-path="url(#clip250)" d="M2512.31 161.252 Q2512.31 153.151 2508.95 148.695 Q2505.62 144.239 2499.59 144.239 Q2493.59 144.239 2490.23 148.695 Q2486.91 153.151 2486.91 161.252 Q2486.91 169.314 2490.23 173.77 Q2493.59 178.226 2499.59 178.226 Q2505.62 178.226 2508.95 173.77 Q2512.31 169.314 2512.31 161.252 M2519.76 178.833 Q2519.76 190.419 2514.62 196.05 Q2509.47 201.721 2498.86 201.721 Q2494.93 201.721 2491.45 201.113 Q2487.96 200.546 2484.68 199.331 L2484.68 192.08 Q2487.96 193.862 2491.16 194.713 Q2494.36 195.563 2497.68 195.563 Q2505.02 195.563 2508.66 191.715 Q2512.31 187.907 2512.31 180.17 L2512.31 176.484 Q2510 180.494 2506.39 182.479 Q2502.79 184.464 2497.77 184.464 Q2489.42 184.464 2484.32 178.104 Q2479.21 171.744 2479.21 161.252 Q2479.21 150.72 2484.32 144.36 Q2489.42 138 2497.77 138 Q2502.79 138 2506.39 139.985 Q2510 141.97 2512.31 145.98 L2512.31 139.094 L2519.76 139.094 L2519.76 178.833 Z" fill="#000000" fill-rule="evenodd" fill-opacity="1" /><path clip-path="url(#clip250)" d="M2561.4 146.061 Q2560.15 145.332 2558.65 145.008 Q2557.19 144.644 2555.41 144.644 Q2549.09 144.644 2545.69 148.776 Q2542.33 152.867 2542.33 160.564 L2542.33 184.464 L2534.83 184.464 L2534.83 139.094 L2542.33 139.094 L2542.33 146.142 Q2544.67 142.011 2548.44 140.026 Q2552.21 138 2557.6 138 Q2558.37 138 2559.3 138.122 Q2560.23 138.203 2561.36 138.405 L2561.4 146.061 Z" fill="#000000" fill-rule="evenodd" fill-opacity="1" /><path clip-path="url(#clip250)" d="M2589.84 161.657 Q2580.81 161.657 2577.32 163.723 Q2573.84 165.789 2573.84 170.772 Q2573.84 174.742 2576.43 177.091 Q2579.07 179.4 2583.56 179.4 Q2589.76 179.4 2593.49 175.025 Q2597.26 170.61 2597.26 163.318 L2597.26 161.657 L2589.84 161.657 M2604.71 158.579 L2604.71 184.464 L2597.26 184.464 L2597.26 177.577 Q2594.7 181.709 2590.9 183.694 Q2587.09 185.639 2581.58 185.639 Q2574.61 185.639 2570.48 181.75 Q2566.39 177.821 2566.39 171.258 Q2566.39 163.602 2571.49 159.713 Q2576.64 155.824 2586.8 155.824 L2597.26 155.824 L2597.26 155.095 Q2597.26 149.95 2593.85 147.155 Q2590.49 144.32 2584.37 144.32 Q2580.48 144.32 2576.8 145.251 Q2573.11 146.183 2569.71 148.046 L2569.71 141.16 Q2573.8 139.58 2577.65 138.81 Q2581.5 138 2585.14 138 Q2594.99 138 2599.85 143.104 Q2604.71 148.208 2604.71 158.579 Z" fill="#000000" fill-rule="evenodd" fill-opacity="1" /><path clip-path="url(#clip250)" d="M2655.39 147.803 Q2658.18 142.78 2662.07 140.39 Q2665.96 138 2671.22 138 Q2678.31 138 2682.16 142.983 Q2686.01 147.925 2686.01 157.08 L2686.01 184.464 L2678.52 184.464 L2678.52 157.323 Q2678.52 150.801 2676.21 147.641 Q2673.9 144.482 2669.16 144.482 Q2663.37 144.482 2660 148.33 Q2656.64 152.178 2656.64 158.822 L2656.64 184.464 L2649.15 184.464 L2649.15 157.323 Q2649.15 150.76 2646.84 147.641 Q2644.53 144.482 2639.71 144.482 Q2634 144.482 2630.63 148.37 Q2627.27 152.219 2627.27 158.822 L2627.27 184.464 L2619.78 184.464 L2619.78 139.094 L2627.27 139.094 L2627.27 146.142 Q2629.82 141.97 2633.39 139.985 Q2636.95 138 2641.86 138 Q2646.8 138 2650.24 140.512 Q2653.73 143.023 2655.39 147.803 Z" fill="#000000" fill-rule="evenodd" fill-opacity="1" /><polyline clip-path="url(#clip253)" style="stroke:#009af9; stroke-linecap:round; stroke-linejoin:round; stroke-width:8; stroke-opacity:1; fill:none" points="
  424.338,335.134 467.705,344.538 511.072,354.47 554.439,365.013 597.806,376.293 641.172,388.473 684.539,401.771 727.906,416.476 771.273,432.979 814.64,451.81 
  858.007,473.705 901.374,499.692 944.741,531.217 988.108,570.305 1031.47,619.714 1074.84,682.924 1118.21,763.526 1161.58,863.344 1204.94,979.249 1248.31,1101.33 
  1291.68,1216.26 1335.04,1314.05 1378.41,1391.42 1421.78,1450.01 1465.14,1493.55 1508.51,1526.01 1551.88,1550.41 1595.24,1568.98 1638.61,1583.33 1681.98,1594.59 
  1725.35,1603.56 1768.71,1610.81 1812.08,1616.75 1855.45,1621.67 1898.81,1625.79 1942.18,1629.28 1985.55,1632.26 2028.91,1634.83 2072.28,1637.06 2115.65,1639.01 
  2159.01,1640.73 2202.38,1642.25 2245.75,1643.6 2289.12,1644.82 2332.48,1645.91 2375.85,1646.89 2419.22,1647.78 2462.58,1648.59 2505.95,1649.34 2549.32,1650.02 
  2592.68,1650.64 2636.05,1651.22 2679.42,1651.75 2722.78,1652.25 2766.15,1652.71 2809.52,1653.13 2852.88,1653.53 2896.25,1653.9 2939.62,1654.25 2982.99,1654.58 
  3026.35,1654.89 3069.72,1655.18 3113.09,1655.45 3156.45,1655.71 3199.82,1655.96 3243.19,1656.19 3286.55,1656.41 3329.92,1656.62 3373.29,1656.82 3416.65,1657 
  3460.02,1657.18 3503.39,1657.36 3546.76,1657.52 3590.12,1657.68 3633.49,1657.83 
  "/>
<polyline clip-path="url(#clip253)" style="stroke:#e26f46; stroke-linecap:round; stroke-linejoin:round; stroke-width:8; stroke-opacity:1; fill:none" points="
  424.338,335.138 467.705,344.435 511.072,354.154 554.439,364.34 597.806,375.059 641.172,386.394 684.539,398.448 727.906,411.345 771.273,425.239 814.64,440.32 
  858.007,456.82 901.374,475.03 944.741,495.31 988.108,518.102 1031.47,543.956 1074.84,573.536 1118.21,607.627 1161.58,647.118 1204.94,692.929 1248.31,745.864 
  1291.68,806.349 1335.04,874.086 1378.41,947.72 1421.78,1024.76 1465.14,1101.89 1508.51,1175.72 1551.88,1243.5 1595.24,1303.56 1638.61,1355.32 1681.98,1398.75 
  1725.35,1435.11 1768.71,1465.38 1812.08,1490.53 1855.45,1511.46 1898.81,1528.93 1942.18,1543.6 1985.55,1555.97 2028.91,1566.48 2072.28,1575.45 2115.65,1583.16 
  2159.01,1589.83 2202.38,1595.63 2245.75,1600.71 2289.12,1605.17 2332.48,1609.11 2375.85,1612.62 2419.22,1615.75 2462.58,1618.55 2505.95,1621.08 2549.32,1623.36 
  2592.68,1625.42 2636.05,1627.3 2679.42,1629.02 2722.78,1630.59 2766.15,1632.04 2809.52,1633.37 2852.88,1634.59 2896.25,1635.73 2939.62,1636.78 2982.99,1637.76 
  3026.35,1638.67 3069.72,1639.52 3113.09,1640.32 3156.45,1641.06 3199.82,1641.76 3243.19,1642.42 3286.55,1643.04 3329.92,1643.63 3373.29,1644.18 3416.65,1644.7 
  3460.02,1645.19 3503.39,1645.66 3546.76,1646.1 3590.12,1646.53 3633.49,1646.93 
  "/>
<polyline clip-path="url(#clip253)" style="stroke:#3da44d; stroke-linecap:round; stroke-linejoin:round; stroke-width:8; stroke-opacity:1; fill:none" points="
  424.338,335.128 467.705,344.298 511.072,353.769 554.439,363.561 597.806,373.7 641.172,384.217 684.539,395.148 727.906,406.534 771.273,418.418 814.64,430.852 
  858.007,443.891 901.374,457.597 944.741,472.04 988.108,487.296 1031.47,503.447 1074.84,520.584 1118.21,538.805 1161.58,558.213 1204.94,578.916 1248.31,601.026 
  1291.68,624.651 1335.04,649.893 1378.41,676.841 1421.78,705.563 1465.14,736.093 1508.51,768.421 1551.88,802.484 1595.24,838.153 1638.61,875.229 1681.98,913.44 
  1725.35,952.449 1768.71,991.866 1812.08,1031.27 1855.45,1070.23 1898.81,1108.34 1942.18,1145.22 1985.55,1180.45 2028.91,1213.14 2072.28,1243.93 2115.65,1272.74 
  2159.01,1299.56 2202.38,1324.39 2245.75,1347.31 2289.12,1368.4 2332.48,1387.76 2375.85,1405.5 2419.22,1421.75 2462.58,1436.61 2505.95,1450.22 2549.32,1462.68 
  2592.68,1474.08 2636.05,1484.54 2679.42,1494.13 2722.78,1502.94 2766.15,1511.05 2809.52,1518.51 2852.88,1525.39 2896.25,1531.75 2939.62,1537.63 2982.99,1543.07 
  3026.35,1548.12 3069.72,1552.82 3113.09,1557.18 3156.45,1561.25 3199.82,1565.05 3243.19,1568.59 3286.55,1571.91 3329.92,1575.03 3373.29,1577.95 3416.65,1580.69 
  3460.02,1583.27 3503.39,1585.7 3546.76,1587.99 3590.12,1590.15 3633.49,1592.2 
  "/>
<polyline clip-path="url(#clip253)" style="stroke:#c271d2; stroke-linecap:round; stroke-linejoin:round; stroke-width:8; stroke-opacity:1; fill:none" points="
  424.338,335.125 467.705,344.213 511.072,353.532 554.439,363.094 597.806,372.91 641.172,382.993 684.539,393.359 727.906,404.022 771.273,414.999 814.64,426.307 
  858.007,437.964 901.374,449.989 944.741,462.4 988.108,475.218 1031.47,488.461 1074.84,502.15 1118.21,516.305 1161.58,530.944 1204.94,546.086 1248.31,561.748 
  1291.68,577.945 1335.04,594.691 1378.41,611.995 1421.78,629.864 1465.14,648.301 1508.51,667.304 1551.88,686.866 1595.24,706.972 1638.61,727.602 1681.98,748.729 
  1725.35,770.319 1768.71,792.328 1812.08,814.708 1855.45,837.402 1898.81,860.347 1942.18,883.475 1985.55,906.713 2028.91,929.986 2072.28,953.215 2115.65,975.949 
  2159.01,998.268 2202.38,1020.28 2245.75,1041.92 2289.12,1063.16 2332.48,1083.92 2375.85,1104.17 2419.22,1123.88 2462.58,1143 2505.95,1161.52 2549.32,1179.41 
  2592.68,1196.67 2636.05,1213.29 2679.42,1229.27 2722.78,1244.6 2766.15,1259.31 2809.52,1273.4 2852.88,1286.88 2896.25,1299.77 2939.62,1312.08 2982.99,1323.84 
  3026.35,1335.07 3069.72,1345.77 3113.09,1355.99 3156.45,1365.73 3199.82,1375.02 3243.19,1383.88 3286.55,1392.33 3329.92,1400.39 3373.29,1408.08 3416.65,1415.41 
  3460.02,1422.41 3503.39,1429.08 3546.76,1435.46 3590.12,1441.55 3633.49,1447.36 
  "/>
<polyline clip-path="url(#clip253)" style="stroke:#ac8d18; stroke-linecap:round; stroke-linejoin:round; stroke-width:8; stroke-opacity:1; fill:none" points="
  424.338,335.169 467.705,344.238 511.072,353.502 554.439,362.969 597.806,372.642 641.172,382.528 684.539,392.632 727.906,402.959 771.273,413.514 814.64,424.302 
  858.007,435.329 901.374,446.598 944.741,458.114 988.108,469.88 1031.47,481.899 1074.84,494.174 1118.21,506.705 1161.58,519.494 1204.94,532.54 1248.31,545.841 
  1291.68,559.394 1335.04,573.197 1378.41,587.242 1421.78,601.525 1465.14,616.035 1508.51,630.765 1551.88,645.703 1595.24,660.835 1638.61,676.149 1681.98,691.627 
  1725.35,707.255 1768.71,723.012 1812.08,738.88 1855.45,754.838 1898.81,770.865 1942.18,786.939 1985.55,803.036 2028.91,819.135 2072.28,835.206 2115.65,851.199 
  2159.01,867.122 2202.38,882.953 2245.75,898.669 2289.12,914.251 2332.48,929.678 2375.85,944.931 2419.22,959.993 2462.58,974.847 2505.95,989.479 2549.32,1003.87 
  2592.68,1018.02 2636.05,1031.91 2679.42,1045.53 2722.78,1058.88 2766.15,1071.94 2809.52,1084.71 2852.88,1097.2 2896.25,1109.38 2939.62,1121.28 2982.99,1132.87 
  3026.35,1144.18 3069.72,1155.18 3113.09,1165.9 3156.45,1176.32 3199.82,1186.46 3243.19,1196.31 3286.55,1205.89 3329.92,1215.2 3373.29,1224.24 3416.65,1233.01 
  3460.02,1241.53 3503.39,1249.8 3546.76,1257.83 3590.12,1265.61 3633.49,1273.17 
  "/>
<path clip-path="url(#clip250)" d="
M3132.94 653.22 L3616.37 653.22 L3616.37 342.18 L3132.94 342.18  Z
  " fill="#ffffff" fill-rule="evenodd" fill-opacity="1"/>
<polyline clip-path="url(#clip250)" style="stroke:#000000; stroke-linecap:round; stroke-linejoin:round; stroke-width:4; stroke-opacity:1; fill:none" points="
  3132.94,653.22 3616.37,653.22 3616.37,342.18 3132.94,342.18 3132.94,653.22 
  "/>
<polyline clip-path="url(#clip250)" style="stroke:#009af9; stroke-linecap:round; stroke-linejoin:round; stroke-width:8; stroke-opacity:1; fill:none" points="
  3170.73,394.02 3397.51,394.02 
  "/>
<path clip-path="url(#clip250)" d="M3467.94 378.147 Q3467.94 378.592 3467.84 378.966 L3466.53 387.305 Q3466.46 387.937 3466.32 388.171 Q3466.2 388.406 3465.83 388.406 Q3465.24 388.406 3465.24 387.797 Q3465.24 387.445 3465.38 386.883 Q3465.78 384.236 3465.78 383.042 Q3465.78 382.246 3465.62 381.66 Q3465.48 381.051 3465.24 380.629 Q3465.03 380.208 3464.54 379.927 Q3464.05 379.646 3463.58 379.482 Q3463.11 379.318 3462.27 379.247 Q3461.43 379.154 3460.7 379.13 Q3459.97 379.107 3458.78 379.107 Q3456.18 379.107 3455.76 379.201 Q3455.31 379.318 3455.08 379.669 Q3454.87 379.997 3454.63 380.981 L3448.26 406.441 L3448.07 407.448 Q3448.07 408.01 3448.43 408.198 Q3448.78 408.385 3449.86 408.502 Q3451.4 408.619 3452.92 408.619 Q3452.97 408.619 3453.06 408.619 Q3453.58 408.619 3453.79 408.643 Q3454 408.643 3454.21 408.69 Q3454.42 408.736 3454.47 408.853 Q3454.54 408.947 3454.54 409.135 Q3454.54 409.58 3454.35 409.814 Q3454.16 410.025 3453.98 410.071 Q3453.81 410.095 3453.49 410.095 Q3452.83 410.095 3451.42 410.048 Q3450.02 410.001 3449.32 410.001 L3445.33 409.954 L3441.26 410.001 Q3440.63 410.001 3439.29 410.048 Q3437.96 410.095 3437.32 410.095 Q3436.5 410.095 3436.5 409.509 Q3436.5 408.853 3436.81 408.736 Q3437.14 408.619 3438.52 408.619 Q3440.46 408.619 3441.52 408.526 Q3442.57 408.432 3443.13 408.104 Q3443.72 407.776 3443.88 407.448 Q3444.05 407.097 3444.23 406.3 L3450.67 380.7 Q3450.86 380.138 3450.86 379.693 Q3450.86 379.458 3450.79 379.365 Q3450.75 379.271 3450.44 379.201 Q3450.14 379.107 3449.5 379.107 L3447.63 379.107 Q3445.71 379.107 3444.51 379.201 Q3443.34 379.271 3442.22 379.622 Q3441.12 379.974 3440.46 380.465 Q3439.83 380.957 3439.13 381.964 Q3438.42 382.972 3437.91 384.19 Q3437.42 385.408 3436.72 387.399 Q3436.48 388.054 3436.34 388.242 Q3436.22 388.406 3435.9 388.406 Q3435.66 388.406 3435.47 388.265 Q3435.31 388.101 3435.31 387.89 Q3435.54 387.117 3435.59 387.024 L3438.47 378.568 Q3438.71 377.889 3438.92 377.772 Q3439.15 377.631 3440.02 377.631 L3466.63 377.631 Q3467.05 377.631 3467.19 377.631 Q3467.33 377.631 3467.56 377.678 Q3467.8 377.725 3467.87 377.842 Q3467.94 377.959 3467.94 378.147 Z" fill="#000000" fill-rule="evenodd" fill-opacity="1" /><path clip-path="url(#clip250)" d="M3476.36 402.81 Q3476.4 402.225 3477.32 402.225 L3506.71 402.225 Q3508.09 402.225 3508.12 402.764 Q3508.12 403.349 3506.81 403.326 L3477.64 403.326 Q3476.36 403.349 3476.36 402.81 M3476.36 393.441 Q3476.36 392.856 3477.36 392.879 L3506.66 392.879 Q3508.09 392.879 3508.12 393.441 Q3508.12 393.98 3506.9 393.98 L3477.32 393.98 Q3476.36 393.98 3476.36 393.441 Z" fill="#000000" fill-rule="evenodd" fill-opacity="1" /><path clip-path="url(#clip250)" d="M3527.28 406.16 L3534.92 406.16 L3534.92 379.794 L3526.61 381.461 L3526.61 377.202 L3534.87 375.535 L3539.55 375.535 L3539.55 406.16 L3547.19 406.16 L3547.19 410.095 L3527.28 410.095 L3527.28 406.16 Z" fill="#000000" fill-rule="evenodd" fill-opacity="1" /><polyline clip-path="url(#clip250)" style="stroke:#e26f46; stroke-linecap:round; stroke-linejoin:round; stroke-width:8; stroke-opacity:1; fill:none" points="
  3170.73,445.86 3397.51,445.86 
  "/>
<path clip-path="url(#clip250)" d="M3467.94 429.987 Q3467.94 430.432 3467.84 430.806 L3466.53 439.145 Q3466.46 439.777 3466.32 440.011 Q3466.2 440.246 3465.83 440.246 Q3465.24 440.246 3465.24 439.637 Q3465.24 439.285 3465.38 438.723 Q3465.78 436.076 3465.78 434.882 Q3465.78 434.086 3465.62 433.5 Q3465.48 432.891 3465.24 432.469 Q3465.03 432.048 3464.54 431.767 Q3464.05 431.486 3463.58 431.322 Q3463.11 431.158 3462.27 431.087 Q3461.43 430.994 3460.7 430.97 Q3459.97 430.947 3458.78 430.947 Q3456.18 430.947 3455.76 431.041 Q3455.31 431.158 3455.08 431.509 Q3454.87 431.837 3454.63 432.821 L3448.26 458.281 L3448.07 459.288 Q3448.07 459.85 3448.43 460.038 Q3448.78 460.225 3449.86 460.342 Q3451.4 460.459 3452.92 460.459 Q3452.97 460.459 3453.06 460.459 Q3453.58 460.459 3453.79 460.483 Q3454 460.483 3454.21 460.53 Q3454.42 460.576 3454.47 460.693 Q3454.54 460.787 3454.54 460.975 Q3454.54 461.42 3454.35 461.654 Q3454.16 461.865 3453.98 461.911 Q3453.81 461.935 3453.49 461.935 Q3452.83 461.935 3451.42 461.888 Q3450.02 461.841 3449.32 461.841 L3445.33 461.794 L3441.26 461.841 Q3440.63 461.841 3439.29 461.888 Q3437.96 461.935 3437.32 461.935 Q3436.5 461.935 3436.5 461.349 Q3436.5 460.693 3436.81 460.576 Q3437.14 460.459 3438.52 460.459 Q3440.46 460.459 3441.52 460.366 Q3442.57 460.272 3443.13 459.944 Q3443.72 459.616 3443.88 459.288 Q3444.05 458.937 3444.23 458.14 L3450.67 432.54 Q3450.86 431.978 3450.86 431.533 Q3450.86 431.298 3450.79 431.205 Q3450.75 431.111 3450.44 431.041 Q3450.14 430.947 3449.5 430.947 L3447.63 430.947 Q3445.71 430.947 3444.51 431.041 Q3443.34 431.111 3442.22 431.462 Q3441.12 431.814 3440.46 432.305 Q3439.83 432.797 3439.13 433.804 Q3438.42 434.812 3437.91 436.03 Q3437.42 437.248 3436.72 439.239 Q3436.48 439.894 3436.34 440.082 Q3436.22 440.246 3435.9 440.246 Q3435.66 440.246 3435.47 440.105 Q3435.31 439.941 3435.31 439.73 Q3435.54 438.957 3435.59 438.864 L3438.47 430.408 Q3438.71 429.729 3438.92 429.612 Q3439.15 429.471 3440.02 429.471 L3466.63 429.471 Q3467.05 429.471 3467.19 429.471 Q3467.33 429.471 3467.56 429.518 Q3467.8 429.565 3467.87 429.682 Q3467.94 429.799 3467.94 429.987 Z" fill="#000000" fill-rule="evenodd" fill-opacity="1" /><path clip-path="url(#clip250)" d="M3476.36 454.65 Q3476.4 454.065 3477.32 454.065 L3506.71 454.065 Q3508.09 454.065 3508.12 454.604 Q3508.12 455.189 3506.81 455.166 L3477.64 455.166 Q3476.36 455.189 3476.36 454.65 M3476.36 445.281 Q3476.36 444.696 3477.36 444.719 L3506.66 444.719 Q3508.09 444.719 3508.12 445.281 Q3508.12 445.82 3506.9 445.82 L3477.32 445.82 Q3476.36 445.82 3476.36 445.281 Z" fill="#000000" fill-rule="evenodd" fill-opacity="1" /><path clip-path="url(#clip250)" d="M3542.21 431.449 L3530.41 449.898 L3542.21 449.898 L3542.21 431.449 M3540.98 427.375 L3546.86 427.375 L3546.86 449.898 L3551.79 449.898 L3551.79 453.787 L3546.86 453.787 L3546.86 461.935 L3542.21 461.935 L3542.21 453.787 L3526.61 453.787 L3526.61 449.273 L3540.98 427.375 Z" fill="#000000" fill-rule="evenodd" fill-opacity="1" /><polyline clip-path="url(#clip250)" style="stroke:#3da44d; stroke-linecap:round; stroke-linejoin:round; stroke-width:8; stroke-opacity:1; fill:none" points="
  3170.73,497.7 3397.51,497.7 
  "/>
<path clip-path="url(#clip250)" d="M3467.94 481.827 Q3467.94 482.272 3467.84 482.646 L3466.53 490.985 Q3466.46 491.617 3466.32 491.851 Q3466.2 492.086 3465.83 492.086 Q3465.24 492.086 3465.24 491.477 Q3465.24 491.125 3465.38 490.563 Q3465.78 487.916 3465.78 486.722 Q3465.78 485.926 3465.62 485.34 Q3465.48 484.731 3465.24 484.309 Q3465.03 483.888 3464.54 483.607 Q3464.05 483.326 3463.58 483.162 Q3463.11 482.998 3462.27 482.927 Q3461.43 482.834 3460.7 482.81 Q3459.97 482.787 3458.78 482.787 Q3456.18 482.787 3455.76 482.881 Q3455.31 482.998 3455.08 483.349 Q3454.87 483.677 3454.63 484.661 L3448.26 510.121 L3448.07 511.128 Q3448.07 511.69 3448.43 511.878 Q3448.78 512.065 3449.86 512.182 Q3451.4 512.299 3452.92 512.299 Q3452.97 512.299 3453.06 512.299 Q3453.58 512.299 3453.79 512.323 Q3454 512.323 3454.21 512.37 Q3454.42 512.416 3454.47 512.533 Q3454.54 512.627 3454.54 512.815 Q3454.54 513.26 3454.35 513.494 Q3454.16 513.705 3453.98 513.751 Q3453.81 513.775 3453.49 513.775 Q3452.83 513.775 3451.42 513.728 Q3450.02 513.681 3449.32 513.681 L3445.33 513.634 L3441.26 513.681 Q3440.63 513.681 3439.29 513.728 Q3437.96 513.775 3437.32 513.775 Q3436.5 513.775 3436.5 513.189 Q3436.5 512.533 3436.81 512.416 Q3437.14 512.299 3438.52 512.299 Q3440.46 512.299 3441.52 512.206 Q3442.57 512.112 3443.13 511.784 Q3443.72 511.456 3443.88 511.128 Q3444.05 510.777 3444.23 509.98 L3450.67 484.38 Q3450.86 483.818 3450.86 483.373 Q3450.86 483.138 3450.79 483.045 Q3450.75 482.951 3450.44 482.881 Q3450.14 482.787 3449.5 482.787 L3447.63 482.787 Q3445.71 482.787 3444.51 482.881 Q3443.34 482.951 3442.22 483.302 Q3441.12 483.654 3440.46 484.145 Q3439.83 484.637 3439.13 485.644 Q3438.42 486.652 3437.91 487.87 Q3437.42 489.088 3436.72 491.079 Q3436.48 491.734 3436.34 491.922 Q3436.22 492.086 3435.9 492.086 Q3435.66 492.086 3435.47 491.945 Q3435.31 491.781 3435.31 491.57 Q3435.54 490.797 3435.59 490.704 L3438.47 482.248 Q3438.71 481.569 3438.92 481.452 Q3439.15 481.311 3440.02 481.311 L3466.63 481.311 Q3467.05 481.311 3467.19 481.311 Q3467.33 481.311 3467.56 481.358 Q3467.8 481.405 3467.87 481.522 Q3467.94 481.639 3467.94 481.827 Z" fill="#000000" fill-rule="evenodd" fill-opacity="1" /><path clip-path="url(#clip250)" d="M3476.36 506.49 Q3476.4 505.905 3477.32 505.905 L3506.71 505.905 Q3508.09 505.905 3508.12 506.444 Q3508.12 507.029 3506.81 507.006 L3477.64 507.006 Q3476.36 507.029 3476.36 506.49 M3476.36 497.121 Q3476.36 496.536 3477.36 496.559 L3506.66 496.559 Q3508.09 496.559 3508.12 497.121 Q3508.12 497.66 3506.9 497.66 L3477.32 497.66 Q3476.36 497.66 3476.36 497.121 Z" fill="#000000" fill-rule="evenodd" fill-opacity="1" /><path clip-path="url(#clip250)" d="M3526.61 479.215 L3548.83 479.215 L3548.83 481.206 L3536.29 513.775 L3531.4 513.775 L3543.21 483.15 L3526.61 483.15 L3526.61 479.215 Z" fill="#000000" fill-rule="evenodd" fill-opacity="1" /><polyline clip-path="url(#clip250)" style="stroke:#c271d2; stroke-linecap:round; stroke-linejoin:round; stroke-width:8; stroke-opacity:1; fill:none" points="
  3170.73,549.54 3397.51,549.54 
  "/>
<path clip-path="url(#clip250)" d="M3467.94 533.667 Q3467.94 534.112 3467.84 534.486 L3466.53 542.825 Q3466.46 543.457 3466.32 543.691 Q3466.2 543.926 3465.83 543.926 Q3465.24 543.926 3465.24 543.317 Q3465.24 542.965 3465.38 542.403 Q3465.78 539.756 3465.78 538.562 Q3465.78 537.766 3465.62 537.18 Q3465.48 536.571 3465.24 536.149 Q3465.03 535.728 3464.54 535.447 Q3464.05 535.166 3463.58 535.002 Q3463.11 534.838 3462.27 534.767 Q3461.43 534.674 3460.7 534.65 Q3459.97 534.627 3458.78 534.627 Q3456.18 534.627 3455.76 534.721 Q3455.31 534.838 3455.08 535.189 Q3454.87 535.517 3454.63 536.501 L3448.26 561.961 L3448.07 562.968 Q3448.07 563.53 3448.43 563.718 Q3448.78 563.905 3449.86 564.022 Q3451.4 564.139 3452.92 564.139 Q3452.97 564.139 3453.06 564.139 Q3453.58 564.139 3453.79 564.163 Q3454 564.163 3454.21 564.21 Q3454.42 564.256 3454.47 564.373 Q3454.54 564.467 3454.54 564.655 Q3454.54 565.1 3454.35 565.334 Q3454.16 565.545 3453.98 565.591 Q3453.81 565.615 3453.49 565.615 Q3452.83 565.615 3451.42 565.568 Q3450.02 565.521 3449.32 565.521 L3445.33 565.474 L3441.26 565.521 Q3440.63 565.521 3439.29 565.568 Q3437.96 565.615 3437.32 565.615 Q3436.5 565.615 3436.5 565.029 Q3436.5 564.373 3436.81 564.256 Q3437.14 564.139 3438.52 564.139 Q3440.46 564.139 3441.52 564.046 Q3442.57 563.952 3443.13 563.624 Q3443.72 563.296 3443.88 562.968 Q3444.05 562.617 3444.23 561.82 L3450.67 536.22 Q3450.86 535.658 3450.86 535.213 Q3450.86 534.978 3450.79 534.885 Q3450.75 534.791 3450.44 534.721 Q3450.14 534.627 3449.5 534.627 L3447.63 534.627 Q3445.71 534.627 3444.51 534.721 Q3443.34 534.791 3442.22 535.142 Q3441.12 535.494 3440.46 535.985 Q3439.83 536.477 3439.13 537.484 Q3438.42 538.492 3437.91 539.71 Q3437.42 540.928 3436.72 542.919 Q3436.48 543.574 3436.34 543.762 Q3436.22 543.926 3435.9 543.926 Q3435.66 543.926 3435.47 543.785 Q3435.31 543.621 3435.31 543.41 Q3435.54 542.637 3435.59 542.544 L3438.47 534.088 Q3438.71 533.409 3438.92 533.292 Q3439.15 533.151 3440.02 533.151 L3466.63 533.151 Q3467.05 533.151 3467.19 533.151 Q3467.33 533.151 3467.56 533.198 Q3467.8 533.245 3467.87 533.362 Q3467.94 533.479 3467.94 533.667 Z" fill="#000000" fill-rule="evenodd" fill-opacity="1" /><path clip-path="url(#clip250)" d="M3476.36 558.33 Q3476.4 557.745 3477.32 557.745 L3506.71 557.745 Q3508.09 557.745 3508.12 558.284 Q3508.12 558.869 3506.81 558.846 L3477.64 558.846 Q3476.36 558.869 3476.36 558.33 M3476.36 548.961 Q3476.36 548.376 3477.36 548.399 L3506.66 548.399 Q3508.09 548.399 3508.12 548.961 Q3508.12 549.5 3506.9 549.5 L3477.32 549.5 Q3476.36 549.5 3476.36 548.961 Z" fill="#000000" fill-rule="evenodd" fill-opacity="1" /><path clip-path="url(#clip250)" d="M3527.28 561.68 L3534.92 561.68 L3534.92 535.314 L3526.61 536.981 L3526.61 532.722 L3534.87 531.055 L3539.55 531.055 L3539.55 561.68 L3547.19 561.68 L3547.19 565.615 L3527.28 565.615 L3527.28 561.68 Z" fill="#000000" fill-rule="evenodd" fill-opacity="1" /><path clip-path="url(#clip250)" d="M3566.63 534.134 Q3563.02 534.134 3561.19 537.698 Q3559.39 541.24 3559.39 548.37 Q3559.39 555.476 3561.19 559.041 Q3563.02 562.582 3566.63 562.582 Q3570.27 562.582 3572.07 559.041 Q3573.9 555.476 3573.9 548.37 Q3573.9 541.24 3572.07 537.698 Q3570.27 534.134 3566.63 534.134 M3566.63 530.43 Q3572.44 530.43 3575.5 535.036 Q3578.58 539.62 3578.58 548.37 Q3578.58 557.096 3575.5 561.703 Q3572.44 566.286 3566.63 566.286 Q3560.82 566.286 3557.74 561.703 Q3554.69 557.096 3554.69 548.37 Q3554.69 539.62 3557.74 535.036 Q3560.82 530.43 3566.63 530.43 Z" fill="#000000" fill-rule="evenodd" fill-opacity="1" /><polyline clip-path="url(#clip250)" style="stroke:#ac8d18; stroke-linecap:round; stroke-linejoin:round; stroke-width:8; stroke-opacity:1; fill:none" points="
  3170.73,601.38 3397.51,601.38 
  "/>
<path clip-path="url(#clip250)" d="M3467.94 585.507 Q3467.94 585.952 3467.84 586.326 L3466.53 594.665 Q3466.46 595.297 3466.32 595.531 Q3466.2 595.766 3465.83 595.766 Q3465.24 595.766 3465.24 595.157 Q3465.24 594.805 3465.38 594.243 Q3465.78 591.596 3465.78 590.402 Q3465.78 589.606 3465.62 589.02 Q3465.48 588.411 3465.24 587.989 Q3465.03 587.568 3464.54 587.287 Q3464.05 587.006 3463.58 586.842 Q3463.11 586.678 3462.27 586.607 Q3461.43 586.514 3460.7 586.49 Q3459.97 586.467 3458.78 586.467 Q3456.18 586.467 3455.76 586.561 Q3455.31 586.678 3455.08 587.029 Q3454.87 587.357 3454.63 588.341 L3448.26 613.801 L3448.07 614.808 Q3448.07 615.37 3448.43 615.558 Q3448.78 615.745 3449.86 615.862 Q3451.4 615.979 3452.92 615.979 Q3452.97 615.979 3453.06 615.979 Q3453.58 615.979 3453.79 616.003 Q3454 616.003 3454.21 616.05 Q3454.42 616.096 3454.47 616.213 Q3454.54 616.307 3454.54 616.495 Q3454.54 616.94 3454.35 617.174 Q3454.16 617.385 3453.98 617.431 Q3453.81 617.455 3453.49 617.455 Q3452.83 617.455 3451.42 617.408 Q3450.02 617.361 3449.32 617.361 L3445.33 617.314 L3441.26 617.361 Q3440.63 617.361 3439.29 617.408 Q3437.96 617.455 3437.32 617.455 Q3436.5 617.455 3436.5 616.869 Q3436.5 616.213 3436.81 616.096 Q3437.14 615.979 3438.52 615.979 Q3440.46 615.979 3441.52 615.886 Q3442.57 615.792 3443.13 615.464 Q3443.72 615.136 3443.88 614.808 Q3444.05 614.457 3444.23 613.66 L3450.67 588.06 Q3450.86 587.498 3450.86 587.053 Q3450.86 586.818 3450.79 586.725 Q3450.75 586.631 3450.44 586.561 Q3450.14 586.467 3449.5 586.467 L3447.63 586.467 Q3445.71 586.467 3444.51 586.561 Q3443.34 586.631 3442.22 586.982 Q3441.12 587.334 3440.46 587.825 Q3439.83 588.317 3439.13 589.324 Q3438.42 590.332 3437.91 591.55 Q3437.42 592.768 3436.72 594.759 Q3436.48 595.414 3436.34 595.602 Q3436.22 595.766 3435.9 595.766 Q3435.66 595.766 3435.47 595.625 Q3435.31 595.461 3435.31 595.25 Q3435.54 594.477 3435.59 594.384 L3438.47 585.928 Q3438.71 585.249 3438.92 585.132 Q3439.15 584.991 3440.02 584.991 L3466.63 584.991 Q3467.05 584.991 3467.19 584.991 Q3467.33 584.991 3467.56 585.038 Q3467.8 585.085 3467.87 585.202 Q3467.94 585.319 3467.94 585.507 Z" fill="#000000" fill-rule="evenodd" fill-opacity="1" /><path clip-path="url(#clip250)" d="M3476.36 610.17 Q3476.4 609.585 3477.32 609.585 L3506.71 609.585 Q3508.09 609.585 3508.12 610.124 Q3508.12 610.709 3506.81 610.686 L3477.64 610.686 Q3476.36 610.709 3476.36 610.17 M3476.36 600.801 Q3476.36 600.216 3477.36 600.239 L3506.66 600.239 Q3508.09 600.239 3508.12 600.801 Q3508.12 601.34 3506.9 601.34 L3477.32 601.34 Q3476.36 601.34 3476.36 600.801 Z" fill="#000000" fill-rule="evenodd" fill-opacity="1" /><path clip-path="url(#clip250)" d="M3527.28 613.52 L3534.92 613.52 L3534.92 587.154 L3526.61 588.821 L3526.61 584.562 L3534.87 582.895 L3539.55 582.895 L3539.55 613.52 L3547.19 613.52 L3547.19 617.455 L3527.28 617.455 L3527.28 613.52 Z" fill="#000000" fill-rule="evenodd" fill-opacity="1" /><path clip-path="url(#clip250)" d="M3570.8 598.821 Q3574.16 599.538 3576.03 601.807 Q3577.93 604.075 3577.93 607.409 Q3577.93 612.524 3574.41 615.325 Q3570.89 618.126 3564.41 618.126 Q3562.23 618.126 3559.92 617.686 Q3557.63 617.27 3555.17 616.413 L3555.17 611.899 Q3557.12 613.034 3559.43 613.612 Q3561.75 614.191 3564.27 614.191 Q3568.67 614.191 3570.96 612.455 Q3573.28 610.719 3573.28 607.409 Q3573.28 604.353 3571.12 602.64 Q3568.99 600.904 3565.17 600.904 L3561.15 600.904 L3561.15 597.061 L3565.36 597.061 Q3568.81 597.061 3570.64 595.696 Q3572.47 594.307 3572.47 591.714 Q3572.47 589.052 3570.57 587.64 Q3568.69 586.205 3565.17 586.205 Q3563.25 586.205 3561.05 586.622 Q3558.85 587.038 3556.22 587.918 L3556.22 583.751 Q3558.88 583.011 3561.19 582.64 Q3563.53 582.27 3565.59 582.27 Q3570.92 582.27 3574.02 584.7 Q3577.12 587.108 3577.12 591.228 Q3577.12 594.098 3575.48 596.089 Q3573.83 598.057 3570.8 598.821 Z" fill="#000000" fill-rule="evenodd" fill-opacity="1" /></svg>
